<svg width="120" height="155" viewBox="0 0 120 155" fill="none" xmlns="http://www.w3.org/2000/svg">
<g clip-path="url(#clip0_444_87)">
<path d="M57.9012 18.0411C74.0791 21.167 90.2589 24.2851 106.437 27.411L106.079 25.2404C96.0731 30.2622 87.1762 37.3943 80.107 46.0472C79.5782 46.6975 79.7469 47.8619 80.7056 48.0297C90.5638 49.706 100.416 51.3728 110.274 53.0491L109.676 51.0666C98.7733 60.2959 87.8692 69.5329 76.9668 78.7622C73.8341 81.4101 70.7091 84.0598 67.5764 86.7077C66.9111 87.2771 67.3212 88.5633 68.175 88.6902C76.3835 89.8655 84.5843 91.0389 92.7946 92.2065L92.7126 89.905C80.4902 94.4721 68.3928 99.3782 56.4436 104.629C44.458 109.895 32.6321 115.493 20.964 121.429C14.4055 124.765 7.90462 128.204 1.45952 131.754L2.95989 133.59C12.9188 123.186 22.8794 112.774 32.8383 102.369C33.4561 101.724 33.1256 100.586 32.2397 100.387C25.0643 98.8181 17.8871 97.2571 10.7118 95.6883L11.0699 97.859C22.7056 90.4563 33.6507 81.9869 43.7196 72.5785C46.5892 69.9015 49.3802 67.1408 52.1045 64.3156C52.7414 63.658 52.3785 62.5541 51.5059 62.3331C42.1318 59.9879 32.75 57.6408 23.3741 55.3033L23.9728 57.2858C34.7303 44.9415 45.4818 32.5877 56.2393 20.2434C59.2741 16.7574 62.3088 13.2714 65.3436 9.78541C66.3514 8.62797 64.6183 6.98256 63.6087 8.14773C52.8512 20.492 42.0996 32.8459 31.3421 45.1902C28.3073 48.6762 25.2726 52.1621 22.2379 55.6481C21.6438 56.3321 21.925 57.4006 22.8365 57.6306C32.2105 59.9759 41.5923 62.3229 50.9682 64.6604L50.3696 62.6779C40.9078 72.4977 30.5536 81.448 19.4358 89.3634C16.2833 91.6073 13.0695 93.7634 9.81003 95.8355C8.95495 96.3767 9.14091 97.7815 10.1682 98.0061C17.3435 99.5749 24.5207 101.136 31.6961 102.705L31.0975 100.722C21.1386 111.126 11.1779 121.538 1.21905 131.942C0.255252 132.947 1.54711 134.416 2.71941 133.778C14.0929 127.528 25.647 121.59 37.3589 115.99C49.0708 110.39 60.9866 105.107 73.0256 100.171C79.7784 97.4025 86.5792 94.7427 93.4125 92.1884C94.4247 91.8145 94.5966 90.0697 93.3305 89.8869C85.122 88.7116 76.9212 87.5382 68.7109 86.3706L69.3095 88.3531C80.2119 79.1238 91.116 69.8868 102.018 60.6575C105.151 58.0096 108.276 55.3599 111.409 52.712C112.091 52.1385 111.651 50.8777 110.81 50.7295C100.952 49.0532 91.0997 47.3864 81.2415 45.7101L81.8401 47.6926C88.8032 39.1778 97.4961 32.218 107.344 27.2734C108.272 26.8063 107.957 25.2897 106.986 25.1028C90.8084 21.9769 74.6287 18.8588 58.4508 15.7329C56.9473 15.4455 56.396 17.7615 57.9072 18.0507L57.9012 18.0411Z" fill="#F26522"/>
</g>
<defs>
<clipPath id="clip0_444_87">
<rect width="90" height="138" fill="white" transform="translate(31.5098) rotate(13.1992)"/>
</clipPath>
</defs>
</svg>
