<svg width="182" height="72" viewBox="0 0 182 72" fill="none" xmlns="http://www.w3.org/2000/svg">
<g clip-path="url(#clip0_371_267)">
<path d="M182 29.1857V5.14286C182 2.30143 179.706 0 176.873 0H51.9854C51.9854 3.76457 48.9426 6.81429 45.1924 6.81429C41.4422 6.81429 38.3994 3.762 38.3994 0H5.12676C2.29423 0 0 2.30143 0 5.14286V29.1857C3.75279 29.1857 6.79296 32.238 6.79296 36C6.79296 39.762 3.75023 42.8143 0 42.8143V66.8571C0 69.6986 2.29423 72 5.12676 72H38.3969C38.3969 68.2354 41.4396 65.1857 45.1898 65.1857C48.9401 65.1857 51.9828 68.238 51.9828 72H176.871C179.703 72 181.997 69.6986 181.997 66.8571V42.8143C178.245 42.8143 175.204 39.762 175.204 36C175.204 32.238 178.247 29.1857 181.997 29.1857H182Z" fill="#F26522"/>
<path d="M74 0V72" stroke="white" stroke-dasharray="2 2"/>
</g>
<defs>
<clipPath id="clip0_371_267">
<rect width="182" height="72" fill="white"/>
</clipPath>
</defs>
</svg>
