<svg width="117" height="36" viewBox="0 0 117 36" fill="none" xmlns="http://www.w3.org/2000/svg">
<g clip-path="url(#clip0_1239_6703)">
<path d="M46.6995 16.9975C46.6995 22.1443 50.2837 25.0036 53.7329 25.0036C56.227 25.0036 58.7886 23.6571 60.2567 20.9008C60.3242 20.7312 60.53 20.6648 60.665 20.7678L63.8071 22.7527C63.9083 22.8192 63.9792 22.9888 63.9083 23.0885C61.826 27.2944 57.8638 29.2793 53.9017 29.2793C47.9955 29.2793 42.0522 24.9404 42.0522 17.0008C42.0522 9.06126 47.9955 4.72241 53.9017 4.72241C57.8638 4.72241 61.8226 6.70731 63.9083 10.9132C63.9758 11.0129 63.9083 11.1825 63.8071 11.249L60.665 13.2339C60.53 13.3336 60.3242 13.2671 60.2567 13.1009C58.7886 10.3413 56.227 8.99808 53.7329 8.99808C50.2533 8.99143 46.6995 11.884 46.6995 16.9975Z" fill="white"/>
<path d="M65.7207 23.5574C65.7207 28.7041 70.2296 30.556 74.1209 28.099L76.5104 26.5862C76.75 26.4167 76.9559 26.553 76.9559 26.789V28.5046C76.9559 28.6376 77.0909 28.7739 77.2292 28.7739H81.1205C81.2555 28.7739 81.3939 28.6409 81.3939 28.5046V12.2232C81.3939 12.0902 81.2589 11.9539 81.1205 11.9539H77.2292C77.0942 11.9539 76.9559 12.0868 76.9559 12.2232V21.3065C76.9559 24.199 75.1132 25.5788 73.3346 25.5788C71.6943 25.5788 70.1587 24.7376 70.1587 22.1809V12.2232C70.1587 12.0902 70.0237 11.9539 69.8854 11.9539H65.9941C65.8591 11.9539 65.7207 12.0868 65.7207 12.2232V23.5574Z" fill="white"/>
<path d="M84.7416 28.7738H88.6363C88.7713 28.7738 88.9097 28.6408 88.9097 28.5045V5.49367C88.9097 5.36068 88.7747 5.22437 88.6363 5.22437H84.7416C84.6066 5.22437 84.4683 5.36068 84.4683 5.49367V28.5045C84.4683 28.6375 84.6066 28.7738 84.7416 28.7738Z" fill="white"/>
<path d="M104.343 14.4076V12.2199C104.343 12.0869 104.478 11.9506 104.617 11.9506H108.511C108.646 11.9506 108.785 12.0836 108.785 12.2199V35.2307C108.785 35.3637 108.65 35.5 108.511 35.5H104.617C104.482 35.5 104.343 35.367 104.343 35.2307V26.8888C104.343 26.6195 104.036 26.5198 103.83 26.7193C102.43 28.3351 100.483 29.1431 98.8119 29.1431C95.0556 29.1431 91.2993 26.2172 91.2993 20.4288C91.2993 15.3153 94.7823 11.5815 98.3664 11.5815C99.2203 11.5815 100.314 11.8508 101.336 12.6588L103.898 14.6104C104.104 14.7434 104.343 14.6437 104.343 14.4076ZM95.9095 20.3955C95.9095 23.0188 97.7859 25.1733 100.246 25.1733C102.227 25.1733 104.343 23.0886 104.343 20.2293C104.343 17.0342 102.123 15.3851 100.28 15.3851C98.0931 15.3851 95.9095 16.9976 95.9095 20.3955Z" fill="white"/>
<path d="M113.77 9.83262C115.305 9.83262 116.5 8.6889 116.5 7.07305C116.5 5.52703 115.305 4.3833 113.77 4.3833C112.163 4.3833 110.935 5.52703 110.935 7.07305C110.935 8.61908 112.163 9.83262 113.77 9.83262ZM111.788 28.7739H115.683C115.818 28.7739 115.956 28.6409 115.956 28.5046V12.2231C115.956 12.0902 115.821 11.9538 115.683 11.9538H111.788C111.653 11.9538 111.515 12.0868 111.515 12.2231V28.5046C111.515 28.6376 111.65 28.7739 111.788 28.7739Z" fill="white"/>
<path d="M46.6995 16.9975C46.6995 22.1443 50.2837 25.0036 53.7329 25.0036C56.227 25.0036 58.7886 23.6571 60.2567 20.9008C60.3242 20.7312 60.53 20.6648 60.665 20.7678L63.8071 22.7527C63.9083 22.8192 63.9792 22.9888 63.9083 23.0885C61.826 27.2944 57.8638 29.2793 53.9017 29.2793C47.9955 29.2793 42.0522 24.9404 42.0522 17.0008C42.0522 9.06126 47.9955 4.72241 53.9017 4.72241C57.8638 4.72241 61.8226 6.70731 63.9083 10.9132C63.9758 11.0129 63.9083 11.1825 63.8071 11.249L60.665 13.2339C60.53 13.3336 60.3242 13.2671 60.2567 13.1009C58.7886 10.3413 56.227 8.99808 53.7329 8.99808C50.2533 8.99143 46.6995 11.884 46.6995 16.9975Z" fill="white"/>
<path d="M65.7207 23.5574C65.7207 28.7041 70.2296 30.556 74.1209 28.099L76.5104 26.5862C76.75 26.4167 76.9559 26.553 76.9559 26.789V28.5046C76.9559 28.6376 77.0909 28.7739 77.2292 28.7739H81.1205C81.2555 28.7739 81.3939 28.6409 81.3939 28.5046V12.2232C81.3939 12.0902 81.2589 11.9539 81.1205 11.9539H77.2292C77.0942 11.9539 76.9559 12.0868 76.9559 12.2232V21.3065C76.9559 24.199 75.1132 25.5788 73.3346 25.5788C71.6943 25.5788 70.1587 24.7376 70.1587 22.1809V12.2232C70.1587 12.0902 70.0237 11.9539 69.8854 11.9539H65.9941C65.8591 11.9539 65.7207 12.0868 65.7207 12.2232V23.5574Z" fill="white"/>
<path d="M84.7416 28.7738H88.6363C88.7713 28.7738 88.9097 28.6408 88.9097 28.5045V5.49367C88.9097 5.36068 88.7747 5.22437 88.6363 5.22437H84.7416C84.6066 5.22437 84.4683 5.36068 84.4683 5.49367V28.5045C84.4683 28.6375 84.6066 28.7738 84.7416 28.7738Z" fill="white"/>
<path d="M104.343 14.4076V12.2199C104.343 12.0869 104.478 11.9506 104.617 11.9506H108.511C108.646 11.9506 108.785 12.0836 108.785 12.2199V35.2307C108.785 35.3637 108.65 35.5 108.511 35.5H104.617C104.482 35.5 104.343 35.367 104.343 35.2307V26.8888C104.343 26.6195 104.036 26.5198 103.83 26.7193C102.43 28.3351 100.483 29.1431 98.8119 29.1431C95.0556 29.1431 91.2993 26.2172 91.2993 20.4288C91.2993 15.3153 94.7823 11.5815 98.3664 11.5815C99.2203 11.5815 100.314 11.8508 101.336 12.6588L103.898 14.6104C104.104 14.7434 104.343 14.6437 104.343 14.4076ZM95.9095 20.3955C95.9095 23.0188 97.7859 25.1733 100.246 25.1733C102.227 25.1733 104.343 23.0886 104.343 20.2293C104.343 17.0342 102.123 15.3851 100.28 15.3851C98.0931 15.3851 95.9095 16.9976 95.9095 20.3955Z" fill="white"/>
<path d="M113.77 9.83262C115.305 9.83262 116.5 8.6889 116.5 7.07305C116.5 5.52703 115.305 4.3833 113.77 4.3833C112.163 4.3833 110.935 5.52703 110.935 7.07305C110.935 8.61908 112.163 9.83262 113.77 9.83262ZM111.788 28.7739H115.683C115.818 28.7739 115.956 28.6409 115.956 28.5046V12.2231C115.956 12.0902 115.821 11.9538 115.683 11.9538H111.788C111.653 11.9538 111.515 12.0868 111.515 12.2231V28.5046C111.515 28.6376 111.65 28.7739 111.788 28.7739Z" fill="white"/>
<path d="M28.6536 25.3029L18.549 15.3518L15.3867 18.261L25.5925 28.3185L31.988 34.6189L35.0491 31.6034L28.6536 25.3029Z" fill="#763383"/>
<path d="M32.9973 12.6554C31.1039 5.49715 24.5296 0.5 17.0136 0.5C11.7115 0.5 6.69639 3.03681 3.59819 7.28256C1.56986 10.0588 0.5 13.3403 0.5 16.7682C0.5 20.8577 2.02885 24.721 4.8098 27.7233C3.30457 26.051 2.46421 23.9663 2.46421 21.7055C2.46421 19.3249 3.38557 17.1538 4.89754 15.5214C5.11354 13.4467 5.86278 11.4751 7.10813 9.7695C9.39634 6.63423 13.0986 4.76237 17.0136 4.76237C22.562 4.76237 27.4118 8.44956 28.809 13.7326C29.0688 14.7168 29.2005 15.7408 29.2005 16.7715C29.2005 19.3349 28.3939 21.7786 26.865 23.8433L26.9899 23.6704L30.0813 26.7159C32.1535 23.9198 33.5271 20.2459 33.5271 16.7715C33.5271 15.3751 33.3483 13.992 32.9973 12.6554Z" fill="#EB6F25"/>
<path d="M5.24494 28.1822C5.09644 28.0326 4.95132 27.8797 4.80957 27.7234C4.95132 27.8797 5.09307 28.0326 5.24494 28.1822Z" fill="#00A19B"/>
<path d="M26.99 23.667L26.8652 23.8399C26.1058 24.8639 25.1912 25.7616 24.1483 26.5064C22.0626 27.9926 19.5955 28.7772 17.0137 28.7772C13.7231 28.7772 10.6385 27.5038 8.32662 25.1931C7.37152 24.2588 6.79103 23.032 6.79103 21.7087C6.79103 18.9857 9.03874 16.7714 11.8028 16.7714C13.1933 16.7714 14.4893 17.32 15.4444 18.3174L18.5864 15.3883C16.8315 13.5597 14.3576 12.509 11.8028 12.509C9.06911 12.509 6.6054 13.6727 4.89769 15.5246C3.38909 17.1604 2.46436 19.3315 2.46436 21.7087C2.46436 23.9696 3.30472 26.0542 4.80994 27.7266C4.95168 27.8795 5.09681 28.0358 5.2453 28.1854C8.37387 31.3173 12.5554 33.0396 17.0137 33.0396C20.5135 33.0396 23.8581 31.9756 26.6829 29.9608C27.9856 29.0299 29.1027 27.9726 30.0815 26.7158L26.99 23.667Z" fill="#00A19B"/>
</g>
<defs>
<clipPath id="clip0_1239_6703">
<rect width="116" height="35" fill="white" transform="translate(0.5 0.5)"/>
</clipPath>
</defs>
</svg>