<svg width="155" height="145" viewBox="0 0 155 145" fill="none" xmlns="http://www.w3.org/2000/svg">
<g clip-path="url(#clip0_444_90)">
<path d="M147.062 92.5824C135.015 103.378 121.302 112.239 106.573 118.898C91.8448 125.557 75.9079 130.024 59.7907 131.848C53.1181 132.6 45.6831 133.019 39.5334 129.811C33.3837 126.604 29.9498 119.739 29.9164 112.853C29.8831 105.967 33.3768 99.3778 38.3002 94.5697C44.0419 88.9522 51.5972 85.7372 59.3114 83.8876C61.3264 83.4098 63.3621 83.0093 65.4062 82.679C66.1198 82.5602 69.386 81.7679 68.9101 83.469C68.5714 84.6778 66.8802 85.5141 65.8476 85.9875C63.7584 86.9613 61.6267 87.8535 59.482 88.6973C51.9779 91.6398 43.9709 94.2511 35.9576 95.332C30.442 96.0748 23.9325 95.852 19.9283 91.4173C14.6262 85.5392 17.0862 76.9085 21.0021 71.0452C24.918 65.1819 30.7167 59.7769 36.2786 55.1497C42.2138 50.2154 48.6863 45.9343 55.512 42.3144C69.0771 35.139 84.1456 30.6769 99.4546 29.5461C102.866 29.2947 106.989 28.6868 110.194 30.1781C113.209 31.5755 114.229 34.8427 111.859 37.3204C109.673 39.5937 106.49 40.5811 103.561 41.4697C99.3757 42.736 95.0784 43.6597 90.7477 44.1886C86.417 44.7175 82.0994 44.8701 77.7756 44.6518C73.8743 44.4651 69.9598 43.9197 66.3025 42.5185C59.8644 40.0508 53.6255 33.4195 55.9589 26.0547C56.8894 23.1136 59.1036 20.6361 62.1347 19.855C64.0041 19.3748 63.2277 16.477 61.3583 16.9572C53.7261 18.9194 50.7679 27.9322 53.6355 34.7317C57.0663 42.8607 65.7293 46.3681 73.9422 47.3457C83.2 48.4368 92.8503 47.4764 101.836 45.0791C105.516 44.0929 109.457 43.037 112.535 40.6905C115.124 38.7233 116.975 35.7013 115.98 32.3754C114.774 28.34 110.581 26.6373 106.724 26.3456C102.615 26.0388 98.3321 26.5547 94.2533 27.0575C85.8341 28.0918 77.5513 30.0213 69.5581 32.8774C53.4682 38.6277 38.623 47.8647 26.5454 59.9732C21.0946 65.4402 15.4672 71.7932 14.1883 79.6934C13.5047 83.9038 14.0724 88.3793 16.558 91.9373C18.4893 94.7016 21.2338 96.6372 24.4287 97.6654C31.2111 99.8338 38.7308 98.1088 45.4112 96.3809C50.2152 95.1455 54.944 93.6299 59.5786 91.8394C61.8321 90.9768 64.0578 90.0491 66.2584 89.066C67.9509 88.3123 69.5939 87.489 70.7941 86.0183C71.7853 84.8106 72.3264 83.2369 71.656 81.7394C70.8978 80.0687 69.086 79.2186 67.3058 79.3747C62.8029 79.7634 58.1863 80.8865 53.894 82.2541C45.8258 84.83 38.2319 89.2149 33.0121 96.0073C28.2431 102.203 25.8773 109.949 27.4487 117.707C29.0116 125.394 34.3185 131.561 41.8225 133.95C49.3266 136.339 57.897 135.213 65.6616 134.053C74.4644 132.751 83.1741 130.676 91.6415 127.889C108.646 122.308 124.745 113.926 138.999 103.098C142.507 100.429 145.91 97.6327 149.191 94.6933C150.627 93.4078 148.498 91.2969 147.062 92.5824Z" fill="#F26522"/>
</g>
<defs>
<clipPath id="clip0_444_90">
<rect width="129" height="115.25" fill="white" transform="translate(154.434 111.323) rotate(165)"/>
</clipPath>
</defs>
</svg>
