<svg width="34" height="34" viewBox="0 0 34 34" fill="none" xmlns="http://www.w3.org/2000/svg">
<path d="M17 0C7.62624 0 0 7.62624 0 17C0 26.3738 7.62624 34 17 34C26.3738 34 34 26.3738 34 17C34 7.62624 26.3738 0 17 0ZM21.2277 17.5985H18.462C18.462 22.0173 18.462 27.4577 18.462 27.4577H14.3637C14.3637 27.4577 14.3637 22.07 14.3637 17.5985H12.4155V14.1144H14.3637V11.8608C14.3637 10.2468 15.1306 7.72485 18.4996 7.72485L21.5352 7.73649V11.1185C21.5352 11.1185 19.6898 11.1185 19.3309 11.1185C18.9721 11.1185 18.4627 11.298 18.4627 12.0676V14.1151H21.5852L21.2277 17.5985Z" fill="#CBDB3A"/>
</svg>
