<svg width="34" height="34" viewBox="0 0 34 34" fill="none" xmlns="http://www.w3.org/2000/svg">
<path d="M16.8614 20.1786C18.5407 20.1786 19.902 18.8173 19.902 17.138C19.902 15.4587 18.5407 14.0974 16.8614 14.0974C15.1821 14.0974 13.8208 15.4587 13.8208 17.138C13.8208 18.8173 15.1821 20.1786 16.8614 20.1786Z" fill="#CBDB3A"/>
<path d="M20.6625 9.67456H13.061C11.9553 9.67456 10.9878 10.0201 10.3659 10.642C9.74396 11.264 9.39844 12.2314 9.39844 13.3371V20.9386C9.39844 22.0443 9.74396 23.0118 10.435 23.7028C11.1261 24.3248 12.0244 24.6703 13.1301 24.6703H20.6625C21.7682 24.6703 22.7357 24.3248 23.3576 23.7028C24.0486 23.0809 24.3942 22.1134 24.3942 21.0077V13.4062C24.3942 12.3005 24.0486 11.4022 23.4267 10.7111C22.7357 10.0201 21.8373 9.67456 20.6625 9.67456ZM16.8618 21.837C14.2358 21.837 12.1626 19.6947 12.1626 17.1379C12.1626 14.5119 14.3049 12.4387 16.8618 12.4387C19.4186 12.4387 21.63 14.5119 21.63 17.1379C21.63 19.7639 19.4877 21.837 16.8618 21.837ZM21.7682 13.3371C21.1462 13.3371 20.6625 12.8534 20.6625 12.2314C20.6625 11.6095 21.1462 11.1258 21.7682 11.1258C22.3901 11.1258 22.8739 11.6095 22.8739 12.2314C22.8739 12.8534 22.3901 13.3371 21.7682 13.3371Z" fill="#CBDB3A"/>
<path d="M16.9998 0C7.60152 0 0 7.60152 0 16.9998C0 26.398 7.60152 33.9995 16.9998 33.9995C26.398 33.9995 33.9995 26.398 33.9995 16.9998C34.0686 7.60152 26.398 0 16.9998 0ZM26.0525 21.0078C26.0525 22.5972 25.4997 23.9793 24.5322 24.9468C23.5647 25.9143 22.1826 26.398 20.6623 26.398H13.1299C11.6096 26.398 10.2275 25.9143 9.26004 24.9468C8.22347 23.9793 7.73973 22.5972 7.73973 21.0078V13.4063C7.73973 10.2275 9.88198 8.01615 13.1299 8.01615H20.7314C22.3208 8.01615 23.6338 8.56899 24.6013 9.53645C25.5688 10.5039 26.0525 11.8169 26.0525 13.4063V21.0078Z" fill="#CBDB3A"/>
</svg>
