<svg width="129" height="116" viewBox="0 0 129 116" fill="none" xmlns="http://www.w3.org/2000/svg">
<g clip-path="url(#clip0_334_1493)">
<path d="M2.27033 20.01C16.7003 12.7 32.2403 7.69 48.1903 5.07C64.1403 2.45 80.6903 2.26 96.7303 4.67C103.37 5.67 110.66 7.19 115.77 11.88C120.88 16.57 122.42 24.09 120.67 30.75C118.92 37.41 113.84 42.87 107.84 46.24C100.84 50.18 92.7103 51.33 84.7803 51.12C82.7103 51.06 80.6403 50.92 78.5803 50.71C77.8603 50.64 74.5003 50.56 75.4003 49.04C76.0403 47.96 77.8903 47.59 79.0103 47.4C81.2803 47 83.5703 46.69 85.8603 46.43C93.8703 45.53 102.28 45.08 110.3 46.11C115.82 46.82 122.05 48.72 124.77 54.04C128.37 61.09 123.76 68.79 118.46 73.44C113.16 78.09 106.16 81.81 99.5903 84.84C92.5803 88.07 85.2203 90.53 77.6903 92.26C62.7303 95.68 47.0203 96.09 31.9403 93.22C28.5803 92.58 24.4403 92.1 21.7303 89.83C19.1803 87.7 19.0403 84.28 21.9703 82.5C24.6703 80.87 28.0003 80.74 31.0603 80.64C35.4303 80.5 39.8203 80.72 44.1403 81.33C48.4603 81.94 52.6703 82.91 56.7903 84.24C60.5103 85.43 64.1503 86.97 67.3203 89.27C72.9003 93.32 77.2103 101.34 73.0503 107.85C71.3903 110.45 68.6103 112.27 65.4803 112.24C63.5503 112.22 63.5503 115.22 65.4803 115.24C73.3603 115.32 78.5503 107.38 77.5403 100.07C76.3303 91.33 68.8703 85.7 61.1903 82.63C52.5303 79.18 42.9603 77.61 33.6603 77.6C29.8503 77.6 25.7703 77.6 22.1903 79.07C19.1803 80.3 16.6103 82.74 16.7103 86.21C16.8303 90.42 20.4403 93.15 24.0903 94.43C27.9803 95.79 32.2503 96.4 36.3203 96.97C44.7203 98.15 53.2203 98.43 61.6803 97.74C78.7103 96.35 95.4403 91.27 110.24 82.7C116.92 78.83 124 74.15 127.28 66.85C129.03 62.96 129.64 58.49 128.16 54.41C127.01 51.24 124.86 48.66 122.04 46.84C116.05 42.99 108.34 42.71 101.44 42.65C96.4803 42.6 91.5203 42.84 86.5803 43.37C84.1803 43.62 81.7903 43.94 79.4103 44.32C77.5803 44.61 75.7803 44.98 74.2403 46.09C72.9703 47 72.0403 48.38 72.3003 50C72.6003 51.81 74.1303 53.1 75.8903 53.41C80.3403 54.2 85.0903 54.31 89.5903 54.1C98.0503 53.7 106.52 51.43 113.32 46.22C119.53 41.47 123.82 34.6 124.31 26.7C124.79 18.87 121.26 11.54 114.63 7.29C108 3.04 99.4303 1.91 91.6303 1.02C82.7903 -3.45707e-06 73.8403 -0.250003 64.9403 0.249997C47.0703 1.24 29.3503 5.17 12.7803 11.94C8.70033 13.61 4.69033 15.43 0.760332 17.42C-0.959668 18.29 0.550332 20.88 2.27033 20.01Z" fill="#CBDB3A"/>
</g>
<defs>
<clipPath id="clip0_334_1493">
<rect width="129" height="115.25" fill="white"/>
</clipPath>
</defs>
</svg>
