<svg width="163" height="155" viewBox="0 0 163 155" fill="none" xmlns="http://www.w3.org/2000/svg">
<g clip-path="url(#clip0_251_314)">
<path d="M152.822 89.4415C142.076 101.533 129.455 111.891 115.576 120.176C101.697 128.461 86.3689 134.705 70.5621 138.343C64.0178 139.846 56.6781 141.105 50.2045 138.615C43.7309 136.125 39.5413 129.693 38.7279 122.855C37.9145 116.017 40.6392 109.075 44.986 103.74C50.0542 97.5078 57.1966 93.4574 64.6515 90.7457C66.5994 90.0426 68.5766 89.414 70.5701 88.8542C71.2657 88.6554 74.4211 87.498 74.141 89.2421C73.9414 90.4816 72.3559 91.504 71.3835 92.0914C69.4182 93.2957 67.4013 94.4237 65.366 95.5051C58.2436 99.2789 50.5841 102.781 42.7449 104.763C37.3489 106.126 30.8561 106.642 26.3752 102.689C20.4413 97.4499 21.9075 88.596 25.1338 82.3267C28.3601 76.0575 33.509 70.0303 38.5108 64.8027C43.8486 59.2277 49.7944 54.2408 56.1659 49.8707C68.8306 41.2045 83.2965 35.0637 98.3788 32.2055C101.739 31.5692 105.767 30.4981 109.121 31.6165C112.274 32.6634 113.658 35.794 111.585 38.5242C109.67 41.0305 106.62 42.3723 103.809 43.5871C99.7949 45.3194 95.6299 46.7241 91.387 47.7403C87.1442 48.7565 82.8717 49.3974 78.5509 49.6704C74.6537 49.927 70.7025 49.8286 66.9101 48.8509C60.2338 47.1285 53.2837 41.2469 54.7675 33.6651C55.3588 30.6375 57.278 27.9251 60.2011 26.8055C62.0041 26.1166 60.9043 23.3255 59.1013 24.0144C51.7406 26.8288 49.8228 36.1187 53.4423 42.5495C57.7721 50.2374 66.7767 52.7406 75.0475 52.7813C84.3694 52.8164 93.8486 50.7687 102.505 47.3686C106.05 45.9719 109.846 44.4761 112.637 41.796C114.987 39.5482 116.483 36.3359 115.118 33.1442C113.463 29.2713 109.104 28.0548 105.239 28.202C101.121 28.3627 96.9246 29.3606 92.929 30.3223C84.6812 32.3039 76.6703 35.1595 69.0523 38.9029C53.7175 46.4394 40.0146 57.2989 29.3868 70.698C24.5906 76.7474 19.7192 83.6971 19.3438 91.6914C19.1417 95.9521 20.2129 100.335 23.0856 103.588C25.3176 106.116 28.2638 107.728 31.5546 108.387C38.539 109.773 45.8149 107.207 52.2565 104.734C56.8895 102.962 61.4162 100.92 65.818 98.616C67.9592 97.5035 70.0655 96.3296 72.1405 95.1036C73.7368 94.1629 75.2758 93.1588 76.3017 91.5615C77.1496 90.2493 77.509 88.6244 76.6732 87.2125C75.7305 85.6385 73.8341 84.9992 72.083 85.356C67.6532 86.2524 63.1936 87.8914 59.0839 89.7365C51.3595 93.2101 44.3114 98.4272 39.8948 105.767C35.8585 112.463 34.3858 120.428 36.826 127.957C39.2499 135.418 45.2214 140.944 52.9478 142.467C60.6743 143.991 69.0619 141.9 76.6451 139.869C85.2436 137.577 93.6621 134.529 101.759 130.801C118.022 123.328 133.068 113.176 146.002 100.803C149.186 97.7531 152.249 94.5898 155.176 91.2976C156.458 89.8576 154.103 88.0015 152.822 89.4415Z" fill="#CBDB3A"/>
</g>
<defs>
<clipPath id="clip0_251_314">
<rect width="129" height="115.25" fill="white" transform="translate(162.27 107.226) rotate(158.494)"/>
</clipPath>
</defs>
</svg>
