<svg width="54" height="73" viewBox="0 0 54 73" fill="none" xmlns="http://www.w3.org/2000/svg">
<g clip-path="url(#clip0_295_131)">
<path d="M53.7912 34.9626C49.8087 27.0046 46.4506 18.7509 43.7506 10.2795C42.9687 7.82403 42.2431 5.3574 41.5737 2.86845C41.36 2.07042 40.5387 1.54584 39.7231 1.66861C38.8569 1.79697 38.3225 2.46106 38.2606 3.31489C37.5012 13.2763 36.7475 23.2377 35.9881 33.1991L38.1256 31.5863C28.9794 28.4388 19.5406 26.2512 9.94436 24.9956C7.21061 24.6384 4.46561 24.3594 1.71498 24.1585C0.31436 24.058 -0.591265 26.1061 0.522485 27.0158C7.42998 32.6801 14.3375 38.3444 21.2394 44.0143L21.5825 41.3858C16.8406 43.752 12.0987 46.1182 7.35686 48.4844C6.09123 49.115 6.36124 51.2635 7.76186 51.5426C16.295 53.2614 24.8337 54.9858 33.3669 56.7046V53.4734C25.9587 56.3642 18.8994 60.0418 12.3462 64.5286C11.1762 65.3267 11.2831 67.1739 12.7512 67.5868C19.04 69.367 25.3344 71.1472 31.6231 72.9275C33.7156 73.519 34.61 70.2878 32.5231 69.6963C26.2344 67.9161 19.94 66.1359 13.6512 64.3556L14.0562 67.4138C20.3619 63.1056 27.1456 59.4782 34.2725 56.699C34.9756 56.4256 35.51 55.8787 35.51 55.0862C35.51 54.3887 34.9925 53.6185 34.2725 53.4734C25.7394 51.7546 17.2006 50.0302 8.66748 48.3114L9.07248 51.3696C13.8144 49.0034 18.5562 46.6372 23.2981 44.271C24.2094 43.819 24.4512 42.3066 23.6412 41.6425C16.7337 35.9782 9.82623 30.3139 2.92436 24.644L1.73186 27.5013C11.12 28.1877 20.4237 29.8228 29.4856 32.3787C32.0956 33.1154 34.6831 33.9246 37.2481 34.8063C38.3562 35.1858 39.3069 34.2036 39.3856 33.1935C40.145 23.2321 40.8987 13.2707 41.6581 3.30931L38.345 3.75576C40.7469 12.6178 43.8462 21.2733 47.5925 29.661C48.6444 32.016 49.7469 34.3431 50.9 36.6479C51.305 37.4571 52.4581 37.6803 53.2062 37.2506C54.0387 36.7707 54.2187 35.7717 53.8137 34.9626H53.7912Z" fill="#F26522"/>
</g>
<defs>
<clipPath id="clip0_295_131">
<rect width="54" height="73" fill="white"/>
</clipPath>
</defs>
</svg>
