<svg width="74" height="55" viewBox="0 0 74 55" fill="none" xmlns="http://www.w3.org/2000/svg">
<g clip-path="url(#clip0_133_229)">
<path d="M38.0378 54.1526C46.0334 50.2463 54.3189 46.9672 62.8156 44.3483C65.2785 43.5899 67.7519 42.8879 70.2472 42.2423C71.0472 42.0362 71.5796 41.22 71.4646 40.4033C71.3446 39.5358 70.6856 38.9951 69.8324 38.9251C59.8787 38.0706 49.925 37.2216 39.9713 36.3671L41.5636 38.5199C44.7983 29.4042 47.076 19.9868 48.4233 10.4029C48.8066 7.67273 49.1118 4.93052 49.339 2.18194C49.4528 0.782339 47.4135 -0.142817 46.4933 0.962189C40.7632 7.81524 35.0331 14.6683 29.2975 21.5157L31.9226 21.8839C29.6018 17.1196 27.2811 12.3554 24.9603 7.59108C24.3418 6.31949 22.1908 6.56895 21.8984 7.96684C20.0981 16.4832 18.2922 25.005 16.4919 33.5213L19.7229 33.5522C16.9031 26.1168 13.2931 19.0226 8.8691 12.4269C8.08229 11.2493 6.23417 11.3385 5.8072 12.8027C3.96696 19.0741 2.12667 25.3512 0.286444 31.6226C-0.325071 33.7094 2.8974 34.6346 3.50887 32.5535C5.3491 26.282 7.18939 20.0049 9.02962 13.7335L5.96771 14.1093C10.2155 20.4558 13.7779 27.2739 16.4888 34.427C16.7555 35.1327 17.2973 35.6723 18.0897 35.6798C18.7872 35.6865 19.5623 35.1764 19.7143 34.4578C21.5145 25.9415 23.3205 17.4196 25.1208 8.9033L22.0589 9.27906C24.3796 14.0433 26.7004 18.8076 29.0211 23.5719C29.4644 24.4874 30.9744 24.7437 31.6462 23.9401C37.3763 17.087 43.1064 10.234 48.842 3.38662L45.9962 2.16687C45.2201 11.548 43.4962 20.8357 40.8538 29.8727C40.0922 32.4756 39.2583 35.0552 38.3521 37.6117C37.9621 38.7161 38.9351 39.6761 39.9444 39.7645C49.8981 40.619 59.8518 41.4679 69.8055 42.3225L69.3907 39.0052C60.5062 41.3223 51.8214 44.3388 43.3983 48.0048C41.0334 49.0341 38.6958 50.1143 36.3801 51.2453C35.5671 51.6426 35.3329 52.7935 35.7554 53.5457C36.2274 54.3828 37.2245 54.5723 38.0376 54.1751L38.0378 54.1526Z" fill="#F26522"/>
</g>
<defs>
<clipPath id="clip0_133_229">
<rect width="54" height="73" fill="white" transform="translate(73.5127 0.697266) rotate(90.5476)"/>
</clipPath>
</defs>
</svg>
