<svg width="89" height="80" viewBox="0 0 89 80" fill="none" xmlns="http://www.w3.org/2000/svg">
<g clip-path="url(#clip0_251_311)">
<path d="M34.7067 64.716C43.5995 64.3877 52.5028 64.7503 61.3316 65.802C63.8904 66.1075 66.436 66.4688 68.9787 66.8906C69.7936 67.0266 70.6112 66.4964 70.8373 65.7032C71.0794 64.8616 70.6963 64.1001 69.9448 63.6901C61.1928 58.8726 52.4384 54.0602 43.6865 49.2427L44.2689 51.8562C50.9224 44.8354 56.8233 37.1507 61.9413 28.9366C63.3988 26.5964 64.7898 24.2136 66.1121 21.7933C66.7837 20.5601 65.2947 18.8874 64.0055 19.5243C55.9886 23.4649 47.9718 27.4055 39.9522 31.3387L42.2024 32.7398C42.0131 27.4438 41.8237 22.1477 41.6343 16.8516C41.5846 15.4385 39.5173 14.7942 38.6831 15.9535C33.584 23.008 28.4774 30.0654 23.3782 37.12L26.3192 38.4585C26.7568 30.5184 26.3338 22.5698 24.9646 14.7467C24.7229 13.3512 22.9974 12.6833 22.0133 13.8485C17.788 18.8349 13.5604 23.8264 9.33503 28.8128C7.92984 30.4723 10.5003 32.6248 11.9031 30.9705C16.1285 25.9841 20.3561 20.9925 24.5814 16.0061L21.6302 15.108C22.9394 22.6318 23.4309 30.3087 23.0082 37.9466C22.9658 38.6998 23.2422 39.4128 23.9635 39.741C24.5984 40.03 25.5137 39.878 25.944 39.2828C31.0432 32.2282 36.1497 25.1708 41.2489 18.1162L38.2977 17.218C38.487 22.5141 38.6764 27.8101 38.8658 33.1062C38.8997 34.1228 40.176 34.9695 41.116 34.5073C49.1328 30.5667 57.1496 26.6261 65.1692 22.6929L63.0626 20.4239C58.5489 28.6844 53.2068 36.475 47.1267 43.6641C45.3751 45.7345 43.5667 47.7544 41.7017 49.7237C40.8973 50.5751 41.3974 51.8472 42.2842 52.3373C51.0362 57.1548 59.7905 61.9672 68.5425 66.7847L69.5086 63.5843C60.4477 62.0994 51.2858 61.335 42.0998 61.2702C39.5206 61.2521 36.9458 61.2916 34.3704 61.3864C33.4661 61.4198 32.7853 62.3769 32.8665 63.2358C32.9585 64.1923 33.7931 64.7699 34.6974 64.7365L34.7067 64.716Z" fill="#F26522"/>
</g>
<defs>
<clipPath id="clip0_251_311">
<rect width="54" height="73" fill="white" transform="translate(88.811 30.2393) rotate(114.471)"/>
</clipPath>
</defs>
</svg>
