<svg width="30" height="30" viewBox="0 0 30 30" fill="none" xmlns="http://www.w3.org/2000/svg">
<path d="M21.4482 8.55467C20.9607 8.06707 20.6753 7.41342 20.649 6.72445C20.6227 6.03549 20.8575 5.36199 21.3064 4.83866C21.3435 4.79513 21.3628 4.73918 21.3604 4.68203C21.358 4.62487 21.3341 4.57073 21.2935 4.53045L18.7077 1.94178C18.665 1.89906 18.607 1.87506 18.5466 1.87506C18.4862 1.87506 18.4282 1.89906 18.3855 1.94178L14.264 6.06327C14.1119 6.21529 13.9974 6.40066 13.9294 6.60467C13.8617 6.80915 13.7473 6.99505 13.5953 7.14761C13.4432 7.30017 13.2577 7.4152 13.0534 7.48358C12.8493 7.5516 12.6638 7.66614 12.5114 7.81815L1.94172 18.3855C1.899 18.4283 1.875 18.4862 1.875 18.5467C1.875 18.6071 1.899 18.6651 1.94172 18.7078L4.52746 21.2935C4.56774 21.3342 4.62188 21.3581 4.67904 21.3605C4.73619 21.3629 4.79214 21.3436 4.83567 21.3064C5.35889 20.8571 6.03253 20.6219 6.72174 20.6481C7.41094 20.6742 8.06484 20.9597 8.55253 21.4474C9.04022 21.9351 9.32571 22.589 9.35185 23.2782C9.37798 23.9674 9.14283 24.641 8.69348 25.1642C8.65635 25.2078 8.63705 25.2637 8.63944 25.3209C8.64183 25.378 8.66574 25.4322 8.70637 25.4724L11.2921 28.0582C11.3349 28.1009 11.3928 28.1249 11.4532 28.1249C11.5137 28.1249 11.5716 28.1009 11.6144 28.0582L22.1847 17.4885C22.3367 17.3362 22.4512 17.1506 22.5193 16.9465C22.587 16.742 22.7014 16.5561 22.8534 16.4035C23.0055 16.251 23.191 16.1359 23.3952 16.0676C23.5992 15.9996 23.7846 15.8851 23.9366 15.733L28.0581 11.6115C28.1008 11.5688 28.1248 11.5108 28.1248 11.4504C28.1248 11.3899 28.1008 11.332 28.0581 11.2892L25.4724 8.7035C25.4321 8.66287 25.378 8.63896 25.3208 8.63657C25.2637 8.63418 25.2077 8.65349 25.1642 8.69061C24.6416 9.14024 23.9685 9.37603 23.2795 9.35083C22.5906 9.32562 21.9365 9.04129 21.4482 8.55467Z" stroke="white" stroke-width="1.5" stroke-miterlimit="10"/>
<path d="M14.6773 8.22892L13.71 7.26154" stroke="white" stroke-width="1.5" stroke-miterlimit="10" stroke-linecap="round"/>
<path d="M17.2574 10.8082L16.6123 10.1637" stroke="white" stroke-width="1.5" stroke-miterlimit="10" stroke-linecap="round"/>
<path d="M19.8359 13.3881L19.1914 12.743" stroke="white" stroke-width="1.5" stroke-miterlimit="10" stroke-linecap="round"/>
<path d="M22.7389 16.2896L21.7715 15.3223" stroke="white" stroke-width="1.5" stroke-miterlimit="10" stroke-linecap="round"/>
</svg>
