<svg width="34" height="34" viewBox="0 0 34 34" fill="none" xmlns="http://www.w3.org/2000/svg">
<g clip-path="url(#clip0_207_126)">
<path d="M17 0C7.61115 0 0 7.61115 0 17C0 26.3888 7.61115 34 17 34C26.3888 34 34 26.3888 34 17C34 7.61115 26.3888 0 17 0ZM25.6076 15.4316C23.8024 15.4316 22.0459 14.8458 20.6935 13.8545L20.6828 20.5947C20.6816 21.8436 20.2997 23.0625 19.5878 24.0887C18.8759 25.1149 17.868 25.8996 16.6986 26.3381C15.5291 26.7766 14.2538 26.848 13.0427 26.5428C11.8317 26.2376 10.7425 25.5703 9.92048 24.63C9.0985 23.6897 8.58284 22.5211 8.44231 21.2801C8.30177 20.0391 8.54305 18.7847 9.13394 17.6844C9.72483 16.5841 10.6372 15.6901 11.7494 15.1219C12.8615 14.5536 14.1206 14.338 15.3584 14.5039V17.8139C14.7745 17.6414 14.1511 17.6571 13.5766 17.8588C13.0021 18.0605 12.5057 18.438 12.1578 18.9377C11.8099 19.4374 11.6282 20.0339 11.6384 20.6427C11.6486 21.2515 11.8502 21.8416 12.2146 22.3294C12.5791 22.8172 13.0878 23.1778 13.6687 23.3602C14.2497 23.5426 14.8733 23.5374 15.4511 23.3454C16.0289 23.1535 16.5316 22.7844 16.8879 22.2907C17.2442 21.797 17.436 21.2036 17.4362 20.5947V7.26039H20.8411C20.8411 7.8863 20.9644 8.50608 21.2039 9.08435C21.4435 9.66261 21.7946 10.188 22.2371 10.6306C22.6797 11.0732 23.2052 11.4243 23.7834 11.6638C24.3617 11.9033 24.9815 12.0266 25.6074 12.0266L25.6076 15.4316Z" fill="#CBDB3A"/>
</g>
<defs>
<clipPath id="clip0_207_126">
<rect width="34" height="34" fill="white"/>
</clipPath>
</defs>
</svg>
