<svg width="10" height="12" viewBox="0 0 10 12" fill="none" xmlns="http://www.w3.org/2000/svg">
<path d="M6.81827 11.9091H3.18191C2.57914 11.9091 2.00107 11.6696 1.57485 11.2434C1.14863 10.8172 0.90918 10.2391 0.90918 9.63635V4.18181C0.90918 4.06126 0.957069 3.94564 1.04231 3.8604C1.12756 3.77515 1.24317 3.72726 1.36373 3.72726C1.48428 3.72726 1.59989 3.77515 1.68514 3.8604C1.77038 3.94564 1.81827 4.06126 1.81827 4.18181V9.63635C1.81827 9.99801 1.96194 10.3449 2.21767 10.6006C2.4734 10.8563 2.82025 11 3.18191 11H6.81827C7.17993 11 7.52678 10.8563 7.78251 10.6006C8.03824 10.3449 8.18191 9.99801 8.18191 9.63635V4.18181C8.18191 4.06126 8.2298 3.94564 8.31504 3.8604C8.40028 3.77515 8.5159 3.72726 8.63645 3.72726C8.75701 3.72726 8.87262 3.77515 8.95786 3.8604C9.04311 3.94564 9.091 4.06126 9.091 4.18181V9.63635C9.091 10.2391 8.85155 10.8172 8.42533 11.2434C7.99911 11.6696 7.42104 11.9091 6.81827 11.9091Z" fill="white"/>
<path d="M9.54545 2.81818H0.454545C0.333993 2.81818 0.218377 2.77029 0.133133 2.68505C0.0478896 2.5998 0 2.48419 0 2.36363C0 2.24308 0.0478896 2.12747 0.133133 2.04222C0.218377 1.95698 0.333993 1.90909 0.454545 1.90909H9.54545C9.66601 1.90909 9.78162 1.95698 9.86687 2.04222C9.95211 2.12747 10 2.24308 10 2.36363C10 2.48419 9.95211 2.5998 9.86687 2.68505C9.78162 2.77029 9.66601 2.81818 9.54545 2.81818Z" fill="white"/>
<path d="M6.81845 2.81818H3.18208C3.06153 2.81818 2.94592 2.77029 2.86067 2.68505C2.77543 2.59981 2.72754 2.48419 2.72754 2.36364V1.45455C2.72754 1.09289 2.87121 0.746043 3.12694 0.490312C3.38267 0.23458 3.72952 0.0909119 4.09118 0.0909119H5.90936C6.27102 0.0909119 6.61786 0.23458 6.87359 0.490312C7.12933 0.746043 7.27299 1.09289 7.27299 1.45455V2.36364C7.27299 2.48419 7.2251 2.59981 7.13986 2.68505C7.05462 2.77029 6.939 2.81818 6.81845 2.81818ZM3.63663 1.90909H6.3639V1.45455C6.3639 1.334 6.31601 1.21838 6.23077 1.13314C6.14553 1.04789 6.02991 1 5.90936 1H4.09118C3.97062 1 3.85501 1.04789 3.76976 1.13314C3.68452 1.21838 3.63663 1.334 3.63663 1.45455V1.90909Z" fill="white"/>
<path d="M4.09126 9.18182C3.97071 9.18182 3.8551 9.13393 3.76985 9.04869C3.68461 8.96344 3.63672 8.84783 3.63672 8.72728V5.54546C3.63672 5.4249 3.68461 5.30929 3.76985 5.22405C3.8551 5.1388 3.97071 5.09091 4.09126 5.09091C4.21182 5.09091 4.32743 5.1388 4.41268 5.22405C4.49792 5.30929 4.54581 5.4249 4.54581 5.54546V8.72728C4.54581 8.84783 4.49792 8.96344 4.41268 9.04869C4.32743 9.13393 4.21182 9.18182 4.09126 9.18182Z" fill="white"/>
<path d="M5.90962 9.18182C5.78907 9.18182 5.67345 9.13393 5.58821 9.04869C5.50297 8.96344 5.45508 8.84783 5.45508 8.72728V5.54546C5.45508 5.4249 5.50297 5.30929 5.58821 5.22405C5.67345 5.1388 5.78907 5.09091 5.90962 5.09091C6.03018 5.09091 6.14579 5.1388 6.23104 5.22405C6.31628 5.30929 6.36417 5.4249 6.36417 5.54546V8.72728C6.36417 8.84783 6.31628 8.96344 6.23104 9.04869C6.14579 9.13393 6.03018 9.18182 5.90962 9.18182Z" fill="white"/>
</svg>
