<svg width="38" height="59" viewBox="0 0 38 59" fill="none" xmlns="http://www.w3.org/2000/svg">
<g clip-path="url(#clip0_607_37)">
<path d="M12.7346 5.37924C19.5771 5.10425 26.4197 4.8259 33.2623 4.5509L32.7359 3.26312C29.1508 6.30819 26.2112 10.1212 24.162 14.3803C23.9336 14.8565 24.1984 15.5541 24.8042 15.5172C28.9522 15.2556 33.0968 14.9907 37.2447 14.7291L36.6025 13.5922C33.067 18.4415 29.5315 23.2942 25.996 28.1435C24.9797 29.5353 23.9667 30.927 22.9504 32.3188C22.626 32.7648 23.0597 33.5026 23.5926 33.4556C27.0255 33.1471 30.4551 32.8386 33.888 32.5267L33.5106 31.1215C28.9985 34.18 24.5692 37.3659 20.2326 40.6793C15.8662 44.0161 11.5925 47.4737 7.42137 51.052C5.08423 53.0575 2.7802 55.0998 0.509271 57.1824L1.67784 58.0979C4.72009 52.8563 7.76234 47.6112 10.8046 42.3695C11.0893 41.8799 10.7285 41.2259 10.1624 41.2327C7.11019 41.2796 4.05801 41.3299 1.00583 41.3769L1.53218 42.6646C5.551 38.4827 9.18912 33.9218 12.3836 29.0624C13.2907 27.6841 14.158 26.2789 14.9922 24.8536C15.2836 24.354 14.9095 23.7268 14.35 23.7168C10.3345 23.6564 6.3157 23.596 2.30019 23.539L2.94241 24.6759C6.1237 18.5589 9.30167 12.4386 12.483 6.32161C13.3801 4.5945 14.2772 2.86739 15.1743 1.14028C15.6212 0.281762 14.3368 -0.482861 13.8866 0.379016C10.7053 6.49599 7.5273 12.6163 4.34602 18.7333C3.4489 20.4604 2.55178 22.1875 1.65467 23.9146C1.39315 24.421 1.71756 25.0414 2.29688 25.0515C6.31239 25.1119 10.3312 25.1722 14.3467 25.2292L13.7045 24.0924C10.8178 29.0289 7.4942 33.6937 3.75677 38.0031C2.69413 39.2305 1.59839 40.4278 0.476167 41.5948C0.0325748 42.0543 0.347062 42.8927 1.00252 42.8826C4.0547 42.8357 7.10688 42.7854 10.1591 42.7384L9.51685 41.6015C6.4746 46.8432 3.43235 52.0883 0.390097 57.33C-0.0501851 58.0879 0.942933 58.8089 1.55867 58.2455C5.56755 54.5766 9.67906 51.0185 13.8866 47.5844C18.0841 44.157 22.381 40.8537 26.7673 37.6745C29.2369 35.8836 31.7362 34.1331 34.2587 32.4227C34.8182 32.0438 34.6758 30.9438 33.8813 31.0176C30.4485 31.3261 27.0189 31.6346 23.586 31.9465L24.2282 33.0834C27.7637 28.2341 31.2992 23.3814 34.8347 18.5321C35.851 17.1403 36.864 15.7486 37.8803 14.3568C38.2113 13.9008 37.7677 13.1864 37.2381 13.22C33.0902 13.4816 28.9455 13.7465 24.7976 14.0081L25.4398 15.1449C27.4393 10.9865 30.2796 7.30421 33.782 4.33292C34.2786 3.91036 33.8714 3.0183 33.2557 3.04513C26.4131 3.32013 19.5705 3.59848 12.7279 3.87347C11.7712 3.91036 11.7679 5.42284 12.7279 5.3826L12.7346 5.37924Z" fill="#CBDB3A"/>
</g>
<defs>
<clipPath id="clip0_607_37">
<rect width="38" height="59" fill="white"/>
</clipPath>
</defs>
</svg>
