<?xml version="1.0" standalone="no"?>
<!DOCTYPE svg PUBLIC "-//W3C//DTD SVG 1.1//EN" "http://www.w3.org/Graphics/SVG/1.1/DTD/svg11.dtd" >
<svg xmlns="http://www.w3.org/2000/svg" xmlns:xlink="http://www.w3.org/1999/xlink" version="1.1">
<metadata>
Created by FontForge 20201107 at Fri Oct 18 01:53:54 2024
 By 
(c)rajeshrajput
</metadata>
<defs>
<font id="Humane-Thin" horiz-adv-x="311" >
  <font-face 
    font-family="Mango Grotesque Thin"
    font-weight="100"
    font-stretch="normal"
    units-per-em="2048"
    panose-1="0 0 0 0 0 0 0 0 0 0"
    ascent="1638"
    descent="-410"
    x-height="1167"
    cap-height="1434"
    bbox="-55 -430 1270 1765"
    underline-thickness="102"
    underline-position="-255"
    unicode-range="U+000D-FB02"
  />
<missing-glyph horiz-adv-x="397" 
d="M20 0v1434h357v-1434h-357zM76 1399l123 -596l123 596h-246zM57 1307v-1188l123 596zM217 715l123 -588v1178zM199 625l-121 -590h244z" />
    <glyph glyph-name=".notdef" horiz-adv-x="397" 
d="M20 0v1434h357v-1434h-357zM76 1399l123 -596l123 596h-246zM57 1307v-1188l123 596zM217 715l123 -588v1178zM199 625l-121 -590h244z" />
    <glyph glyph-name="uni0000" horiz-adv-x="0" 
 />
    <glyph glyph-name="uni0000" horiz-adv-x="0" 
 />
    <glyph glyph-name="uni000D" unicode="&#xd;" horiz-adv-x="512" 
 />
    <glyph glyph-name="space" unicode=" " horiz-adv-x="163" 
 />
    <glyph glyph-name="exclam" unicode="!" horiz-adv-x="110" 
d="M37 1434h37v-1260h-37v1260zM20 0v92h70v-92h-70z" />
    <glyph glyph-name="quotedbl" unicode="&#x22;" horiz-adv-x="155" 
d="M135 1434v-80l-6 -125h-25l-6 125v80h37zM57 1434v-80l-6 -125h-24l-7 125v80h37z" />
    <glyph glyph-name="numbersign" unicode="#" horiz-adv-x="370" 
d="M31 0l28 489h-39v35h41l21 385h-41v35h43l29 490h37l-29 -490h151l29 490h37l-29 -490h41v-35h-43l-20 -385h43v-35h-45l-29 -489h-37l29 489h-152l-28 -489h-37zM98 524h152l20 385h-151z" />
    <glyph glyph-name="dollar" unicode="$" horiz-adv-x="319" 
d="M274 451v-328q0 -61 -30 -97t-80 -38l4 -191h-37l4 193q-42 8 -66 43t-24 90v381h37v-381q0 -52 22 -76t56 -24t56 24t22 76v317q0 65 -17 131t-32 101t-48 102q-31 60 -48 98.5t-32.5 102.5t-15.5 131v207q0 55 24 89t66 42l-4 192h37l-4 -190q50 -2 80 -37.5t30 -95.5
v-320h-36v320q0 51 -22 74.5t-56 23.5t-56 -23.5t-22 -74.5v-197q0 -67 15.5 -131t32.5 -102.5t48 -98.5q32 -66 47.5 -101.5t32 -101t16.5 -130.5z" />
    <glyph glyph-name="percent" unicode="%" horiz-adv-x="692" 
d="M262 1313v-568q0 -62 -30 -97.5t-80 -35.5q-49 0 -80 35.5t-31 97.5v568q0 62 30.5 97.5t80.5 35.5q48 0 79 -35.5t31 -97.5zM20 0l615 1434h37l-615 -1434h-37zM225 1311q0 52 -20.5 76t-52.5 24t-53 -24t-21 -76v-566q0 -51 21 -74.5t53 -23.5t52.5 23.5t20.5 74.5v566
zM651 688v-567q0 -62 -30 -97.5t-80 -35.5q-49 0 -80 35.5t-31 97.5v567q0 62 30.5 97.5t80.5 35.5q48 0 79 -35.5t31 -97.5zM614 686q0 52 -20.5 76t-52.5 24t-53 -24t-21 -76v-565q0 -51 21 -74.5t53 -23.5t52.5 23.5t20.5 74.5v565z" />
    <glyph glyph-name="ampersand" unicode="&#x26;" horiz-adv-x="360" 
d="M238 965h36v-240h41v-35h-41v-702h-36v67h-5q-22 -67 -88 -67q-44 0 -72 36.5t-28 96.5v471q0 85 51 113v4q-51 31 -51 112v492q0 62 31.5 97.5t83.5 35.5t83 -35.5t31 -97.5v-226h-36v224q0 51 -22 74.5t-56 23.5t-56 -23.5t-22 -74.5v-488q0 -52 22 -75t56 -23h78v240z
M238 690h-78q-78 0 -78 -98v-471q0 -51 22 -74.5t56 -23.5t56 23.5t22 74.5v569z" />
    <glyph glyph-name="quotesingle" unicode="'" horiz-adv-x="77" 
d="M57 1434v-80l-6 -125h-24l-7 125v80h37z" />
    <glyph glyph-name="parenleft" unicode="(" horiz-adv-x="212" 
d="M158 -399q-138 539 -138 991t138 985l32 -8q-133 -542 -133 -979q0 -442 133 -981z" />
    <glyph glyph-name="parenright" unicode=")" horiz-adv-x="212" 
d="M53 1577q137 -535 137 -991t-137 -985l-33 8q134 535 134 979q0 438 -134 981z" />
    <glyph glyph-name="asterisk" unicode="*" horiz-adv-x="282" 
d="M55 1245l68 82l-103 27l13 35l96 -39l-6 104h37l-8 -106l100 41l10 -35l-102 -27l67 -80l-28 -22l-58 90l-57 -90z" />
    <glyph glyph-name="plus" unicode="+" horiz-adv-x="323" 
d="M303 711v-35h-123v-121h-37v121h-123v35h123v123h37v-123h123z" />
    <glyph glyph-name="comma" unicode="," horiz-adv-x="110" 
d="M20 0v92h70v-92l-22 -131h-31l22 131h-39z" />
    <glyph glyph-name="hyphen" unicode="-" horiz-adv-x="184" 
d="M164 711v-35h-144v35h144z" />
    <glyph glyph-name="period" unicode="." horiz-adv-x="110" 
d="M20 0v92h70v-92h-70z" />
    <glyph glyph-name="slash" unicode="/" horiz-adv-x="258" 
d="M57 -164h-37l181 1659h37z" />
    <glyph glyph-name="zero" unicode="0" horiz-adv-x="319" 
d="M274 1313v-1192q0 -62 -31 -97.5t-83 -35.5t-83.5 36t-31.5 97v1192q0 62 31.5 97.5t83.5 35.5q51 0 82.5 -36t31.5 -97zM238 1313q0 51 -22 74.5t-56 23.5t-56 -23.5t-22 -74.5v-1190q0 -52 22 -76t56 -24t56 24t22 76v1190z" />
    <glyph glyph-name="one" unicode="1" horiz-adv-x="249" 
d="M143 1434v-1399h62v-35h-160v35h61v1249h-61v35q30 0 41 6t17 29.5t6 79.5h34z" />
    <glyph glyph-name="two" unicode="2" horiz-adv-x="321" 
d="M45 0v205q0 74 8.5 136t27 115.5t32 82.5t39.5 79q29 54 43.5 86.5t28.5 89t14 117.5v400q0 52 -22 76t-56 24t-56 -24t-22 -76v-420h-37v422q0 62 32 98.5t83 36.5q52 0 83 -36.5t31 -98.5v-412q0 -61 -14 -117.5t-28.5 -89t-43.5 -86.5q-34 -66 -52 -107t-36 -125
t-18 -181v-160h192v-35h-229z" />
    <glyph glyph-name="three" unicode="3" horiz-adv-x="319" 
d="M82 1311v-420h-37v422q0 61 32.5 97t82.5 36q52 0 83 -35.5t31 -97.5v-430q0 -86 -51 -111v-4q51 -31 51 -117v-528q0 -62 -31 -98.5t-83 -36.5q-51 0 -83 36.5t-32 98.5v401h37v-401q0 -52 22 -76t56 -24t56 24t22 76v530q0 99 -78 99h-15v34h15q34 0 56 23.5t22 75.5
v426q0 51 -22 74.5t-56 23.5t-56 -23.5t-22 -74.5z" />
    <glyph glyph-name="four" unicode="4" horiz-adv-x="348" 
d="M225 0v211h-180v35l150 1188h67v-1188h41v-35h-41v-211h-37zM82 246h143v1134h-4z" />
    <glyph glyph-name="five" unicode="5" horiz-adv-x="319" 
d="M82 825v-77h-37v686h219v-35h-182v-508h4q22 70 88 70q45 0 72.5 -36t27.5 -98v-706q0 -61 -31.5 -97t-82.5 -36q-52 0 -83.5 35.5t-31.5 97.5v465h37v-465q0 -51 22 -74.5t56 -23.5t56 23.5t22 74.5v704q0 52 -22 76.5t-56 24.5t-56 -24.5t-22 -76.5z" />
    <glyph glyph-name="six" unicode="6" horiz-adv-x="319" 
d="M82 829h4q22 70 88 70q45 0 72.5 -35.5t27.5 -97.5v-645q0 -62 -31 -97.5t-83 -35.5t-83.5 35.5t-31.5 97.5v1192q0 62 31.5 97.5t83.5 35.5q51 0 82.5 -36t31.5 -97v-320h-36v318q0 51 -22 74.5t-56 23.5t-56 -23.5t-22 -74.5v-482zM82 764v-643q0 -51 22 -74.5
t56 -23.5t56 23.5t22 74.5v643q0 52 -22 76t-56 24t-56 -24t-22 -76z" />
    <glyph glyph-name="seven" unicode="7" 
d="M266 1434v-35l-143 -1399h-37l141 1395l-4 4h-178v35h221z" />
    <glyph glyph-name="eight" unicode="8" horiz-adv-x="319" 
d="M160 1446q52 0 83 -35.5t31 -97.5v-430q0 -85 -51 -113v-4q51 -28 51 -115v-530q0 -62 -31 -97.5t-83 -35.5t-83.5 35.5t-31.5 97.5v530q0 88 53 115v4q-53 27 -53 113v430q0 62 31.5 97.5t83.5 35.5zM82 1311v-426q0 -52 22 -75.5t56 -23.5t56 23.5t22 75.5v426
q0 52 -22 76t-56 24t-56 -24t-22 -76zM160 23q34 0 56 23.5t22 74.5v532q0 99 -78 99t-78 -99v-532q0 -51 22 -74.5t56 -23.5z" />
    <glyph glyph-name="nine" unicode="9" horiz-adv-x="319" 
d="M160 1446q52 0 83 -35.5t31 -97.5v-1192q0 -62 -31 -97.5t-83 -35.5q-51 0 -83 35.5t-32 97.5v381h37v-381q0 -51 22 -74.5t56 -23.5t56 23.5t22 74.5v543h-5q-22 -70 -88 -70q-45 0 -72.5 35.5t-27.5 97.5v586q0 62 31.5 97.5t83.5 35.5zM238 725v586q0 52 -22 76
t-56 24t-56 -24t-22 -76v-586q0 -51 22 -74.5t56 -23.5t56 23.5t22 74.5z" />
    <glyph glyph-name="colon" unicode=":" horiz-adv-x="141" 
d="M20 819v92h70v-92h-70zM20 0v92h70v-92h-70z" />
    <glyph glyph-name="semicolon" unicode=";" horiz-adv-x="143" 
d="M25 819v92h69v-92h-69zM23 0v92h69v-92l-24 -131h-29l20 131h-36z" />
    <glyph glyph-name="less" unicode="&#x3c;" horiz-adv-x="370" 
d="M348 776l-270 -80v-4l270 -80v-37l-328 101v37l328 100v-37z" />
    <glyph glyph-name="equal" unicode="=" horiz-adv-x="323" 
d="M303 782v-34h-283v34h283zM303 625v-35h-283v35h283z" />
    <glyph glyph-name="greater" unicode="&#x3e;" horiz-adv-x="370" 
d="M20 612l271 80v4l-271 80v37l328 -100v-37l-328 -101v37z" />
    <glyph glyph-name="question" unicode="?" horiz-adv-x="270" 
d="M113 451q0 96 15.5 185t34.5 147.5t34.5 147.5t15.5 185v195q0 52 -22 76t-56 24t-56 -24t-22 -76v-420h-37v422q0 62 32 98.5t83 36.5q52 0 83.5 -36.5t31.5 -98.5v-207q0 -96 -15.5 -185t-34.5 -148t-34.5 -148t-15.5 -185v-266h-37v277zM96 0v92h70v-92h-70z" />
    <glyph glyph-name="at" unicode="@" horiz-adv-x="630" 
d="M424 -109l10 -32q-61 -23 -119 -23q-76 0 -141.5 30.5t-109.5 97t-44 157.5v940q0 91 44 157.5t109.5 97t141.5 30.5q119 0 207 -75t88 -208v-940q0 -62 -30 -98.5t-80 -36.5q-37 0 -65 22.5t-38 61.5h-4q-8 -40 -31.5 -62t-58.5 -22q-43 0 -70.5 36.5t-27.5 98.5v932
q0 62 26.5 97.5t71.5 35.5q60 0 82 -64h4v43h37v-1042q0 -53 21 -77.5t53 -24.5t52.5 24t20.5 76v940q0 117 -76.5 182.5t-181.5 65.5t-181.5 -66t-76.5 -184v-940q0 -119 76.5 -184.5t181.5 -65.5q62 0 109 20zM389 1053q0 51 -21 74.5t-53 23.5t-52.5 -23.5t-20.5 -74.5
v-930q0 -52 20.5 -76t52.5 -24t53 24t21 76v930z" />
    <glyph glyph-name="A" unicode="A" horiz-adv-x="276" 
d="M170 1434l88 -1434h-37l-24 416h-117l-25 -416h-37l88 1434h64zM82 451h113l-31 510l-23 432h-4l-22 -432z" />
    <glyph glyph-name="B" unicode="B" 
d="M274 1300v-417q0 -82 -51 -113v-4q51 -28 51 -113v-520q0 -62 -31 -97.5t-83 -35.5h-115v1434h115q52 0 83 -36t31 -98zM238 1298q0 52 -22 76.5t-56 24.5h-78v-613h78q34 0 56 23.5t22 75.5v413zM238 653q0 99 -78 99h-78v-717h78q34 0 56 23t22 75v520z" />
    <glyph glyph-name="C" unicode="C" horiz-adv-x="319" 
d="M238 1311q0 52 -22 76t-56 24t-56 -24t-22 -76v-1190q0 -51 22 -74.5t56 -23.5t56 23.5t22 74.5v485h36v-485q0 -62 -31 -97.5t-83 -35.5q-51 0 -83 35.5t-32 97.5v1192q0 62 31.5 97.5t83.5 35.5t83 -35.5t31 -97.5v-422h-36v420z" />
    <glyph glyph-name="D" unicode="D" horiz-adv-x="319" 
d="M274 1300v-1167q0 -62 -31 -97.5t-83 -35.5h-115v1434h115q52 0 83 -36t31 -98zM238 1298q0 52 -22 76.5t-56 24.5h-78v-1364h78q34 0 56 23t22 75v1165z" />
    <glyph glyph-name="E" unicode="E" horiz-adv-x="219" 
d="M188 1434v-35h-102v-645h92v-35h-92v-684h113v-35h-152v1434h141z" />
    <glyph glyph-name="F" unicode="F" horiz-adv-x="206" 
d="M184 1434v-35h-102v-656h92v-34h-92v-709h-37v1434h139z" />
    <glyph glyph-name="G" unicode="G" horiz-adv-x="319" 
d="M168 756h106v-756h-36v55h-5q-22 -67 -88 -67q-44 0 -72 35.5t-28 97.5v1192q0 62 31.5 97.5t83.5 35.5t83 -35.5t31 -97.5v-422h-36v420q0 52 -22 76t-56 24t-56 -24t-22 -76v-1190q0 -51 22 -74.5t56 -23.5t56 23.5t22 74.5v600h-70v35z" />
    <glyph glyph-name="H" unicode="H" horiz-adv-x="315" 
d="M270 1434v-1434h-37v698h-151v-698h-37v1434h37v-701h151v701h37z" />
    <glyph glyph-name="I" unicode="I" horiz-adv-x="126" 
d="M82 1434v-1434h-37v1434h37z" />
    <glyph glyph-name="J" unicode="J" horiz-adv-x="319" 
d="M274 1434v-1313q0 -62 -31 -97.5t-83 -35.5q-50 0 -82.5 36t-32.5 97v485h37v-485q0 -51 22 -74.5t56 -23.5t56 23.5t22 74.5v1313h36z" />
    <glyph glyph-name="K" unicode="K" horiz-adv-x="296" 
d="M279 1434l-164 -676v-4l166 -754h-39l-156 725h-4v-725h-37v1434h37v-648h4l154 648h39z" />
    <glyph glyph-name="L" unicode="L" horiz-adv-x="210" 
d="M45 1434h37v-1399h106v-35h-143v1434z" />
    <glyph glyph-name="M" unicode="M" horiz-adv-x="438" 
d="M393 1434v-1434h-37v1380h-4l-102 -1380h-62l-102 1380h-4v-1380h-37v1434h70l80 -961l22 -432h4l23 432l80 961h69z" />
    <glyph glyph-name="N" unicode="N" horiz-adv-x="372" 
d="M328 1434v-1434h-70l-172 1378h-4v-1378h-37v1434h70l172 -1391h4v1391h37z" />
    <glyph glyph-name="O" unicode="O" horiz-adv-x="319" 
d="M274 1313v-1192q0 -62 -31 -97.5t-83 -35.5t-83.5 36t-31.5 97v1192q0 62 31.5 97.5t83.5 35.5q51 0 82.5 -36t31.5 -97zM238 1313q0 51 -22 74.5t-56 23.5t-56 -23.5t-22 -74.5v-1190q0 -52 22 -76t56 -24t56 24t22 76v1190z" />
    <glyph glyph-name="P" unicode="P" horiz-adv-x="319" 
d="M274 1300v-497q0 -62 -31 -97.5t-83 -35.5h-78v-670h-37v1434h115q52 0 83 -36t31 -98zM238 1298q0 52 -22 76.5t-56 24.5h-78v-694h78q34 0 56 23t22 75v495z" />
    <glyph glyph-name="Q" unicode="Q" horiz-adv-x="319" 
d="M274 1313v-1192q0 -56 -26.5 -91.5t-69.5 -41.5v-33q0 -37 27 -37h51v-35h-51q-64 0 -64 68v39q-43 6 -69.5 41t-26.5 90v1192q0 62 31.5 98.5t83.5 36.5t83 -36.5t31 -98.5zM238 1311q0 52 -22 76t-56 24t-56 -24t-22 -76v-1188q0 -52 22 -76t56 -24t56 24t22 76v1188z
" />
    <glyph glyph-name="R" unicode="R" horiz-adv-x="319" 
d="M238 610q0 99 -78 99h-78v-709h-37v1434h115q52 0 83 -36t31 -98v-460q0 -82 -51 -113v-4q51 -28 51 -113v-467q0 -77 15 -141v-2h-37q-14 53 -14 145v465zM238 1298q0 52 -22 76.5t-56 24.5h-78v-656h78q34 0 56 23.5t22 75.5v456z" />
    <glyph glyph-name="S" unicode="S" horiz-adv-x="319" 
d="M274 451v-328q0 -62 -31 -98.5t-83 -36.5t-83.5 36.5t-31.5 98.5v381h37v-381q0 -52 22 -76t56 -24t56 24t22 76v317q0 65 -17 131t-32 101t-48 102q-31 60 -48 98.5t-32.5 102.5t-15.5 131v207q0 62 31.5 97.5t83.5 35.5q51 0 82.5 -36t31.5 -97v-320h-36v320
q0 51 -22 74.5t-56 23.5t-56 -23.5t-22 -74.5v-197q0 -67 15.5 -131t32.5 -102.5t48 -98.5q32 -66 47.5 -101.5t32 -101t16.5 -130.5z" />
    <glyph glyph-name="T" unicode="T" horiz-adv-x="253" 
d="M231 1434v-35h-86v-1399h-36v1399h-86v35h208z" />
    <glyph glyph-name="U" unicode="U" horiz-adv-x="319" 
d="M274 1434v-1313q0 -62 -31 -97.5t-83 -35.5q-51 0 -83 35.5t-32 97.5v1313h37v-1313q0 -51 22 -74.5t56 -23.5t56 23.5t22 74.5v1313h36z" />
    <glyph glyph-name="V" unicode="V" horiz-adv-x="274" 
d="M258 1434l-90 -1434h-62l-90 1434h37l60 -961l22 -432h4l23 432l59 961h37z" />
    <glyph glyph-name="W" unicode="W" horiz-adv-x="487" 
d="M471 1434l-86 -1434h-61l-66 1106l-12 287h-4l-11 -287l-67 -1106h-62l-86 1434h37l56 -961l22 -432h4l23 432l55 961h61l56 -961l22 -432h4l23 432l55 961h37z" />
    <glyph glyph-name="X" unicode="X" horiz-adv-x="299" 
d="M266 1434l-88 -705v-4l105 -725h-39l-92 684h-5l-92 -684h-39l105 727v4l-84 703h39l41 -361l30 -299h5l32 299l43 361h39z" />
    <glyph glyph-name="Y" unicode="Y" horiz-adv-x="274" 
d="M258 1434l-102 -811v-623h-37v623l-103 811h39l60 -506l20 -203h4l21 203l59 506h39z" />
    <glyph glyph-name="Z" unicode="Z" horiz-adv-x="280" 
d="M240 1434v-35l-181 -1364h199v-35h-235v35l180 1364h-160v35h197z" />
    <glyph glyph-name="bracketleft" unicode="[" horiz-adv-x="180" 
d="M139 -399h-98v1955h98v-34h-61v-1887h61v-34z" />
    <glyph glyph-name="backslash" unicode="\" horiz-adv-x="258" 
d="M57 1495l181 -1659h-37l-181 1659h37z" />
    <glyph glyph-name="bracketright" unicode="]" horiz-adv-x="180" 
d="M41 1556h98v-1955h-98v34h61v1887h-61v34z" />
    <glyph glyph-name="asciicircum" unicode="^" horiz-adv-x="237" 
d="M180 1106l-59 229h-4l-60 -229h-37l80 328h37l80 -328h-37z" />
    <glyph glyph-name="underscore" unicode="_" horiz-adv-x="389" 
d="M369 0v-35h-349v35h349z" />
    <glyph glyph-name="grave" unicode="`" horiz-adv-x="118" 
d="M61 1184l-41 219h39l39 -219h-37z" />
    <glyph glyph-name="a" unicode="a" 
d="M82 1047v-297h-37v297q0 62 31 97.5t80 35.5q50 0 80 -35.5t30 -97.5v-1047h-37v51h-4q-20 -63 -84 -63q-42 0 -69 36.5t-27 98.5v369q0 85 36.5 120t147.5 74v361q0 51 -20.5 74.5t-52.5 23.5t-53 -23.5t-21 -74.5zM229 649q-100 -40 -123.5 -65t-23.5 -95v-366
q0 -52 21 -76t53 -24t52.5 24t20.5 76v526z" />
    <glyph glyph-name="b" unicode="b" 
d="M45 0v1495h37v-377h4q21 62 82 62q44 0 71 -35.5t27 -97.5v-926q0 -62 -26.5 -97.5t-69.5 -35.5q-62 0 -84 63h-4v-51h-37zM229 1044q0 52 -20.5 76.5t-52.5 24.5t-53 -24.5t-21 -76.5v-923q0 -51 21 -74.5t53 -23.5t52.5 23.5t20.5 74.5v923z" />
    <glyph glyph-name="c" unicode="c" 
d="M229 1047q0 51 -20.5 74.5t-52.5 23.5t-53 -23.5t-21 -74.5v-924q0 -52 21 -76t53 -24t52.5 24t20.5 76v375h37v-377q0 -62 -30 -97.5t-80 -35.5q-48 0 -79.5 36.5t-31.5 96.5v926q0 62 30.5 97.5t80.5 35.5q48 0 79 -36.5t31 -96.5v-324h-37v324z" />
    <glyph glyph-name="d" unicode="d" 
d="M266 0h-37v51h-4q-22 -63 -84 -63q-43 0 -69.5 35.5t-26.5 97.5v926q0 62 27 97.5t71 35.5q28 0 50 -16.5t32 -45.5h4v377h37v-1495zM82 1044v-921q0 -52 21 -76t53 -24t52.5 24t20.5 76v921q0 52 -20.5 75.5t-52.5 23.5q-33 0 -53.5 -23.5t-20.5 -75.5z" />
    <glyph glyph-name="e" unicode="e" 
d="M229 477h37v-356q0 -62 -30 -97.5t-80 -35.5q-48 0 -79.5 36.5t-31.5 96.5v926q0 62 30.5 97.5t80.5 35.5q48 0 79 -35.5t31 -97.5v-426h-184v-498q0 -52 21 -76t53 -24t52.5 24t20.5 76v354zM229 1047q0 51 -20.5 74.5t-52.5 23.5t-53 -23.5t-21 -74.5v-392h147v392z
" />
    <glyph glyph-name="f" unicode="f" horiz-adv-x="172" 
d="M59 0v1133h-28v34h28v242q0 57 17.5 71.5t68.5 14.5h17v-35q-46 0 -56 -8.5t-10 -42.5v-242h66v-34h-66v-1133h-37z" />
    <glyph glyph-name="g" unicode="g" 
d="M266 1167v-1374q0 -60 -31 -96.5t-79 -36.5q-50 0 -80.5 35.5t-30.5 97.5v146h37v-146q0 -51 21 -74.5t53 -23.5t52.5 23.5t20.5 74.5v258h-4q-22 -63 -82 -63q-43 0 -70.5 36.5t-27.5 98.5v921q0 64 26.5 100t69.5 36q62 0 84 -64h4v51h37zM82 125q0 -52 21 -76t53 -24
t52.5 24t20.5 76v919q0 52 -20.5 76.5t-52.5 24.5t-53 -24.5t-21 -76.5v-919z" />
    <glyph glyph-name="h" unicode="h" 
d="M229 1044q0 52 -20.5 76.5t-52.5 24.5t-53 -24.5t-21 -76.5v-1044h-37v1495h37v-377h4q21 62 82 62q44 0 71 -35.5t27 -97.5v-1047h-37v1044z" />
    <glyph glyph-name="i" unicode="i" horiz-adv-x="139" 
d="M51 1208v144h37v-144h-37zM51 0v1167h37v-1167h-37z" />
    <glyph glyph-name="j" unicode="j" horiz-adv-x="135" 
d="M84 1352v-144h-37v144h37zM84 1167v-1429q0 -57 -17.5 -71.5t-68.5 -14.5h-16v35q45 0 55 8.5t10 42.5v1429h37z" />
    <glyph glyph-name="k" unicode="k" horiz-adv-x="296" 
d="M285 1165l-170 -549v-4l172 -612h-39l-162 590h-4v-590h-37v1493h37v-854h4l160 526h39z" />
    <glyph glyph-name="l" unicode="l" horiz-adv-x="139" 
d="M51 0v1495h37v-1495h-37z" />
    <glyph glyph-name="m" unicode="m" horiz-adv-x="495" 
d="M229 1044q0 52 -20.5 76.5t-52.5 24.5t-53 -24.5t-21 -76.5v-1044h-37v1167h37v-49h4q21 62 82 62q35 0 60 -25.5t32 -69.5h4q3 45 27 70t61 25q44 0 71.5 -35.5t27.5 -97.5v-1047h-37v1044q0 52 -21 76.5t-53 24.5t-53 -25t-21 -76v-1044h-37v1044z" />
    <glyph glyph-name="n" unicode="n" 
d="M229 1047q0 51 -20.5 74.5t-52.5 23.5t-53 -23.5t-21 -74.5v-1047h-37v1167h37v-49l4 -2q22 64 82 64q43 0 70.5 -36t27.5 -97v-1047h-37v1047z" />
    <glyph glyph-name="o" unicode="o" 
d="M266 1047v-926q0 -62 -30 -97.5t-80 -35.5q-48 0 -79.5 36.5t-31.5 96.5v926q0 62 30.5 97.5t80.5 35.5q48 0 79 -35.5t31 -97.5zM229 1047q0 51 -20.5 74.5t-52.5 23.5t-53 -23.5t-21 -74.5v-926q0 -51 21 -74.5t53 -23.5t52.5 23.5t20.5 74.5v926z" />
    <glyph glyph-name="p" unicode="p" 
d="M45 1167h37v-51h4q22 64 84 64q43 0 69.5 -35.5t26.5 -97.5v-924q0 -62 -27.5 -98.5t-70.5 -36.5q-60 0 -82 63h-4v-379h-37v1495zM229 123v921q0 52 -20.5 76.5t-52.5 24.5t-53 -24.5t-21 -76.5v-921q0 -52 21 -76t53 -24t52.5 24t20.5 76z" />
    <glyph glyph-name="q" unicode="q" 
d="M266 1167v-1495h-37v379h-4q-22 -63 -82 -63q-43 0 -70.5 36.5t-27.5 98.5v924q0 62 26.5 97.5t69.5 35.5q62 0 84 -64h4v51h37zM82 123q0 -52 21 -76t53 -24t52.5 24t20.5 76v921q0 52 -20.5 76.5t-52.5 24.5t-53 -24.5t-21 -76.5v-921z" />
    <glyph glyph-name="r" unicode="r" horiz-adv-x="307" 
d="M229 1047q0 51 -20.5 74.5t-52.5 23.5t-53 -23.5t-21 -74.5v-1047h-37v1167h37v-49l4 -2q22 64 82 64q43 0 70.5 -36t27.5 -97v-359h-37v359z" />
    <glyph glyph-name="s" unicode="s" 
d="M266 385v-264q0 -60 -31 -96.5t-79 -36.5q-50 0 -80.5 35.5t-30.5 97.5v291h37v-289q0 -52 21 -76t53 -24t52.5 24t20.5 76v262q0 42 -15.5 85t-29 65.5t-45.5 68.5q-31 43 -47 69.5t-31.5 73t-15.5 95.5v205q0 62 30.5 97.5t80.5 35.5q48 0 79 -35.5t31 -97.5v-236h-37
v233q0 51 -20.5 75t-52.5 24t-53 -24t-21 -75v-202q0 -42 15 -84t30 -67t45 -66q31 -45 47 -71.5t31.5 -73t15.5 -95.5z" />
    <glyph glyph-name="t" unicode="t" horiz-adv-x="172" 
d="M59 1393h37v-226h66v-34h-66v-1047q0 -34 10 -42.5t56 -8.5v-35h-17q-51 0 -68.5 14.5t-17.5 71.5v1047h-28v34h28v226z" />
    <glyph glyph-name="u" unicode="u" 
d="M82 123q0 -52 21 -76t53 -24t52.5 24t20.5 76v1046h37v-1169h-37v49l-4 2q-22 -63 -82 -63q-43 0 -70.5 36.5t-27.5 98.5v1044h37v-1044z" />
    <glyph glyph-name="v" unicode="v" horiz-adv-x="266" 
d="M102 0l-82 1167h37l54 -782l20 -350h4l19 350l55 782h37l-82 -1167h-62z" />
    <glyph glyph-name="w" unicode="w" horiz-adv-x="430" 
d="M373 1167h37l-72 -1167h-62l-45 823l-14 303h-4l-14 -303l-45 -823h-62l-72 1167h37l47 -782l17 -350h4l16 350l47 782h54l47 -782l16 -350h4l17 350z" />
    <glyph glyph-name="x" unicode="x" horiz-adv-x="290" 
d="M254 1167l-80 -573v-4l96 -590h-39l-47 340l-37 217h-4l-34 -217l-50 -340h-39l97 592v4l-76 571h39l33 -293l30 -243h4l33 243l35 293h39z" />
    <glyph glyph-name="y" unicode="y" horiz-adv-x="266" 
d="M57 1167l54 -682l20 -307h4l19 307l55 682h37l-121 -1495h-37l27 328l-95 1167h37z" />
    <glyph glyph-name="z" unicode="z" horiz-adv-x="272" 
d="M231 1167v-34l-172 -1098h191v-35h-227v35l172 1098h-162v34h198z" />
    <glyph glyph-name="braceleft" unicode="{" horiz-adv-x="344" 
d="M221 1446v-707q0 -72 -21 -112.5t-73 -44.5v-4q52 -4 73 -45.5t21 -114.5v-707q0 -48 9 -62t34 -14h39v-34h-39q-15 0 -26 3t-25 13t-21.5 34.5t-7.5 61.5v707q0 75 -28 108t-115 33v35q87 0 115 33t28 108v707q0 37 7.5 61.5t21.5 34.5t25 13t26 3h39v-34h-39
q-25 0 -34 -14t-9 -62z" />
    <glyph glyph-name="bar" unicode="|" horiz-adv-x="77" 
d="M57 -379h-37v1915h37v-1915z" />
    <glyph glyph-name="braceright" unicode="}" horiz-adv-x="344" 
d="M123 -289v707q0 73 21.5 114.5t74.5 45.5v4q-54 4 -75 44.5t-21 112.5v707q0 48 -9 62t-34 14h-39v34h39q15 0 26 -3t25 -13t21.5 -34.5t7.5 -61.5v-707q0 -75 28 -108t115 -33v-35q-87 0 -115 -33t-28 -108v-707q0 -37 -7.5 -61.5t-21 -34.5t-24.5 -13t-25 -3h-41v34h39
q25 0 34 14t9 62z" />
    <glyph glyph-name="asciitilde" unicode="~" horiz-adv-x="317" 
d="M297 811v-49q0 -119 -57 -119q-23 0 -45 21t-37 45.5t-33.5 45.5t-34.5 21q-33 0 -33 -88v-45h-37v49q0 55 17.5 87t48.5 32q25 0 49.5 -21t40 -45.5t32.5 -45.5t28 -21q24 0 24 88v45h37z" />
    <glyph glyph-name="exclamdown" unicode="&#xa1;" horiz-adv-x="110" 
d="M20 1167h70v-92h-70v92zM37 -266v1259h37v-1259h-37z" />
    <glyph glyph-name="cent" unicode="&#xa2;" 
d="M229 1047q0 51 -20.5 74.5t-52.5 23.5t-53 -23.5t-21 -74.5v-924q0 -52 21 -76t53 -24t52.5 24t20.5 76v375h37v-377q0 -59 -27.5 -93.5t-72.5 -39.5l4 -191h-37l4 193q-42 6 -67 41t-25 90v926q0 56 25 90.5t67 40.5l-4 192h37l-4 -190q45 -5 72.5 -40t27.5 -93v-324
h-37v324z" />
    <glyph glyph-name="sterling" unicode="&#xa3;" horiz-adv-x="399" 
d="M299 1311q0 52 -22 76t-56 24t-56 -24t-22 -76v-725h172v-35h-172v-320q0 -58 -7.5 -98t-15.5 -57.5t-24 -40.5h258v-35h-309v33q37 37 49 78.5t12 128.5v311h-61v35h61v727q0 62 31.5 97.5t83.5 35.5t83.5 -35.5t31.5 -97.5v-422h-37v420z" />
    <glyph glyph-name="currency" unicode="&#xa4;" horiz-adv-x="397" 
d="M20 0v1434h357v-1434h-357zM76 1399l123 -596l123 596h-246zM57 1307v-1188l123 596zM217 715l123 -588v1178zM199 625l-121 -590h244z" />
    <glyph glyph-name="yen" unicode="&#xa5;" horiz-adv-x="274" 
d="M258 1434l-102 -811v-117h90v-35h-90v-98h90v-35h-90v-338h-37v338h-90v35h90v98h-90v35h90v117l-103 811h39l60 -506l20 -203h4l21 203l59 506h39z" />
    <glyph glyph-name="brokenbar" unicode="&#xa6;" horiz-adv-x="77" 
d="M57 702h-37v834h37v-834zM57 -379h-37v836h37v-836z" />
    <glyph glyph-name="section" unicode="&#xa7;" horiz-adv-x="262" 
d="M242 651v-272q0 -48 -19 -80q19 -63 19 -109v-264q0 -60 -31.5 -96.5t-79.5 -36.5q-50 0 -80.5 35.5t-30.5 97.5v291h37v-291q0 -51 21 -74.5t53 -23.5t53 23.5t21 74.5v264q0 42 -15 85t-29.5 66.5t-45.5 68.5q-32 44 -47.5 69.5t-31.5 72.5t-16 95v213q0 67 35 105
q-35 72 -35 143v205q0 62 30.5 97.5t80.5 35.5q49 0 80 -35.5t31 -97.5v-236h-37v234q0 51 -21 74.5t-53 23.5t-53 -23.5t-21 -74.5v-203q0 -42 15 -84t30 -67t45 -66q32 -46 47.5 -71.5t31.5 -73t16 -95.5zM201 344q4 20 4 35v272q0 42 -15.5 85t-29 65.5t-45.5 68.5
q-30 45 -39 60q-19 -25 -19 -72v-211q0 -42 15 -84t30 -67t45 -66q2 -3 24 -35.5t30 -50.5z" />
    <glyph glyph-name="dieresis" unicode="&#xa8;" horiz-adv-x="149" 
d="M20 1192v113h37v-113h-37zM92 1192v113h37v-113h-37z" />
    <glyph glyph-name="copyright" unicode="&#xa9;" horiz-adv-x="630" 
d="M20 309v815q0 151 88 236.5t207 85.5t207 -85.5t88 -236.5v-815q0 -103 -44 -178t-109.5 -109t-141.5 -34q-119 0 -207 85t-88 236zM57 1124v-815q0 -136 76.5 -211t181.5 -75t181.5 75t76.5 211v815q0 135 -76.5 211t-181.5 76t-181.5 -76t-76.5 -211zM393 1114
q0 51 -22 74.5t-56 23.5t-55.5 -23.5t-21.5 -74.5v-795q0 -52 21.5 -76t55.5 -24t56 24t22 76v295h37v-297q0 -62 -31.5 -97.5t-83.5 -35.5q-51 0 -82.5 36t-31.5 97v799q0 62 31 97.5t83 35.5t83.5 -35.5t31.5 -97.5v-258h-37v256z" />
    <glyph glyph-name="ordfeminine" unicode="&#xaa;" horiz-adv-x="217" 
d="M57 1341v-194h-37v205q0 43 25 68.5t64 25.5t63.5 -25.5t24.5 -68.5v-736h-37v35h-2q-17 -43 -64 -43q-33 0 -53.5 25.5t-20.5 68.5v279q0 32 6 51.5t26 34.5t41.5 24.5t66.5 24.5v225q0 36 -14.5 53t-36.5 17t-37 -17t-15 -53zM160 1079q-70 -27 -86.5 -44t-16.5 -66
v-262q0 -34 14.5 -50t37.5 -16q51 0 51 68v370z" />
    <glyph glyph-name="guillemotleft" unicode="&#xab;" horiz-adv-x="262" 
d="M20 588l62 246h37l-62 -246l62 -246h-37zM143 588l62 246h37l-62 -246l62 -246h-37z" />
    <glyph glyph-name="logicalnot" unicode="&#xac;" horiz-adv-x="397" 
d="M20 0v1434h357v-1434h-357zM76 1399l123 -596l123 596h-246zM57 1307v-1188l123 596zM217 715l123 -588v1178zM199 625l-121 -590h244z" />
    <glyph glyph-name="registered" unicode="&#xae;" horiz-adv-x="630" 
d="M20 309v815q0 151 88 236.5t207 85.5t207 -85.5t88 -236.5v-815q0 -151 -88 -236t-207 -85t-207 85t-88 236zM57 1124v-815q0 -135 76.5 -210.5t181.5 -75.5t181.5 75.5t76.5 210.5v815q0 135 -76.5 211t-181.5 76t-181.5 -76t-76.5 -211zM393 610q0 99 -78 99h-77v-523
h-37v1063h114q52 0 83.5 -35.5t31.5 -97.5v-276q0 -82 -51 -113v-4q51 -28 51 -113v-280q0 -82 14 -142v-2h-36q-15 55 -15 146v278zM393 1114q0 100 -69 100h-84v-471h84q69 0 69 99v272z" />
    <glyph glyph-name="macron" unicode="&#xaf;" horiz-adv-x="204" 
d="M184 1235v-35h-164v35h164z" />
    <glyph glyph-name="degree" unicode="&#xb0;" horiz-adv-x="212" 
d="M20 1360q0 35 25.5 60.5t60.5 25.5t61 -25.5t26 -60.5t-26 -60.5t-61 -25.5t-60.5 25.5t-25.5 60.5zM49 1360q0 -24 16.5 -40.5t40.5 -16.5q23 0 40.5 17t17.5 40q0 24 -17 40.5t-41 16.5q-25 0 -41 -16t-16 -41z" />
    <glyph glyph-name="plusminus" unicode="&#xb1;" horiz-adv-x="323" 
d="M303 772v-35h-123v-121h-37v121h-123v35h123v123h37v-123h123zM303 526v-34h-283v34h283z" />
    <glyph glyph-name="twosuperior" unicode="&#xb2;" horiz-adv-x="206" 
d="M20 623v114q0 56 13 106t25 73.5t36 64.5q53 82 53 154v221q0 29 -13 43t-32 14t-32 -14t-13 -43v-223h-37v217q0 50 22 74t60 24q82 0 82 -98v-213q0 -52 -14.5 -88.5t-42.5 -79.5q-22 -37 -34 -60.5t-24 -71t-12 -100.5v-80h127v-34h-164z" />
    <glyph glyph-name="threesuperior" unicode="&#xb3;" horiz-adv-x="204" 
d="M57 1354v-230h-37v234q0 40 23 64t59 24q37 0 59.5 -23.5t22.5 -64.5v-238q0 -48 -37 -63v-4q37 -15 37 -66v-297q0 -41 -22.5 -64.5t-59.5 -23.5q-36 0 -59 24t-23 64v225h37v-223q0 -29 13 -43t32 -14q45 0 45 57v287q0 32 -9 44.5t-36 12.5h-10v33h10q45 0 45 55v230
q0 57 -45 57q-19 0 -32 -14t-13 -43z" />
    <glyph glyph-name="acute" unicode="&#xb4;" horiz-adv-x="118" 
d="M57 1184h-37l39 219h39z" />
    <glyph glyph-name="paragraph" unicode="&#xb6;" horiz-adv-x="339" 
d="M319 -123h-36v1557h36v-1557zM201 -123h-37v805q-76 0 -110 83t-34 282q0 212 35.5 299.5t108.5 87.5h37v-1557z" />
    <glyph glyph-name="periodcentered" unicode="&#xb7;" horiz-adv-x="110" 
d="M20 625v92h70v-92h-70z" />
    <glyph glyph-name="cedilla" unicode="&#xb8;" horiz-adv-x="243" 
d="M72 2h37l-11 -47q125 0 125 -82q0 -47 -39 -78t-102 -31q-29 0 -59 9v34q21 -6 51 -6q47 0 80.5 18t33.5 54q0 29 -31 38t-104 9z" />
    <glyph glyph-name="onesuperior" unicode="&#xb9;" horiz-adv-x="172" 
d="M104 1434v-777h48v-34h-132v34h48v672h-48v35q35 0 43.5 13.5t8.5 56.5h32z" />
    <glyph glyph-name="ordmasculine" unicode="&#xba;" horiz-adv-x="217" 
d="M197 1354v-658q0 -42 -24.5 -67t-63.5 -25t-64 25t-25 67v658q0 42 25 68t64 26t63.5 -26t24.5 -68zM160 1341q0 36 -14.5 53t-36.5 17t-37 -17t-15 -53v-632q0 -36 15 -53t37 -17t36.5 17t14.5 53v632z" />
    <glyph glyph-name="guillemotright" unicode="&#xbb;" horiz-adv-x="262" 
d="M242 588l-62 -246h-37l62 246l-62 246h37zM119 588l-62 -246h-37l62 246l-62 246h37z" />
    <glyph glyph-name="onequarter" unicode="&#xbc;" horiz-adv-x="534" 
d="M104 1434v-777h48v-34h-132v34h48v672h-48v35q35 0 43.5 13.5t8.5 56.5h32zM135 0h-37l283 1434h37zM334 104v21l86 688h67v-674h25v-35h-25v-104h-36v104h-117zM371 139h80v645h-5z" />
    <glyph glyph-name="onehalf" unicode="&#xbd;" horiz-adv-x="542" 
d="M135 0h-37l283 1436h37zM104 1436v-779h48v-34h-132v34h48v674h-48v35q35 0 43.5 13t8.5 57h32zM356 0v115q0 56 12.5 105t26 75t37.5 63q18 31 26.5 47.5t16.5 46t8 60.5v221q0 29 -12 43.5t-31 14.5q-47 0 -47 -58v-223h-37v219q0 49 22.5 72.5t61.5 23.5q80 0 80 -98
v-211q0 -37 -9 -69.5t-18 -50t-28 -50.5q-24 -40 -35 -61t-24 -69t-13 -101v-80h127v-35h-164z" />
    <glyph glyph-name="threequarters" unicode="&#xbe;" horiz-adv-x="520" 
d="M57 1354v-230h-37v234q0 40 23 64t59 24q37 0 59.5 -23.5t22.5 -64.5v-238q0 -48 -37 -63v-4q37 -15 37 -66v-297q0 -41 -22.5 -64.5t-59.5 -23.5q-36 0 -59 24t-23 64v225h37v-223q0 -29 13 -43t32 -14q45 0 45 57v287q0 32 -9 44.5t-36 12.5h-10v33h10q45 0 45 55v230
q0 57 -45 57q-19 0 -32 -14t-13 -43zM160 0h-37l283 1434h36zM319 80v20l89 688h67v-673h25v-35h-25v-107h-37v107h-119zM356 115h82v643h-4z" />
    <glyph glyph-name="questiondown" unicode="&#xbf;" horiz-adv-x="270" 
d="M174 1169v-92h-70v92h70zM158 719q0 -96 -16 -185t-34.5 -148t-34.5 -148t-16 -185v-196q0 -51 22 -75t56 -24t56 24t22 75v422h37v-424q0 -61 -32 -97.5t-83 -36.5q-52 0 -83.5 36t-31.5 98v208q0 96 16 185t34.5 148t34.5 148t16 185v264h37v-274z" />
    <glyph glyph-name="Agrave" unicode="&#xc0;" horiz-adv-x="276" 
d="M121 1485l-41 219h39l39 -219h-37zM170 1434l88 -1434h-37l-24 416h-117l-25 -416h-37l88 1434h64zM82 451h113l-31 510l-23 432h-4l-22 -432z" />
    <glyph glyph-name="Aacute" unicode="&#xc1;" horiz-adv-x="276" 
d="M158 1485h-37l39 219h39zM170 1434l88 -1434h-37l-24 416h-117l-25 -416h-37l88 1434h64zM82 451h113l-31 510l-23 432h-4l-22 -432z" />
    <glyph glyph-name="Acircumflex" unicode="&#xc2;" horiz-adv-x="276" 
d="M102 1485h-36l47 219h55l47 -219h-37l-37 180h-4zM170 1434l88 -1434h-37l-24 416h-117l-25 -416h-37l88 1434h64zM82 451h113l-31 510l-23 432h-4l-22 -432z" />
    <glyph glyph-name="Atilde" unicode="&#xc3;" horiz-adv-x="276" 
d="M250 1667v-65q0 -46 -16.5 -73.5t-45.5 -27.5q-24 0 -40.5 21t-22.5 45.5t-15 45.5t-20 21q-22 0 -22 -75v-56h-39v60q0 108 59 108q24 0 40.5 -21t23 -46.5t15.5 -46.5t21 -21q25 0 25 72v59h37zM170 1434l88 -1434h-37l-24 416h-117l-25 -416h-37l88 1434h64zM82 451
h113l-31 510l-23 430h-4l-22 -430z" />
    <glyph glyph-name="Adieresis" unicode="&#xc4;" horiz-adv-x="276" 
d="M88 1493v113h35v-113h-35zM160 1493v113h37v-113h-37zM170 1434l88 -1434h-37l-24 416h-117l-25 -416h-37l91 1434h61zM82 451h113l-31 510l-23 432h-4l-22 -432z" />
    <glyph glyph-name="Aring" unicode="&#xc5;" horiz-adv-x="276" 
d="M29 1595q0 107 108 107q109 0 109 -109q0 -106 -109 -106q-108 0 -108 108zM63 1595q0 -35 19.5 -54t54.5 -19q37 0 56.5 18.5t19.5 52.5q0 36 -20 55t-56 19q-74 0 -74 -72zM170 1434l88 -1434h-37l-24 416h-117l-25 -416h-37l88 1434h64zM82 451h113l-33 510l-23 432
h-4l-20 -432z" />
    <glyph glyph-name="AE" unicode="&#xc6;" horiz-adv-x="393" 
d="M350 1434v-35h-92v-645h102v-35h-102v-684h113v-35h-148v416h-119l-49 -416h-37l172 1434h160zM109 451h114v942h-2z" />
    <glyph glyph-name="Ccedilla" unicode="&#xc7;" horiz-adv-x="319" 
d="M238 1309q0 52 -22 76t-56 24q-33 0 -55.5 -24.5t-22.5 -75.5v-1188q0 -52 22.5 -76.5t55.5 -24.5q34 0 56 24.5t22 76.5v485h36v-485q0 -57 -26 -92t-70 -41l-8 -33q125 0 125 -82q0 -47 -39 -78t-102 -31q-30 0 -60 9v34q21 -6 51 -6q47 0 80 18t33 54q0 29 -30.5 38
t-102.5 9l16 68q-44 8 -70 42.5t-26 90.5v1192q0 62 31.5 97.5t83.5 35.5q51 0 82.5 -36t31.5 -97v-422h-36v418z" />
    <glyph glyph-name="Egrave" unicode="&#xc8;" horiz-adv-x="219" 
d="M92 1485l-41 219h39l39 -219h-37zM188 1434v-35h-102v-645h92v-35h-92v-684h113v-35h-152v1434h141z" />
    <glyph glyph-name="Eacute" unicode="&#xc9;" horiz-adv-x="219" 
d="M133 1485h-37l39 219h39zM188 1434v-35h-102v-645h92v-35h-92v-684h113v-35h-152v1434h141z" />
    <glyph glyph-name="Ecircumflex" unicode="&#xca;" horiz-adv-x="219" 
d="M76 1485h-37l47 219h57l47 -219h-36l-37 178h-4zM188 1434v-35h-102v-645h92v-35h-92v-684h113v-35h-152v1434h141z" />
    <glyph glyph-name="Edieresis" unicode="&#xcb;" horiz-adv-x="219" 
d="M59 1493v113h39v-113h-39zM133 1493v113h35v-113h-35zM186 1434v-35h-102v-645h92v-35h-92v-684h115v-35h-152v1434h139z" />
    <glyph glyph-name="Igrave" unicode="&#xcc;" horiz-adv-x="126" 
d="M45 1485l-41 219h39l39 -219h-37zM82 1434v-1434h-37v1434h37z" />
    <glyph glyph-name="Iacute" unicode="&#xcd;" horiz-adv-x="126" 
d="M82 1485h-37l39 219h39zM82 1434v-1434h-37v1434h37z" />
    <glyph glyph-name="Icircumflex" unicode="&#xce;" horiz-adv-x="126" 
d="M25 1485h-37l47 219h57l47 -219h-37l-36 178h-5zM82 1434v-1434h-37v1434h37z" />
    <glyph glyph-name="Idieresis" unicode="&#xcf;" horiz-adv-x="126" 
d="M10 1493v113h37v-113h-37zM82 1493v113h37v-113h-37zM82 1434v-1434h-37v1434h37z" />
    <glyph glyph-name="Eth" unicode="&#xd0;" horiz-adv-x="319" 
d="M274 1300v-1167q0 -62 -31 -97.5t-83 -35.5h-115v700h-41v35h41v699h115q52 0 83 -36t31 -98zM238 1298q0 52 -22 76.5t-56 24.5h-78v-664h41v-35h-41v-665h78q34 0 56 23t22 75v1165z" />
    <glyph glyph-name="Ntilde" unicode="&#xd1;" horiz-adv-x="372" 
d="M299 1667v-65q0 -46 -17 -74.5t-46 -28.5q-24 0 -40 21t-23 46.5t-16.5 46.5t-21.5 21q-20 0 -20 -75v-56h-39v60q0 108 59 108q25 0 42 -21t23.5 -46.5t15.5 -46.5t20 -21q24 0 24 72v59h39zM328 1434v-1434h-70l-172 1376h-4v-1376h-37v1434h70l172 -1393h4v1393h37z
" />
    <glyph glyph-name="Ograve" unicode="&#xd2;" horiz-adv-x="319" 
d="M141 1485l-41 219h39l39 -219h-37zM274 1313v-1192q0 -62 -31 -97.5t-83 -35.5t-83.5 36t-31.5 97v1192q0 62 31.5 97.5t83.5 35.5q51 0 82.5 -36t31.5 -97zM238 1313q0 51 -22 74.5t-56 23.5t-56 -23.5t-22 -74.5v-1190q0 -52 22 -76t56 -24t56 24t22 76v1190z" />
    <glyph glyph-name="Oacute" unicode="&#xd3;" horiz-adv-x="319" 
d="M178 1485h-37l39 219h39zM274 1313v-1192q0 -62 -31 -97.5t-83 -35.5t-83.5 36t-31.5 97v1192q0 62 31.5 97.5t83.5 35.5q51 0 82.5 -36t31.5 -97zM238 1313q0 51 -22 74.5t-56 23.5t-56 -23.5t-22 -74.5v-1190q0 -52 22 -76t56 -24t56 24t22 76v1190z" />
    <glyph glyph-name="Ocircumflex" unicode="&#xd4;" horiz-adv-x="319" 
d="M121 1485h-37l47 219h57l48 -219h-37l-37 178h-4zM274 1313v-1192q0 -62 -31 -97.5t-83 -35.5t-83.5 36t-31.5 97v1192q0 62 31.5 97.5t83.5 35.5q51 0 82.5 -36t31.5 -97zM238 1313q0 51 -22 74.5t-56 23.5t-56 -23.5t-22 -74.5v-1190q0 -52 22 -76t56 -24t56 24t22 76
v1190z" />
    <glyph glyph-name="Otilde" unicode="&#xd5;" horiz-adv-x="319" 
d="M270 1667v-65q0 -46 -17 -74.5t-46 -28.5q-24 0 -40 21t-23 46.5t-16.5 46.5t-21.5 21q-20 0 -20 -75v-56h-39v60q0 108 59 108q25 0 41.5 -21t23 -46.5t15.5 -46.5t21 -21q24 0 24 72v59h39zM274 1311v-1190q0 -62 -31 -97.5t-83 -35.5t-83.5 35.5t-31.5 97.5v1190
q0 62 31.5 98.5t83.5 36.5t83 -36.5t31 -98.5zM238 1311q0 52 -22 76t-56 24t-56 -24t-22 -76v-1190q0 -52 22 -76.5t56 -24.5t56 24.5t22 76.5v1190z" />
    <glyph glyph-name="Odieresis" unicode="&#xd6;" horiz-adv-x="319" 
d="M106 1493v113h37v-113h-37zM176 1493v113h37v-113h-37zM274 1313v-1192q0 -62 -31 -97.5t-83 -35.5t-83.5 36t-31.5 97v1192q0 62 31.5 97.5t83.5 35.5q51 0 82.5 -36t31.5 -97zM238 1313q0 51 -22 74.5t-56 23.5t-56 -23.5t-22 -74.5v-1190q0 -52 22 -76t56 -24t56 24
t22 76v1190z" />
    <glyph glyph-name="multiply" unicode="&#xd7;" horiz-adv-x="325" 
d="M305 578l-24 -25l-119 117l-115 -115l-24 25l114 114l-114 117l24 25l115 -117l117 117l24 -25l-117 -117z" />
    <glyph glyph-name="Oslash" unicode="&#xd8;" horiz-adv-x="319" 
d="M274 1313v-1192q0 -62 -31 -97.5t-83 -35.5q-48 0 -78 30l-4 -30l-33 6l10 69q-10 27 -10 58v1192q0 62 31.5 97.5t83.5 35.5q44 0 76 -29l4 29l34 -6l-10 -70q10 -27 10 -57zM82 268l147 1096q-19 47 -69 47q-34 0 -56 -23.5t-22 -74.5v-1045zM238 1167l-148 -1093
q17 -51 70 -51q34 0 56 24t22 76v1044z" />
    <glyph glyph-name="Ugrave" unicode="&#xd9;" horiz-adv-x="319" 
d="M141 1485l-41 219h39l39 -219h-37zM274 1434v-1313q0 -62 -31 -97.5t-83 -35.5q-51 0 -83 35.5t-32 97.5v1313h37v-1313q0 -51 22 -74.5t56 -23.5t56 23.5t22 74.5v1313h36z" />
    <glyph glyph-name="Uacute" unicode="&#xda;" horiz-adv-x="319" 
d="M178 1485h-37l39 219h39zM274 1434v-1313q0 -62 -31 -97.5t-83 -35.5q-51 0 -83 35.5t-32 97.5v1313h37v-1313q0 -51 22 -74.5t56 -23.5t56 23.5t22 74.5v1313h36z" />
    <glyph glyph-name="Ucircumflex" unicode="&#xdb;" horiz-adv-x="319" 
d="M121 1485h-37l47 219h57l48 -219h-37l-37 178h-4zM274 1434v-1313q0 -62 -31 -97.5t-83 -35.5q-51 0 -83 35.5t-32 97.5v1313h37v-1313q0 -51 22 -74.5t56 -23.5t56 23.5t22 74.5v1313h36z" />
    <glyph glyph-name="Udieresis" unicode="&#xdc;" horiz-adv-x="319" 
d="M106 1493v113h37v-113h-37zM178 1493v113h37v-113h-37zM274 1434v-1313q0 -63 -30.5 -98t-83.5 -35q-51 0 -83 35.5t-32 97.5v1313h37v-1313q0 -51 22 -74.5t56 -23.5t56 23.5t22 74.5v1313h36z" />
    <glyph glyph-name="Yacute" unicode="&#xdd;" horiz-adv-x="274" 
d="M156 1485h-37l39 219h39zM258 1434l-102 -811v-623h-37v623l-103 811h39l60 -506l20 -203h4l21 203l59 506h39z" />
    <glyph glyph-name="Thorn" unicode="&#xde;" horiz-adv-x="319" 
d="M274 1004v-498q0 -62 -31 -97.5t-83 -35.5h-78v-373h-37v1434h37v-297h78q52 0 83 -35.5t31 -97.5zM238 1001q0 52 -22 76.5t-56 24.5h-78v-694h78q34 0 56 23t22 75v495z" />
    <glyph glyph-name="germandbls" unicode="&#xdf;" 
d="M238 1311q0 52 -22 76t-56 24h-4q-31 0 -52.5 -24.5t-21.5 -75.5v-1311h-37v1313q0 62 31 97.5t80 35.5h4q52 0 83 -35.5t31 -97.5v-430q0 -82 -51 -113v-4q51 -28 51 -113v-520q0 -62 -31 -97.5t-83 -35.5h-17v37h17q34 0 56 23t22 75v518q0 99 -78 99h-17v34h17
q34 0 56 23.5t22 75.5v426z" />
    <glyph glyph-name="agrave" unicode="&#xe0;" 
d="M137 1219l-41 219h39l39 -219h-37zM82 1047v-297h-37v297q0 62 31 97.5t80 35.5q50 0 80 -35.5t30 -97.5v-1047h-37v51h-4q-20 -63 -84 -63q-42 0 -69 36.5t-27 98.5v369q0 85 36.5 120t147.5 74v361q0 51 -20.5 74.5t-52.5 23.5t-53 -23.5t-21 -74.5zM229 649
q-100 -40 -123.5 -65t-23.5 -95v-366q0 -52 21 -76t53 -24t52.5 24t20.5 76v526z" />
    <glyph glyph-name="aacute" unicode="&#xe1;" 
d="M174 1219h-37l39 219h39zM82 1047v-297h-37v297q0 62 31 97.5t80 35.5q50 0 80 -35.5t30 -97.5v-1047h-37v51h-4q-20 -63 -84 -63q-42 0 -69 36.5t-27 98.5v369q0 85 36.5 120t147.5 74v361q0 51 -20.5 74.5t-52.5 23.5t-53 -23.5t-21 -74.5zM229 649
q-100 -40 -123.5 -65t-23.5 -95v-366q0 -52 21 -76t53 -24t52.5 24t20.5 76v526z" />
    <glyph glyph-name="acircumflex" unicode="&#xe2;" 
d="M117 1219h-37l47 219h57l47 -219h-36l-37 178h-4zM82 1047v-297h-37v297q0 62 31 97.5t80 35.5q50 0 80 -35.5t30 -97.5v-1047h-37v51h-4q-20 -63 -84 -63q-42 0 -69 36.5t-27 98.5v369q0 85 36.5 120t147.5 74v361q0 51 -20.5 74.5t-52.5 23.5t-53 -23.5t-21 -74.5z
M229 649q-100 -40 -123.5 -65t-23.5 -95v-366q0 -52 21 -76t53 -24t52.5 24t20.5 76v526z" />
    <glyph glyph-name="atilde" unicode="&#xe3;" 
d="M268 1401v-66q0 -46 -16 -73t-45 -27q-24 0 -40.5 21t-23.5 45.5t-16.5 45.5t-22.5 21q-20 0 -20 -74v-57h-39v59q0 109 59 109q25 0 42 -21t23.5 -46.5t16 -46.5t21.5 -21q24 0 24 71v60h37zM84 1047v-297h-37v297q0 62 30.5 97.5t80.5 35.5t80 -35.5t30 -97.5v-1047
h-37v51h-4q-9 -28 -31.5 -45.5t-52.5 -17.5q-43 0 -69.5 36.5t-26.5 98.5v369q0 85 36.5 120t147.5 74v361q0 50 -21 74t-52 24q-32 0 -53 -23.5t-21 -74.5zM231 649q-101 -40 -124 -65t-23 -95v-366q0 -52 21 -76t53 -24q31 0 52 24t21 76v526z" />
    <glyph glyph-name="adieresis" unicode="&#xe4;" 
d="M102 1227v112h37v-112h-37zM174 1227v112h37v-112h-37zM82 1047v-297h-37v297q0 62 31 97.5t80 35.5q50 0 80 -35.5t30 -97.5v-1047h-37v51h-4q-20 -63 -84 -63q-42 0 -69 36.5t-27 98.5v369q0 85 36.5 120t147.5 74v361q0 51 -20.5 74.5t-52.5 23.5t-53 -23.5t-21 -74.5
zM229 649q-100 -40 -123.5 -65t-23.5 -95v-366q0 -52 21 -76t53 -24t52.5 24t20.5 76v526z" />
    <glyph glyph-name="aring" unicode="&#xe5;" 
d="M43 1329q0 107 111 107q110 0 110 -109q0 -51 -28 -78.5t-82 -27.5t-82.5 27.5t-28.5 80.5zM80 1329q0 -74 74 -74q73 0 73 72q0 35 -19 54.5t-54 19.5q-74 0 -74 -72zM82 1047v-297h-37v297q0 62 31 97.5t80 35.5q50 0 80 -35.5t30 -97.5v-1047h-37v51h-4
q-20 -63 -84 -63q-42 0 -69 36.5t-27 98.5v369q0 85 36.5 120t147.5 74v361q0 51 -20.5 74.5t-52.5 23.5t-53 -23.5t-21 -74.5zM229 649q-100 -40 -123.5 -65t-23.5 -95v-366q0 -52 21 -76t53 -24t52.5 24t20.5 76v526z" />
    <glyph glyph-name="ae" unicode="&#xe6;" horiz-adv-x="495" 
d="M238 72h-5q-9 -40 -34 -62t-58 -22q-42 0 -69 35.5t-27 97.5v340q0 85 36.5 120t147.5 74v389q0 52 -20.5 76.5t-52.5 24.5t-53 -24.5t-21 -76.5v-294h-37v297q0 62 31.5 98.5t79.5 36.5q64 0 90 -54h4q26 54 90 54q48 0 79.5 -36.5t31.5 -98.5v-426h-185v-500
q0 -51 21 -74.5t53 -23.5t53 23.5t21 74.5v356h37v-356q0 -62 -30.5 -97.5t-80.5 -35.5q-37 0 -64.5 22.5t-37.5 61.5zM414 1044q0 52 -21 76.5t-53 24.5t-53 -24.5t-21 -76.5v-387h148v387zM229 618q-71 -29 -98 -45.5t-38 -40.5t-11 -73v-338q0 -51 21 -74.5t53 -23.5
t52.5 23.5t20.5 74.5v497z" />
    <glyph glyph-name="ccedilla" unicode="&#xe7;" 
d="M229 1047q0 51 -20.5 74.5t-52.5 23.5t-53 -23.5t-21 -74.5v-926q0 -52 21 -76.5t53 -24.5t52.5 24.5t20.5 76.5v377h37v-377q0 -54 -22.5 -88t-61.5 -43l-8 -35q125 0 125 -82q0 -47 -39 -78t-102 -31q-30 0 -60 9v34q21 -6 52 -6q47 0 79.5 18t32.5 54q0 29 -30.5 38
t-102.5 9l16 68q-45 5 -72.5 40t-27.5 93v926q0 62 30.5 97.5t80.5 35.5q48 0 79 -36.5t31 -96.5v-324h-37v324z" />
    <glyph glyph-name="egrave" unicode="&#xe8;" 
d="M137 1219l-41 219h39l39 -219h-37zM229 477h37v-356q0 -62 -30 -97.5t-80 -35.5q-48 0 -79.5 36.5t-31.5 96.5v926q0 62 30.5 97.5t80.5 35.5q48 0 79 -35.5t31 -97.5v-426h-184v-498q0 -52 21 -76t53 -24t52.5 24t20.5 76v354zM229 1047q0 51 -20.5 74.5t-52.5 23.5
t-53 -23.5t-21 -74.5v-392h147v392z" />
    <glyph glyph-name="eacute" unicode="&#xe9;" 
d="M174 1219h-37l39 219h39zM229 477h37v-356q0 -62 -30 -97.5t-80 -35.5q-48 0 -79.5 36.5t-31.5 96.5v926q0 62 30.5 97.5t80.5 35.5q48 0 79 -36.5t31 -96.5v-426h-184v-498q0 -52 21 -76t53 -24t52.5 24t20.5 76v354zM229 1047q0 51 -20.5 74.5t-52.5 23.5t-53 -23.5
t-21 -74.5v-392h147v392z" />
    <glyph glyph-name="ecircumflex" unicode="&#xea;" 
d="M117 1219h-37l47 219h57l47 -219h-36l-37 178h-4zM229 477h37v-356q0 -62 -30 -97.5t-80 -35.5q-48 0 -79.5 36.5t-31.5 96.5v926q0 62 30.5 97.5t80.5 35.5q48 0 79 -36.5t31 -96.5v-426h-184v-498q0 -52 21 -76t53 -24t52.5 24t20.5 76v354zM229 1047q0 51 -20.5 74.5
t-52.5 23.5t-53 -23.5t-21 -74.5v-392h147v392z" />
    <glyph glyph-name="edieresis" unicode="&#xeb;" 
d="M102 1227v112h37v-112h-37zM172 1227v112h37v-112h-37zM229 477h37v-356q0 -62 -30 -97.5t-78 -35.5q-50 0 -81.5 36t-31.5 97v926q0 62 30.5 97.5t80.5 35.5q48 0 79 -36.5t31 -96.5v-426h-184v-498q0 -52 21 -76t53 -24t52.5 24t20.5 76v354zM229 1047q0 51 -20.5 74.5
t-52.5 23.5t-53 -23.5t-21 -74.5v-392h147v392z" />
    <glyph glyph-name="igrave" unicode="&#xec;" horiz-adv-x="139" 
d="M51 1219l-41 219h39l39 -219h-37zM51 0v1167h37v-1167h-37z" />
    <glyph glyph-name="iacute" unicode="&#xed;" horiz-adv-x="139" 
d="M88 1219h-37l39 219h39zM51 0v1167h37v-1167h-37z" />
    <glyph glyph-name="icircumflex" unicode="&#xee;" horiz-adv-x="139" 
d="M31 1219h-37l47 219h57l47 -219h-36l-37 178h-4zM51 0v1167h37v-1167h-37z" />
    <glyph glyph-name="idieresis" unicode="&#xef;" horiz-adv-x="139" 
d="M16 1227v112h37v-112h-37zM88 1227v112h37v-112h-37zM51 0v1167h37v-1167h-37z" />
    <glyph glyph-name="eth" unicode="&#xf0;" horiz-adv-x="329" 
d="M68 1497q84 -56 135 -137l55 39l21 -29l-58 -39q62 -121 62 -284v-926q0 -61 -30 -97t-81 -36q-50 0 -80.5 36.5t-30.5 96.5v926q0 61 27.5 98t73.5 37q54 0 80 -56l4 2q-15 102 -56 183l-51 -35l-20 29l55 36q-50 77 -127 127zM246 1044q0 46 -19.5 73.5t-54.5 27.5
t-54.5 -27.5t-19.5 -73.5v-923q0 -46 19.5 -72t54.5 -26t54.5 26t19.5 72v923z" />
    <glyph glyph-name="ntilde" unicode="&#xf1;" 
d="M268 1401v-66q0 -47 -16 -74.5t-45 -27.5q-24 0 -40.5 21t-23.5 46.5t-16.5 46.5t-22.5 21q-20 0 -20 -74v-57h-39v59q0 109 59 109q25 0 42 -21t23.5 -46.5t16 -46.5t21.5 -21q24 0 24 71v60h37zM229 1044q0 52 -20.5 76.5t-52.5 24.5t-53 -24.5t-21 -76.5v-1044h-37
v1167h37v-51h4q22 64 82 64q43 0 70.5 -37t27.5 -99v-1044h-37v1044z" />
    <glyph glyph-name="ograve" unicode="&#xf2;" 
d="M137 1219l-41 219h39l39 -219h-37zM266 1047v-926q0 -62 -30 -97.5t-80 -35.5q-48 0 -79.5 36.5t-31.5 96.5v926q0 62 30.5 97.5t80.5 35.5q48 0 79 -35.5t31 -97.5zM229 1047q0 51 -20.5 74.5t-52.5 23.5t-53 -23.5t-21 -74.5v-926q0 -51 21 -74.5t53 -23.5t52.5 23.5
t20.5 74.5v926z" />
    <glyph glyph-name="oacute" unicode="&#xf3;" 
d="M174 1219h-37l39 219h39zM266 1047v-926q0 -62 -30 -97.5t-80 -35.5q-48 0 -79.5 36.5t-31.5 96.5v926q0 62 30.5 97.5t80.5 35.5q48 0 79 -35.5t31 -97.5zM229 1047q0 51 -20.5 74.5t-52.5 23.5t-53 -23.5t-21 -74.5v-926q0 -51 21 -74.5t53 -23.5t52.5 23.5t20.5 74.5
v926z" />
    <glyph glyph-name="ocircumflex" unicode="&#xf4;" 
d="M117 1219h-37l47 219h57l47 -219h-36l-37 178h-4zM266 1047v-926q0 -62 -30 -97.5t-80 -35.5q-48 0 -79.5 36.5t-31.5 96.5v926q0 62 30.5 97.5t80.5 35.5q48 0 79 -35.5t31 -97.5zM229 1047q0 51 -20.5 74.5t-52.5 23.5t-53 -23.5t-21 -74.5v-926q0 -51 21 -74.5
t53 -23.5t52.5 23.5t20.5 74.5v926z" />
    <glyph glyph-name="otilde" unicode="&#xf5;" 
d="M268 1401v-66q0 -47 -16 -74.5t-45 -27.5q-24 0 -40.5 21t-23.5 46.5t-16.5 46.5t-22.5 21q-20 0 -20 -74v-57h-39v59q0 109 59 109q25 0 42 -21t23.5 -46.5t16 -46.5t21.5 -21q24 0 24 71v60h37zM266 1044v-923q0 -62 -30 -97.5t-80 -35.5q-49 0 -80 35.5t-31 97.5v923
q0 62 30.5 99t80.5 37q48 0 79 -37t31 -99zM229 1044q0 52 -20.5 76.5t-52.5 24.5t-53 -24.5t-21 -76.5v-923q0 -52 21 -76.5t53 -24.5t52.5 24.5t20.5 76.5v923z" />
    <glyph glyph-name="odieresis" unicode="&#xf6;" 
d="M102 1227v112h37v-112h-37zM174 1227v112h37v-112h-37zM266 1047v-926q0 -62 -30 -97.5t-78 -35.5q-50 0 -81.5 36t-31.5 97v926q0 62 30.5 97.5t80.5 35.5t80 -35.5t30 -97.5zM229 1047q0 51 -20.5 74.5t-52.5 23.5t-53 -23.5t-21 -74.5v-926q0 -51 21 -74.5t53 -23.5
t52.5 23.5t20.5 74.5v926z" />
    <glyph glyph-name="divide" unicode="&#xf7;" horiz-adv-x="380" 
d="M160 793v84h63v-84h-63zM360 711v-35h-340v35h340zM160 510v84h63v-84h-63z" />
    <glyph glyph-name="oslash" unicode="&#xf8;" 
d="M266 1047v-926q0 -62 -30 -97.5t-80 -35.5q-43 0 -74 28l-4 -28l-33 6l10 65q-10 30 -10 62v926q0 62 30.5 97.5t80.5 35.5q41 0 71 -27l4 25l35 -7l-10 -63q10 -30 10 -61zM82 227l137 875q-17 43 -63 43q-32 0 -53 -23.5t-21 -74.5v-820zM229 940l-139 -872
q19 -45 66 -45q32 0 52.5 23.5t20.5 74.5v819z" />
    <glyph glyph-name="ugrave" unicode="&#xf9;" 
d="M137 1219l-41 219h39l39 -219h-37zM82 123q0 -52 21 -76t53 -24t52.5 24t20.5 76v1046h37v-1169h-37v49l-4 2q-22 -63 -82 -63q-43 0 -70.5 36.5t-27.5 98.5v1044h37v-1044z" />
    <glyph glyph-name="uacute" unicode="&#xfa;" 
d="M174 1219h-37l39 219h39zM82 123q0 -52 21 -76t53 -24t52.5 24t20.5 76v1046h37v-1169h-37v49l-4 2q-22 -63 -82 -63q-43 0 -70.5 36.5t-27.5 98.5v1044h37v-1044z" />
    <glyph glyph-name="ucircumflex" unicode="&#xfb;" 
d="M117 1219h-37l47 219h57l47 -219h-36l-37 178h-4zM82 123q0 -52 21 -76t53 -24t52.5 24t20.5 76v1046h37v-1169h-37v49l-4 2q-22 -63 -82 -63q-43 0 -70.5 36.5t-27.5 98.5v1044h37v-1044z" />
    <glyph glyph-name="udieresis" unicode="&#xfc;" 
d="M102 1227v112h37v-112h-37zM174 1227v112h37v-112h-37zM82 123q0 -52 21 -76t53 -24t52.5 24t20.5 76v1046h37v-1169h-37v49l-4 2q-22 -63 -84 -63q-42 0 -69 36.5t-27 98.5v1044h37v-1044z" />
    <glyph glyph-name="yacute" unicode="&#xfd;" horiz-adv-x="266" 
d="M152 1219h-37l39 219h39zM57 1167l54 -682l20 -307h4l19 307l55 682h37l-121 -1495h-37l27 328l-95 1167h37z" />
    <glyph glyph-name="thorn" unicode="&#xfe;" 
d="M45 1495h37v-379h4q22 64 84 64q43 0 69.5 -35.5t26.5 -97.5v-924q0 -62 -27.5 -98.5t-70.5 -36.5q-60 0 -82 63h-4v-379h-37v1823zM229 125v919q0 52 -20.5 76.5t-52.5 24.5t-53 -24.5t-21 -76.5v-919q0 -52 21 -76t53 -24t52.5 24t20.5 76z" />
    <glyph glyph-name="ydieresis" unicode="&#xff;" horiz-adv-x="266" 
d="M80 1227v112h37v-112h-37zM152 1227v112h36v-112h-36zM57 1167l54 -682l20 -307h4l21 307l53 682h37l-121 -1495h-35l25 328l-95 1167h37z" />
    <glyph glyph-name="Amacron" unicode="&#x100;" horiz-adv-x="276" 
d="M221 1556v-34h-164v34h164zM170 1434l88 -1434h-37l-24 416h-117l-25 -416h-37l88 1434h64zM82 451h113l-33 510l-23 432h-4l-20 -432z" />
    <glyph glyph-name="amacron" unicode="&#x101;" 
d="M238 1290v-35h-164v35h164zM82 1047v-297h-37v297q0 62 31 97.5t80 35.5q50 0 80 -35.5t30 -97.5v-1047h-37v51h-4q-20 -63 -84 -63q-42 0 -69 36.5t-27 98.5v369q0 85 36.5 120t147.5 74v361q0 51 -20.5 74.5t-52.5 23.5t-53 -23.5t-21 -74.5zM229 649
q-100 -40 -123.5 -65t-23.5 -95v-366q0 -52 21 -76t53 -24t52.5 24t20.5 76v526z" />
    <glyph glyph-name="Abreve" unicode="&#x102;" horiz-adv-x="276" 
d="M20 1661h39q0 -131 82 -131t82 131h37q0 -162 -119 -162q-121 0 -121 162zM170 1434l88 -1434h-37l-24 416h-117l-25 -416h-37l88 1434h64zM82 451h113l-31 510l-23 432h-4l-22 -432z" />
    <glyph glyph-name="abreve" unicode="&#x103;" 
d="M37 1395h37q0 -131 84 -131q82 0 82 131h36q0 -162 -118 -162q-121 0 -121 162zM82 1047v-297h-37v297q0 62 30.5 97.5t80.5 35.5t80 -35.5t30 -97.5v-1047h-37v51h-4q-9 -28 -31.5 -45.5t-52.5 -17.5q-42 0 -69 36.5t-27 98.5v369q0 85 36.5 120t147.5 74v361
q0 51 -20.5 74.5t-52.5 23.5t-53 -23.5t-21 -74.5zM229 649q-100 -40 -123.5 -65t-23.5 -95v-366q0 -52 21 -76t53 -24t52.5 24t20.5 76v526z" />
    <glyph glyph-name="Aogonek" unicode="&#x104;" horiz-adv-x="276" 
d="M170 1434l88 -1434q-38 -10 -58 -37t-20 -59q0 -29 17.5 -46.5t44.5 -17.5q10 0 16 2v-37q-6 -2 -25 -2q-41 0 -64.5 26t-23.5 62q0 34 20 64t56 45l-26 416h-115l-25 -416h-37l88 1434h64zM82 451h111l-31 510l-23 432h-4l-20 -432z" />
    <glyph glyph-name="aogonek" unicode="&#x105;" 
d="M82 1047v-297h-37v297q0 62 31 97.5t80 35.5q50 0 80 -35.5t30 -97.5v-1047h-2q-38 -10 -58 -37t-20 -59q0 -29 17.5 -46.5t44.5 -17.5q10 0 16 2v-37q-5 -2 -24 -2q-41 0 -64.5 26t-23.5 62q0 34 20 65.5t57 45.5v49h-4q-20 -63 -84 -63q-42 0 -69 36.5t-27 96.5v371
q0 85 36.5 120t147.5 74v361q0 51 -20.5 74.5t-52.5 23.5t-53 -23.5t-21 -74.5zM229 649q-100 -40 -123.5 -65t-23.5 -95v-366q0 -52 21 -76t53 -24t52.5 24t20.5 76v526z" />
    <glyph glyph-name="Cacute" unicode="&#x106;" horiz-adv-x="319" 
d="M178 1485h-37l39 219h39zM238 1311q0 52 -22 76t-56 24t-56 -24t-22 -76v-1190q0 -51 22 -74.5t56 -23.5t56 23.5t22 74.5v485h36v-485q0 -62 -31 -97.5t-83 -35.5q-51 0 -83 35.5t-32 97.5v1192q0 62 31.5 97.5t83.5 35.5t83 -35.5t31 -97.5v-422h-36v420z" />
    <glyph glyph-name="cacute" unicode="&#x107;" 
d="M174 1219h-37l39 219h39zM229 1047q0 51 -20.5 74.5t-52.5 23.5t-53 -23.5t-21 -74.5v-924q0 -52 21 -76t53 -24t52.5 24t20.5 76v375h37v-377q0 -62 -30 -97.5t-80 -35.5q-48 0 -79.5 36.5t-31.5 96.5v926q0 62 30.5 97.5t80.5 35.5q48 0 79 -36.5t31 -96.5v-324h-37
v324z" />
    <glyph glyph-name="Ccircumflex" unicode="&#x108;" horiz-adv-x="319" 
d="M121 1485h-37l47 219h57l48 -219h-37l-37 178h-4zM238 1311q0 52 -22 76t-56 24t-56 -24t-22 -76v-1190q0 -51 22 -74.5t56 -23.5t56 23.5t22 74.5v485h36v-485q0 -62 -31 -97.5t-83 -35.5q-51 0 -83 35.5t-32 97.5v1192q0 62 31.5 97.5t83.5 35.5t83 -35.5t31 -97.5
v-422h-36v420z" />
    <glyph glyph-name="ccircumflex" unicode="&#x109;" 
d="M117 1219h-37l47 219h57l47 -219h-36l-37 178h-4zM229 1047q0 51 -20.5 74.5t-52.5 23.5t-53 -23.5t-21 -74.5v-924q0 -52 21 -76t53 -24t52.5 24t20.5 76v375h37v-377q0 -62 -30 -97.5t-80 -35.5q-48 0 -79.5 36.5t-31.5 96.5v926q0 62 30.5 97.5t80.5 35.5
q48 0 79 -36.5t31 -96.5v-324h-37v324z" />
    <glyph glyph-name="Cdotaccent" unicode="&#x10a;" horiz-adv-x="319" 
d="M125 1493v92h70v-92h-70zM238 1311q0 52 -22 76t-56 24t-56 -24t-22 -76v-1190q0 -51 22 -74.5t56 -23.5t56 23.5t22 74.5v485h36v-485q0 -62 -31 -97.5t-83 -35.5q-51 0 -83 35.5t-32 97.5v1192q0 62 31.5 97.5t83.5 35.5t83 -35.5t31 -97.5v-422h-36v420z" />
    <glyph glyph-name="cdotaccent" unicode="&#x10b;" 
d="M121 1227v92h69v-92h-69zM229 1047q0 51 -20.5 74.5t-52.5 23.5t-53 -23.5t-21 -74.5v-924q0 -52 21 -76t53 -24t52.5 24t20.5 76v375h37v-377q0 -63 -29 -98t-79 -35t-81.5 36t-31.5 97v926q0 62 30.5 97.5t80.5 35.5t80 -36t30 -97v-324h-37v324z" />
    <glyph glyph-name="Ccaron" unicode="&#x10c;" horiz-adv-x="319" 
d="M209 1704h37l-47 -219h-58l-47 219h37l37 -178h4zM238 1311q0 52 -22 76t-56 24t-56 -24t-22 -76v-1190q0 -51 22 -74.5t56 -23.5t56 23.5t22 74.5v485h36v-485q0 -62 -31 -97.5t-83 -35.5q-51 0 -83 35.5t-32 97.5v1192q0 62 31.5 97.5t83.5 35.5t83 -35.5t31 -97.5
v-422h-36v420z" />
    <glyph glyph-name="ccaron" unicode="&#x10d;" 
d="M205 1438h37l-47 -219h-58l-47 219h37l37 -178h4zM229 1047q0 51 -20.5 74.5t-52.5 23.5t-53 -23.5t-21 -74.5v-924q0 -52 21 -76t53 -24t52.5 24t20.5 76v375h37v-377q0 -62 -30 -97.5t-80 -35.5q-48 0 -79.5 36.5t-31.5 96.5v926q0 62 30.5 97.5t80.5 35.5
q48 0 79 -36.5t31 -96.5v-324h-37v324z" />
    <glyph glyph-name="Dcaron" unicode="&#x10e;" horiz-adv-x="319" 
d="M190 1704h37l-47 -219h-57l-47 219h37l37 -178h4zM274 1300v-1167q0 -62 -31 -97.5t-83 -35.5h-115v1434h115q52 0 83 -36t31 -98zM238 1298q0 52 -22 76.5t-56 24.5h-78v-1364h78q34 0 56 23t22 75v1165z" />
    <glyph glyph-name="dcaron" unicode="&#x10f;" horiz-adv-x="346" 
d="M297 1317l12 178h37l-16 -178h-33zM266 0h-37v51l-4 2q-22 -65 -84 -65q-43 0 -69.5 36.5t-26.5 98.5v926q0 60 27 95.5t71 35.5q61 0 82 -62h4v377h37v-1495zM82 1044v-921q0 -52 21 -76t53 -24t52.5 24t20.5 76v921q0 52 -20.5 76.5t-52.5 24.5t-53 -24.5t-21 -76.5z
" />
    <glyph glyph-name="Dcroat" unicode="&#x110;" horiz-adv-x="319" 
d="M274 1300v-1167q0 -62 -31 -97.5t-83 -35.5h-115v700h-41v35h41v699h115q52 0 83 -36t31 -98zM238 1298q0 52 -22 76.5t-56 24.5h-78v-664h41v-35h-41v-665h78q34 0 56 23t22 75v1165z" />
    <glyph glyph-name="dcroat" unicode="&#x111;" 
d="M266 0h-37v51h-4q-22 -63 -84 -63q-43 0 -69.5 35.5t-26.5 97.5v926q0 62 27 97.5t71 35.5q28 0 50 -16.5t32 -45.5h4v168h-61v35h61v174h37v-174h62v-35h-62v-1286zM82 1044v-921q0 -52 21 -76t53 -24t52.5 24t20.5 76v921q0 52 -20.5 75.5t-52.5 23.5
q-33 0 -53.5 -23.5t-20.5 -75.5z" />
    <glyph glyph-name="Emacron" unicode="&#x112;" horiz-adv-x="219" 
d="M197 1556v-34h-164v34h164zM188 1434v-35h-102v-645h92v-35h-92v-684h113v-35h-152v1434h141z" />
    <glyph glyph-name="emacron" unicode="&#x113;" 
d="M238 1290v-35h-164v35h164zM229 477h37v-356q0 -62 -30 -97.5t-80 -35.5q-48 0 -79.5 36.5t-31.5 96.5v926q0 62 30.5 97.5t80.5 35.5q48 0 79 -36.5t31 -96.5v-426h-184v-498q0 -52 21 -76t53 -24t52.5 24t20.5 76v354zM229 1047q0 51 -20.5 74.5t-52.5 23.5t-53 -23.5
t-21 -74.5v-392h147v392z" />
    <glyph glyph-name="Ebreve" unicode="&#x114;" horiz-adv-x="219" 
d="M-4 1661h37q0 -131 82 -131t82 131h36q0 -162 -118 -162q-119 0 -119 162zM188 1434v-35h-102v-645h92v-35h-92v-684h113v-35h-152v1434h141z" />
    <glyph glyph-name="ebreve" unicode="&#x115;" 
d="M37 1395h37q0 -131 84 -131q82 0 82 131h39q0 -162 -121 -162t-121 162zM229 477h37v-356q0 -62 -30 -97.5t-80 -35.5q-48 0 -78.5 36t-30.5 97v926q0 62 29.5 97.5t79.5 35.5q48 0 79 -36.5t31 -96.5v-426h-184v-498q0 -52 21 -76t53 -24t52.5 24t20.5 76v354zM229 1044
q0 52 -20.5 76.5t-52.5 24.5t-53 -24.5t-21 -76.5v-389h147v389z" />
    <glyph glyph-name="Edotaccent" unicode="&#x116;" horiz-adv-x="219" 
d="M80 1493v92h70v-92h-70zM186 1434v-35h-102v-645h92v-35h-92v-684h115v-35h-152v1434h139z" />
    <glyph glyph-name="edotaccent" unicode="&#x117;" 
d="M121 1227v92h69v-92h-69zM229 477h37v-356q0 -62 -30 -97.5t-78 -35.5q-50 0 -81.5 36t-31.5 97v926q0 62 30.5 97.5t80.5 35.5t80 -36t30 -97v-426h-184v-498q0 -52 21 -76t53 -24t52.5 24t20.5 76v354zM229 1047q0 51 -20.5 74.5t-52.5 23.5t-53 -23.5t-21 -74.5v-392
h147v392z" />
    <glyph glyph-name="Eogonek" unicode="&#x118;" horiz-adv-x="219" 
d="M188 1434v-35h-104v-645h94v-35h-94v-684h115v-35h-2q-38 -10 -58 -37t-20 -59q0 -29 17 -46.5t44 -17.5q11 0 17 2v-37q-5 -2 -25 -2q-41 0 -64.5 26t-23.5 62q0 34 20 64t56 45h-113v1434h141z" />
    <glyph glyph-name="eogonek" unicode="&#x119;" 
d="M211 -158v-37q-5 -2 -25 -2q-41 0 -64.5 26t-23.5 62q0 60 49 97q-45 3 -73.5 38.5t-28.5 94.5v926q0 62 30.5 97.5t80.5 35.5q48 0 79 -35.5t31 -97.5v-426h-184v-498q0 -52 21 -76t53 -24t52.5 24t20.5 76v354h37v-356q0 -53 -23 -87.5t-63 -43.5q-22 -14 -34.5 -38.5
t-12.5 -47.5q0 -29 17.5 -46.5t44.5 -17.5q12 0 16 2zM229 1047q0 51 -20.5 74.5t-52.5 23.5t-53 -23.5t-21 -74.5v-392h147v392z" />
    <glyph glyph-name="Ecaron" unicode="&#x11a;" horiz-adv-x="219" 
d="M160 1704h37l-47 -219h-58l-47 219h37l37 -178h4zM188 1434v-35h-102v-645h92v-35h-92v-684h113v-35h-152v1434h141z" />
    <glyph glyph-name="ecaron" unicode="&#x11b;" 
d="M205 1438h37l-47 -219h-58l-47 219h37l37 -178h4zM229 477h37v-356q0 -62 -30 -97.5t-80 -35.5q-48 0 -79.5 36.5t-31.5 96.5v926q0 62 30.5 97.5t80.5 35.5q48 0 79 -36.5t31 -96.5v-426h-184v-498q0 -52 21 -76t53 -24t52.5 24t20.5 76v354zM229 1047q0 51 -20.5 74.5
t-52.5 23.5t-53 -23.5t-21 -74.5v-392h147v392z" />
    <glyph glyph-name="Gcircumflex" unicode="&#x11c;" horiz-adv-x="319" 
d="M121 1485h-37l47 219h57l48 -219h-37l-37 178h-4zM168 756h106v-756h-36v55h-5q-22 -67 -88 -67q-44 0 -72 35.5t-28 97.5v1192q0 62 31.5 97.5t83.5 35.5t83 -35.5t31 -97.5v-422h-36v420q0 52 -22 76t-56 24t-56 -24t-22 -76v-1190q0 -51 22 -74.5t56 -23.5t56 23.5
t22 74.5v600h-70v35z" />
    <glyph glyph-name="gcircumflex" unicode="&#x11d;" 
d="M117 1219h-37l47 219h57l47 -219h-36l-37 178h-4zM266 1167v-1374q0 -60 -31 -96.5t-79 -36.5q-50 0 -80.5 35.5t-30.5 97.5v146h37v-146q0 -51 21 -74.5t53 -23.5t52.5 23.5t20.5 74.5v258h-4q-22 -63 -82 -63q-43 0 -70.5 36.5t-27.5 98.5v924q0 62 26.5 97.5
t69.5 35.5q62 0 84 -64h4v51h37zM82 125q0 -52 21 -76t53 -24t52.5 24t20.5 76v919q0 52 -20.5 76.5t-52.5 24.5t-53 -24.5t-21 -76.5v-919z" />
    <glyph glyph-name="Gbreve" unicode="&#x11e;" horiz-adv-x="319" 
d="M41 1661h37q0 -131 84 -131q82 0 82 131h37q0 -162 -119 -162q-121 0 -121 162zM168 756h106v-756h-36v55h-5q-22 -67 -88 -67q-45 0 -72.5 35.5t-27.5 97.5v1192q0 62 31.5 97.5t81.5 35.5q52 0 84 -35.5t32 -97.5v-422h-36v420q0 52 -22 75t-56 23t-56 -23t-22 -75
v-1190q0 -51 22 -74.5t56 -23.5t56 23.5t22 74.5v600h-70v35z" />
    <glyph glyph-name="gbreve" unicode="&#x11f;" 
d="M37 1395h37q0 -131 84 -131q82 0 82 131h36q0 -162 -118 -162q-121 0 -121 162zM266 1167v-1374q0 -60 -31 -96.5t-79 -36.5q-50 0 -80.5 35.5t-30.5 97.5v146h37v-146q0 -51 21 -74.5t53 -23.5t52.5 23.5t20.5 74.5v258h-4q-22 -63 -82 -63q-43 0 -70.5 36.5t-27.5 98.5
v921q0 62 26.5 99t69.5 37q62 0 84 -64h4v51h37zM82 125q0 -52 21 -76t53 -24t52.5 24t20.5 76v919q0 52 -20.5 76.5t-52.5 24.5t-53 -24.5t-21 -76.5v-919z" />
    <glyph glyph-name="Gdotaccent" unicode="&#x120;" horiz-adv-x="319" 
d="M125 1493v92h70v-92h-70zM168 756h106v-756h-36v55h-5q-22 -67 -88 -67q-44 0 -72 35.5t-28 97.5v1192q0 62 31.5 97.5t83.5 35.5t83 -35.5t31 -97.5v-422h-36v420q0 52 -22 76t-56 24t-56 -24t-22 -76v-1190q0 -51 22 -74.5t56 -23.5t56 23.5t22 74.5v600h-70v35z" />
    <glyph glyph-name="gdotaccent" unicode="&#x121;" 
d="M121 1227v92h69v-92h-69zM266 1167v-1374q0 -60 -31 -96.5t-79 -36.5q-50 0 -80.5 35.5t-30.5 97.5v146h37v-146q0 -51 21 -74.5t53 -23.5t52.5 23.5t20.5 74.5v258h-4q-22 -63 -82 -63q-43 0 -70.5 36.5t-27.5 98.5v924q0 62 26.5 97.5t69.5 35.5q62 0 84 -64h4v51h37z
M82 125q0 -52 21 -76t53 -24t52.5 24t20.5 76v919q0 52 -20.5 76.5t-52.5 24.5t-53 -24.5t-21 -76.5v-919z" />
    <glyph glyph-name="uni0122" unicode="&#x122;" horiz-adv-x="319" 
d="M168 756h106v-756h-36v55h-5q-22 -67 -88 -67q-44 0 -72 35.5t-28 97.5v1192q0 62 31.5 97.5t83.5 35.5t83 -35.5t31 -97.5v-422h-36v420q0 52 -22 76t-56 24t-56 -24t-22 -76v-1190q0 -51 22 -74.5t56 -23.5t56 23.5t22 74.5v600h-70v35zM127 -131v92h70v-92l-17 -98
h-30l16 98h-39z" />
    <glyph glyph-name="uni0123" unicode="&#x123;" 
d="M190 1296v-92h-69v92l16 99h31l-16 -99h38zM266 1167v-1374q0 -60 -31 -96.5t-79 -36.5q-50 0 -80.5 35.5t-30.5 97.5v146h37v-146q0 -51 21 -74.5t53 -23.5t52.5 23.5t20.5 74.5v258h-4q-22 -63 -82 -63q-43 0 -70.5 36.5t-27.5 98.5v921q0 64 26.5 100t69.5 36
q62 0 84 -64h4v51h37zM82 125q0 -52 21 -76t53 -24t52.5 24t20.5 76v919q0 52 -20.5 76.5t-52.5 24.5t-53 -24.5t-21 -76.5v-919z" />
    <glyph glyph-name="Hcircumflex" unicode="&#x124;" horiz-adv-x="315" 
d="M119 1485h-37l47 219h57l47 -219h-36l-37 178h-4zM270 1434v-1434h-37v698h-151v-698h-37v1434h37v-701h151v701h37z" />
    <glyph glyph-name="hcircumflex" unicode="&#x125;" 
d="M25 1546h-37l47 219h57l47 -219h-37l-36 178h-5zM229 1044q0 52 -20.5 76.5t-52.5 24.5t-53 -24.5t-21 -76.5v-1044h-37v1495h37v-377h4q21 62 82 62q44 0 71 -35.5t27 -97.5v-1047h-37v1044z" />
    <glyph glyph-name="Hbar" unicode="&#x126;" horiz-adv-x="315" 
d="M270 1434v-330h41v-35h-41v-1069h-37v698h-151v-698h-37v1069h-41v35h41v330h37v-330h151v330h37zM82 733h151v336h-151v-336z" />
    <glyph glyph-name="hbar" unicode="&#x127;" 
d="M229 1044q0 52 -20.5 76.5t-52.5 24.5t-53 -24.5t-21 -76.5v-1044h-37v1286h-65v35h65v174h37v-174h57v-35h-57v-168h4q21 62 82 62q44 0 71 -35.5t27 -97.5v-1047h-37v1044z" />
    <glyph glyph-name="Itilde" unicode="&#x128;" horiz-adv-x="126" 
d="M176 1667v-65q0 -47 -16 -75t-45 -28q-24 0 -40.5 21t-23 46.5t-16 46.5t-21.5 21q-22 0 -22 -75v-56h-39v60q0 108 59 108q25 0 42 -21t23.5 -46.5t16 -46.5t21.5 -21q24 0 24 72v59h37zM82 1434v-1434h-37v1434h37z" />
    <glyph glyph-name="itilde" unicode="&#x129;" horiz-adv-x="139" 
d="M182 1401v-66q0 -47 -16 -74.5t-45 -27.5q-24 0 -40.5 21t-23 46.5t-16 46.5t-21.5 21q-22 0 -22 -74v-57h-39v59q0 109 59 109q25 0 42 -21t23.5 -46.5t16 -46.5t21.5 -21q24 0 24 71v60h37zM51 0v1167h37v-1167h-37z" />
    <glyph glyph-name="Imacron" unicode="&#x12a;" horiz-adv-x="126" 
d="M145 1556v-34h-163v34h163zM82 1434v-1434h-37v1434h37z" />
    <glyph glyph-name="imacron" unicode="&#x12b;" horiz-adv-x="139" 
d="M152 1290v-35h-164v35h164zM51 0v1167h37v-1167h-37z" />
    <glyph glyph-name="Ibreve" unicode="&#x12c;" horiz-adv-x="126" 
d="M-55 1661h37q0 -131 84 -131q81 0 81 131h37q0 -162 -118 -162q-121 0 -121 162zM82 1434v-1434h-37v1434h37z" />
    <glyph glyph-name="ibreve" unicode="&#x12d;" horiz-adv-x="139" 
d="M-49 1395h37q0 -131 84 -131q82 0 82 131h36q0 -162 -118 -162q-121 0 -121 162zM51 0v1167h37v-1167h-37z" />
    <glyph glyph-name="Iogonek" unicode="&#x12e;" horiz-adv-x="126" 
d="M82 1434v-1434h-2q-38 -10 -58 -37t-20 -59q0 -29 17 -46.5t44 -17.5q11 0 17 2v-37q-5 -2 -25 -2q-41 0 -64.5 26t-23.5 62q0 34 20.5 64.5t57.5 44.5v1434h37z" />
    <glyph glyph-name="iogonek" unicode="&#x12f;" horiz-adv-x="139" 
d="M51 1208v144h37v-144h-37zM51 0v1167h37v-1157h2v-10q-38 -10 -58 -37t-20 -59q0 -29 17.5 -46.5t44.5 -17.5q10 0 16 2v-37q-5 -2 -24 -2q-41 0 -65 26t-24 62q0 34 20 64t56 45h-2z" />
    <glyph glyph-name="Idotaccent" unicode="&#x130;" horiz-adv-x="126" 
d="M29 1493v92h69v-92h-69zM82 1434v-1434h-37v1434h37z" />
    <glyph glyph-name="dotlessi" unicode="&#x131;" horiz-adv-x="139" 
d="M51 0v1167h37v-1167h-37z" />
    <glyph glyph-name="IJ" unicode="&#x132;" horiz-adv-x="446" 
d="M82 1434v-1434h-37v1434h37zM401 1434v-1313q0 -62 -31 -97.5t-83 -35.5q-50 0 -82.5 36t-32.5 97v485h37v-485q0 -51 22 -74.5t56 -23.5t56 23.5t22 74.5v1313h36z" />
    <glyph glyph-name="ij" unicode="&#x133;" horiz-adv-x="274" 
d="M51 1208v144h37v-144h-37zM223 1352v-144h-37v144h37zM51 0v1167h37v-1167h-37zM223 1167v-1429q0 -57 -17.5 -71.5t-68.5 -14.5h-16v35q45 0 55 8.5t10 42.5v1429h37z" />
    <glyph glyph-name="Jcircumflex" unicode="&#x134;" horiz-adv-x="319" 
d="M217 1485h-37l47 219h58l47 -219h-37l-37 178h-4zM274 1434v-1313q0 -62 -31 -97.5t-83 -35.5q-50 0 -82.5 36t-32.5 97v485h37v-485q0 -51 22 -74.5t56 -23.5t56 23.5t22 74.5v1313h36z" />
    <glyph glyph-name="jcircumflex" unicode="&#x135;" horiz-adv-x="135" 
d="M27 1219h-37l47 219h57l47 -219h-37l-36 178h-5zM84 1167v-1429q0 -57 -17.5 -71.5t-68.5 -14.5h-16v35q45 0 55 8.5t10 42.5v1429h37z" />
    <glyph glyph-name="uni0136" unicode="&#x136;" horiz-adv-x="296" 
d="M279 1434l-164 -676v-4l166 -754h-39l-156 725h-4v-725h-37v1434h37v-648h4l154 648h39zM123 -131v92h70v-92l-17 -98h-31l17 98h-39z" />
    <glyph glyph-name="uni0137" unicode="&#x137;" horiz-adv-x="296" 
d="M285 1165l-170 -549v-4l172 -612h-39l-162 590h-4v-590h-37v1493h37v-854h4l160 526h39zM133 -131v92h70v-92l-17 -98h-30l16 98h-39z" />
    <glyph glyph-name="kgreenlandic" unicode="&#x138;" horiz-adv-x="296" 
d="M285 1165l-170 -549v-4l172 -612h-39l-162 590h-4v-590h-37v1165h37v-526h4l160 526h39z" />
    <glyph glyph-name="Lacute" unicode="&#x139;" horiz-adv-x="210" 
d="M82 1485h-37l39 219h39zM45 1434h37v-1399h106v-35h-143v1434z" />
    <glyph glyph-name="lacute" unicode="&#x13a;" horiz-adv-x="139" 
d="M88 1546h-37l39 219h39zM51 0v1495h37v-1495h-37z" />
    <glyph glyph-name="uni013B" unicode="&#x13b;" horiz-adv-x="210" 
d="M45 1434h37v-1399h106v-35h-143v1434zM84 -131v92h70v-92l-17 -98h-31l17 98h-39z" />
    <glyph glyph-name="uni013C" unicode="&#x13c;" horiz-adv-x="139" 
d="M51 0v1495h37v-1495h-37zM37 -131v92h69v-92l-16 -98h-31l17 98h-39z" />
    <glyph glyph-name="Lcaron" unicode="&#x13d;" horiz-adv-x="210" 
d="M111 1255l12 179h37l-17 -179h-32zM45 1434h37v-1399h106v-35h-143v1434z" />
    <glyph glyph-name="lcaron" unicode="&#x13e;" horiz-adv-x="165" 
d="M117 1317l12 178h37l-16 -178h-33zM51 0v1495h37v-1495h-37z" />
    <glyph glyph-name="Ldot" unicode="&#x13f;" horiz-adv-x="210" 
d="M45 1436h37v-1399h106v-35h-143v1434zM104 672v92h70v-92h-70z" />
    <glyph glyph-name="ldot" unicode="&#x140;" horiz-adv-x="219" 
d="M51 2v1495h37v-1495h-37zM109 698v93h69v-93h-69z" />
    <glyph glyph-name="Lslash" unicode="&#x141;" horiz-adv-x="210" 
d="M45 1434h37v-697l47 19l12 -33l-59 -25v-663h106v-35h-143v682l-47 -18l-14 32l61 25v713z" />
    <glyph glyph-name="lslash" unicode="&#x142;" horiz-adv-x="139" 
d="M51 0v709l-49 -21l-14 33l63 27v747h37v-733l45 18l12 -32l-57 -25v-723h-37z" />
    <glyph glyph-name="Nacute" unicode="&#x143;" horiz-adv-x="372" 
d="M205 1485h-37l39 219h39zM328 1434v-1434h-70l-172 1378h-4v-1378h-37v1434h70l172 -1391h4v1391h37z" />
    <glyph glyph-name="nacute" unicode="&#x144;" 
d="M174 1219h-37l39 219h39zM229 1047q0 51 -20.5 74.5t-52.5 23.5t-53 -23.5t-21 -74.5v-1047h-37v1167h37v-49l4 -2q22 64 82 64q43 0 70.5 -36t27.5 -97v-1047h-37v1047z" />
    <glyph glyph-name="uni0145" unicode="&#x145;" horiz-adv-x="372" 
d="M328 1434v-1434h-70l-172 1378h-4v-1378h-37v1434h70l172 -1391h4v1391h37zM154 -131v92h69v-92l-16 -98h-31l17 98h-39z" />
    <glyph glyph-name="uni0146" unicode="&#x146;" 
d="M229 1047q0 51 -20.5 74.5t-52.5 23.5t-53 -23.5t-21 -74.5v-1047h-37v1167h37v-49l4 -2q22 64 82 64q43 0 70.5 -36t27.5 -97v-1047h-37v1047zM123 -131v92h70v-92l-17 -98h-31l17 98h-39z" />
    <glyph glyph-name="Ncaron" unicode="&#x147;" horiz-adv-x="372" 
d="M236 1704h36l-47 -219h-57l-47 219h37l37 -178h4zM328 1434v-1434h-70l-172 1378h-4v-1378h-37v1434h70l172 -1391h4v1391h37z" />
    <glyph glyph-name="ncaron" unicode="&#x148;" 
d="M205 1438h37l-47 -219h-58l-47 219h37l37 -178h4zM229 1047q0 51 -20.5 74.5t-52.5 23.5t-53 -23.5t-21 -74.5v-1047h-37v1167h37v-49l4 -2q22 64 82 64q43 0 70.5 -36t27.5 -97v-1047h-37v1047z" />
    <glyph glyph-name="napostrophe" unicode="&#x149;" horiz-adv-x="397" 
d="M20 0v1434h357v-1434h-357zM76 1399l123 -596l123 596h-246zM57 1307v-1188l123 596zM217 715l123 -588v1178zM199 625l-121 -590h244z" />
    <glyph glyph-name="Eng" unicode="&#x14a;" horiz-adv-x="446" 
d="M45 0v1434h356v-1434h-356zM100 1399l123 -596l123 596h-246zM82 1307v-1188l123 596zM242 715l123 -588v1178zM223 625l-121 -590h244z" />
    <glyph glyph-name="eng" unicode="&#x14b;" horiz-adv-x="452" 
d="M45 0v1434h356v-1434h-356zM100 1399l123 -596l123 596h-246zM82 1307v-1188l123 596zM242 715l123 -588v1178zM223 625l-121 -590h244z" />
    <glyph glyph-name="Omacron" unicode="&#x14c;" horiz-adv-x="319" 
d="M242 1556v-34h-164v34h164zM274 1313v-1192q0 -62 -31 -97.5t-83 -35.5t-83.5 36t-31.5 97v1192q0 62 31.5 97.5t83.5 35.5q51 0 82.5 -36t31.5 -97zM238 1313q0 51 -22 74.5t-56 23.5t-56 -23.5t-22 -74.5v-1190q0 -52 22 -76t56 -24t56 24t22 76v1190z" />
    <glyph glyph-name="omacron" unicode="&#x14d;" 
d="M238 1290v-35h-164v35h164zM266 1047v-926q0 -62 -30 -97.5t-80 -35.5q-48 0 -79.5 36.5t-31.5 96.5v926q0 62 30.5 97.5t80.5 35.5q48 0 79 -35.5t31 -97.5zM229 1047q0 51 -20.5 74.5t-52.5 23.5t-53 -23.5t-21 -74.5v-926q0 -51 21 -74.5t53 -23.5t52.5 23.5
t20.5 74.5v926z" />
    <glyph glyph-name="Obreve" unicode="&#x14e;" horiz-adv-x="319" 
d="M39 1661h37q0 -131 84 -131q82 0 82 131h37q0 -162 -119 -162q-121 0 -121 162zM272 1311v-1190q0 -62 -30 -97.5t-82 -35.5t-83.5 35.5t-31.5 97.5v1190q0 63 31 99t82 36q52 0 83 -36.5t31 -98.5zM236 1311q0 52 -22 76t-56 24q-33 0 -54.5 -24t-21.5 -76v-1190
q0 -50 21.5 -74t54.5 -24q34 0 56 23.5t22 74.5v1190z" />
    <glyph glyph-name="obreve" unicode="&#x14f;" 
d="M37 1395h37q0 -131 84 -131q82 0 82 131h36q0 -162 -118 -162q-121 0 -121 162zM266 1047v-926q0 -62 -30 -97.5t-80 -35.5q-49 0 -80 35.5t-31 97.5v926q0 61 30.5 97t80.5 36q48 0 79 -36.5t31 -96.5zM229 1044q0 52 -20.5 76.5t-52.5 24.5t-53 -24.5t-21 -76.5v-923
q0 -51 21 -74.5t53 -23.5t52.5 23.5t20.5 74.5v923z" />
    <glyph glyph-name="Ohungarumlaut" unicode="&#x150;" horiz-adv-x="319" 
d="M135 1485h-37l39 219h39zM213 1485h-37l39 219h39zM274 1313v-1192q0 -62 -31 -97.5t-83 -35.5t-83.5 36t-31.5 97v1192q0 62 31.5 97.5t83.5 35.5q51 0 82.5 -36t31.5 -97zM238 1313q0 51 -22 74.5t-56 23.5t-56 -23.5t-22 -74.5v-1190q0 -52 22 -76t56 -24t56 24t22 76
v1190z" />
    <glyph glyph-name="ohungarumlaut" unicode="&#x151;" 
d="M131 1219h-37l39 219h39zM209 1219h-37l39 219h39zM266 1047v-926q0 -62 -30 -97.5t-80 -35.5q-48 0 -79.5 36.5t-31.5 96.5v926q0 62 30.5 97.5t80.5 35.5q48 0 79 -35.5t31 -97.5zM229 1047q0 51 -20.5 74.5t-52.5 23.5t-53 -23.5t-21 -74.5v-926q0 -51 21 -74.5
t53 -23.5t52.5 23.5t20.5 74.5v926z" />
    <glyph glyph-name="OE" unicode="&#x152;" horiz-adv-x="409" 
d="M367 1434v-35h-93v-645h103v-35h-103v-684h113v-35h-227q-51 0 -83 35.5t-32 97.5v1167q0 62 31.5 98t83.5 36h207zM238 1399h-78q-34 0 -56 -24.5t-22 -76.5v-1165q0 -51 22 -74.5t56 -23.5h78v1364z" />
    <glyph glyph-name="oe" unicode="&#x153;" horiz-adv-x="495" 
d="M414 477h37v-354q0 -62 -30.5 -98.5t-80.5 -36.5q-61 0 -90 53h-4q-24 -53 -90 -53q-48 0 -79.5 36.5t-31.5 98.5v924q0 62 30.5 98.5t80.5 36.5q62 0 90 -54h4q25 54 90 54q48 0 79.5 -36.5t31.5 -98.5v-426h-185v-498q0 -52 21 -76t53 -24t53 24t21 76v354zM229 1044
q0 52 -20.5 76.5t-52.5 24.5t-53 -24.5t-21 -76.5v-921q0 -52 21 -76t53 -24t52.5 24t20.5 76v921zM414 1044q0 52 -21 76.5t-53 24.5t-53 -24.5t-21 -76.5v-387h148v387z" />
    <glyph glyph-name="Racute" unicode="&#x154;" horiz-adv-x="319" 
d="M166 1485h-37l39 219h39zM238 610q0 99 -78 99h-78v-709h-37v1434h115q52 0 83 -36t31 -98v-460q0 -82 -51 -113v-4q51 -28 51 -113v-467q0 -77 15 -141v-2h-37q-14 53 -14 145v465zM238 1298q0 52 -22 76.5t-56 24.5h-78v-656h78q34 0 56 23.5t22 75.5v456z" />
    <glyph glyph-name="racute" unicode="&#x155;" horiz-adv-x="307" 
d="M174 1219h-37l39 219h39zM229 1047q0 51 -20.5 74.5t-52.5 23.5t-53 -23.5t-21 -74.5v-1047h-37v1167h37v-49l4 -2q22 64 82 64q43 0 70.5 -36t27.5 -97v-359h-37v359z" />
    <glyph glyph-name="uni0156" unicode="&#x156;" horiz-adv-x="319" 
d="M238 610q0 99 -78 99h-78v-709h-37v1434h115q52 0 83 -36t31 -98v-460q0 -81 -49 -113v-4q49 -28 49 -113v-467q0 -77 15 -141v-2h-37q-14 53 -14 145v465zM238 1298q0 52 -22 76.5t-56 24.5h-78v-656h78q34 0 56 23.5t22 75.5v456zM135 -131v92h70v-92l-17 -98h-30
l16 98h-39z" />
    <glyph glyph-name="uni0157" unicode="&#x157;" horiz-adv-x="307" 
d="M229 1047q0 51 -20.5 74.5t-52.5 23.5t-53 -23.5t-21 -74.5v-1047h-37v1167h37v-49l4 -2q22 64 82 64q43 0 70.5 -36t27.5 -97v-359h-37v359zM31 -131v92h69v-92l-16 -98h-31l17 98h-39z" />
    <glyph glyph-name="Rcaron" unicode="&#x158;" horiz-adv-x="319" 
d="M197 1704h36l-47 -219h-57l-47 219h37l37 -178h4zM238 610q0 99 -78 99h-78v-709h-37v1434h115q52 0 83 -36t31 -98v-460q0 -82 -51 -113v-4q51 -28 51 -113v-467q0 -77 15 -141v-2h-37q-14 53 -14 145v465zM238 1298q0 52 -22 76.5t-56 24.5h-78v-656h78q34 0 56 23.5
t22 75.5v456z" />
    <glyph glyph-name="rcaron" unicode="&#x159;" horiz-adv-x="307" 
d="M205 1438h37l-47 -219h-58l-47 219h37l37 -178h4zM229 1047q0 51 -20.5 74.5t-52.5 23.5t-53 -23.5t-21 -74.5v-1047h-37v1167h37v-49l4 -2q22 64 82 64q43 0 70.5 -36t27.5 -97v-359h-37v359z" />
    <glyph glyph-name="Sacute" unicode="&#x15a;" horiz-adv-x="319" 
d="M178 1485h-37l39 219h39zM274 451v-328q0 -62 -31 -98.5t-83 -36.5t-83.5 36.5t-31.5 98.5v381h37v-381q0 -52 22 -76t56 -24t56 24t22 76v317q0 65 -17 131t-32 101t-48 102q-31 60 -48 98.5t-32.5 102.5t-15.5 131v207q0 62 31.5 97.5t83.5 35.5q51 0 82.5 -36
t31.5 -97v-320h-36v320q0 51 -22 74.5t-56 23.5t-56 -23.5t-22 -74.5v-197q0 -67 15.5 -131t32.5 -102.5t48 -98.5q32 -66 47.5 -101.5t32 -101t16.5 -130.5z" />
    <glyph glyph-name="sacute" unicode="&#x15b;" 
d="M174 1219h-37l39 219h39zM266 385v-264q0 -60 -31 -96.5t-79 -36.5q-50 0 -80.5 35.5t-30.5 97.5v291h37v-289q0 -52 21 -76t53 -24t52.5 24t20.5 76v262q0 42 -15.5 85t-29 65.5t-45.5 68.5q-31 43 -47 69.5t-31.5 73t-15.5 95.5v205q0 62 30.5 97.5t80.5 35.5
q48 0 79 -35.5t31 -97.5v-236h-37v233q0 51 -20.5 75t-52.5 24t-53 -24t-21 -75v-202q0 -42 15 -84t30 -67t45 -66q31 -45 47 -71.5t31.5 -73t15.5 -95.5z" />
    <glyph glyph-name="Scircumflex" unicode="&#x15c;" horiz-adv-x="319" 
d="M121 1485h-37l47 219h57l48 -219h-37l-37 180h-4zM274 451v-328q0 -62 -31 -98.5t-83 -36.5t-83.5 36.5t-31.5 98.5v381h37v-381q0 -52 22 -76t56 -24t56 24t22 76v317q0 65 -17 131t-32 101t-48 102q-31 60 -48 98.5t-32.5 102.5t-15.5 131v207q0 62 31.5 97.5
t83.5 35.5q51 0 82.5 -36t31.5 -97v-320h-36v320q0 51 -22 74.5t-56 23.5t-56 -23.5t-22 -74.5v-197q0 -67 15.5 -131t32.5 -102.5t48 -98.5q32 -66 47.5 -101.5t32 -101t16.5 -130.5z" />
    <glyph glyph-name="scircumflex" unicode="&#x15d;" 
d="M117 1219h-37l47 219h57l47 -219h-36l-37 178h-4zM266 385v-264q0 -60 -31 -96.5t-79 -36.5q-50 0 -80.5 35.5t-30.5 97.5v291h37v-289q0 -52 21 -76t53 -24t52.5 24t20.5 76v262q0 42 -15.5 85t-29 65.5t-45.5 68.5q-31 43 -47 69.5t-31.5 73t-15.5 95.5v205
q0 62 30.5 97.5t80.5 35.5q48 0 79 -35.5t31 -97.5v-236h-37v233q0 51 -20.5 75t-52.5 24t-53 -24t-21 -75v-202q0 -42 15 -84t30 -67t45 -66q31 -45 47 -71.5t31.5 -73t15.5 -95.5z" />
    <glyph glyph-name="Scedilla" unicode="&#x15e;" horiz-adv-x="319" 
d="M276 449v-328q0 -56 -27 -91.5t-71 -41.5l-8 -33q125 0 125 -82q0 -47 -39 -78t-102 -31q-30 0 -60 9v34q21 -6 51 -6q47 0 80 18t33 54q0 29 -30.5 38t-102.5 9l16 68q-43 6 -68.5 41.5t-25.5 91.5v383h37v-383q0 -52 22 -76.5t56 -24.5q33 0 55.5 24.5t22.5 76.5v317
q0 66 -16.5 132t-32.5 102t-48 100q-32 62 -48.5 100t-32 102.5t-15.5 131.5v207q0 62 30.5 97.5t82.5 35.5t84 -36t32 -97v-320h-36v320q0 50 -22.5 74t-55.5 24q-34 0 -56 -23.5t-22 -74.5v-197q0 -67 15.5 -131.5t32 -102.5t48.5 -100q32 -63 48 -99.5t32 -102t16 -131.5
z" />
    <glyph glyph-name="scedilla" unicode="&#x15f;" 
d="M266 385v-264q0 -56 -25 -90.5t-67 -40.5l-8 -35q125 0 125 -82q0 -47 -39 -78t-102 -31q-30 0 -60 9v34q21 -6 51 -6q47 0 80 18t33 54q0 29 -30.5 38t-102.5 9l16 70q-42 6 -67 40.5t-25 90.5v291h37v-291q0 -52 21.5 -76.5t52.5 -24.5q32 0 52.5 24.5t20.5 76.5v264
q0 42 -14.5 84t-29 66.5t-44.5 68.5q-31 42 -48 69.5t-32.5 73.5t-15.5 95v205q0 62 30.5 97.5t80.5 35.5q48 0 79 -35.5t31 -97.5v-236h-37v233q0 51 -20.5 75t-52.5 24q-31 0 -52.5 -24.5t-21.5 -74.5v-202q0 -42 15 -84t30 -67t45 -66q31 -45 47 -71.5t31.5 -73
t15.5 -95.5z" />
    <glyph glyph-name="Scaron" unicode="&#x160;" horiz-adv-x="319" 
d="M209 1704h37l-47 -219h-58l-47 219h37l37 -178h4zM274 451v-328q0 -62 -31 -98.5t-83 -36.5t-83.5 36.5t-31.5 98.5v381h37v-381q0 -52 22 -76t56 -24t56 24t22 76v317q0 65 -17 131t-32 101t-48 102q-31 60 -48 98.5t-32.5 102.5t-15.5 131v207q0 62 31.5 97.5
t83.5 35.5q51 0 82.5 -36t31.5 -97v-320h-36v320q0 51 -22 74.5t-56 23.5t-56 -23.5t-22 -74.5v-197q0 -67 15.5 -131t32.5 -102.5t48 -98.5q32 -66 47.5 -101.5t32 -101t16.5 -130.5z" />
    <glyph glyph-name="scaron" unicode="&#x161;" 
d="M205 1438h37l-47 -219h-58l-47 219h37l37 -178h4zM266 385v-264q0 -60 -31 -96.5t-79 -36.5q-50 0 -80.5 35.5t-30.5 97.5v291h37v-289q0 -52 21 -76t53 -24t52.5 24t20.5 76v262q0 42 -15.5 85t-29 65.5t-45.5 68.5q-31 43 -47 69.5t-31.5 73t-15.5 95.5v205
q0 62 30.5 97.5t80.5 35.5q48 0 79 -35.5t31 -97.5v-236h-37v233q0 51 -20.5 75t-52.5 24t-53 -24t-21 -75v-202q0 -42 15 -84t30 -67t45 -66q31 -45 47 -71.5t31.5 -73t15.5 -95.5z" />
    <glyph glyph-name="uni0162" unicode="&#x162;" horiz-adv-x="253" 
d="M231 1434v-35h-86v-1401l-10 -43q125 0 125 -82q0 -47 -39 -78t-102 -31q-30 0 -60 9v34q21 -6 52 -6q47 0 79.5 18t32.5 54q0 29 -30.5 38t-102.5 9l19 80v1399h-86v35h208z" />
    <glyph glyph-name="uni0163" unicode="&#x163;" horiz-adv-x="172" 
d="M59 1393h37v-226h66v-34h-66v-1047q0 -34 10 -42.5t56 -8.5v-37h-17l-4 2l-10 -45q125 0 125 -82q0 -47 -39 -78t-102 -31q-30 0 -60 9v34q21 -6 51 -6q47 0 80 18t33 54q0 29 -30.5 38t-102.5 9l18 82q-24 3 -34.5 21t-10.5 61v1049h-28v34h28v226z" />
    <glyph glyph-name="Tcaron" unicode="&#x164;" horiz-adv-x="253" 
d="M176 1704h37l-47 -219h-57l-48 219h37l37 -178h4zM231 1434v-35h-86v-1399h-36v1399h-86v35h208z" />
    <glyph glyph-name="tcaron" unicode="&#x165;" horiz-adv-x="163" 
d="M115 1317l12 178h37l-17 -178h-32zM59 1393h37v-226h66v-34h-66v-1047q0 -34 10 -42.5t56 -8.5v-35h-17q-51 0 -68.5 14.5t-17.5 71.5v1047h-28v34h28v226z" />
    <glyph glyph-name="Tbar" unicode="&#x166;" horiz-adv-x="253" 
d="M231 1434v-35h-86v-682h62v-35h-62v-682h-36v682h-62v35h62v682h-86v35h208z" />
    <glyph glyph-name="tbar" unicode="&#x167;" horiz-adv-x="172" 
d="M59 1393h37v-226h66v-34h-66v-41h68v-35h-68v-971q0 -34 10 -42.5t56 -8.5v-35h-17q-51 0 -68.5 14.5t-17.5 71.5v971h-28v35h28v41h-28v34h28v226z" />
    <glyph glyph-name="Utilde" unicode="&#x168;" horiz-adv-x="319" 
d="M272 1667v-65q0 -46 -17 -74.5t-46 -28.5q-24 0 -39.5 21t-22 46.5t-16 46.5t-22.5 21q-21 0 -21 -75v-56h-39v60q0 108 60 108q25 0 41.5 -21t22.5 -46.5t15 -46.5t21 -21q24 0 24 72v59h39zM274 1434v-1313q0 -62 -31 -98.5t-83 -36.5q-51 0 -83 36.5t-32 98.5v1313h37
v-1313q0 -52 22 -76.5t56 -24.5t56 24.5t22 76.5v1313h36z" />
    <glyph glyph-name="utilde" unicode="&#x169;" 
d="M268 1401v-66q0 -46 -16.5 -74t-44.5 -28q-24 0 -40.5 21t-23.5 46.5t-16.5 46.5t-22.5 21q-20 0 -20 -74v-57h-39v59q0 109 59 109q25 0 41.5 -21t23 -46.5t16 -46.5t22.5 -21q22 0 22 71v60h39zM82 121q0 -52 21 -76.5t53 -24.5t52.5 24.5t20.5 76.5v1046h37v-1167h-37
v49h-4q-22 -61 -82 -61q-44 0 -71 35.5t-27 97.5v1046h37v-1046z" />
    <glyph glyph-name="Umacron" unicode="&#x16a;" horiz-adv-x="319" 
d="M242 1556v-34h-164v34h164zM274 1434v-1313q0 -62 -31 -97.5t-83 -35.5q-51 0 -83 35.5t-32 97.5v1313h37v-1313q0 -51 22 -74.5t56 -23.5t56 23.5t22 74.5v1313h36z" />
    <glyph glyph-name="umacron" unicode="&#x16b;" 
d="M238 1290v-35h-164v35h164zM82 123q0 -52 21 -76t53 -24t52.5 24t20.5 76v1046h37v-1169h-37v49l-4 2q-22 -63 -82 -63q-43 0 -70.5 36.5t-27.5 98.5v1044h37v-1044z" />
    <glyph glyph-name="Ubreve" unicode="&#x16c;" horiz-adv-x="319" 
d="M41 1661h37q0 -131 84 -131q82 0 82 131h37q0 -162 -119 -162q-121 0 -121 162zM274 1434v-1313q0 -62 -31 -97.5t-83 -35.5q-51 0 -83 35.5t-32 97.5v1313h37v-1313q0 -52 22 -75t56 -23t56 23t22 75v1313h36z" />
    <glyph glyph-name="ubreve" unicode="&#x16d;" 
d="M37 1395h37q0 -131 84 -131q82 0 82 131h36q0 -162 -118 -162q-121 0 -121 162zM82 121q0 -51 21 -74.5t53 -23.5t52.5 23.5t20.5 74.5v1046h37v-1167h-37v49h-4q-22 -61 -82 -61q-44 0 -71 35.5t-27 97.5v1046h37v-1046z" />
    <glyph glyph-name="Uring" unicode="&#x16e;" horiz-adv-x="319" 
d="M47 1595q0 107 111 107q53 0 81.5 -27.5t28.5 -81.5q0 -51 -28 -78.5t-82 -27.5t-82.5 27.5t-28.5 80.5zM84 1595q0 -35 19.5 -54t54.5 -19q73 0 73 71q0 74 -73 74q-74 0 -74 -72zM274 1434v-1313q0 -62 -31 -97.5t-81 -35.5q-52 0 -84.5 36t-32.5 97v1313h37v-1311
q0 -52 22 -76t56 -24t56 24t22 76v1311h36z" />
    <glyph glyph-name="uring" unicode="&#x16f;" 
d="M45 1329q0 107 109 107q110 0 110 -109q0 -106 -110 -106q-109 0 -109 108zM80 1329q0 -35 19.5 -54.5t54.5 -19.5q36 0 55.5 19t19.5 53q0 74 -75 74q-35 0 -54.5 -19t-19.5 -53zM84 123q0 -52 20 -76t52 -24t52.5 24t20.5 76v1046h39v-1169h-39v49l-4 2
q-9 -30 -30.5 -46.5t-51.5 -16.5q-43 0 -70.5 36.5t-27.5 98.5v1044h39v-1044z" />
    <glyph glyph-name="Uhungarumlaut" unicode="&#x170;" horiz-adv-x="319" 
d="M135 1485h-37l39 219h39zM213 1485h-37l39 219h39zM274 1434v-1313q0 -62 -31 -97.5t-83 -35.5q-51 0 -83 35.5t-32 97.5v1313h37v-1313q0 -51 22 -74.5t56 -23.5t56 23.5t22 74.5v1313h36z" />
    <glyph glyph-name="uhungarumlaut" unicode="&#x171;" 
d="M131 1219h-37l39 219h39zM209 1219h-37l39 219h39zM82 123q0 -52 21 -76t53 -24t52.5 24t20.5 76v1046h37v-1169h-37v49l-4 2q-22 -63 -82 -63q-43 0 -70.5 36.5t-27.5 98.5v1044h37v-1044z" />
    <glyph glyph-name="Uogonek" unicode="&#x172;" horiz-adv-x="319" 
d="M274 1434v-1313q0 -52 -22.5 -86t-61.5 -43q-49 -34 -49 -88q0 -29 17.5 -46.5t44.5 -17.5q12 0 16 2v-37q-5 -2 -24 -2q-41 0 -65 26t-24 62q0 59 50 97q-50 2 -80.5 38t-30.5 95v1313h37v-1313q0 -51 22 -74.5t56 -23.5t56 23.5t22 74.5v1313h36z" />
    <glyph glyph-name="uogonek" unicode="&#x173;" 
d="M82 123q0 -52 21 -76t53 -24t52.5 24t20.5 76v1046h37v-1169h-2q-38 -10 -58 -37t-20 -59q0 -29 17.5 -46.5t44.5 -17.5q10 0 16 2v-37q-5 -2 -24 -2q-41 0 -64.5 26t-23.5 62q0 34 20 65.5t57 45.5v47l-4 2q-22 -63 -82 -63q-43 0 -70.5 36.5t-27.5 98.5v1044h37v-1044z
" />
    <glyph glyph-name="Wcircumflex" unicode="&#x174;" horiz-adv-x="487" 
d="M205 1485h-37l47 219h57l47 -219h-36l-37 178h-4zM471 1434l-86 -1434h-61l-66 1106l-12 287h-4l-11 -287l-67 -1106h-62l-86 1434h37l56 -961l22 -432h4l23 432l55 961h61l56 -961l22 -432h4l23 432l55 961h37z" />
    <glyph glyph-name="wcircumflex" unicode="&#x175;" horiz-adv-x="430" 
d="M176 1219h-37l47 219h58l47 -219h-37l-37 178h-4zM373 1167h37l-72 -1167h-62l-45 823l-14 303h-4l-14 -303l-45 -823h-62l-72 1167h37l47 -782l17 -350h4l16 350l47 782h54l47 -782l16 -350h4l17 350z" />
    <glyph glyph-name="Ycircumflex" unicode="&#x176;" horiz-adv-x="274" 
d="M98 1485h-37l48 219h57l47 -219h-37l-37 178h-4zM258 1434l-102 -811v-623h-37v623l-103 811h39l60 -506l20 -203h4l21 203l59 506h39z" />
    <glyph glyph-name="ycircumflex" unicode="&#x177;" horiz-adv-x="266" 
d="M94 1219h-37l47 219h58l47 -219h-37l-37 178h-4zM57 1167l54 -682l20 -307h4l21 307l53 682h37l-121 -1495h-35l25 328l-95 1167h37z" />
    <glyph glyph-name="Ydieresis" unicode="&#x178;" horiz-adv-x="274" 
d="M84 1493v113h37v-113h-37zM156 1493v113h37v-113h-37zM258 1434l-102 -811v-623h-37v623l-103 811h39l60 -506l20 -203h4l21 203l59 506h39z" />
    <glyph glyph-name="Zacute" unicode="&#x179;" horiz-adv-x="280" 
d="M158 1485h-37l39 219h39zM240 1434v-35l-181 -1364h199v-35h-235v35l180 1364h-160v35h197z" />
    <glyph glyph-name="zacute" unicode="&#x17a;" horiz-adv-x="272" 
d="M154 1219h-37l39 219h39zM231 1167v-34l-172 -1098h191v-35h-227v35l172 1098h-162v34h198z" />
    <glyph glyph-name="Zdotaccent" unicode="&#x17b;" horiz-adv-x="280" 
d="M104 1493v92h70v-92h-70zM240 1434v-35l-181 -1364h199v-35h-235v35l180 1364h-160v35h197z" />
    <glyph glyph-name="zdotaccent" unicode="&#x17c;" horiz-adv-x="272" 
d="M102 1227v92h72v-92h-72zM231 1167v-34l-172 -1098h191v-35h-227v35l172 1098h-162v34h198z" />
    <glyph glyph-name="Zcaron" unicode="&#x17d;" horiz-adv-x="280" 
d="M188 1704h37l-47 -219h-57l-47 219h37l36 -178h5zM240 1434v-35l-181 -1364h199v-35h-235v35l180 1364h-160v35h197z" />
    <glyph glyph-name="zcaron" unicode="&#x17e;" horiz-adv-x="272" 
d="M186 1438h37l-47 -219h-57l-47 219h37l36 -178h5zM231 1167v-34l-172 -1098h191v-35h-227v35l172 1098h-162v34h198z" />
    <glyph glyph-name="longs" unicode="&#x17f;" horiz-adv-x="397" 
d="M20 0v1434h357v-1434h-357zM76 1399l123 -596l123 596h-246zM57 1307v-1188l123 596zM217 715l123 -588v1178zM199 625l-121 -590h244z" />
    <glyph glyph-name="florin" unicode="&#x192;" horiz-adv-x="225" 
d="M47 -430v35q46 0 56 8.5t10 42.5v1518h-29v34h29v242q0 57 17.5 71.5t68.5 14.5h16v-35q-45 0 -55 -8.5t-10 -42.5v-242h65v-34h-65v-1518q0 -57 -18 -71.5t-69 -14.5h-16z" />
    <glyph glyph-name="AEacute" unicode="&#x1fc;" horiz-adv-x="393" 
d="M287 1485h-37l39 219h39zM350 1434v-35h-92v-645h102v-35h-102v-684h113v-35h-148v416h-119l-49 -416h-37l172 1434h160zM109 451h114v942h-2z" />
    <glyph glyph-name="aeacute" unicode="&#x1fd;" horiz-adv-x="495" 
d="M246 1184h-37l39 219h39zM238 72h-5q-9 -40 -34 -62t-58 -22q-42 0 -69 35.5t-27 97.5v340q0 85 36.5 120t147.5 74v389q0 52 -20.5 76.5t-52.5 24.5t-53 -24.5t-21 -76.5v-294h-37v297q0 62 31 97.5t80 35.5q65 0 90 -52h4q25 52 90 52q49 0 80 -35.5t31 -97.5v-426
h-185v-500q0 -51 21 -74.5t53 -23.5t53 23.5t21 74.5v356h37v-356q0 -62 -30.5 -97.5t-80.5 -35.5q-37 0 -64.5 22.5t-37.5 61.5zM414 1044q0 52 -21 76.5t-53 24.5t-53 -24.5t-21 -76.5v-387h148v387zM229 618q-71 -29 -98 -45.5t-38 -40.5t-11 -73v-338q0 -51 21 -74.5
t53 -23.5t52.5 23.5t20.5 74.5v497z" />
    <glyph glyph-name="Oslashacute" unicode="&#x1fe;" horiz-adv-x="319" 
d="M178 1485h-37l39 219h39zM274 1313v-1192q0 -62 -31 -97.5t-83 -35.5q-48 0 -78 30l-4 -30l-33 6l10 69q-10 27 -10 58v1192q0 62 31.5 97.5t83.5 35.5q44 0 76 -29l4 29l34 -6l-10 -70q10 -27 10 -57zM82 268l147 1096q-19 47 -69 47q-34 0 -56 -23.5t-22 -74.5v-1045z
M238 1167l-148 -1093q17 -51 70 -51q34 0 56 24t22 76v1044z" />
    <glyph glyph-name="oslashacute" unicode="&#x1ff;" 
d="M174 1219h-37l39 219h39zM266 1047v-926q0 -62 -30 -97.5t-80 -35.5q-43 0 -74 28l-4 -28l-33 6l10 65q-10 30 -10 62v926q0 62 30.5 97.5t80.5 35.5q41 0 71 -27l4 25l35 -7l-10 -63q10 -30 10 -61zM82 227l137 875q-17 43 -63 43q-32 0 -53 -23.5t-21 -74.5v-820z
M229 940l-139 -872q19 -45 66 -45q32 0 52.5 23.5t20.5 74.5v819z" />
    <glyph glyph-name="uni0218" unicode="&#x218;" horiz-adv-x="319" 
d="M274 451v-328q0 -62 -31 -98.5t-83 -36.5t-83.5 36.5t-31.5 98.5v381h37v-381q0 -52 22 -76t56 -24t56 24t22 76v317q0 65 -17 131t-32 101t-48 102q-31 60 -48 98.5t-32.5 102.5t-15.5 131v207q0 62 31.5 97.5t83.5 35.5q51 0 82.5 -36t31.5 -97v-320h-36v320
q0 51 -22 74.5t-56 23.5t-56 -23.5t-22 -74.5v-197q0 -67 15.5 -131t32.5 -102.5t48 -98.5q32 -66 47.5 -101.5t32 -101t16.5 -130.5zM127 -131v92h70v-92l-17 -98h-30l16 98h-39z" />
    <glyph glyph-name="uni0219" unicode="&#x219;" 
d="M266 385v-264q0 -60 -31 -96.5t-79 -36.5q-50 0 -80.5 35.5t-30.5 97.5v291h37v-289q0 -52 21 -76t53 -24t52.5 24t20.5 76v262q0 42 -15.5 85t-29 65.5t-45.5 68.5q-31 43 -47 69.5t-31.5 73t-15.5 95.5v205q0 62 30.5 97.5t80.5 35.5q48 0 79 -35.5t31 -97.5v-236h-37
v233q0 51 -20.5 75t-52.5 24t-53 -24t-21 -75v-202q0 -42 15 -84t30 -67t45 -66q31 -45 47 -71.5t31.5 -73t15.5 -95.5zM123 -131v92h70v-92l-17 -98h-31l17 98h-39z" />
    <glyph glyph-name="uni021A" unicode="&#x21a;" horiz-adv-x="253" 
d="M231 1434v-35h-86v-1399h-36v1399h-86v35h208zM92 -131v92h70v-92l-17 -98h-30l16 98h-39z" />
    <glyph glyph-name="uni021B" unicode="&#x21b;" horiz-adv-x="172" 
d="M59 1393h37v-226h66v-34h-66v-1047q0 -34 10 -42.5t56 -8.5v-35h-17q-51 0 -68.5 14.5t-17.5 71.5v1047h-28v34h28v226zM88 -131v92h70v-92l-17 -98h-30l16 98h-39z" />
    <glyph glyph-name="uni0237" unicode="&#x237;" horiz-adv-x="135" 
d="M84 1167v-1429q0 -57 -17.5 -71.5t-68.5 -14.5h-16v35q45 0 55 8.5t10 42.5v1429h37z" />
    <glyph glyph-name="circumflex" unicode="&#x2c6;" horiz-adv-x="192" 
d="M57 1184h-37l48 219h57l47 -219h-37l-37 178h-4z" />
    <glyph glyph-name="caron" unicode="&#x2c7;" horiz-adv-x="212" 
d="M156 1403h37l-48 -219h-57l-47 219h37l37 -178h4z" />
    <glyph glyph-name="breve" unicode="&#x2d8;" horiz-adv-x="284" 
d="M23 1360h36q0 -131 84 -131q82 0 82 131h37q0 -162 -119 -162q-120 0 -120 162z" />
    <glyph glyph-name="dotaccent" unicode="&#x2d9;" horiz-adv-x="110" 
d="M20 1192v92h70v-92h-70z" />
    <glyph glyph-name="ring" unicode="&#x2da;" horiz-adv-x="262" 
d="M20 1294q0 107 111 107t111 -109q0 -106 -111 -106t-111 108zM57 1294q0 -73 74 -73t74 71q0 35 -19.5 54.5t-54.5 19.5q-74 0 -74 -72z" />
    <glyph glyph-name="ogonek" unicode="&#x2db;" horiz-adv-x="153" 
d="M133 -10v-10q-38 -10 -58 -37.5t-20 -59.5q0 -29 17.5 -46t44.5 -17q10 0 16 2v-37q-5 -2 -24 -2q-41 0 -65 26t-24 62q0 41 30.5 76.5t82.5 42.5z" />
    <glyph glyph-name="tilde" unicode="&#x2dc;" horiz-adv-x="266" 
d="M246 1366v-66q0 -46 -16.5 -74t-45.5 -28q-24 0 -40.5 21.5t-23 47t-15.5 47t-21 21.5q-23 0 -23 -75v-58h-38v60q0 108 59 108q25 0 42 -21t23 -46.5t15.5 -46.5t21.5 -21q25 0 25 72v59h37z" />
    <glyph glyph-name="hungarumlaut" unicode="&#x2dd;" horiz-adv-x="233" 
d="M57 1184h-37l39 219h39zM135 1184h-37l39 219h39z" />
    <glyph glyph-name="uni03BC" unicode="&#x3bc;" horiz-adv-x="397" 
d="M20 0v1434h357v-1434h-357zM76 1399l123 -596l123 596h-246zM57 1307v-1188l123 596zM217 715l123 -588v1178zM199 625l-121 -590h244z" />
    <glyph glyph-name="Wgrave" unicode="&#x1e80;" horiz-adv-x="487" 
d="M225 1485l-41 219h39l39 -219h-37zM471 1434l-86 -1434h-61l-66 1106l-12 287h-4l-11 -287l-67 -1106h-62l-86 1434h37l56 -961l22 -432h4l23 432l55 961h61l56 -961l22 -432h4l23 432l55 961h37z" />
    <glyph glyph-name="wgrave" unicode="&#x1e81;" horiz-adv-x="430" 
d="M197 1219l-41 219h39l38 -219h-36zM373 1167h37l-72 -1167h-62l-45 823l-14 303h-4l-14 -303l-45 -823h-62l-72 1167h37l47 -782l17 -350h4l16 350l47 782h54l47 -782l16 -350h4l17 350z" />
    <glyph glyph-name="Wacute" unicode="&#x1e82;" horiz-adv-x="487" 
d="M262 1485h-37l39 219h39zM471 1434l-86 -1434h-61l-66 1106l-12 287h-4l-11 -287l-67 -1106h-62l-86 1434h37l56 -961l22 -432h4l23 432l55 961h61l56 -961l22 -432h4l23 432l55 961h37z" />
    <glyph glyph-name="wacute" unicode="&#x1e83;" horiz-adv-x="430" 
d="M233 1219h-36l39 219h38zM373 1167h37l-72 -1167h-62l-45 823l-14 303h-4l-14 -303l-45 -823h-62l-72 1167h37l47 -782l17 -350h4l16 350l47 782h54l47 -782l16 -350h4l17 350z" />
    <glyph glyph-name="Wdieresis" unicode="&#x1e84;" horiz-adv-x="487" 
d="M190 1493v113h37v-113h-37zM262 1493v113h37v-113h-37zM471 1434l-86 -1434h-61l-66 1106l-12 287h-4l-11 -287l-67 -1106h-62l-86 1434h37l56 -961l22 -432h4l23 432l55 961h61l56 -961l22 -432h4l23 432l55 961h37z" />
    <glyph glyph-name="wdieresis" unicode="&#x1e85;" horiz-adv-x="430" 
d="M162 1227v112h37v-112h-37zM233 1227v112h37v-112h-37zM373 1167h37l-72 -1167h-62l-45 823l-14 303h-4l-14 -303l-45 -823h-62l-72 1167h37l47 -782l17 -350h4l16 350l47 782h54l47 -782l16 -350h4l17 350z" />
    <glyph glyph-name="Ygrave" unicode="&#x1ef2;" horiz-adv-x="274" 
d="M119 1485l-41 219h39l39 -219h-37zM258 1434l-102 -811v-623h-37v623l-103 811h39l60 -506l20 -203h4l21 203l59 506h39z" />
    <glyph glyph-name="ygrave" unicode="&#x1ef3;" horiz-adv-x="266" 
d="M115 1219l-41 219h39l39 -219h-37zM57 1167l54 -682l20 -307h4l19 307l55 682h37l-121 -1495h-37l27 328l-95 1167h37z" />
    <glyph glyph-name="endash" unicode="&#x2013;" horiz-adv-x="798" 
d="M778 713v-35h-758v35h758z" />
    <glyph glyph-name="emdash" unicode="&#x2014;" horiz-adv-x="1290" 
d="M1270 713v-35h-1250v35h1250z" />
    <glyph glyph-name="quoteleft" unicode="&#x2018;" horiz-adv-x="112" 
d="M92 1303v-93h-69v93l22 131h29l-21 -131h39z" />
    <glyph glyph-name="quoteright" unicode="&#x2019;" horiz-adv-x="112" 
d="M25 1341v93h69v-93l-24 -131h-29l20 131h-36z" />
    <glyph glyph-name="quotesinglbase" unicode="&#x201a;" horiz-adv-x="110" 
d="M20 0v92h70v-92l-22 -131h-31l22 131h-39z" />
    <glyph glyph-name="quotedblleft" unicode="&#x201c;" horiz-adv-x="225" 
d="M92 1303v-93h-69v93l22 131h29l-21 -131h39zM205 1303v-93h-70v93l23 131h28l-20 -131h39z" />
    <glyph glyph-name="quotedblright" unicode="&#x201d;" horiz-adv-x="225" 
d="M137 1341v93h70v-93l-25 -131h-28l20 131h-37zM25 1341v93h69v-93l-24 -131h-29l20 131h-36z" />
    <glyph glyph-name="quotedblbase" unicode="&#x201e;" horiz-adv-x="221" 
d="M20 0v92h70v-92l-22 -131h-31l22 131h-39zM131 0v92h70v-92l-23 -131h-31l23 131h-39z" />
    <glyph glyph-name="dagger" unicode="&#x2020;" horiz-adv-x="200" 
d="M82 1434h37v-267h61v-34h-61v-1133h-37v1133h-62v34h62v267z" />
    <glyph glyph-name="daggerdbl" unicode="&#x2021;" horiz-adv-x="200" 
d="M20 1133v34h62v267h37v-267h61v-34h-61v-832h61v-35h-61v-266h-37v266h-62v35h62v832h-62z" />
    <glyph glyph-name="bullet" unicode="&#x2022;" horiz-adv-x="135" 
d="M20 743q0 19 13.5 32t32.5 13q20 0 33.5 -13t13.5 -32q0 -20 -13.5 -33.5t-33.5 -13.5q-19 0 -32.5 13.5t-13.5 33.5z" />
    <glyph glyph-name="ellipsis" unicode="&#x2026;" horiz-adv-x="335" 
d="M20 0v92h70v-92h-70zM131 0v92h70v-92h-70zM246 0v92h69v-92h-69z" />
    <glyph glyph-name="perthousand" unicode="&#x2030;" horiz-adv-x="974" 
d="M262 1313v-568q0 -62 -30 -97.5t-80 -35.5q-49 0 -80 35.5t-31 97.5v568q0 62 30.5 97.5t80.5 35.5q48 0 79 -35.5t31 -97.5zM20 0l615 1434h37l-615 -1434h-37zM225 1311q0 52 -20.5 76t-52.5 24t-53 -24t-21 -76v-566q0 -51 21 -74.5t53 -23.5t52.5 23.5t20.5 74.5v566
zM651 688v-567q0 -62 -30 -97.5t-80 -35.5q-49 0 -80 35.5t-31 97.5v567q0 62 30.5 97.5t80.5 35.5q48 0 79 -35.5t31 -97.5zM954 688v-567q0 -62 -30 -97.5t-80 -35.5q-49 0 -80 35.5t-31 97.5v567q0 62 30.5 97.5t80.5 35.5q48 0 79 -35.5t31 -97.5zM614 686
q0 52 -20.5 76t-52.5 24t-53 -24t-21 -76v-565q0 -51 21 -74.5t53 -23.5t52.5 23.5t20.5 74.5v565zM918 686q0 52 -21 76t-53 24t-53 -24t-21 -76v-565q0 -51 21 -74.5t53 -23.5t53 23.5t21 74.5v565z" />
    <glyph glyph-name="guilsinglleft" unicode="&#x2039;" horiz-adv-x="139" 
d="M20 588l62 246h37l-62 -246l62 -246h-37z" />
    <glyph glyph-name="guilsinglright" unicode="&#x203a;" horiz-adv-x="139" 
d="M119 588l-62 -246h-37l62 246l-62 246h37z" />
    <glyph glyph-name="fraction" unicode="&#x2044;" horiz-adv-x="360" 
d="M57 0h-37l283 1434h37z" />
    <glyph glyph-name="uni2074" unicode="&#x2074;" horiz-adv-x="221" 
d="M20 725v20l89 689h67v-674h25v-35h-25v-104h-37v104h-119zM57 760h82v645h-4z" />
    <glyph glyph-name="Euro" unicode="&#x20ac;" horiz-adv-x="360" 
d="M279 1311q0 51 -22 74.5t-56 23.5t-56 -23.5t-22 -74.5v-459h168l-8 -35h-160v-119h147l-8 -34h-139v-543q0 -51 22 -74.5t56 -23.5t56 23.5t22 74.5v403h36v-403q0 -62 -31 -97.5t-83 -35.5q-51 0 -83 35.5t-32 97.5v543h-41v34h41v119h-41v35h41v461q0 62 31.5 97.5
t83.5 35.5q51 0 82.5 -36t31.5 -97v-340h-36v338z" />
    <glyph glyph-name="trademark" unicode="&#x2122;" horiz-adv-x="339" 
d="M106 1434v-31h-26v-399h-33v399h-27v31h86zM317 1434v-430h-30v368l2 35h-4l-31 -403h-59l-31 403h-4l2 -35v-368h-33v430h64l24 -289l6 -117h4l4 117l25 289h61z" />
    <glyph glyph-name="minus" unicode="&#x2212;" horiz-adv-x="323" 
d="M303 711v-35h-283v35h283z" />
    <glyph glyph-name="fi" unicode="&#xfb01;" 
d="M59 0v1133h-28v34h28v242q0 57 17.5 71.5t68.5 14.5h17v-35q-46 0 -56 -8.5t-10 -42.5v-242h66v-34h-66v-1133h-37zM223 1208v144h37v-144h-37zM223 0v1167h37v-1167h-37z" />
    <glyph glyph-name="fl" unicode="&#xfb02;" 
d="M59 0v1133h-28v34h28v242q0 57 17.5 71.5t68.5 14.5h17v-35q-46 0 -56 -8.5t-10 -42.5v-242h66v-34h-66v-1133h-37zM223 0v1495h37v-1495h-37z" />
    <glyph glyph-name="ethbar" horiz-adv-x="159" 
d="M139 713v-35h-119v35h119z" />
    <glyph glyph-name="crossbar" horiz-adv-x="200" 
d="M166 690l12 -33l-143 -59l-15 33z" />
    <glyph glyph-name="ethbar.case" horiz-adv-x="200" 
d="M180 711v-35h-160v35h160z" />
    <glyph glyph-name="crossbar.case" horiz-adv-x="200" 
d="M166 731l12 -33l-143 -59l-15 33z" />
    <glyph glyph-name="commaccent" horiz-adv-x="92" 
d="M23 -199l12 179h37l-17 -179h-32z" />
    <glyph glyph-name="commaccent2" horiz-adv-x="112" 
d="M23 0v92h69v-92l-16 -98h-31l16 98h-38z" />
    <glyph glyph-name="commaccent3" horiz-adv-x="112" 
d="M90 92v-92h-70v92l17 98h31l-17 -98h39z" />
    <glyph glyph-name="tbarnew" horiz-adv-x="174" 
d="M20 711h134v-35h-134v35z" />
    <glyph glyph-name="ogonek2" horiz-adv-x="153" 
d="M121 -8l2 -12q-32 -11 -50 -39.5t-18 -57.5t17.5 -46t44.5 -17q12 0 16 2v-37q-5 -2 -24 -2q-41 0 -65 26t-24 62q0 39 27 74.5t74 46.5z" />
    <glyph glyph-name="custombarH" horiz-adv-x="348" 
d="M328 713v-35h-308v35h308z" />
    <glyph glyph-name="dotaccent2" horiz-adv-x="110" 
d="M20 1192v92h70v-92h-70z" />
    </font>
</defs>
</svg>
