<?xml version="1.0" standalone="no"?>
<!DOCTYPE svg PUBLIC "-//W3C//DTD SVG 1.1//EN" "http://www.w3.org/Graphics/SVG/1.1/DTD/svg11.dtd" >
<svg xmlns="http://www.w3.org/2000/svg" xmlns:xlink="http://www.w3.org/1999/xlink" version="1.1">
<metadata>
Created by FontForge 20201107 at Fri Oct 18 01:53:54 2024
 By 
(c)rajeshrajput
</metadata>
<defs>
<font id="Humane-Medium" horiz-adv-x="407" >
  <font-face 
    font-family="Mango Grotesque Med"
    font-weight="500"
    font-stretch="normal"
    units-per-em="2048"
    panose-1="0 0 0 0 0 0 0 0 0 0"
    ascent="1638"
    descent="-410"
    x-height="1165"
    cap-height="1434"
    bbox="-68 -430 1389 1800"
    underline-thickness="102"
    underline-position="-255"
    unicode-range="U+000D-FB02"
  />
<missing-glyph horiz-adv-x="643" 
d="M35 0v1434h573v-1434h-573zM186 1325l136 -438l131 438h-267zM373 719l127 -412v834zM143 1133v-840l127 426zM322 551l-134 -442h271z" />
    <glyph glyph-name=".notdef" horiz-adv-x="643" 
d="M35 0v1434h573v-1434h-573zM186 1325l136 -438l131 438h-267zM373 719l127 -412v834zM143 1133v-840l127 426zM322 551l-134 -442h271z" />
    <glyph glyph-name="uni0000" horiz-adv-x="0" 
 />
    <glyph glyph-name="uni0000" horiz-adv-x="0" 
 />
    <glyph glyph-name="uni000D" unicode="&#xd;" horiz-adv-x="512" 
 />
    <glyph glyph-name="space" unicode=" " horiz-adv-x="169" 
 />
    <glyph glyph-name="exclam" unicode="!" horiz-adv-x="245" 
d="M35 1434h178v-205l-55 -942h-68l-55 942v205zM47 0v205h150v-205h-150z" />
    <glyph glyph-name="quotedbl" unicode="&#x22;" horiz-adv-x="409" 
d="M377 1434v-142l-10 -186h-129l-11 186v142h150zM184 1434v-142l-10 -186h-129l-10 186v142h149z" />
    <glyph glyph-name="numbersign" unicode="#" horiz-adv-x="579" 
d="M70 0l24 442h-59v131h67l17 287h-64v131h70l27 443h149l-25 -443h68l25 443h151l-26 -443h53v-131h-60l-16 -287h55v-131h-63l-25 -442h-151l26 442h-69l-25 -442h-149zM252 573h67l17 287h-68z" />
    <glyph glyph-name="dollar" unicode="$" horiz-adv-x="413" 
d="M391 440v-268q0 -68 -34 -114.5t-93 -61.5l19 -199h-150l19 197q-61 15 -95 61.5t-34 116.5v332h149v-324q0 -55 35 -55q33 0 33 55v260q0 50 -16.5 102.5t-33.5 85t-51 89.5q-38 63 -57.5 101.5t-39 105.5t-19.5 135v203q0 69 34.5 116t94.5 62l-19 196h150l-19 -196
q59 -15 93 -61.5t34 -116.5v-269h-151v260q0 56 -33 56q-35 0 -35 -56v-194q0 -51 16.5 -104t33.5 -86t50 -89q39 -66 58.5 -103t40 -104t20.5 -133z" />
    <glyph glyph-name="percent" unicode="%" horiz-adv-x="1003" 
d="M385 1262v-465q0 -85 -47.5 -135t-126.5 -50t-127.5 50t-48.5 135v465q0 85 48.5 134.5t127.5 49.5t126.5 -49.5t47.5 -134.5zM121 0l612 1434h150l-615 -1434h-147zM244 1260q0 53 -33 53q-35 0 -35 -53v-461q0 -54 35 -54q33 0 33 54v461zM969 637v-465
q0 -85 -47.5 -134.5t-126.5 -49.5q-81 0 -130 49.5t-49 134.5v465q0 85 49 134.5t130 49.5q79 0 126.5 -49.5t47.5 -134.5zM827 635q0 28 -7.5 40.5t-26.5 12.5q-35 0 -35 -53v-461q0 -53 35 -53q19 0 26.5 12.5t7.5 40.5v461z" />
    <glyph glyph-name="ampersand" unicode="&#x26;" horiz-adv-x="464" 
d="M246 991h149v-217h41v-137h-41v-637h-149v82h-4q-12 -45 -38.5 -69.5t-62.5 -24.5q-52 0 -83 49.5t-31 134.5v379q0 70 14.5 103t58.5 51v4q-44 17 -58.5 49t-14.5 102v402q0 85 51 134.5t135 49.5t133 -49t49 -135v-201h-149v194q0 54 -35 54t-35 -54v-430
q0 -28 8 -39.5t27 -11.5h35v217zM246 637h-35q-19 0 -27 -11.5t-8 -37.5v-410q0 -53 35 -53t35 59v453z" />
    <glyph glyph-name="quotesingle" unicode="'" horiz-adv-x="219" 
d="M184 1434v-142l-10 -186h-129l-10 186v142h149z" />
    <glyph glyph-name="parenleft" unicode="(" horiz-adv-x="299" 
d="M164 -399q-137 535 -137 991t137 985l106 -16q-94 -607 -94 -967q0 -200 22.5 -420t71.5 -557z" />
    <glyph glyph-name="parenright" unicode=")" horiz-adv-x="299" 
d="M133 1577q137 -535 137 -991t-137 -985l-104 16q92 617 92 967q0 202 -22.5 425.5t-69.5 551.5z" />
    <glyph glyph-name="asterisk" unicode="*" horiz-adv-x="358" 
d="M57 1241l54 57l-76 15l33 96l69 -33l-10 78h102l-10 -78l72 33l33 -96l-76 -15l53 -57l-84 -59l-39 69l-37 -69z" />
    <glyph glyph-name="plus" unicode="+" horiz-adv-x="546" 
d="M512 762v-137h-164v-164h-149v164h-164v137h164v164h149v-164h164z" />
    <glyph glyph-name="comma" unicode="," horiz-adv-x="219" 
d="M35 0v205h149v-205l-37 -158h-75l34 158h-71z" />
    <glyph glyph-name="hyphen" unicode="-" horiz-adv-x="301" 
d="M266 762v-137h-231v137h231z" />
    <glyph glyph-name="period" unicode="." horiz-adv-x="219" 
d="M35 0v205h149v-205h-149z" />
    <glyph glyph-name="slash" unicode="/" horiz-adv-x="399" 
d="M184 -164h-149l180 1659h150z" />
    <glyph glyph-name="zero" unicode="0" horiz-adv-x="423" 
d="M395 1262v-1090q0 -86 -50 -135t-134 -49q-83 0 -134.5 49.5t-51.5 134.5v1090q0 85 52 134.5t136 49.5q83 0 132.5 -49.5t49.5 -134.5zM244 1253q0 56 -33 56q-35 0 -35 -56v-1073q0 -55 35 -55q33 0 33 55v1073z" />
    <glyph glyph-name="one" unicode="1" horiz-adv-x="342" 
d="M246 1434v-1297h67v-137h-286v137h69v1063h-69v119q60 0 81 23.5t21 91.5h117z" />
    <glyph glyph-name="two" unicode="2" horiz-adv-x="423" 
d="M29 0v145q0 102 22 199t44.5 150.5t62.5 134.5q32 66 46.5 99t29 86.5t14.5 100.5v336q0 31 -7.5 43.5t-25.5 12.5q-37 0 -37 -54v-362h-149v371q0 86 49 135t131 49q85 0 136.5 -54.5t51.5 -146.5v-332q0 -61 -17 -126.5t-34.5 -107t-50.5 -108.5q-31 -63 -43.5 -91
t-34 -87.5t-30.5 -117.5t-9 -125v-15h219v-135h-368z" />
    <glyph glyph-name="three" unicode="3" horiz-adv-x="423" 
d="M176 1253v-301h-149v310q0 86 49 135t133 49t135 -49.5t51 -134.5v-338q0 -72 -14.5 -104.5t-58.5 -49.5v-4q44 -18 58.5 -51t14.5 -103v-440q0 -85 -51 -134.5t-135 -49.5t-133 49t-49 135v350h149v-344q0 -53 35 -53t35 53v457q0 38 -10.5 50.5t-45.5 12.5h-34v138h34
q35 0 45.5 12.5t10.5 50.5v354q0 56 -35 56t-35 -56z" />
    <glyph glyph-name="four" unicode="4" horiz-adv-x="456" 
d="M238 0v211h-209v137l135 1086h223v-1086h41v-137h-41v-211h-149zM170 348h68l22 922h-4z" />
    <glyph glyph-name="five" unicode="5" horiz-adv-x="423" 
d="M176 805v-57h-149v686h356v-138h-207v-378h4q27 71 99 71q56 0 86 -49t30 -135v-633q0 -84 -51 -134t-135 -50q-83 0 -132.5 49.5t-49.5 134.5v414h149v-406q0 -53 35 -53t35 53v625q0 53 -35 53t-35 -53z" />
    <glyph glyph-name="six" unicode="6" horiz-adv-x="423" 
d="M176 829h4q28 72 99 72q56 0 86 -49t30 -135v-545q0 -86 -50.5 -135t-135.5 -49q-83 0 -132.5 49.5t-49.5 134.5v1096q0 82 51.5 130t134.5 48q84 0 133 -49t49 -135v-269h-149v260q0 56 -35 56t-35 -56v-424zM176 717v-537q0 -55 35 -55t35 55v537q0 53 -35 53t-35 -53z
" />
    <glyph glyph-name="seven" unicode="7" horiz-adv-x="409" 
d="M383 1434v-138l-164 -1296h-151l161 1292l-4 4h-198v138h356z" />
    <glyph glyph-name="eight" unicode="8" horiz-adv-x="423" 
d="M209 1446q86 0 136 -49t50 -135v-349q0 -64 -15 -94.5t-58 -48.5v-4q44 -18 58.5 -51t14.5 -103v-440q0 -86 -49 -135t-133 -49q-86 0 -136 49t-50 135v440q0 70 14.5 103t58.5 51v4q-43 18 -58 48.5t-15 94.5v349q0 86 49 135t133 49zM176 1253v-352q0 -37 7.5 -50
t27.5 -13t27.5 13t7.5 50v352q0 56 -35 56t-35 -56zM211 125q35 0 35 55v455q0 37 -7.5 50t-27.5 13t-27.5 -13t-7.5 -50v-455q0 -55 35 -55z" />
    <glyph glyph-name="nine" unicode="9" horiz-adv-x="423" 
d="M211 1446q84 0 134 -49t50 -135v-1096q0 -82 -51.5 -130t-134.5 -48q-84 0 -133 49t-49 135v330h149v-322q0 -55 35 -55t35 55v486h-4q-28 -72 -99 -72q-56 0 -86 49t-30 135v484q0 86 49.5 135t134.5 49zM246 778v475q0 56 -35 56t-35 -56v-475q0 -53 35 -53t35 53z" />
    <glyph glyph-name="colon" unicode=":" horiz-adv-x="239" 
d="M35 819v205h149v-205h-149zM35 0v205h149v-205h-149z" />
    <glyph glyph-name="semicolon" unicode=";" horiz-adv-x="239" 
d="M35 819v205h149v-205h-149zM35 0v205h149v-205l-37 -158h-73l35 158h-74z" />
    <glyph glyph-name="less" unicode="&#x3c;" horiz-adv-x="456" 
d="M424 760l-236 -64v-4l236 -63v-131l-389 129v135l389 129v-131z" />
    <glyph glyph-name="equal" unicode="=" horiz-adv-x="518" 
d="M485 868v-137h-450v137h450zM485 641v-137h-450v137h450z" />
    <glyph glyph-name="greater" unicode="&#x3e;" horiz-adv-x="456" 
d="M35 629l235 63v4l-235 64v131l389 -129v-135l-389 -129v131z" />
    <glyph glyph-name="question" unicode="?" horiz-adv-x="438" 
d="M137 440q0 91 18.5 175t40 137.5t40 128t18.5 149.5v223q0 56 -35 56t-35 -56v-362h-149v371q0 86 50 135t134 49q83 0 133.5 -49.5t50.5 -134.5v-232q0 -92 -18 -176t-40 -137.5t-40 -128t-18 -148.5v-153h-150v153zM137 0v205h150v-205h-150z" />
    <glyph glyph-name="at" unicode="@" horiz-adv-x="841" 
d="M549 -51l47 -129q-79 -39 -176 -39q-74 0 -142 24.5t-122.5 71t-87.5 121.5t-33 168v821q0 93 33 168t87.5 121.5t122.5 71t142 24.5t142 -24.5t123.5 -71t88.5 -121.5t33 -168v-813q0 -86 -47 -136t-129 -50q-64 0 -108 34.5t-58 96.5h-4q-8 -62 -36 -96.5t-71 -34.5
q-51 0 -80.5 49.5t-29.5 134.5v776q0 85 29.5 135t80.5 50q35 0 60.5 -25.5t36.5 -69.5h4v74h141v-932q0 -59 35 -59t35 55v811q0 119 -72 185.5t-170 66.5q-101 0 -174.5 -68.5t-73.5 -191.5v-811q0 -119 72.5 -186.5t171.5 -67.5q70 0 129 35zM455 946q0 55 -35 55
t-35 -55v-772q0 -53 35 -53t35 53v772z" />
    <glyph glyph-name="A" unicode="A" horiz-adv-x="411" 
d="M305 1434l109 -1434h-162l-16 365h-74l-17 -365h-145l98 1434h207zM168 502h61l-20 416l-8 317h-4l-9 -317z" />
    <glyph glyph-name="B" unicode="B" horiz-adv-x="417" 
d="M395 1257v-333q0 -71 -14.5 -104t-58.5 -50v-4q44 -17 58.5 -50t14.5 -104v-434q0 -92 -44.5 -135t-137.5 -43h-186v1434h186q93 0 137.5 -43.5t44.5 -133.5zM246 1247q0 26 -8 37.5t-27 11.5h-35v-458h35q19 0 27 11.5t8 37.5v360zM246 649q0 27 -8 38t-27 11h-35v-561
h35q19 0 27 11.5t8 39.5v461z" />
    <glyph glyph-name="C" unicode="C" horiz-adv-x="423" 
d="M246 1253q0 56 -35 56t-35 -56v-1073q0 -55 35 -55t35 55v426h149v-434q0 -86 -50 -135t-134 -49t-134 49t-50 135v1090q0 85 51 134.5t135 49.5q83 0 132.5 -49.5t49.5 -134.5v-371h-149v362z" />
    <glyph glyph-name="D" unicode="D" horiz-adv-x="423" 
d="M395 1255v-1077q0 -89 -44 -133.5t-140 -44.5h-184v1434h184q96 0 140 -44.5t44 -134.5zM244 1245q0 29 -8 40t-27 11h-33v-1159h33q19 0 27 11t8 40v1057z" />
    <glyph glyph-name="E" unicode="E" horiz-adv-x="282" 
d="M258 1432v-138h-82v-491h72v-137h-72v-529h92v-137h-241v1432h231z" />
    <glyph glyph-name="F" unicode="F" horiz-adv-x="272" 
d="M258 1432v-138h-82v-512h72v-137h-72v-645h-149v1432h231z" />
    <glyph glyph-name="G" unicode="G" horiz-adv-x="423" 
d="M211 756h184v-756h-149v82h-4q-12 -44 -38.5 -69t-60.5 -25q-53 0 -84.5 50t-31.5 134v1090q0 85 51 134.5t135 49.5t133 -49t49 -135v-371h-149v362q0 56 -35 56q-33 0 -33 -56v-1075q0 -55 33 -55q35 0 35 59v436h-35v138z" />
    <glyph glyph-name="H" unicode="H" horiz-adv-x="423" 
d="M395 1432v-1432h-149v645h-70v-645h-149v1432h149v-650h70v650h149z" />
    <glyph glyph-name="I" unicode="I" horiz-adv-x="204" 
d="M176 1434v-1434h-149v1434h149z" />
    <glyph glyph-name="J" unicode="J" horiz-adv-x="423" 
d="M395 1434v-1262q0 -86 -50 -135t-134 -49t-134 49t-50 135v434h149v-426q0 -55 35 -55t35 55v1254h149z" />
    <glyph glyph-name="K" unicode="K" horiz-adv-x="419" 
d="M418 1434l-107 -656v-4l107 -774h-150l-88 680h-4v-680h-149v1434h149v-600h4l86 600h152z" />
    <glyph glyph-name="L" unicode="L" horiz-adv-x="278" 
d="M27 1434h149v-1297h88v-137h-237v1434z" />
    <glyph glyph-name="M" unicode="M" horiz-adv-x="659" 
d="M631 1434v-1434h-142l7 1208h-4l-17 -286l-67 -922h-156l-70 922l-16 286h-4l6 -1208h-141v1434h243l47 -830l11 -285h4l8 283l47 832h244z" />
    <glyph glyph-name="N" unicode="N" horiz-adv-x="507" 
d="M479 1434v-1434h-196l-140 1167h-4l23 -481l8 -686h-143v1434h198l140 -1164h4l-23 467l-8 697h141z" />
    <glyph glyph-name="O" unicode="O" horiz-adv-x="423" 
d="M395 1262v-1090q0 -86 -50 -135t-134 -49q-83 0 -134.5 49.5t-51.5 134.5v1090q0 85 52 134.5t136 49.5q83 0 132.5 -49.5t49.5 -134.5zM244 1253q0 56 -33 56q-35 0 -35 -56v-1073q0 -55 35 -55q33 0 33 55v1073z" />
    <glyph glyph-name="P" unicode="P" horiz-adv-x="423" 
d="M395 1255v-460q0 -89 -43.5 -134t-138.5 -45h-37v-616h-149v1434h186q96 0 139 -44.5t43 -134.5zM246 1245q0 29 -8 40t-27 11h-35v-540h35q19 0 27 11t8 38v440z" />
    <glyph glyph-name="Q" unicode="Q" horiz-adv-x="423" 
d="M395 1262v-1090q0 -69 -33 -115t-92 -61v-31q0 -16 4.5 -22t20.5 -6h59v-115h-84q-63 0 -90.5 30.5t-27.5 96.5v47q-58 15 -91.5 61.5t-33.5 114.5v1090q0 85 51 134.5t135 49.5t133 -49t49 -135zM246 1253q0 56 -35 56t-35 -56v-1073q0 -55 35 -55t35 55v1073z" />
    <glyph glyph-name="R" unicode="R" horiz-adv-x="423" 
d="M246 608q0 27 -8 38t-27 11h-35v-657h-149v1434h186q93 0 137.5 -43.5t44.5 -135.5v-372q0 -72 -14.5 -104.5t-58.5 -49.5v-4q44 -17 58.5 -49.5t14.5 -104.5v-387q0 -114 21 -180v-4h-152q-18 78 -18 186v422zM246 1245q0 28 -8 39.5t-27 11.5h-35v-499h35q19 0 27 11
t8 38v399z" />
    <glyph glyph-name="S" unicode="S" horiz-adv-x="413" 
d="M391 440v-268q0 -85 -51 -134.5t-135 -49.5t-133 49t-49 135v332h149v-324q0 -55 35 -55q33 0 33 55v260q0 50 -16.5 102.5t-33.5 85t-51 89.5q-38 63 -57.5 101.5t-39 105.5t-19.5 135v203q0 85 51 134.5t135 49.5q83 0 132.5 -49.5t49.5 -134.5v-269h-151v260
q0 56 -33 56q-35 0 -35 -56v-194q0 -51 16.5 -104t33.5 -86t50 -89q39 -66 58.5 -103t40 -104t20.5 -133z" />
    <glyph glyph-name="T" unicode="T" horiz-adv-x="380" 
d="M367 1434v-138h-103v-1296h-149v1296h-103v138h355z" />
    <glyph glyph-name="U" unicode="U" horiz-adv-x="423" 
d="M395 1434v-1262q0 -86 -50 -135t-134 -49t-134 49t-50 135v1262h149v-1254q0 -55 35 -55t35 55v1254h149z" />
    <glyph glyph-name="V" unicode="V" 
d="M408 1434l-97 -1434h-205l-106 1434h162l41 -920l8 -317h4l8 317l41 920h144z" />
    <glyph glyph-name="W" unicode="W" horiz-adv-x="661" 
d="M662 1434l-87 -1434h-200l-35 981l-4 227h-4l-6 -227l-35 -981h-201l-90 1434h166l27 -1237h4l10 317l35 920h182l37 -920l8 -317h4l6 317l23 920h160z" />
    <glyph glyph-name="X" unicode="X" horiz-adv-x="415" 
d="M410 1434l-86 -697v-4l92 -733h-154l-39 408l-10 204h-4l-12 -204l-43 -408h-154l94 733v4l-88 697h154l35 -371l12 -205h4l10 205l35 371h154z" />
    <glyph glyph-name="Y" unicode="Y" horiz-adv-x="403" 
d="M403 1434l-127 -963v-471h-149v471l-127 963h154l39 -494l8 -205h4l8 205l37 494h153z" />
    <glyph glyph-name="Z" unicode="Z" horiz-adv-x="348" 
d="M336 1434v-138l-170 -1159h168v-137h-322v137l170 1159h-159v138h313z" />
    <glyph glyph-name="bracketleft" unicode="[" horiz-adv-x="301" 
d="M272 -399h-245v1955h245v-137h-96v-1681h96v-137z" />
    <glyph glyph-name="backslash" unicode="\" horiz-adv-x="399" 
d="M184 1495l181 -1659h-150l-180 1659h149z" />
    <glyph glyph-name="bracketright" unicode="]" horiz-adv-x="301" 
d="M27 1556h245v-1955h-245v137h96v1681h-96v137z" />
    <glyph glyph-name="asciicircum" unicode="^" horiz-adv-x="448" 
d="M279 1079l-54 203h-4l-51 -203h-135l112 355h152l115 -355h-135z" />
    <glyph glyph-name="underscore" unicode="_" horiz-adv-x="497" 
d="M465 0v-137h-430v137h430z" />
    <glyph glyph-name="grave" unicode="`" horiz-adv-x="231" 
d="M92 1171l-59 246h137l27 -246h-105z" />
    <glyph glyph-name="a" unicode="a" 
d="M168 993v-243h-141v245q0 85 47.5 135t126.5 50q80 0 129 -50t49 -135v-995h-141v92h-5q-11 -50 -37.5 -77t-64.5 -27q-51 0 -77.5 44t-26.5 126v284q0 106 41 154t170 98v299q0 29 -8 41.5t-27 12.5t-27 -12.5t-8 -41.5zM238 569q-47 -24 -58.5 -51.5t-11.5 -91.5v-252
q0 -53 35 -53t35 53v395z" />
    <glyph glyph-name="b" unicode="b" 
d="M27 0v1495h141v-399l4 -2q25 86 100 86q51 0 79 -48t28 -137v-823q0 -89 -28 -136.5t-81 -47.5q-35 0 -60.5 22t-37.5 62h-4v-72h-141zM238 993q0 54 -35 54t-35 -54v-819q0 -53 35 -53t35 53v819z" />
    <glyph glyph-name="c" unicode="c" 
d="M236 993q0 54 -35 54q-33 0 -33 -54v-819q0 -53 33 -53q35 0 35 53v324h143v-326q0 -86 -48 -135t-128 -49q-79 0 -127.5 49.5t-48.5 134.5v823q0 85 48.5 135t127.5 50q80 0 128 -49.5t48 -135.5v-272h-143v270z" />
    <glyph glyph-name="d" unicode="d" 
d="M379 0h-141v72h-5q-12 -40 -37.5 -62t-60.5 -22q-51 0 -79.5 47.5t-28.5 136.5v823q0 89 28.5 137t79.5 48q73 0 98 -86l5 2v399h141v-1495zM168 993v-819q0 -53 35 -53t35 53v819q0 54 -35 54t-35 -54z" />
    <glyph glyph-name="e" unicode="e" 
d="M238 457h141v-285q0 -86 -48 -135t-128 -49t-128 49t-48 135v823q0 85 49 135t129 50q79 0 126.5 -50t47.5 -135v-440h-211v-381q0 -53 35 -53t35 53v283zM238 993q0 29 -8 41.5t-27 12.5t-27 -12.5t-8 -41.5v-307h70v307z" />
    <glyph glyph-name="f" unicode="f" horiz-adv-x="243" 
d="M43 0v1038h-33v129h33v131q0 49 1.5 78.5t8 53.5t15 35t27.5 19t40 9.5t58 1.5h40v-127q-32 0 -39.5 -9.5t-7.5 -45.5v-146h47v-129h-47v-1038h-143z" />
    <glyph glyph-name="g" unicode="g" 
d="M379 1169v-1325q0 -85 -48.5 -134.5t-127.5 -49.5q-80 0 -128 48.5t-48 131.5v105h141v-99q0 -53 35 -53t35 53v228h-5q-26 -86 -100 -86q-51 0 -78.5 47.5t-27.5 136.5v825q0 89 28 137t80 48q35 0 60.5 -23t37.5 -63h5v73h141zM168 174q0 -53 35 -53t35 53v821
q0 54 -35 54t-35 -54v-821z" />
    <glyph glyph-name="h" unicode="h" 
d="M238 993q0 29 -8 41.5t-27 12.5t-27 -12.5t-8 -41.5v-993h-141v1495h141v-399h4q12 40 37.5 62t60.5 22q51 0 80 -48t29 -137v-995h-141v993z" />
    <glyph glyph-name="i" unicode="i" horiz-adv-x="196" 
d="M27 1208v199h141v-199h-141zM27 0v1167h141v-1167h-141z" />
    <glyph glyph-name="j" unicode="j" horiz-adv-x="196" 
d="M170 1407v-199h-141v199h141zM170 1167v-1323q0 -63 -5.5 -98t-25 -53t-43.5 -22.5t-73 -4.5h-43v127q35 0 42 8t7 39v1327h141z" />
    <glyph glyph-name="k" unicode="k" horiz-adv-x="411" 
d="M403 1167l-108 -532v-4l111 -631h-144l-90 559h-4v-559h-141v1495h141v-821h4l86 493h145z" />
    <glyph glyph-name="l" unicode="l" horiz-adv-x="196" 
d="M27 0v1495h141v-1495h-141z" />
    <glyph glyph-name="m" unicode="m" horiz-adv-x="616" 
d="M238 993q0 54 -35 54t-35 -54v-993h-141v1167h141v-71h4q12 40 37.5 62t60.5 22q42 0 69 -32t34 -91h4q6 58 33.5 90.5t70.5 32.5q53 0 81 -48t28 -137v-995h-141v993q0 54 -35 54t-35 -54v-993h-141v993z" />
    <glyph glyph-name="n" unicode="n" 
d="M238 993q0 54 -35 54t-35 -54v-993h-141v1167h141v-71h4q12 40 37.5 62t60.5 22q51 0 80 -48t29 -137v-995h-141v993z" />
    <glyph glyph-name="o" unicode="o" 
d="M379 995v-823q0 -85 -47.5 -134.5t-126.5 -49.5q-80 0 -129 49.5t-49 134.5v823q0 85 49 135t129 50q79 0 126.5 -50t47.5 -135zM238 993q0 29 -8 41.5t-27 12.5t-27 -12.5t-8 -41.5v-819q0 -53 35 -53t35 53v819z" />
    <glyph glyph-name="p" unicode="p" 
d="M27 1167h141v-71h4q12 40 37.5 62t60.5 22q53 0 81 -48t28 -137v-823q0 -89 -28 -136.5t-79 -47.5q-74 0 -100 86h-4v-402h-141v1495zM238 174v819q0 54 -35 54t-35 -54v-819q0 -53 35 -53t35 53z" />
    <glyph glyph-name="q" unicode="q" 
d="M379 1167v-1495h-141v402h-5q-26 -86 -100 -86q-51 0 -78.5 47.5t-27.5 136.5v823q0 89 28 137t80 48q35 0 60.5 -22t37.5 -62h5v71h141zM168 174q0 -53 35 -53t35 53v819q0 54 -35 54t-35 -54v-819z" />
    <glyph glyph-name="r" unicode="r" 
d="M236 993q0 29 -8 41.5t-27 12.5q-33 0 -33 -54v-993h-141v1167h141v-71h4q12 40 37.5 62t60.5 22q53 0 81 -48t28 -137v-307h-143v305z" />
    <glyph glyph-name="s" unicode="s" horiz-adv-x="395" 
d="M373 385v-213q0 -85 -48.5 -134.5t-127.5 -49.5t-126.5 49.5t-47.5 134.5v240h141v-238q0 -53 33 -53q19 0 26.5 12.5t7.5 40.5v211q0 33 -15 69.5t-30.5 59t-46.5 64.5q-28 35 -43.5 57t-35 57t-28.5 71.5t-9 76.5v155q0 85 48.5 135t127.5 50t126.5 -50t47.5 -135v-184
h-142v182q0 54 -34 54q-33 0 -33 -54v-153q0 -49 23 -92.5t69 -102.5q37 -48 57 -78t40 -81.5t20 -100.5z" />
    <glyph glyph-name="t" unicode="t" horiz-adv-x="253" 
d="M43 1393h143v-226h58v-129h-58v-862q0 -32 9 -40.5t49 -8.5v-127h-51q-50 0 -75 4t-44.5 20.5t-25 46t-5.5 83.5v884h-33v129h33v226z" />
    <glyph glyph-name="u" unicode="u" 
d="M168 174q0 -53 35 -53t35 53v993h141v-1167h-141v72h-5q-29 -84 -100 -84q-51 0 -78.5 47.5t-27.5 136.5v995h141v-993z" />
    <glyph glyph-name="v" unicode="v" horiz-adv-x="403" 
d="M113 0l-109 1167h152l43 -741l8 -252h4l10 252l41 741h137l-100 -1167h-186z" />
    <glyph glyph-name="w" unicode="w" horiz-adv-x="659" 
d="M502 1167h151l-92 -1167h-190l-35 760l-4 217h-6l-4 -217l-33 -760h-191l-94 1167h152l30 -741l7 -252h4l10 252l43 741h160l41 -741l10 -252h4l6 252z" />
    <glyph glyph-name="x" unicode="x" horiz-adv-x="395" 
d="M391 1167l-90 -565v-4l96 -598h-145l-39 336l-10 168h-4l-13 -168l-43 -336h-145l96 598v4l-90 565h146l34 -305l13 -168h4l10 168l35 305h145z" />
    <glyph glyph-name="y" unicode="y" horiz-adv-x="401" 
d="M156 1165l43 -628l8 -258h4l8 258l43 628h135l-159 -1493h-138l37 328l-135 1165h154z" />
    <glyph glyph-name="z" unicode="z" horiz-adv-x="339" 
d="M328 1167v-129l-170 -909h168v-129h-314v119l170 919h-159v129h305z" />
    <glyph glyph-name="braceleft" unicode="{" horiz-adv-x="460" 
d="M319 1282v-434q0 -144 -34 -205t-117 -61v-7q83 0 117 -61t34 -205v-434q0 -78 17.5 -107.5t56.5 -29.5h39v-137h-55q-102 0 -154.5 61.5t-52.5 214.5v492q0 75 -28 108t-115 33v137q87 0 115 33t28 108v490q0 278 207 278h55v-137h-39q-41 0 -57.5 -25.5t-16.5 -111.5z
" />
    <glyph glyph-name="bar" unicode="|" horiz-adv-x="219" 
d="M184 -379h-149v1915h149v-1915z" />
    <glyph glyph-name="braceright" unicode="}" horiz-adv-x="460" 
d="M141 -125v434q0 143 34.5 204.5t117.5 61.5v7q-83 0 -117.5 61.5t-34.5 204.5v434q0 79 -17 108t-56 29h-39v137h57q101 0 153 -61.5t52 -214.5v-492q0 -75 28 -108t115 -33v-137q-87 0 -115 -33t-28 -108v-490q0 -278 -205 -278h-57v137h39q41 0 57 25.5t16 111.5z" />
    <glyph glyph-name="asciitilde" unicode="~" horiz-adv-x="456" 
d="M422 834v-13q0 -105 -23 -152.5t-75 -47.5q-37 0 -96.5 31.5t-80.5 31.5q-34 0 -34 -51v-10h-78v2q0 209 102 209q32 0 93 -31t83 -31q35 0 35 49v13h74z" />
    <glyph glyph-name="exclamdown" unicode="&#xa1;" horiz-adv-x="245" 
d="M49 649h150v-14h-150v14zM35 489v23l55 115h68l55 -115v-23h-178z" />
    <glyph glyph-name="cent" unicode="&#xa2;" 
d="M236 993q0 54 -35 54q-33 0 -33 -54v-819q0 -53 33 -53q35 0 35 53v324h143v-326q0 -69 -31.5 -115t-87.5 -61l19 -199h-152l18 199q-56 15 -87 61t-31 115v823q0 69 31 115t87 61l-18 199h152l-19 -199q56 -15 87.5 -61t31.5 -115v-272h-143v270z" />
    <glyph glyph-name="sterling" unicode="&#xa3;" horiz-adv-x="497" 
d="M307 1253q0 54 -35 54q-34 0 -34 -54v-616h192v-137h-192v-162q0 -141 -35 -201h268v-137h-444v135q37 40 49 82t12 123v160h-61v137h61v625q0 84 51 133t135 49t133.5 -48.5t49.5 -135.5v-371h-150v364z" />
    <glyph glyph-name="currency" unicode="&#xa4;" horiz-adv-x="643" 
d="M35 0v1434h573v-1434h-573zM186 1325l136 -438l131 438h-267zM373 719l127 -412v834zM143 1133v-840l127 426zM322 551l-134 -442h271z" />
    <glyph glyph-name="yen" unicode="&#xa5;" horiz-adv-x="403" 
d="M406 1434l-113 -848h92v-137h-106v-54h106v-137h-106v-258h-152v258h-109v137h109v54h-109v137h95l-113 848h154l39 -494l8 -205h4l8 205l37 494h156z" />
    <glyph glyph-name="brokenbar" unicode="&#xa6;" horiz-adv-x="219" 
d="M184 702h-149v834h149v-834zM184 -379h-149v836h149v-836z" />
    <glyph glyph-name="section" unicode="&#xa7;" horiz-adv-x="419" 
d="M385 651v-221q0 -59 -29 -115q29 -60 29 -125v-213q0 -85 -48.5 -134.5t-127.5 -49.5t-126.5 49.5t-47.5 134.5v240h141v-237q0 -54 35 -54q33 0 33 54v210q0 33 -15 69.5t-30.5 59t-46.5 64.5q-31 40 -43.5 58t-34 55t-30.5 73t-9 76v164q0 83 47 133q-47 76 -47 164
v156q0 85 48.5 134.5t127.5 49.5t126.5 -49.5t47.5 -134.5v-185h-141v183q0 53 -33 53q-35 0 -35 -53v-154q0 -34 15 -71t30.5 -59.5t46.5 -64.5q36 -45 57.5 -77t40.5 -82.5t19 -100.5zM244 485v166q0 70 -68 156v-162q0 -70 68 -160z" />
    <glyph glyph-name="dieresis" unicode="&#xa8;" horiz-adv-x="307" 
d="M35 1192v178h102v-178h-102zM170 1192v178h102v-178h-102z" />
    <glyph glyph-name="copyright" unicode="&#xa9;" horiz-adv-x="882" 
d="M35 393v647q0 97 35 175.5t93 127.5t129.5 75t149.5 26t149.5 -26t129.5 -75t92.5 -127.5t34.5 -175.5v-647q0 -98 -34.5 -177t-92.5 -127.5t-129.5 -74.5t-149.5 -26t-149.5 26t-129.5 74.5t-93 127.5t-35 177zM174 1040v-647q0 -129 80 -202.5t188 -73.5t187.5 73.5
t79.5 202.5v647q0 129 -79.5 202t-187.5 73t-188 -73t-80 -202zM477 1042q0 56 -35 56q-34 0 -34 -56v-651q0 -30 7.5 -42.5t26.5 -12.5q35 0 35 55v238h150v-246q0 -85 -50.5 -134.5t-134.5 -49.5t-134 49t-50 135v668q0 85 51 134.5t135 49.5t133.5 -49t49.5 -135v-207
h-150v198z" />
    <glyph glyph-name="ordfeminine" unicode="&#xaa;" horiz-adv-x="317" 
d="M135 1315v-168h-100v170q0 60 33.5 94.5t89.5 34.5t90.5 -35t34.5 -94v-699h-101v64h-4q-16 -74 -69 -74q-35 0 -54.5 31t-19.5 88v215q0 74 28.5 107t118.5 69v197q0 39 -22 39q-25 0 -25 -39zM182 1030q-32 -18 -39.5 -37t-7.5 -63v-193q0 -37 25 -37q22 0 22 39v291z
" />
    <glyph glyph-name="guillemotleft" unicode="&#xab;" horiz-adv-x="423" 
d="M35 588l67 246h117l-69 -246l69 -246h-117zM205 588l67 246h117l-70 -246l70 -246h-117z" />
    <glyph glyph-name="logicalnot" unicode="&#xac;" horiz-adv-x="643" 
d="M35 0v1434h573v-1434h-573zM186 1325l136 -438l131 438h-267zM373 719l127 -412v834zM143 1133v-840l127 426zM322 551l-134 -442h271z" />
    <glyph glyph-name="registered" unicode="&#xae;" horiz-adv-x="882" 
d="M35 391v649q0 97 34.5 175.5t92.5 127.5t130 75t150 26t149.5 -26t129.5 -75t92.5 -127.5t34.5 -175.5v-649q0 -97 -34.5 -175.5t-92.5 -127t-129.5 -74.5t-149.5 -26t-150 26t-130 74.5t-92.5 127t-34.5 175.5zM174 1040v-649q0 -129 79 -201.5t187 -72.5
q109 0 189 72.5t80 201.5v649q0 129 -79.5 202t-187.5 73q-109 0 -188.5 -73t-79.5 -202zM475 608q0 26 -8 37.5t-27 11.5h-34v-434h-150v985h186q94 0 138.5 -43.5t44.5 -134.5v-156q0 -72 -15 -101t-59 -44v-4q43 -17 58.5 -49t15.5 -105v-161q0 -114 22 -183v-4h-151
q-21 92 -21 187v198zM475 1020q0 27 -8 38t-27 11h-34v-274h34q19 0 27 11.5t8 39.5v174z" />
    <glyph glyph-name="macron" unicode="&#xaf;" horiz-adv-x="313" 
d="M281 1343v-143h-246v143h246z" />
    <glyph glyph-name="degree" unicode="&#xb0;" horiz-adv-x="333" 
d="M35 1313q0 55 38.5 94t94.5 39t94.5 -39t38.5 -94q0 -54 -39 -93.5t-94 -39.5t-94 39.5t-39 93.5zM104 1313q0 -26 19 -45t45 -19t44.5 19t18.5 45t-18.5 44.5t-44.5 18.5t-45 -18.5t-19 -44.5z" />
    <glyph glyph-name="plusminus" unicode="&#xb1;" horiz-adv-x="546" 
d="M512 852v-137h-164v-166h-149v166h-164v137h164v164h149v-164h164zM512 475v-137h-477v137h477z" />
    <glyph glyph-name="twosuperior" unicode="&#xb2;" horiz-adv-x="317" 
d="M35 623v98q0 57 14.5 111.5t30 86t41.5 74.5q59 101 59 156v178q0 33 -22 33q-23 0 -23 -31v-196h-100v200q0 55 32.5 84t88.5 29q58 0 92.5 -31t34.5 -86v-174q0 -73 -66 -182q-26 -45 -40.5 -74t-28 -77t-13.5 -97v-8h148v-94h-248z" />
    <glyph glyph-name="threesuperior" unicode="&#xb3;" horiz-adv-x="317" 
d="M135 1335v-172h-100v156q0 59 33.5 93t89.5 34t89.5 -34.5t33.5 -92.5v-182q0 -37 -9.5 -54.5t-38.5 -27.5v-2q30 -9 39 -26t9 -56v-242q0 -58 -33.5 -92.5t-89.5 -34.5t-89.5 34t-33.5 93v186h100v-202q0 -31 23 -31q22 0 22 31v266q0 21 -7 28t-30 7h-22v80h22
q23 0 30 7t7 29v205q0 31 -22 31q-23 0 -23 -31z" />
    <glyph glyph-name="acute" unicode="&#xb4;" horiz-adv-x="231" 
d="M139 1171h-104l26 246h138z" />
    <glyph glyph-name="paragraph" unicode="&#xb6;" horiz-adv-x="593" 
d="M559 -123h-149v1557h149v-1557zM342 -123h-152v805q-83 0 -119 83t-36 286q0 210 41 296.5t125 86.5h141v-1557z" />
    <glyph glyph-name="periodcentered" unicode="&#xb7;" horiz-adv-x="219" 
d="M35 573v205h149v-205h-149z" />
    <glyph glyph-name="cedilla" unicode="&#xb8;" horiz-adv-x="329" 
d="M96 4h78l-12 -47q58 0 95.5 -32.5t37.5 -78.5q0 -54 -51 -88t-131 -34q-33 0 -78 10v106q24 -6 53 -6q78 0 78 33q0 18 -25 28.5t-67 10.5z" />
    <glyph glyph-name="onesuperior" unicode="&#xb9;" horiz-adv-x="262" 
d="M182 1434v-723h45v-88h-192v88h45v579h-45v78q41 0 53 13t12 53h82z" />
    <glyph glyph-name="ordmasculine" unicode="&#xba;" horiz-adv-x="317" 
d="M283 1317v-592q0 -61 -33.5 -96t-89.5 -35t-90.5 35.5t-34.5 95.5v592q0 59 34.5 94t90.5 35t89.5 -34.5t33.5 -94.5zM182 1315q0 37 -22 37q-25 0 -25 -37v-588q0 -39 25 -39q22 0 22 39v588z" />
    <glyph glyph-name="guillemotright" unicode="&#xbb;" horiz-adv-x="423" 
d="M389 588l-67 -246h-117l69 246l-69 246h117zM217 588l-67 -246h-117l69 246l-69 246h117z" />
    <glyph glyph-name="onequarter" unicode="&#xbc;" horiz-adv-x="741" 
d="M182 1434v-723h45v-88h-192v88h45v579h-45v78q41 0 53 13t12 53h82zM283 0h-113l283 1434h110zM438 104v80l88 629h152v-614h29v-95h-29v-104h-98v104h-142zM528 199h52l14 522h-2z" />
    <glyph glyph-name="onehalf" unicode="&#xbd;" horiz-adv-x="780" 
d="M283 0h-113l283 1434h110zM182 1434v-723h45v-88h-192v88h45v579h-45v78q41 0 53 13t12 53h82zM498 -2v98q0 57 14.5 111.5t29.5 85t42 76.5q21 33 31.5 53t20 48t9.5 54v176q0 35 -24 35q-23 0 -23 -30v-199h-100v203q0 53 32.5 82.5t87.5 29.5q57 0 91 -30.5t34 -85.5
v-177q0 -71 -65 -182q-27 -48 -40 -74t-26.5 -75t-13.5 -97v-8h145v-94h-245z" />
    <glyph glyph-name="threequarters" unicode="&#xbe;" horiz-adv-x="761" 
d="M135 1335v-172h-100v156q0 59 33.5 93t89.5 34t89.5 -34.5t33.5 -92.5v-182q0 -37 -9.5 -54.5t-38.5 -27.5v-2q30 -9 39 -26t9 -56v-242q0 -58 -33.5 -92.5t-89.5 -34.5t-89.5 34t-33.5 93v186h100v-202q0 -31 23 -31q22 0 22 31v266q0 21 -7 28t-30 7h-22v80h22
q23 0 30 7t7 29v205q0 31 -22 31q-23 0 -23 -31zM315 0h-110l280 1434h113zM459 78v82l90 628h151v-614h27v-96h-27v-103h-102v103h-139zM551 174h47l14 522h-2z" />
    <glyph glyph-name="questiondown" unicode="&#xbf;" horiz-adv-x="438" 
d="M166 649v-14h-6v14h6zM166 600q0 -19 -8 -40t-8 -38v-18q0 -10 6 -10q8 0 8 10v45h4v-49q0 -13 -12 -13q-11 0 -11 13v22q0 19 7.5 40t7.5 38v27h6v-27z" />
    <glyph glyph-name="Agrave" unicode="&#xc0;" horiz-adv-x="411" 
d="M147 1491l-59 246h137l27 -246h-105zM305 1434l109 -1434h-162l-16 365h-74l-17 -365h-145l98 1434h207zM168 502h61l-20 416l-8 317h-4l-9 -317z" />
    <glyph glyph-name="Aacute" unicode="&#xc1;" horiz-adv-x="411" 
d="M256 1493h-104l26 246h137zM305 1434l109 -1434h-162l-16 365h-74l-17 -365h-145l98 1434h207zM168 502h61l-20 418l-8 317h-4l-9 -317z" />
    <glyph glyph-name="Acircumflex" unicode="&#xc2;" horiz-adv-x="411" 
d="M174 1493h-98l51 246h147l52 -246h-99l-24 137h-4zM305 1434l109 -1434h-162l-16 365h-74l-17 -365h-145l98 1434h207zM168 502h61l-20 418l-8 317h-4l-9 -317z" />
    <glyph glyph-name="Atilde" unicode="&#xc3;" horiz-adv-x="411" 
d="M346 1712v-4q0 -106 -16 -149t-56 -43q-28 0 -71.5 26.5t-61.5 26.5q-13 0 -18.5 -11.5t-5.5 -39.5v-2h-56v4q0 102 16 146t52 44q26 0 72 -25.5t63 -25.5q29 0 29 45v8h53zM307 1434l107 -1434h-160l-18 365h-74l-17 -365h-143l96 1434h209zM168 502h61l-18 416l-10 319
h-4l-9 -317z" />
    <glyph glyph-name="Adieresis" unicode="&#xc4;" horiz-adv-x="411" 
d="M82 1513v179h102v-179h-102zM217 1513v179h100v-179h-100zM305 1434l109 -1434h-162l-19 365h-71l-17 -365h-145l98 1434h207zM168 502h59l-18 416l-8 319h-4l-9 -317z" />
    <glyph glyph-name="Aring" unicode="&#xc5;" horiz-adv-x="411" 
d="M72 1616q0 127 129 127q63 0 97 -33t34 -96q0 -61 -34 -94t-97 -33q-129 0 -129 129zM158 1614q0 -41 43 -41t43 41q0 43 -43 43t-43 -43zM305 1434l109 -1434h-162l-19 365h-71l-17 -365h-143l96 1434h207zM168 502h59l-18 416l-8 319h-4l-9 -317z" />
    <glyph glyph-name="AE" unicode="&#xc6;" horiz-adv-x="505" 
d="M473 1434v-140h-72v-491h82v-137h-82v-529h93v-137h-242v365h-74l-33 -365h-145l152 1434h321zM193 502h59v733h-4l-19 -315z" />
    <glyph glyph-name="Ccedilla" unicode="&#xc7;" horiz-adv-x="423" 
d="M246 1253q0 29 -8 41.5t-27 12.5t-27 -12.5t-8 -41.5v-1075q0 -53 35 -53t35 53v428h149v-434q0 -76 -38.5 -123.5t-106.5 -58.5l-8 -33q58 0 96.5 -32.5t38.5 -78.5q0 -54 -52 -88t-132 -34q-33 0 -78 10v106q24 -6 53 -6q35 0 56.5 9t21.5 24q0 18 -24.5 28.5
t-65.5 10.5l18 84q-68 11 -107.5 59t-39.5 123v1090q0 84 51 134t135 50t133 -49t49 -135v-371h-149v362z" />
    <glyph glyph-name="Egrave" unicode="&#xc8;" horiz-adv-x="282" 
d="M86 1491l-59 246h137l26 -246h-104zM258 1432v-138h-82v-491h72v-137h-72v-529h92v-137h-241v1432h231z" />
    <glyph glyph-name="Eacute" unicode="&#xc9;" horiz-adv-x="282" 
d="M190 1493h-104l27 246h137zM258 1434v-138h-82v-493h72v-137h-72v-529h92v-137h-241v1434h231z" />
    <glyph glyph-name="Ecircumflex" unicode="&#xca;" horiz-adv-x="282" 
d="M111 1493h-99l51 246h146l51 -246h-98l-25 137h-4zM258 1434v-138h-82v-493h72v-137h-72v-529h92v-137h-241v1434h231z" />
    <glyph glyph-name="Edieresis" unicode="&#xcb;" horiz-adv-x="282" 
d="M18 1513v179h103v-179h-103zM154 1513v179h102v-179h-102zM258 1434v-138h-82v-493h72v-137h-72v-529h92v-137h-241v1434h231z" />
    <glyph glyph-name="Igrave" unicode="&#xcc;" horiz-adv-x="204" 
d="M51 1493l-59 246h137l27 -246h-105zM176 1434v-1434h-149v1434h149z" />
    <glyph glyph-name="Iacute" unicode="&#xcd;" horiz-adv-x="204" 
d="M154 1493h-105l27 246h137zM176 1434v-1434h-149v1434h149z" />
    <glyph glyph-name="Icircumflex" unicode="&#xce;" horiz-adv-x="204" 
d="M74 1493h-99l52 246h145l51 -246h-98l-25 137h-4zM176 1434v-1434h-149v1434h149z" />
    <glyph glyph-name="Idieresis" unicode="&#xcf;" horiz-adv-x="204" 
d="M-16 1513v179h102v-179h-102zM119 1513v179h102v-179h-102zM176 1434v-1434h-149v1434h149z" />
    <glyph glyph-name="Eth" unicode="&#xd0;" horiz-adv-x="423" 
d="M395 1255v-1079q0 -88 -44 -132t-140 -44h-184v647h-35v137h35v648h186q95 0 138.5 -44.5t43.5 -132.5zM246 1245q0 27 -8 38t-27 11h-35v-510h37v-137h-37v-510h35q19 0 27 11t8 38v1059z" />
    <glyph glyph-name="Ntilde" unicode="&#xd1;" horiz-adv-x="507" 
d="M395 1712v-4q0 -105 -15.5 -148.5t-53.5 -43.5q-28 0 -71.5 26.5t-61.5 26.5q-25 0 -25 -51v-2h-57v4q0 103 16.5 146.5t54.5 43.5q25 0 69.5 -25.5t61.5 -25.5q29 0 29 45v8h53zM479 1434v-1434h-196l-140 1167h-4l23 -481l8 -686h-143v1434h198l140 -1164h4l-23 467
l-8 697h141z" />
    <glyph glyph-name="Ograve" unicode="&#xd2;" horiz-adv-x="423" 
d="M162 1493l-60 246h136l26 -246h-102zM395 1262v-1090q0 -86 -50 -135t-134 -49q-83 0 -134.5 49.5t-51.5 134.5v1090q0 85 52 134.5t136 49.5q83 0 132.5 -49.5t49.5 -134.5zM244 1253q0 56 -33 56q-35 0 -35 -56v-1073q0 -55 35 -55q33 0 33 55v1073z" />
    <glyph glyph-name="Oacute" unicode="&#xd3;" horiz-adv-x="423" 
d="M268 1493h-104l26 246h136zM395 1262v-1090q0 -86 -50 -135t-134 -49q-83 0 -134.5 50t-51.5 134v1090q0 85 52 134.5t136 49.5q83 0 132.5 -48.5t49.5 -135.5zM244 1255q0 54 -33 54q-35 0 -35 -54v-1075q0 -53 35 -53q33 0 33 53v1075z" />
    <glyph glyph-name="Ocircumflex" unicode="&#xd4;" horiz-adv-x="423" 
d="M186 1493h-98l51 246h148l49 -246h-98l-23 137h-6zM395 1262v-1090q0 -86 -50 -135t-134 -49q-83 0 -134.5 50t-51.5 134v1090q0 85 52 134.5t136 49.5q83 0 132.5 -48.5t49.5 -135.5zM244 1255q0 54 -33 54q-35 0 -35 -54v-1075q0 -53 35 -53q33 0 33 53v1075z" />
    <glyph glyph-name="Otilde" unicode="&#xd5;" horiz-adv-x="423" 
d="M356 1712v-4q0 -105 -15.5 -148.5t-53.5 -43.5q-29 0 -73 26.5t-60 26.5q-25 0 -25 -51v-2h-57v4q0 102 16 146t53 44q26 0 71.5 -25.5t63.5 -25.5q27 0 27 45v8h53zM395 1262v-1090q0 -85 -49.5 -134.5t-132.5 -49.5q-84 0 -136 49.5t-52 134.5v1090q0 85 52 134.5
t136 49.5q83 0 132.5 -49.5t49.5 -134.5zM244 1253q0 30 -7.5 43t-25.5 13q-35 0 -35 -56v-1073q0 -55 35 -55q18 0 25.5 12.5t7.5 42.5v1073z" />
    <glyph glyph-name="Odieresis" unicode="&#xd6;" horiz-adv-x="423" 
d="M94 1513v179h103v-179h-103zM229 1513v179h103v-179h-103zM395 1262v-1090q0 -86 -50 -135t-134 -49q-83 0 -134.5 49.5t-51.5 134.5v1090q0 85 52 134.5t136 49.5q83 0 132.5 -49.5t49.5 -134.5zM244 1253q0 56 -33 56q-35 0 -35 -56v-1073q0 -55 35 -55q33 0 33 55
v1073z" />
    <glyph glyph-name="multiply" unicode="&#xd7;" horiz-adv-x="563" 
d="M528 545l-98 -96l-149 149l-144 -145l-98 96l145 145l-149 150l98 96l148 -149l145 145l98 -96l-145 -146z" />
    <glyph glyph-name="Oslash" unicode="&#xd8;" horiz-adv-x="423" 
d="M395 1262v-1090q0 -86 -50 -135t-134 -49q-73 0 -119 37l-8 -37l-57 14l16 82q-18 45 -18 88v1090q0 85 52 134.5t136 49.5q68 0 115 -35l8 35l59 -14l-18 -82q18 -40 18 -88zM244 1253q0 56 -33 56q-35 0 -35 -56v-551l68 320v231zM176 416v-236q0 -55 35 -55
q33 0 33 55v551z" />
    <glyph glyph-name="Ugrave" unicode="&#xd9;" horiz-adv-x="423" 
d="M160 1493l-60 246h136l26 -246h-102zM395 1434v-1262q0 -86 -50 -135t-134 -49t-134 49t-50 135v1262h149v-1254q0 -55 35 -55t35 55v1254h149z" />
    <glyph glyph-name="Uacute" unicode="&#xda;" horiz-adv-x="423" 
d="M266 1493h-104l26 246h136zM395 1434v-1262q0 -86 -50 -135t-134 -49t-134 50t-50 134v1262h149v-1254q0 -53 35 -53t35 53v1254h149z" />
    <glyph glyph-name="Ucircumflex" unicode="&#xdb;" horiz-adv-x="423" 
d="M184 1493h-98l51 246h148l49 -246h-98l-23 137h-6zM395 1434v-1262q0 -86 -50 -135t-134 -49t-134 50t-50 134v1262h149v-1254q0 -53 35 -53t35 53v1254h149z" />
    <glyph glyph-name="Udieresis" unicode="&#xdc;" horiz-adv-x="423" 
d="M92 1513v179h103v-179h-103zM227 1513v179h103v-179h-103zM395 1434v-1262q0 -86 -50 -135t-134 -49t-134 49t-50 135v1262h149v-1254q0 -55 35 -55t35 55v1254h149z" />
    <glyph glyph-name="Yacute" unicode="&#xdd;" horiz-adv-x="403" 
d="M254 1493h-102l26 246h135zM403 1434l-127 -963v-471h-149v471l-127 963h154l39 -494l8 -205h4l8 205l37 494h153z" />
    <glyph glyph-name="Thorn" unicode="&#xde;" horiz-adv-x="423" 
d="M395 958v-460q0 -89 -43.5 -134t-138.5 -45h-37v-319h-149v1434h149v-297h37q96 0 139 -44.5t43 -134.5zM246 948q0 29 -8 40t-27 11h-35v-540h35q19 0 27 11t8 38v440z" />
    <glyph glyph-name="germandbls" unicode="&#xdf;" horiz-adv-x="417" 
d="M246 1257q0 28 -7.5 40t-27.5 12h-2q-33 0 -33 -52v-1257h-149v1268q0 91 45 134.5t137 43.5h4q93 0 137.5 -43t44.5 -135v-344q0 -72 -14.5 -104.5t-58.5 -49.5v-4q44 -17 58.5 -49.5t14.5 -104.5v-434q0 -92 -44.5 -135t-137.5 -43h-8v137h8q19 0 26 11.5t7 39.5v461
q0 28 -7.5 38.5t-27.5 10.5h-6v140h6q20 -1 27.5 10t7.5 39v370z" />
    <glyph glyph-name="agrave" unicode="&#xe0;" 
d="M150 1227l-60 246h135l27 -246h-102zM168 993v-243h-141v245q0 85 47.5 135t126.5 50q80 0 129 -50t49 -135v-995h-141v92h-5q-11 -50 -37.5 -77t-64.5 -27q-51 0 -77.5 44t-26.5 126v284q0 106 41 154t170 98v299q0 29 -8 41.5t-27 12.5t-27 -12.5t-8 -41.5zM238 569
q-47 -24 -58.5 -51.5t-11.5 -91.5v-252q0 -53 35 -53t35 53v395z" />
    <glyph glyph-name="aacute" unicode="&#xe1;" 
d="M256 1227h-104l26 246h135zM168 993v-243h-141v245q0 85 47.5 135t126.5 50q80 0 129 -50t49 -135v-995h-141v92h-5q-11 -50 -37.5 -77t-64.5 -27q-51 0 -77.5 44t-26.5 126v284q0 106 41 154t170 98v299q0 29 -8 41.5t-27 12.5t-27 -12.5t-8 -41.5zM238 569
q-47 -24 -58.5 -51.5t-11.5 -91.5v-252q0 -53 35 -53t35 53v395z" />
    <glyph glyph-name="acircumflex" unicode="&#xe2;" 
d="M174 1227h-98l51 246h147l50 -246h-99l-22 137h-4zM168 993v-243h-141v245q0 85 47.5 135t126.5 50q80 0 129 -50t49 -135v-995h-141v92h-5q-11 -50 -37.5 -77t-64.5 -27q-51 0 -77.5 44t-26.5 126v284q0 106 41 154t170 98v299q0 29 -8 41.5t-27 12.5t-27 -12.5
t-8 -41.5zM238 569q-47 -24 -58.5 -51.5t-11.5 -91.5v-252q0 -53 35 -53t35 53v395z" />
    <glyph glyph-name="atilde" unicode="&#xe3;" 
d="M344 1446v-4q0 -105 -16 -149t-54 -44q-28 0 -72 27t-61 27q-24 0 -24 -52v-2h-58v4q0 103 17 148t55 45q25 0 70 -26.5t63 -26.5q29 0 29 45v8h51zM168 993v-243h-141v245q0 85 47.5 135t126.5 50q80 0 129 -50t49 -135v-995h-141v92h-5q-11 -50 -37.5 -77t-64.5 -27
q-50 0 -77 44t-27 126v284q0 106 41 154t170 98v299q0 29 -8 41.5t-27 12.5t-27 -12.5t-8 -41.5zM238 569q-47 -24 -58.5 -51.5t-11.5 -91.5v-252q0 -53 35 -53t35 53v395z" />
    <glyph glyph-name="adieresis" unicode="&#xe4;" 
d="M82 1247v178h102v-178h-102zM217 1247v178h102v-178h-102zM168 993v-243h-141v245q0 85 47.5 135t126.5 50q80 0 129 -50t49 -135v-995h-141v92h-5q-22 -104 -102 -104q-51 0 -77.5 44t-26.5 126v284q0 106 41 154t170 98v299q0 29 -8 41.5t-27 12.5t-27 -12.5t-8 -41.5z
M238 569q-47 -24 -58.5 -51.5t-11.5 -91.5v-252q0 -53 35 -53t35 53v395z" />
    <glyph glyph-name="aring" unicode="&#xe5;" 
d="M72 1350q0 62 33 94.5t96 32.5t97 -33t34 -96q0 -61 -34 -94t-97 -33t-96 33t-33 96zM160 1350q0 -43 41 -43q43 0 43 43t-43 43q-41 0 -41 -43zM170 993v-243h-143v245q0 85 48 135t126 50q80 0 129 -50t49 -135v-995h-141v92h-5q-10 -49 -36.5 -76.5t-63.5 -27.5
q-51 0 -78.5 44t-27.5 126v284q0 106 41 154t170 98v299q0 29 -8 41.5t-27 12.5t-26 -12t-7 -42zM238 569q-25 -13 -39 -25.5t-20.5 -32t-7.5 -35t-1 -50.5v-252q0 -28 7.5 -40.5t25.5 -12.5q35 0 35 53v395z" />
    <glyph glyph-name="ae" unicode="&#xe6;" horiz-adv-x="616" 
d="M248 106h-4q-9 -55 -39.5 -86.5t-73.5 -31.5q-51 0 -77.5 44t-26.5 126v268q0 105 40 153t171 99v315q0 54 -35 54t-35 -54v-243h-141v245q0 84 46 134.5t120 50.5q71 0 114 -52h4q43 52 113 52q74 0 120 -50.5t46 -134.5v-440h-211v-381q0 -55 35 -55t35 55v283h141
v-285q0 -85 -47 -134.5t-127 -49.5q-64 0 -108.5 31t-59.5 87zM449 993q0 54 -35 54t-35 -54v-307h70v307zM238 553q-44 -25 -57 -51t-13 -92v-238q0 -53 35 -53t35 55v379z" />
    <glyph glyph-name="ccedilla" unicode="&#xe7;" 
d="M236 993q0 54 -35 54q-33 0 -33 -54v-819q0 -29 7.5 -41t25.5 -12q19 0 27 12t8 41v324h143v-326q0 -71 -33.5 -117.5t-91.5 -60.5l-10 -35q57 0 95 -33t38 -80q0 -54 -51 -88t-131 -34q-33 0 -78 10v106q24 -6 53 -6q35 0 56.5 9t21.5 24q0 18 -25 28.5t-67 10.5l20 84
q-68 8 -108.5 56.5t-40.5 125.5v823q0 85 48.5 135t127.5 50q80 0 128 -49.5t48 -135.5v-272h-143v270z" />
    <glyph glyph-name="egrave" unicode="&#xe8;" 
d="M154 1227l-60 246h135l27 -246h-102zM238 457h141v-285q0 -86 -48 -135t-128 -49t-128 49t-48 135v823q0 85 49 135t129 50q79 0 126.5 -50t47.5 -135v-440h-211v-381q0 -53 35 -53t35 53v283zM238 993q0 29 -8 41.5t-27 12.5t-27 -12.5t-8 -41.5v-307h70v307z" />
    <glyph glyph-name="eacute" unicode="&#xe9;" 
d="M260 1227h-104l26 246h135zM238 457h141v-285q0 -86 -48 -135t-128 -49t-128 49t-48 135v823q0 85 49 135t129 50q79 0 126.5 -50t47.5 -135v-440h-211v-381q0 -53 35 -53t35 53v283zM238 993q0 56 -35 56t-35 -56v-307h70v307z" />
    <glyph glyph-name="ecircumflex" unicode="&#xea;" 
d="M178 1227h-98l51 246h148l49 -246h-99l-22 137h-4zM238 457h141v-285q0 -86 -48 -135t-128 -49t-128 49t-48 135v823q0 85 49 135t129 50q79 0 126.5 -50t47.5 -135v-440h-211v-381q0 -53 35 -53t35 53v283zM238 993q0 56 -35 56t-35 -56v-307h70v307z" />
    <glyph glyph-name="edieresis" unicode="&#xeb;" 
d="M86 1247v178h102v-178h-102zM221 1247v178h103v-178h-103zM238 457h141v-285q0 -86 -48 -135t-128 -49q-79 0 -127.5 49.5t-48.5 134.5v823q0 85 49 135t129 50q79 0 126.5 -50t47.5 -135v-440h-211v-381q0 -53 35 -53t35 53v283zM238 993q0 29 -8 41.5t-27 12.5
t-27 -12.5t-8 -41.5v-307h70v307z" />
    <glyph glyph-name="igrave" unicode="&#xec;" horiz-adv-x="196" 
d="M47 1227l-59 246h137l27 -246h-105zM27 0v1167h141v-1167h-141z" />
    <glyph glyph-name="iacute" unicode="&#xed;" horiz-adv-x="196" 
d="M150 1227h-105l27 246h137zM27 0v1167h141v-1167h-141z" />
    <glyph glyph-name="icircumflex" unicode="&#xee;" horiz-adv-x="196" 
d="M70 1227h-99l52 246h145l51 -246h-98l-25 137h-4zM27 0v1167h141v-1167h-141z" />
    <glyph glyph-name="idieresis" unicode="&#xef;" horiz-adv-x="196" 
d="M-20 1247v178h102v-178h-102zM115 1247v178h102v-178h-102zM27 0v1167h141v-1167h-141z" />
    <glyph glyph-name="eth" unicode="&#xf0;" 
d="M51 1509q116 -37 182 -100l74 47l41 -61l-65 -43q60 -85 78 -203t18 -305v-676q0 -84 -47.5 -132t-126.5 -48q-80 0 -129 49.5t-49 134.5v823q0 86 31.5 135.5t84.5 49.5q58 0 86 -60h4q-14 105 -43 170l-59 -39l-43 60l66 45q-48 67 -125 106zM238 993q0 54 -35 54
t-35 -54v-819q0 -53 35 -53t35 53v819z" />
    <glyph glyph-name="ntilde" unicode="&#xf1;" 
d="M342 1446v-4q0 -105 -16 -149t-54 -44q-28 0 -72 27t-61 27q-24 0 -24 -52v-2h-58v4q0 103 17 148t55 45q25 0 70 -26.5t63 -26.5q29 0 29 45v8h51zM238 993q0 29 -8 41.5t-27 12.5t-27 -12.5t-8 -41.5v-993h-141v1167h141v-71h4q12 40 37.5 62t60.5 22q109 0 109 -185
v-995h-141v993z" />
    <glyph glyph-name="ograve" unicode="&#xf2;" 
d="M154 1227l-60 246h135l27 -246h-102zM379 995v-823q0 -85 -47.5 -134.5t-126.5 -49.5q-80 0 -129 49.5t-49 134.5v823q0 85 49 135t129 50q79 0 126.5 -50t47.5 -135zM238 993q0 29 -8 41.5t-27 12.5t-27 -12.5t-8 -41.5v-819q0 -53 35 -53t35 53v819z" />
    <glyph glyph-name="oacute" unicode="&#xf3;" 
d="M260 1227h-104l26 246h135zM379 995v-823q0 -85 -47.5 -134.5t-126.5 -49.5q-80 0 -129 50t-49 134v823q0 85 49 135t129 50q79 0 126.5 -49t47.5 -136zM238 993q0 56 -35 56t-35 -56v-819q0 -53 35 -53t35 53v819z" />
    <glyph glyph-name="ocircumflex" unicode="&#xf4;" 
d="M178 1227h-98l51 246h148l49 -246h-99l-22 137h-4zM379 995v-823q0 -85 -47.5 -134.5t-126.5 -49.5q-80 0 -129 50t-49 134v823q0 85 49 135t129 50q79 0 126.5 -49t47.5 -136zM238 993q0 56 -35 56t-35 -56v-819q0 -53 35 -53t35 53v819z" />
    <glyph glyph-name="otilde" unicode="&#xf5;" 
d="M348 1446v-4q0 -105 -15.5 -149t-53.5 -44q-29 0 -73 27t-61 27q-24 0 -24 -52v-2h-58v4q0 102 16.5 147.5t53.5 45.5q26 0 71.5 -26.5t63.5 -26.5q27 0 27 45v8h53zM379 995v-823q0 -85 -47.5 -134.5t-126.5 -49.5q-80 0 -129 49.5t-49 134.5v823q0 85 49 135t129 50
q79 0 126.5 -50t47.5 -135zM238 993q0 56 -35 56t-35 -56v-819q0 -53 35 -53t35 53v819z" />
    <glyph glyph-name="odieresis" unicode="&#xf6;" 
d="M86 1247v178h102v-178h-102zM221 1247v178h103v-178h-103zM379 995v-823q0 -85 -47.5 -134.5t-126.5 -49.5q-80 0 -129 49.5t-49 134.5v823q0 85 49 135t129 50q79 0 126.5 -50t47.5 -135zM238 993q0 29 -8 41.5t-27 12.5t-27 -12.5t-8 -41.5v-819q0 -53 35 -53t35 53
v819z" />
    <glyph glyph-name="divide" unicode="&#xf7;" horiz-adv-x="643" 
d="M254 819v185h135v-185h-135zM608 762v-137h-573v137h573zM254 387v184h135v-184h-135z" />
    <glyph glyph-name="oslash" unicode="&#xf8;" 
d="M379 995v-823q0 -85 -47.5 -134.5t-126.5 -49.5q-66 0 -113 35l-8 -35l-57 14l18 78q-18 41 -18 92v823q0 85 49 135t129 50q61 0 106 -31l8 31l60 -15l-19 -75q19 -43 19 -95zM238 993q0 29 -8 41.5t-27 12.5t-27 -12.5t-8 -41.5v-422l70 281v141zM168 322v-148
q0 -53 35 -53t35 53v426z" />
    <glyph glyph-name="ugrave" unicode="&#xf9;" 
d="M152 1227l-60 246h135l27 -246h-102zM168 174q0 -53 35 -53t35 53v993h141v-1167h-141v72h-5q-29 -84 -100 -84q-51 0 -78.5 47.5t-27.5 136.5v995h141v-993z" />
    <glyph glyph-name="uacute" unicode="&#xfa;" 
d="M258 1227h-104l26 246h135zM168 174q0 -53 35 -53t35 53v993h141v-1167h-141v74h-5q-29 -86 -100 -86q-51 0 -78.5 47.5t-27.5 136.5v995h141v-993z" />
    <glyph glyph-name="ucircumflex" unicode="&#xfb;" 
d="M176 1227h-98l51 246h147l50 -246h-99l-22 137h-4zM168 174q0 -53 35 -53t35 53v993h141v-1167h-141v74h-5q-29 -86 -100 -86q-51 0 -78.5 47.5t-27.5 136.5v995h141v-993z" />
    <glyph glyph-name="udieresis" unicode="&#xfc;" 
d="M84 1247v178h102v-178h-102zM219 1247v178h103v-178h-103zM168 174q0 -53 35 -53t35 53v993h141v-1167h-141v72h-5q-29 -84 -100 -84q-51 0 -78.5 47.5t-27.5 136.5v995h141v-993z" />
    <glyph glyph-name="yacute" unicode="&#xfd;" horiz-adv-x="401" 
d="M254 1227h-104l26 246h137zM156 1167l43 -630l8 -258h4l8 258l43 630h135l-159 -1495h-138l37 328l-135 1167h154z" />
    <glyph glyph-name="thorn" unicode="&#xfe;" 
d="M27 1495h141v-399h4q12 40 37.5 62t60.5 22q53 0 81 -48t28 -137v-823q0 -89 -28 -136.5t-79 -47.5q-74 0 -100 86h-4v-402h-141v1823zM238 174v819q0 29 -8 41.5t-27 12.5q-35 0 -35 -54v-819q0 -53 35 -53t35 53z" />
    <glyph glyph-name="ydieresis" unicode="&#xff;" horiz-adv-x="401" 
d="M82 1247v178h102v-178h-102zM217 1247v178h102v-178h-102zM156 1167l41 -630l10 -258h4l8 258l43 630h135l-159 -1495h-138l35 328l-133 1167h154z" />
    <glyph glyph-name="Amacron" unicode="&#x100;" horiz-adv-x="411" 
d="M324 1665v-143h-248v143h248zM305 1434l109 -1434h-162l-16 365h-74l-17 -365h-143l96 1434h207zM168 502h61l-20 416l-8 319h-4l-9 -317z" />
    <glyph glyph-name="amacron" unicode="&#x101;" 
d="M322 1399v-144h-246v144h246zM168 993v-243h-141v245q0 85 47.5 135t126.5 50q80 0 129 -50t49 -135v-995h-141v92h-5q-11 -50 -37.5 -77t-64.5 -27q-50 0 -77 44t-27 126v284q0 106 41 154t170 98v299q0 29 -8 41.5t-27 12.5t-27 -12.5t-8 -41.5zM238 569
q-47 -24 -58.5 -51.5t-11.5 -91.5v-252q0 -53 35 -53t35 53v395z" />
    <glyph glyph-name="Abreve" unicode="&#x102;" horiz-adv-x="411" 
d="M41 1718h113q0 -76 49 -76q45 0 45 76h114q0 -207 -159 -207q-81 0 -121.5 49.5t-40.5 157.5zM303 1434l111 -1434h-162l-16 365h-74l-17 -365h-145l98 1434h205zM168 502h61l-20 416l-8 319h-4l-9 -317z" />
    <glyph glyph-name="abreve" unicode="&#x103;" 
d="M41 1452h113q0 -76 47 -76t47 76h112q0 -108 -39.5 -157.5t-119.5 -49.5t-120 49.5t-40 157.5zM168 993v-243h-141v245q0 85 47.5 135t126.5 50q80 0 129 -50t49 -135v-995h-141v92h-5q-11 -50 -37.5 -77t-64.5 -27q-51 0 -77.5 44t-26.5 126v284q0 106 41 154t170 98
v299q0 29 -8 41.5t-27 12.5t-27 -12.5t-8 -41.5zM238 569q-47 -24 -58.5 -51.5t-11.5 -91.5v-252q0 -53 35 -53t35 53v395z" />
    <glyph glyph-name="Aogonek" unicode="&#x104;" horiz-adv-x="411" 
d="M305 1434l109 -1434h-8q-29 -2 -50.5 -19t-21.5 -40q0 -18 15 -28.5t38 -10.5q17 0 23 2v-135q-21 -7 -50 -7q-59 0 -95 31.5t-36 79.5q0 41 28 75.5t75 51.5h-80l-19 365h-71l-17 -365h-145l98 1434h207zM168 502h59l-18 416l-8 317h-4l-9 -317z" />
    <glyph glyph-name="aogonek" unicode="&#x105;" 
d="M168 993v-243h-141v245q0 85 47.5 135t126.5 50q80 0 129 -50t49 -135v-995h-2q-30 0 -53 -17.5t-23 -41.5q0 -18 15 -28.5t38 -10.5q17 0 23 2v-135q-21 -7 -49 -7q-60 0 -95.5 31.5t-35.5 79.5q0 41 27.5 75.5t74.5 51.5h-61v92h-5q-11 -50 -37.5 -77t-64.5 -27
q-51 0 -77.5 44t-26.5 126v284q0 106 41 154t170 98v299q0 29 -8 41.5t-27 12.5t-27 -12.5t-8 -41.5zM238 569q-47 -24 -58.5 -51.5t-11.5 -91.5v-252q0 -29 8 -41t27 -12q35 0 35 53v395z" />
    <glyph glyph-name="Cacute" unicode="&#x106;" horiz-adv-x="423" 
d="M268 1493h-104l26 246h136zM246 1255q0 54 -35 54t-35 -54v-1075q0 -53 35 -53t35 53v426h149v-434q0 -86 -50 -135t-134 -49t-134 50t-50 134v1090q0 85 51 134.5t135 49.5q83 0 132.5 -48.5t49.5 -135.5v-371h-149v364z" />
    <glyph glyph-name="cacute" unicode="&#x107;" 
d="M260 1227h-104l26 246h135zM236 993q0 54 -35 54q-33 0 -33 -54v-819q0 -53 33 -53q35 0 35 53v324h143v-326q0 -86 -48 -135t-128 -49q-79 0 -127.5 49.5t-48.5 134.5v823q0 85 48.5 135t127.5 50q80 0 128 -49.5t48 -135.5v-272h-143v270z" />
    <glyph glyph-name="Ccircumflex" unicode="&#x108;" horiz-adv-x="423" 
d="M186 1493h-98l51 246h148l49 -246h-98l-23 137h-6zM246 1255q0 54 -35 54t-35 -54v-1075q0 -53 35 -53t35 53v426h149v-434q0 -86 -50 -135t-134 -49t-134 50t-50 134v1090q0 85 51 134.5t135 49.5q83 0 132.5 -48.5t49.5 -135.5v-371h-149v364z" />
    <glyph glyph-name="ccircumflex" unicode="&#x109;" 
d="M178 1227h-98l51 246h148l49 -246h-99l-22 137h-4zM236 993q0 54 -35 54q-33 0 -33 -54v-819q0 -53 33 -53q35 0 35 53v324h143v-326q0 -86 -48 -135t-128 -49q-79 0 -127.5 49.5t-48.5 134.5v823q0 85 48.5 135t127.5 50q80 0 128 -49.5t48 -135.5v-272h-143v270z" />
    <glyph glyph-name="Cdotaccent" unicode="&#x10a;" horiz-adv-x="423" 
d="M145 1513v179h138v-179h-138zM246 1253q0 56 -35 56t-35 -56v-1073q0 -55 35 -55t35 55v426h149v-434q0 -86 -50 -135t-134 -49t-134 49t-50 135v1090q0 85 51 134.5t135 49.5t133 -49t49 -135v-371h-149v362z" />
    <glyph glyph-name="cdotaccent" unicode="&#x10b;" 
d="M137 1247v178h137v-178h-137zM236 993q0 54 -33 54q-35 0 -35 -54v-819q0 -53 35 -53q33 0 33 53v324h143v-326q0 -86 -48 -135t-128 -49q-79 0 -127.5 49.5t-48.5 134.5v823q0 85 49 135t129 50q79 0 126.5 -50t47.5 -135v-272h-143v270z" />
    <glyph glyph-name="Ccaron" unicode="&#x10c;" horiz-adv-x="423" 
d="M258 1737h98l-51 -246h-147l-49 246h98l24 -138h5zM246 1255q0 54 -35 54t-35 -54v-1075q0 -53 35 -53t35 53v426h149v-434q0 -86 -50 -135t-134 -49t-134 50t-50 134v1090q0 85 51 134.5t135 49.5q83 0 132.5 -48.5t49.5 -135.5v-371h-149v364z" />
    <glyph glyph-name="ccaron" unicode="&#x10d;" 
d="M250 1470h98l-51 -245h-147l-50 245h99l24 -137h4zM236 993q0 54 -35 54q-33 0 -33 -54v-819q0 -53 33 -53q35 0 35 53v324h143v-326q0 -86 -48 -135t-128 -49q-79 0 -127.5 49.5t-48.5 134.5v823q0 85 48.5 135t127.5 50q80 0 128 -49.5t48 -135.5v-272h-143v270z" />
    <glyph glyph-name="Dcaron" unicode="&#x10e;" horiz-adv-x="423" 
d="M231 1737h99l-51 -246h-148l-49 246h98l25 -138h4zM395 1257v-1079q0 -89 -44 -133.5t-140 -44.5h-184v1434h184q96 0 140 -44.5t44 -132.5zM244 1247q0 27 -8 38t-27 11h-33v-1157h33q19 0 27 11t8 38v1059z" />
    <glyph glyph-name="dcaron" unicode="&#x10f;" horiz-adv-x="534" 
d="M406 1282l12 213h129l-45 -213h-96zM379 0h-141v72h-5q-12 -40 -37.5 -62t-60.5 -22q-51 0 -79.5 47.5t-28.5 136.5v823q0 89 28.5 137t79.5 48q73 0 98 -86l5 2v399h141v-1495zM168 993v-819q0 -53 35 -53t35 53v819q0 29 -8 41.5t-27 12.5t-27 -12.5t-8 -41.5z" />
    <glyph glyph-name="Dcroat" unicode="&#x110;" horiz-adv-x="423" 
d="M395 1255v-1079q0 -88 -44 -132t-140 -44h-184v647h-35v137h35v648h186q95 0 138.5 -44.5t43.5 -132.5zM246 1245q0 27 -8 38t-27 11h-35v-510h37v-137h-37v-510h35q19 0 27 11t8 38v1059z" />
    <glyph glyph-name="dcroat" unicode="&#x111;" 
d="M379 0h-141v72h-5q-12 -40 -37.5 -62t-60.5 -22q-51 0 -79.5 47.5t-28.5 136.5v823q0 89 28.5 137t79.5 48q73 0 98 -86l5 2v131h-62v143h62v125h141v-125h57v-143h-57v-1227zM168 993v-819q0 -28 8.5 -40.5t28.5 -12.5q33 0 33 53v819q0 54 -33 54q-37 0 -37 -54z" />
    <glyph glyph-name="Emacron" unicode="&#x112;" horiz-adv-x="282" 
d="M258 1665v-143h-246v143h246zM258 1434v-138h-82v-493h72v-137h-72v-529h92v-137h-241v1434h231z" />
    <glyph glyph-name="emacron" unicode="&#x113;" 
d="M328 1399v-144h-246v144h246zM238 457h141v-285q0 -86 -48 -135t-128 -49q-79 0 -127.5 49.5t-48.5 134.5v823q0 85 49.5 135t128.5 50t126.5 -50t47.5 -135v-440h-211v-381q0 -53 35 -53t35 53v283zM238 993q0 29 -8 41.5t-27 12.5t-27 -12.5t-8 -41.5v-307h70v307z" />
    <glyph glyph-name="Ebreve" unicode="&#x114;" horiz-adv-x="282" 
d="M-23 1718h113q0 -76 47 -76q45 0 45 76h115q0 -109 -40.5 -158t-119.5 -49q-80 0 -120 48.5t-40 158.5zM258 1434v-138h-82v-493h72v-137h-72v-529h92v-137h-241v1434h231z" />
    <glyph glyph-name="ebreve" unicode="&#x115;" 
d="M45 1452h113q0 -76 47 -76t47 76h113q0 -108 -40 -157.5t-120 -49.5t-120 49.5t-40 157.5zM238 457h141v-285q0 -86 -48 -135t-128 -49q-79 0 -127.5 49.5t-48.5 134.5v823q0 85 49 135t129 50q79 0 126.5 -50t47.5 -135v-440h-211v-381q0 -53 35 -53t35 53v283zM238 993
q0 29 -8 41.5t-27 12.5t-27 -12.5t-8 -41.5v-307h70v307z" />
    <glyph glyph-name="Edotaccent" unicode="&#x116;" horiz-adv-x="282" 
d="M70 1513v179h135v-179h-135zM258 1434v-138h-82v-493h72v-137h-72v-529h92v-137h-241v1434h231z" />
    <glyph glyph-name="edotaccent" unicode="&#x117;" 
d="M137 1247v178h137v-178h-137zM238 457h141v-285q0 -86 -48 -135t-128 -49q-79 0 -127.5 49.5t-48.5 134.5v823q0 85 49 135t129 50q79 0 126.5 -50t47.5 -135v-440h-211v-381q0 -53 35 -53t35 53v283zM238 993q0 29 -8 41.5t-27 12.5t-27 -12.5t-8 -41.5v-307h70v307z
" />
    <glyph glyph-name="Eogonek" unicode="&#x118;" horiz-adv-x="282" 
d="M258 1432v-138h-82v-491h72v-137h-72v-529h92v-137h-2q-31 0 -53.5 -17t-22.5 -42q0 -18 15 -28.5t39 -10.5q16 0 22 2v-135q-24 -7 -51 -7q-58 0 -93.5 31.5t-35.5 79.5q0 41 27.5 75.5t74.5 51.5h-161v1432h231z" />
    <glyph glyph-name="eogonek" unicode="&#x119;" 
d="M289 -94v-135q-21 -7 -49 -7q-57 0 -94 33.5t-37 81.5q0 73 69 111q-70 8 -110.5 56.5t-40.5 125.5v823q0 85 49 135t129 50q79 0 126.5 -50t47.5 -135v-440h-211v-381q0 -53 35 -53t35 53v283h141v-285q0 -72 -35 -119t-96 -61q-35 -18 -35 -49q0 -18 15 -28.5t38 -10.5
q17 0 23 2zM238 993q0 29 -8 41.5t-27 12.5t-27 -12.5t-8 -41.5v-307h70v307z" />
    <glyph glyph-name="Ecaron" unicode="&#x11a;" horiz-adv-x="282" 
d="M182 1739h99l-52 -248h-145l-51 248h98l25 -140h4zM258 1434v-138h-82v-493h72v-137h-72v-529h92v-137h-241v1434h231z" />
    <glyph glyph-name="ecaron" unicode="&#x11b;" 
d="M250 1470h98l-51 -245h-147l-50 245h99l24 -137h4zM238 457h141v-285q0 -86 -48 -135t-128 -49t-128 49t-48 135v823q0 85 49 135t129 50q79 0 126.5 -50t47.5 -135v-440h-211v-381q0 -53 35 -53t35 53v283zM238 993q0 56 -35 56t-35 -56v-307h70v307z" />
    <glyph glyph-name="Gcircumflex" unicode="&#x11c;" horiz-adv-x="423" 
d="M186 1493h-98l51 246h148l49 -246h-98l-23 137h-6zM211 756h184v-756h-149v82h-4q-12 -44 -38.5 -69t-60.5 -25q-53 0 -84.5 50t-31.5 134v1090q0 85 51 134.5t135 49.5t133 -49t49 -135v-371h-149v364q0 54 -35 54q-33 0 -33 -54v-1077q0 -55 33 -55q35 0 35 59v436h-35
v138z" />
    <glyph glyph-name="gcircumflex" unicode="&#x11d;" 
d="M190 1227h-98l51 246h148l49 -246h-98l-23 137h-4zM379 1167v-1323q0 -85 -48.5 -134.5t-127.5 -49.5q-80 0 -128 48.5t-48 131.5v105h141v-99q0 -53 35 -53t35 53v228h-5q-26 -86 -100 -86q-51 0 -78.5 47.5t-27.5 136.5v823q0 89 28 137t80 48q35 0 60.5 -22t37.5 -62
h5v71h141zM168 174q0 -53 35 -53t35 53v819q0 56 -35 56t-35 -56v-819z" />
    <glyph glyph-name="Gbreve" unicode="&#x11e;" horiz-adv-x="423" 
d="M55 1718h111q0 -76 47 -76t47 76h113q0 -108 -40 -157.5t-120 -49.5q-78 0 -118 49.5t-40 157.5zM213 756h182v-756h-149v82h-4q-12 -44 -38 -69t-61 -25q-53 0 -84.5 50t-31.5 134v1090q0 85 51 134.5t137 49.5q82 0 131 -49t49 -135v-371h-149v362q0 56 -33 56
q-35 0 -35 -56v-1075q0 -55 35 -55q33 0 33 59v436h-33v138z" />
    <glyph glyph-name="gbreve" unicode="&#x11f;" 
d="M57 1452h113q0 -76 47 -76t47 76h113q0 -108 -40 -157.5t-120 -49.5t-120 49.5t-40 157.5zM379 1167v-1323q0 -85 -48.5 -134.5t-127.5 -49.5q-80 0 -128 48.5t-48 131.5v105h141v-99q0 -53 35 -53t35 53v228h-5q-26 -86 -100 -86q-51 0 -78.5 47.5t-27.5 136.5v823
q0 89 28 137t80 48q35 0 60.5 -22t37.5 -62h5v71h141zM168 174q0 -53 35 -53t35 53v819q0 29 -8 41.5t-27 12.5t-27 -12.5t-8 -41.5v-819z" />
    <glyph glyph-name="Gdotaccent" unicode="&#x120;" horiz-adv-x="423" 
d="M145 1513v179h138v-179h-138zM211 756h184v-756h-149v82h-4q-12 -44 -38.5 -69t-60.5 -25q-53 0 -84.5 50t-31.5 134v1090q0 85 51 134.5t135 49.5t133 -49t49 -135v-371h-149v362q0 56 -35 56q-33 0 -33 -56v-1075q0 -55 33 -55q35 0 35 59v436h-35v138z" />
    <glyph glyph-name="gdotaccent" unicode="&#x121;" 
d="M150 1247v178h137v-178h-137zM379 1167v-1323q0 -86 -48 -135t-128 -49t-128 48.5t-48 131.5v105h141v-99q0 -53 35 -53t35 53v228h-5q-12 -40 -37.5 -63t-60.5 -23q-51 0 -79.5 47.5t-28.5 136.5v823q0 89 28.5 137t79.5 48q35 0 60.5 -22t37.5 -62h5v71h141zM168 174
q0 -53 35 -53t35 53v819q0 29 -8 41.5t-27 12.5t-27 -12.5t-8 -41.5v-819z" />
    <glyph glyph-name="uni0122" unicode="&#x122;" horiz-adv-x="423" 
d="M211 756h184v-756h-149v82h-4q-12 -44 -38.5 -69t-60.5 -25q-53 0 -84.5 50t-31.5 134v1090q0 85 51 134.5t135 49.5t133 -49t49 -135v-371h-149v362q0 56 -35 56q-33 0 -33 -56v-1075q0 -55 33 -55q35 0 35 59v436h-35v138zM152 -211v174h127v-174l-27 -111h-55l22 111
h-67z" />
    <glyph glyph-name="uni0123" unicode="&#x123;" 
d="M281 1380v-174h-127v174l26 111h56l-25 -111h70zM379 1169v-1325q0 -86 -48 -135t-128 -49q-79 0 -127.5 49t-48.5 131v105h141v-99q0 -53 35 -53t35 53v228h-5q-12 -40 -37.5 -63t-60.5 -23q-51 0 -79.5 47.5t-28.5 136.5v825q0 89 28.5 137t81.5 48q33 0 58.5 -23
t37.5 -63h5v73h141zM168 174q0 -53 35 -53t35 53v821q0 54 -35 54t-35 -54v-821z" />
    <glyph glyph-name="Hcircumflex" unicode="&#x124;" horiz-adv-x="423" 
d="M184 1493h-98l51 246h148l49 -246h-98l-23 137h-6zM395 1434v-1434h-149v645h-70v-645h-149v1434h149v-652h70v652h149z" />
    <glyph glyph-name="hcircumflex" unicode="&#x125;" 
d="M70 1554h-99l52 246h147l49 -246h-98l-23 138h-4zM238 993q0 56 -35 56t-35 -56v-993h-141v1495h141v-399h4q12 40 37.5 62t60.5 22q52 0 80.5 -47.5t28.5 -137.5v-995h-141v993z" />
    <glyph glyph-name="Hbar" unicode="&#x126;" horiz-adv-x="423" 
d="M395 1432v-254h35v-138h-35v-1040h-149v645h-70v-645h-149v1040h-33v138h33v254h149v-254h70v254h149zM176 782h70v258h-70v-258z" />
    <glyph glyph-name="hbar" unicode="&#x127;" 
d="M238 993q0 29 -8 41.5t-27 12.5t-27 -12.5t-8 -41.5v-993h-141v1227h-60v143h60v125h141v-125h59v-143h-59v-131h4q12 40 37.5 62t60.5 22q51 0 80 -48t29 -137v-995h-141v993z" />
    <glyph glyph-name="Itilde" unicode="&#x128;" horiz-adv-x="204" 
d="M244 1712v-4q0 -104 -16 -148t-54 -44q-28 0 -72 26.5t-61 26.5q-25 0 -25 -51v-2h-57v4q0 102 16.5 146t53.5 44q26 0 71.5 -25.5t63.5 -25.5q29 0 29 45v8h51zM176 1434v-1434h-149v1434h149z" />
    <glyph glyph-name="itilde" unicode="&#x129;" horiz-adv-x="196" 
d="M240 1446v-4q0 -105 -16 -149t-54 -44q-28 0 -72 27t-61 27q-25 0 -25 -52v-2h-57v4q0 102 16.5 147.5t53.5 45.5q26 0 71.5 -26.5t63.5 -26.5q28 0 28 45v8h52zM27 0v1167h141v-1167h-141z" />
    <glyph glyph-name="Imacron" unicode="&#x12a;" horiz-adv-x="204" 
d="M223 1665v-143h-246v143h246zM176 1434v-1434h-149v1434h149z" />
    <glyph glyph-name="imacron" unicode="&#x12b;" horiz-adv-x="196" 
d="M219 1399v-144h-246v144h246zM27 0v1167h141v-1167h-141z" />
    <glyph glyph-name="Ibreve" unicode="&#x12c;" horiz-adv-x="204" 
d="M-57 1718h112q0 -76 47 -76q48 0 48 76h112q0 -108 -40 -157.5t-120 -49.5t-119.5 49.5t-39.5 157.5zM176 1434v-1434h-149v1434h149z" />
    <glyph glyph-name="ibreve" unicode="&#x12d;" horiz-adv-x="196" 
d="M-61 1452h112q0 -76 47 -76t47 76h113q0 -108 -40 -157.5t-120 -49.5t-119.5 49.5t-39.5 157.5zM27 0v1167h141v-1167h-141z" />
    <glyph glyph-name="Iogonek" unicode="&#x12e;" horiz-adv-x="204" 
d="M178 1434v-1434h-10q-28 -2 -50 -19t-22 -40q0 -18 16 -28.5t40 -10.5q16 0 22 2v-135q-24 -7 -51 -7q-59 0 -93 31t-34 80q0 42 26.5 76t73.5 51h-69v1434h151z" />
    <glyph glyph-name="iogonek" unicode="&#x12f;" horiz-adv-x="196" 
d="M27 1208v199h143v-199h-143zM27 0v1167h143v-1167h-10q-28 -2 -50 -19t-22 -40q0 -18 15.5 -28.5t39.5 -10.5q17 0 23 2v-135q-24 -7 -51 -7q-59 0 -93 31t-34 80q0 42 26.5 76t73.5 51h-61z" />
    <glyph glyph-name="Idotaccent" unicode="&#x130;" horiz-adv-x="204" 
d="M33 1513v179h135v-179h-135zM176 1434v-1434h-149v1434h149z" />
    <glyph glyph-name="dotlessi" unicode="&#x131;" horiz-adv-x="196" 
d="M27 0v1167h141v-1167h-141z" />
    <glyph glyph-name="IJ" unicode="&#x132;" horiz-adv-x="628" 
d="M176 1434v-1434h-149v1434h149zM598 1434v-1262q0 -86 -49 -135t-133 -49t-134.5 49.5t-50.5 134.5v434h150v-426q0 -55 35 -55q33 0 33 55v1254h149z" />
    <glyph glyph-name="ij" unicode="&#x133;" horiz-adv-x="393" 
d="M27 1208v199h141v-199h-141zM367 1407v-199h-142v199h142zM27 0v1167h141v-1167h-141zM367 1167v-1323q0 -63 -6 -98t-26 -53t-44.5 -22.5t-73.5 -4.5h-41v127q35 0 42 8t7 39v1327h142z" />
    <glyph glyph-name="Jcircumflex" unicode="&#x134;" horiz-adv-x="423" 
d="M293 1493h-98l51 246h147l49 -246h-98l-22 137h-7zM395 1434v-1262q0 -86 -50 -135t-134 -49t-134 50t-50 134v434h149v-426q0 -53 35 -53t35 53v1254h149z" />
    <glyph glyph-name="jcircumflex" unicode="&#x135;" horiz-adv-x="196" 
d="M74 1227h-99l52 246h145l49 -246h-98l-23 137h-4zM170 1167v-1323q0 -63 -6 -98t-26 -54t-44.5 -23.5t-73.5 -4.5h-40v127q33 0 40 8.5t7 38.5v1329h143z" />
    <glyph glyph-name="uni0136" unicode="&#x136;" horiz-adv-x="419" 
d="M420 1434l-109 -656v-4l109 -774h-152l-88 680h-4v-680h-149v1434h149v-600h4l88 600h152zM160 -211v174h127v-174l-27 -111h-55l22 111h-67z" />
    <glyph glyph-name="uni0137" unicode="&#x137;" horiz-adv-x="411" 
d="M406 1167l-109 -532v-4l111 -631h-144l-92 559h-4v-559h-141v1495h141v-821h4l88 493h146zM154 -211v174h127v-174l-27 -111h-55l22 111h-67z" />
    <glyph glyph-name="kgreenlandic" unicode="&#x138;" horiz-adv-x="411" 
d="M403 1167l-108 -532v-4l111 -631h-144l-90 559h-4v-559h-141v1167h141v-493h4l86 493h145z" />
    <glyph glyph-name="Lacute" unicode="&#x139;" horiz-adv-x="278" 
d="M154 1493h-105l29 246h135zM27 1434h149v-1295h88v-139h-237v1434z" />
    <glyph glyph-name="lacute" unicode="&#x13a;" horiz-adv-x="196" 
d="M147 1554h-104l27 246h137zM27 0v1495h141v-1495h-141z" />
    <glyph glyph-name="uni013B" unicode="&#x13b;" horiz-adv-x="278" 
d="M27 1434h149v-1297h88v-137h-237v1434zM84 -211v174h127v-174l-25 -111h-57l23 111h-68z" />
    <glyph glyph-name="uni013C" unicode="&#x13c;" horiz-adv-x="196" 
d="M27 0v1495h143v-1495h-143zM35 -211v174h125v-174l-25 -111h-53l22 111h-69z" />
    <glyph glyph-name="Lcaron" unicode="&#x13d;" horiz-adv-x="278" 
d="M205 1221l12 213h129l-45 -213h-96zM27 1434h149v-1297h88v-137h-237v1434z" />
    <glyph glyph-name="lcaron" unicode="&#x13e;" horiz-adv-x="323" 
d="M197 1282l12 213h127l-43 -213h-96zM27 0v1495h141v-1495h-141z" />
    <glyph glyph-name="Ldot" unicode="&#x13f;" horiz-adv-x="356" 
d="M27 1434h149v-1297h88v-137h-237v1434zM207 629v178h135v-178h-135z" />
    <glyph glyph-name="ldot" unicode="&#x140;" horiz-adv-x="374" 
d="M27 0v1495h141v-1495h-141zM211 655v179h135v-179h-135z" />
    <glyph glyph-name="Lslash" unicode="&#x141;" horiz-adv-x="280" 
d="M27 1434h149v-613l35 15l55 -131l-90 -37v-531h88v-137h-237v606l-35 -14l-55 131l90 37v674z" />
    <glyph glyph-name="lslash" unicode="&#x142;" horiz-adv-x="196" 
d="M27 0v635l-39 -17l-56 132l95 38v707h141v-647l35 16l55 -131l-90 -39v-694h-141z" />
    <glyph glyph-name="Nacute" unicode="&#x143;" horiz-adv-x="507" 
d="M307 1493h-104l26 246h138zM479 1434v-1434h-196l-140 1169h-4l23 -481l8 -688h-143v1434h198l140 -1164h4l-23 467l-8 697h141z" />
    <glyph glyph-name="nacute" unicode="&#x144;" 
d="M254 1227h-104l26 246h135zM238 993q0 56 -35 56t-35 -56v-993h-141v1167h141v-71h4q12 40 37.5 62t60.5 22q52 0 80.5 -47.5t28.5 -137.5v-995h-141v993z" />
    <glyph glyph-name="uni0145" unicode="&#x145;" horiz-adv-x="507" 
d="M479 1434v-1434h-196l-140 1167h-4l23 -481l8 -686h-143v1434h198l140 -1164h4l-23 467l-8 697h141zM190 -211v174h127v-174l-26 -111h-55l22 111h-68z" />
    <glyph glyph-name="uni0146" unicode="&#x146;" 
d="M238 993q0 54 -35 54t-35 -54v-993h-141v1167h141v-71h4q12 40 37.5 62t60.5 22q53 0 81 -48t28 -137v-995h-141v993zM141 -211v174h127v-174l-26 -111h-56l23 111h-68z" />
    <glyph glyph-name="Ncaron" unicode="&#x147;" horiz-adv-x="507" 
d="M297 1737h98l-51 -246h-145l-52 246h99l22 -138h4zM479 1434v-1434h-196l-140 1169h-4l23 -481l8 -688h-143v1434h198l140 -1164h4l-23 467l-8 697h141z" />
    <glyph glyph-name="ncaron" unicode="&#x148;" 
d="M244 1470h98l-51 -245h-148l-49 245h99l24 -137h4zM238 993q0 56 -35 56t-35 -56v-993h-141v1167h141v-71h4q12 40 37.5 62t60.5 22q52 0 80.5 -47.5t28.5 -137.5v-995h-141v993z" />
    <glyph glyph-name="napostrophe" unicode="&#x149;" horiz-adv-x="643" 
d="M35 0v1434h573v-1434h-573zM186 1325l136 -438l131 438h-267zM373 719l127 -412v834zM143 1133v-840l127 426zM322 551l-134 -442h271z" />
    <glyph glyph-name="Eng" unicode="&#x14a;" horiz-adv-x="628" 
d="M27 0v1434h575v-1434h-575zM178 1325l135 -440l133 440h-268zM367 719l127 -414v836zM135 1135v-842l129 426zM315 551l-133 -442h271z" />
    <glyph glyph-name="eng" unicode="&#x14b;" horiz-adv-x="628" 
d="M27 0v1434h575v-1434h-575zM178 1325l135 -440l133 440h-268zM367 719l127 -414v836zM135 1135v-842l129 426zM315 551l-133 -442h271z" />
    <glyph glyph-name="Omacron" unicode="&#x14c;" horiz-adv-x="423" 
d="M336 1665v-143h-246v143h246zM395 1262v-1090q0 -85 -49.5 -134.5t-132.5 -49.5q-84 0 -135 49.5t-51 134.5v1090q0 85 51 134.5t135 49.5q83 0 132.5 -49.5t49.5 -134.5zM246 1253q0 56 -35 56q-33 0 -33 -56v-1073q0 -55 33 -55q35 0 35 55v1073z" />
    <glyph glyph-name="omacron" unicode="&#x14d;" 
d="M328 1399v-144h-246v144h246zM379 995v-823q0 -86 -47 -135t-127 -49t-129 49.5t-49 134.5v823q0 85 49.5 135t128.5 50q80 0 127 -49.5t47 -135.5zM238 993q0 29 -8 41.5t-27 12.5t-27 -12.5t-8 -41.5v-819q0 -53 35 -53t35 53v819z" />
    <glyph glyph-name="Obreve" unicode="&#x14e;" horiz-adv-x="423" 
d="M53 1718h113q0 -76 47 -76t47 76h113q0 -108 -40 -157.5t-120 -49.5t-120 49.5t-40 157.5zM395 1262v-1090q0 -86 -50 -135t-134 -49q-83 0 -134.5 49.5t-51.5 134.5v1090q0 85 52 134.5t136 49.5q83 0 132.5 -49.5t49.5 -134.5zM244 1253q0 56 -33 56q-35 0 -35 -56
v-1073q0 -55 35 -55q33 0 33 55v1073z" />
    <glyph glyph-name="obreve" unicode="&#x14f;" 
d="M45 1452h113q0 -76 47 -76t47 76h113q0 -108 -40 -157.5t-120 -49.5t-120 49.5t-40 157.5zM379 995v-823q0 -85 -47.5 -134.5t-126.5 -49.5q-80 0 -129 49.5t-49 134.5v823q0 85 49 135t129 50q79 0 126.5 -50t47.5 -135zM238 993q0 29 -8 41.5t-27 12.5t-27 -12.5
t-8 -41.5v-819q0 -53 35 -53t35 53v819z" />
    <glyph glyph-name="Ohungarumlaut" unicode="&#x150;" horiz-adv-x="423" 
d="M184 1493h-104l26 246h136zM354 1493h-104l26 246h136zM395 1262v-1090q0 -86 -50 -135t-134 -49q-83 0 -134.5 50t-51.5 134v1090q0 85 52 134.5t136 49.5q83 0 132.5 -48.5t49.5 -135.5zM244 1255q0 54 -33 54q-35 0 -35 -54v-1075q0 -53 35 -53q33 0 33 53v1075z" />
    <glyph glyph-name="ohungarumlaut" unicode="&#x151;" 
d="M176 1227h-104l26 246h135zM346 1227h-104l26 246h135zM379 995v-823q0 -85 -47.5 -134.5t-126.5 -49.5q-80 0 -129 50t-49 134v823q0 85 49 135t129 50q79 0 126.5 -49t47.5 -136zM238 993q0 56 -35 56t-35 -56v-819q0 -53 35 -53t35 53v819z" />
    <glyph glyph-name="OE" unicode="&#x152;" horiz-adv-x="501" 
d="M467 1434v-138h-72v-491h82v-139h-82v-529h92v-137h-274q-85 0 -135.5 49t-50.5 135v1065q0 85 51 135t135 50h254zM246 1296h-35q-35 0 -35 -53v-1053q0 -53 35 -53h35v1159z" />
    <glyph glyph-name="oe" unicode="&#x153;" horiz-adv-x="616" 
d="M449 457h141v-285q0 -84 -46 -134t-120 -50q-71 0 -113 51h-4q-42 -51 -110 -51q-75 0 -122.5 50.5t-47.5 133.5v823q0 82 47 133.5t123 51.5q70 0 110 -52h4q43 52 113 52q75 0 120.5 -51t45.5 -134v-440h-211v-381q0 -53 35 -53t35 53v283zM238 993q0 54 -35 54
t-35 -54v-819q0 -53 35 -53t35 53v819zM449 993q0 54 -35 54t-35 -54v-307h70v307z" />
    <glyph glyph-name="Racute" unicode="&#x154;" horiz-adv-x="423" 
d="M242 1493h-105l27 246h135zM246 608q0 28 -8 39.5t-27 11.5h-35v-659h-149v1434h186q93 0 137.5 -43.5t44.5 -133.5v-374q0 -70 -14.5 -103t-58.5 -51v-4q44 -17 58.5 -49t14.5 -103v-387q0 -113 21 -182v-4h-152q-18 78 -18 186v422zM246 1247q0 26 -8 37.5t-27 11.5
h-35v-499h35q19 0 27 11.5t8 37.5v401z" />
    <glyph glyph-name="racute" unicode="&#x155;" 
d="M258 1227h-104l26 246h135zM236 993q0 29 -8 41.5t-27 12.5q-33 0 -33 -54v-993h-141v1167h141v-71h4q12 40 37.5 62t60.5 22q53 0 81 -48t28 -137v-307h-143v305z" />
    <glyph glyph-name="uni0156" unicode="&#x156;" horiz-adv-x="423" 
d="M246 608q0 27 -8 38t-27 11h-35v-657h-149v1434h186q93 0 137.5 -43.5t44.5 -135.5v-372q0 -72 -14.5 -104.5t-58.5 -49.5v-4q44 -17 58.5 -49.5t14.5 -104.5v-387q0 -114 21 -180v-4h-152q-18 78 -18 186v422zM246 1245q0 28 -8 39.5t-27 11.5h-35v-499h35q19 0 27 11
t8 38v399zM162 -211v174h127v-174l-27 -111h-55l22 111h-67z" />
    <glyph glyph-name="uni0157" unicode="&#x157;" 
d="M236 993q0 29 -8 41.5t-27 12.5q-31 0 -31 -54v-993h-143v1167h143v-71h4q25 84 96 84q53 0 81 -48t28 -137v-307h-143v305zM37 -211v174h127v-174l-27 -111h-53l22 111h-69z" />
    <glyph glyph-name="Rcaron" unicode="&#x158;" horiz-adv-x="423" 
d="M231 1737h99l-51 -246h-148l-49 246h98l25 -138h4zM246 608q0 28 -8 39.5t-27 11.5h-35v-659h-149v1434h186q93 0 137.5 -43.5t44.5 -133.5v-374q0 -70 -14.5 -103t-58.5 -51v-4q44 -17 58.5 -49t14.5 -103v-387q0 -113 21 -182v-4h-152q-18 78 -18 186v422zM246 1247
q0 26 -8 37.5t-27 11.5h-35v-499h35q19 0 27 11.5t8 37.5v401z" />
    <glyph glyph-name="rcaron" unicode="&#x159;" 
d="M248 1470h98l-51 -245h-148l-49 245h99l24 -137h4zM236 993q0 29 -8 41.5t-27 12.5q-33 0 -33 -54v-993h-141v1167h141v-71h4q12 40 37.5 62t60.5 22q53 0 81 -48t28 -137v-307h-143v305z" />
    <glyph glyph-name="Sacute" unicode="&#x15a;" horiz-adv-x="413" 
d="M262 1493h-104l26 246h138zM391 440v-268q0 -85 -51 -134.5t-135 -49.5t-133 49t-49 135v332h149v-324q0 -55 35 -55q33 0 33 55v260q0 50 -16.5 102.5t-33.5 85t-51 89.5q-38 63 -57.5 101.5t-39 105.5t-19.5 135v203q0 85 51 134.5t135 49.5q83 0 132.5 -49.5
t49.5 -134.5v-269h-151v260q0 56 -33 56q-35 0 -35 -56v-194q0 -51 16.5 -104t33.5 -86t50 -89q39 -66 58.5 -103t40 -104t20.5 -133z" />
    <glyph glyph-name="sacute" unicode="&#x15b;" horiz-adv-x="395" 
d="M252 1227h-102l26 246h135zM373 385v-213q0 -85 -48.5 -134.5t-127.5 -49.5t-126.5 49.5t-47.5 134.5v240h141v-238q0 -53 33 -53q19 0 26.5 12.5t7.5 40.5v211q0 33 -15 69.5t-30.5 59t-46.5 64.5q-28 35 -43.5 57t-35 57t-28.5 71.5t-9 76.5v155q0 85 48.5 135
t127.5 50t126.5 -50t47.5 -135v-184h-142v182q0 54 -34 54q-33 0 -33 -54v-153q0 -49 23 -92.5t69 -102.5q37 -48 57 -78t40 -81.5t20 -100.5z" />
    <glyph glyph-name="Scircumflex" unicode="&#x15c;" horiz-adv-x="413" 
d="M180 1493h-98l51 246h148l49 -246h-99l-22 137h-4zM391 440v-268q0 -85 -51 -134.5t-135 -49.5t-133 49t-49 135v332h149v-324q0 -55 35 -55q33 0 33 55v260q0 50 -16.5 102.5t-33.5 85t-51 89.5q-38 63 -57.5 101.5t-39 105.5t-19.5 135v203q0 85 51 134.5t135 49.5
q83 0 132.5 -49.5t49.5 -134.5v-269h-151v260q0 56 -33 56q-35 0 -35 -56v-194q0 -51 16.5 -104t33.5 -86t50 -89q39 -66 58.5 -103t40 -104t20.5 -133z" />
    <glyph glyph-name="scircumflex" unicode="&#x15d;" horiz-adv-x="395" 
d="M174 1227h-98l49 246h145l52 -246h-99l-22 137h-4zM373 385v-213q0 -85 -48.5 -134.5t-127.5 -49.5t-126.5 49.5t-47.5 134.5v240h141v-238q0 -53 33 -53q19 0 26.5 12.5t7.5 40.5v211q0 33 -15 69.5t-30.5 59t-46.5 64.5q-28 35 -43.5 57t-35 57t-28.5 71.5t-9 76.5v155
q0 85 48.5 135t127.5 50t126.5 -50t47.5 -135v-184h-142v182q0 54 -34 54q-33 0 -33 -54v-153q0 -49 23 -92.5t69 -102.5q37 -48 57 -78t40 -81.5t20 -100.5z" />
    <glyph glyph-name="Scedilla" unicode="&#x15e;" horiz-adv-x="413" 
d="M391 440v-268q0 -74 -39 -122.5t-106 -59.5l-10 -33q58 0 96.5 -32.5t38.5 -78.5q0 -54 -52.5 -88t-132.5 -34q-32 0 -77 10v106q24 -6 53 -6q78 0 78 33q0 18 -24.5 28.5t-65.5 10.5l18 84q-67 11 -106 58.5t-39 123.5v332h149v-326q0 -53 35 -53q33 0 33 53v262
q0 49 -17 102.5t-33 83.5t-51 91q-38 63 -57.5 101.5t-39 105.5t-19.5 135v203q0 85 51 134.5t135 49.5q83 0 132.5 -49.5t49.5 -134.5v-269h-151v260q0 56 -33 56q-35 0 -35 -56v-194q0 -51 16.5 -104t33.5 -86t50 -89q39 -66 58.5 -103t40 -104t20.5 -133z" />
    <glyph glyph-name="scedilla" unicode="&#x15f;" horiz-adv-x="395" 
d="M373 385v-213q0 -74 -36.5 -121.5t-100.5 -58.5l-11 -33q57 0 95 -33t38 -80q0 -54 -51 -88t-131 -34q-33 0 -78 10v106q24 -6 54 -6q77 0 77 33q0 18 -24.5 28.5t-65.5 10.5l19 86q-63 11 -99 58t-36 122v240h141v-238q0 -29 7.5 -41t25.5 -12q19 0 26.5 12t7.5 41v211
q0 33 -15 69.5t-30.5 59t-46.5 64.5q-28 35 -43.5 57t-35 57t-28.5 71.5t-9 76.5v155q0 85 48.5 135t127.5 50t126.5 -50t47.5 -135v-184h-142v182q0 54 -34 54q-33 0 -33 -54v-153q0 -49 23 -92.5t69 -102.5q37 -48 57 -78t40 -81.5t20 -100.5z" />
    <glyph glyph-name="Scaron" unicode="&#x160;" horiz-adv-x="413" 
d="M252 1737h98l-51 -246h-147l-50 246h99l22 -135h4zM391 440v-268q0 -85 -51 -134.5t-135 -49.5t-133 49t-49 135v332h149v-324q0 -55 35 -55q33 0 33 55v260q0 50 -16.5 102.5t-33.5 85t-51 89.5q-38 63 -57.5 101.5t-39 105.5t-19.5 135v203q0 85 51 134.5t135 49.5
q83 0 132.5 -49.5t49.5 -134.5v-269h-151v260q0 56 -33 56q-35 0 -35 -56v-194q0 -51 16.5 -104t33.5 -86t50 -89q39 -66 58.5 -103t40 -104t20.5 -133z" />
    <glyph glyph-name="scaron" unicode="&#x161;" horiz-adv-x="395" 
d="M242 1470h98l-49 -245h-146l-51 245h99l22 -137h4zM373 385v-213q0 -85 -48.5 -134.5t-127.5 -49.5t-126.5 49.5t-47.5 134.5v240h141v-238q0 -53 33 -53q19 0 26.5 12.5t7.5 40.5v211q0 33 -15 69.5t-30.5 59t-46.5 64.5q-28 35 -43.5 57t-35 57t-28.5 71.5t-9 76.5v155
q0 85 48.5 135t127.5 50t126.5 -50t47.5 -135v-184h-142v182q0 54 -34 54q-33 0 -33 -54v-153q0 -49 23 -92.5t69 -102.5q37 -48 57 -78t40 -81.5t20 -100.5z" />
    <glyph glyph-name="uni0162" unicode="&#x162;" horiz-adv-x="380" 
d="M367 1434v-138h-103v-1296h-33l-12 -43q57 0 96 -32.5t39 -78.5q0 -54 -52 -88t-132 -34q-33 0 -78 10v106q24 -6 53 -6q78 0 78 33q0 18 -24.5 28.5t-65.5 10.5l21 94h-39v1296h-103v138h355z" />
    <glyph glyph-name="uni0163" unicode="&#x163;" horiz-adv-x="253" 
d="M43 1393h143v-226h58v-129h-58v-864q0 -30 9 -38.5t49 -8.5v-127h-41l-10 -43q56 0 94.5 -32.5t38.5 -78.5q0 -54 -51.5 -88t-133.5 -34q-33 0 -78 10v106q24 -6 54 -6q78 0 78 33q0 18 -25 28.5t-66 10.5l21 96q-48 6 -65 37.5t-17 114.5v884h-33v129h33v226z" />
    <glyph glyph-name="Tcaron" unicode="&#x164;" horiz-adv-x="380" 
d="M233 1737h99l-51 -246h-146l-51 246h98l25 -138h4zM367 1434v-138h-103v-1296h-149v1296h-103v138h355z" />
    <glyph glyph-name="tcaron" unicode="&#x165;" horiz-adv-x="327" 
d="M201 1282l12 213h129l-45 -213h-96zM43 1393h143v-226h58v-129h-58v-862q0 -32 9 -40.5t49 -8.5v-127h-51q-50 0 -75 4t-44.5 20.5t-25 46t-5.5 83.5v884h-33v129h33v226z" />
    <glyph glyph-name="Tbar" unicode="&#x166;" horiz-adv-x="380" 
d="M369 1434v-138h-105v-577h58v-141h-58v-578h-149v578h-56v141h56v577h-103v138h357z" />
    <glyph glyph-name="tbar" unicode="&#x167;" horiz-adv-x="253" 
d="M43 1393h143v-226h58v-129h-58v-47h58v-141h-58v-676q0 -30 9 -38.5t49 -8.5v-127h-51q-51 0 -75.5 3.5t-44 20t-25 46t-5.5 84.5v696h-33v141h33v47h-33v129h33v226z" />
    <glyph glyph-name="Utilde" unicode="&#x168;" horiz-adv-x="423" 
d="M354 1712v-4q0 -106 -15 -149t-54 -43q-29 0 -73 26.5t-60 26.5q-25 0 -25 -51v-2h-57v4q0 103 16.5 146.5t54.5 43.5q25 0 70 -25.5t63 -25.5q29 0 29 45v8h51zM395 1434v-1262q0 -86 -49.5 -135t-134.5 -49q-83 0 -133.5 49.5t-50.5 134.5v1262h149v-1254q0 -55 35 -55
t35 55v1254h149z" />
    <glyph glyph-name="utilde" unicode="&#x169;" 
d="M346 1446v-4q0 -105 -16 -149t-54 -44q-28 0 -72 27t-61 27q-24 0 -24 -52v-2h-58v4q0 103 17 148t55 45q25 0 70 -26.5t63 -26.5q29 0 29 45v8h51zM168 174q0 -53 35 -53t35 53v993h141v-1167h-141v72h-5q-29 -84 -98 -84q-51 0 -79.5 47.5t-28.5 136.5v995h141v-993z
" />
    <glyph glyph-name="Umacron" unicode="&#x16a;" horiz-adv-x="423" 
d="M334 1665v-143h-246v143h246zM395 1434v-1262q0 -86 -49.5 -135t-134.5 -49q-83 0 -133.5 49.5t-50.5 134.5v1262h149v-1254q0 -55 35 -55t35 55v1254h149z" />
    <glyph glyph-name="umacron" unicode="&#x16b;" 
d="M324 1399v-144h-246v144h246zM168 174q0 -53 35 -53t35 53v993h141v-1167h-141v72h-5q-29 -84 -98 -84q-52 0 -80 47.5t-28 136.5v995h141v-993z" />
    <glyph glyph-name="Ubreve" unicode="&#x16c;" horiz-adv-x="423" 
d="M51 1718h113q0 -76 47 -76t47 76h113q0 -108 -40 -157.5t-120 -49.5t-120 49.5t-40 157.5zM395 1434v-1262q0 -86 -50 -135t-134 -49t-134 49t-50 135v1262h149v-1254q0 -55 35 -55t35 55v1254h149z" />
    <glyph glyph-name="ubreve" unicode="&#x16d;" 
d="M43 1452h113q0 -76 47 -76t47 76h112q0 -108 -39.5 -157.5t-119.5 -49.5t-120 49.5t-40 157.5zM168 174q0 -53 35 -53t35 53v993h141v-1167h-141v72h-5q-29 -84 -100 -84q-51 0 -78.5 47.5t-27.5 136.5v995h141v-993z" />
    <glyph glyph-name="Uring" unicode="&#x16e;" horiz-adv-x="423" 
d="M80 1616q0 61 34 94t97 33t97 -33t34 -96q0 -61 -34 -94t-97 -33t-97 33t-34 96zM170 1616q0 -43 41 -43q43 0 43 41q0 45 -43 45q-41 0 -41 -43zM395 1434v-1262q0 -86 -50 -135t-134 -49q-83 0 -133.5 49.5t-50.5 134.5v1262h151v-1254q0 -30 7.5 -42.5t25.5 -12.5
q35 0 35 55v1254h149z" />
    <glyph glyph-name="uring" unicode="&#x16f;" 
d="M74 1350q0 62 33 94.5t96 32.5t97 -33t34 -96q0 -61 -34 -94t-97 -33t-96 33t-33 96zM162 1350q0 -43 41 -43q43 0 43 43t-43 43q-41 0 -41 -43zM170 174q0 -28 7.5 -40.5t25.5 -12.5q35 0 35 53v993h141v-1167h-141v72h-5q-29 -84 -96 -84q-53 0 -81.5 47.5t-28.5 136.5
v995h143v-993z" />
    <glyph glyph-name="Uhungarumlaut" unicode="&#x170;" horiz-adv-x="423" 
d="M182 1493h-104l26 246h136zM352 1493h-104l26 246h136zM395 1434v-1262q0 -86 -50 -135t-134 -49t-134 50t-50 134v1262h149v-1254q0 -53 35 -53t35 53v1254h149z" />
    <glyph glyph-name="uhungarumlaut" unicode="&#x171;" 
d="M174 1227h-104l26 246h135zM344 1227h-104l26 246h135zM168 174q0 -53 35 -53t35 53v993h141v-1167h-141v74h-5q-29 -86 -100 -86q-51 0 -78.5 47.5t-27.5 136.5v995h141v-993z" />
    <glyph glyph-name="Uogonek" unicode="&#x172;" horiz-adv-x="423" 
d="M395 1434v-1262q0 -71 -36.5 -118.5t-98.5 -59.5q-41 -16 -41 -53q0 -18 15 -28.5t38 -10.5q17 0 23 2v-135q-21 -7 -49 -7q-57 0 -94 33.5t-37 81.5q0 74 73 113q-74 6 -117.5 54.5t-43.5 127.5v1262h149v-1254q0 -53 35 -53t35 53v1254h149z" />
    <glyph glyph-name="uogonek" unicode="&#x173;" 
d="M168 174q0 -53 35 -53t35 53v993h141v-1167h-6q-29 -2 -50.5 -19t-21.5 -40q0 -18 15 -28.5t38 -10.5q17 0 23 2v-135q-21 -7 -49 -7q-60 0 -95.5 31.5t-35.5 79.5q0 41 27.5 75.5t74.5 51.5h-61v72h-5q-29 -84 -100 -84q-51 0 -78.5 47.5t-27.5 136.5v995h141v-993z" />
    <glyph glyph-name="Wcircumflex" unicode="&#x174;" horiz-adv-x="661" 
d="M307 1493h-98l49 246h145l54 -246h-101l-22 137h-4zM662 1434l-87 -1434h-200l-35 981l-4 227h-4l-6 -227l-35 -981h-201l-90 1434h166l27 -1235h4l10 317l35 918h182l37 -918l8 -317h4l6 317l23 918h160z" />
    <glyph glyph-name="wcircumflex" unicode="&#x175;" horiz-adv-x="659" 
d="M301 1227h-96l49 246h147l50 -246h-97l-24 137h-4zM502 1167h151l-92 -1167h-190l-35 760l-4 217h-6l-4 -217l-33 -760h-191l-94 1167h152l30 -741l7 -250h4l10 250l43 741h160l41 -741l10 -250h4l6 250z" />
    <glyph glyph-name="Ycircumflex" unicode="&#x176;" horiz-adv-x="403" 
d="M176 1493h-98l49 246h145l52 -246h-99l-22 137h-4zM403 1434l-127 -963v-471h-149v471l-127 963h154l39 -494l8 -205h4l8 205l37 494h153z" />
    <glyph glyph-name="ycircumflex" unicode="&#x177;" horiz-adv-x="401" 
d="M172 1227h-98l51 246h147l50 -246h-99l-22 137h-4zM154 1167l43 -630l8 -258h4l10 258l43 630h135l-159 -1495h-138l35 328l-133 1167h152z" />
    <glyph glyph-name="Ydieresis" unicode="&#x178;" horiz-adv-x="403" 
d="M84 1513v179h102v-179h-102zM219 1513v179h103v-179h-103zM406 1434l-127 -963v-471h-152v471l-127 963h156l37 -494l8 -205h4l8 205l39 494h154z" />
    <glyph glyph-name="Zacute" unicode="&#x179;" horiz-adv-x="348" 
d="M236 1493h-105l27 246h137zM336 1434v-138l-170 -1159h168v-137h-322v137l170 1159h-159v138h313z" />
    <glyph glyph-name="zacute" unicode="&#x17a;" horiz-adv-x="339" 
d="M223 1227h-104l26 246h138zM328 1167v-129l-170 -909h168v-129h-314v119l170 919h-159v129h305z" />
    <glyph glyph-name="Zdotaccent" unicode="&#x17b;" horiz-adv-x="348" 
d="M113 1513v179h137v-179h-137zM336 1434v-138l-170 -1159h168v-137h-322v137l172 1159h-161v138h313z" />
    <glyph glyph-name="zdotaccent" unicode="&#x17c;" horiz-adv-x="339" 
d="M102 1247v178h138v-178h-138zM328 1167v-129l-170 -909h168v-129h-314v119l170 919h-159v129h305z" />
    <glyph glyph-name="Zcaron" unicode="&#x17d;" horiz-adv-x="348" 
d="M225 1737h99l-52 -246h-147l-49 246h98l23 -138h4zM336 1434v-138l-170 -1159h168v-137h-322v137l170 1159h-159v138h313z" />
    <glyph glyph-name="zcaron" unicode="&#x17e;" horiz-adv-x="339" 
d="M215 1470h98l-51 -245h-147l-49 245h98l22 -137h4zM328 1167v-129l-170 -909h168v-129h-314v119l170 919h-159v129h305z" />
    <glyph glyph-name="longs" unicode="&#x17f;" horiz-adv-x="643" 
d="M35 0v1434h573v-1434h-573zM186 1325l136 -438l131 438h-267zM373 719l127 -412v834zM143 1133v-840l127 426zM322 551l-134 -442h271z" />
    <glyph glyph-name="florin" unicode="&#x192;" horiz-adv-x="274" 
d="M27 -430v127q34 0 41.5 9.5t7.5 45.5v1313h-33v129h33v131q0 49 1.5 78t8 53.5t14.5 35.5t27 19t39.5 9.5t56.5 1.5h43v-127q-34 0 -41.5 -10t-7.5 -46v-145h49v-129h-49v-1298q0 -49 -1.5 -78t-8 -53.5t-14.5 -35.5t-27 -19t-39.5 -9.5t-56.5 -1.5h-43z" />
    <glyph glyph-name="AEacute" unicode="&#x1fc;" horiz-adv-x="505" 
d="M365 1493h-105l27 246h137zM473 1434v-138h-72v-491h82v-139h-82v-529h93v-137h-242v365h-74l-33 -365h-145l152 1434h321zM193 502h59v735h-4l-19 -317z" />
    <glyph glyph-name="aeacute" unicode="&#x1fd;" horiz-adv-x="616" 
d="M332 1171h-86q36 -11 61 -43h4q40 52 113 52q74 0 120 -50.5t46 -134.5v-440h-211v-381q0 -55 35 -55t35 55v283h141v-285q0 -85 -47 -134.5t-127 -49.5q-64 0 -108.5 31t-59.5 87h-4q-9 -55 -39.5 -86.5t-73.5 -31.5q-51 0 -77.5 44t-26.5 126v268q0 105 40 153t171 99
v315q0 54 -35 54t-35 -54v-243h-141v245q0 84 46 134.5t120 50.5q14 0 34 -4l27 241h135zM449 993q0 54 -35 54t-35 -54v-307h70v307zM238 553q-44 -25 -57 -51t-13 -92v-238q0 -53 35 -53t35 55v379z" />
    <glyph glyph-name="Oslashacute" unicode="&#x1fe;" horiz-adv-x="423" 
d="M268 1493h-104l26 246h136zM395 1262v-1090q0 -86 -50 -135t-134 -49q-69 0 -119 37l-8 -37l-57 16l16 80q-18 49 -18 88v1090q0 85 52 134.5t136 49.5q68 0 115 -35l8 35l59 -14l-18 -82q18 -38 18 -88zM244 1255q0 54 -33 54q-35 0 -35 -54v-550l68 317v233zM176 416
v-236q0 -53 35 -53q33 0 33 53v551z" />
    <glyph glyph-name="oslashacute" unicode="&#x1ff;" 
d="M260 1227h-104l26 246h135zM379 995v-823q0 -85 -47.5 -134.5t-126.5 -49.5q-66 0 -113 35l-8 -35l-57 16l18 76q-18 41 -18 92v823q0 85 49 135t129 50q61 0 106 -31l8 31l60 -15l-19 -75q19 -43 19 -95zM238 993q0 56 -35 56t-35 -56v-420l70 279v141zM168 324v-150
q0 -53 35 -53t35 53v426z" />
    <glyph glyph-name="uni0218" unicode="&#x218;" horiz-adv-x="413" 
d="M391 440v-268q0 -85 -51 -134.5t-135 -49.5t-133 49t-49 135v332h149v-324q0 -55 35 -55q33 0 33 55v260q0 50 -16.5 102.5t-33.5 85t-51 89.5q-38 63 -57.5 101.5t-39 105.5t-19.5 135v203q0 85 51 134.5t135 49.5q83 0 132.5 -49.5t49.5 -134.5v-269h-151v260
q0 56 -33 56q-35 0 -35 -56v-194q0 -51 16.5 -104t33.5 -86t50 -89q39 -66 58.5 -103t40 -104t20.5 -133zM143 -211v174h127v-174l-26 -111h-56l23 111h-68z" />
    <glyph glyph-name="uni0219" unicode="&#x219;" horiz-adv-x="395" 
d="M373 385v-213q0 -85 -48.5 -134.5t-127.5 -49.5t-126.5 49.5t-47.5 134.5v240h141v-238q0 -53 33 -53q19 0 26.5 12.5t7.5 40.5v211q0 33 -15 69.5t-30.5 59t-46.5 64.5q-28 35 -43.5 57t-35 57t-28.5 71.5t-9 76.5v155q0 85 48.5 135t127.5 50t126.5 -50t47.5 -135v-184
h-142v182q0 54 -34 54q-33 0 -33 -54v-153q0 -49 24 -93.5t70 -101.5q36 -47 56 -78t39.5 -82t19.5 -100zM135 -211v174h127v-174l-24 -111h-58l23 111h-68z" />
    <glyph glyph-name="uni021A" unicode="&#x21a;" horiz-adv-x="380" 
d="M367 1434v-138h-103v-1296h-149v1296h-103v138h355zM129 -211v174h127v-174l-25 -111h-57l25 111h-70z" />
    <glyph glyph-name="uni021B" unicode="&#x21b;" horiz-adv-x="253" 
d="M43 1393h143v-226h58v-129h-58v-862q0 -32 9 -40.5t49 -8.5v-127h-51q-49 0 -74.5 4t-44.5 20t-25 46t-6 84v884h-33v129h33v226zM100 -211v174h127v-174l-24 -111h-58l23 111h-68z" />
    <glyph glyph-name="uni0237" unicode="&#x237;" horiz-adv-x="196" 
d="M170 1167v-1323q0 -63 -6 -98t-26 -54t-44.5 -23.5t-73.5 -4.5h-40v127q33 0 40 8.5t7 38.5v1329h143z" />
    <glyph glyph-name="circumflex" unicode="&#x2c6;" horiz-adv-x="315" 
d="M133 1171h-98l49 246h147l50 -246h-99l-22 138h-4z" />
    <glyph glyph-name="caron" unicode="&#x2c7;" horiz-adv-x="391" 
d="M258 1415h98l-49 -246h-147l-49 246h98l22 -137h5z" />
    <glyph glyph-name="breve" unicode="&#x2d8;" horiz-adv-x="387" 
d="M35 1397h112q0 -76 48 -76q45 0 45 76h114q0 -207 -159 -207q-80 0 -120 49.5t-40 157.5z" />
    <glyph glyph-name="dotaccent" unicode="&#x2d9;" horiz-adv-x="204" 
d="M35 1192v178h137v-178h-137z" />
    <glyph glyph-name="ring" unicode="&#x2da;" horiz-adv-x="329" 
d="M35 1294q0 61 34 94t97 33t97 -33t34 -96q0 -62 -33.5 -94.5t-97.5 -32.5q-63 0 -97 33t-34 96zM123 1294q0 -43 43 -43t43 41q0 43 -43 43t-43 -41z" />
    <glyph glyph-name="ogonek" unicode="&#x2db;" horiz-adv-x="249" 
d="M215 -8v-12q-30 0 -53 -18t-23 -42q0 -18 15.5 -28.5t38.5 -10.5q16 0 22 2v-135q-18 -6 -49 -6q-60 0 -94.5 31t-34.5 80q0 58 49.5 98.5t128.5 40.5z" />
    <glyph glyph-name="tilde" unicode="&#x2dc;" horiz-adv-x="352" 
d="M319 1391v-5q0 -104 -16.5 -148t-54.5 -44q-28 0 -71 26.5t-60 26.5q-15 0 -21 -11t-6 -40v-2h-55v4q0 104 15.5 148.5t53.5 44.5q26 0 71.5 -27t62.5 -27q28 0 28 45v9h53z" />
    <glyph glyph-name="hungarumlaut" unicode="&#x2dd;" horiz-adv-x="462" 
d="M139 1171h-104l26 246h138zM309 1171h-104l26 246h138z" />
    <glyph glyph-name="uni03BC" unicode="&#x3bc;" horiz-adv-x="643" 
d="M35 0v1434h573v-1434h-573zM186 1325l136 -438l131 438h-267zM373 719l127 -412v834zM143 1133v-840l127 426zM322 551l-134 -442h271z" />
    <glyph glyph-name="Wgrave" unicode="&#x1e80;" horiz-adv-x="661" 
d="M279 1493l-60 246h137l27 -246h-104zM662 1434l-87 -1434h-200l-35 981l-4 227h-4l-6 -227l-35 -981h-201l-90 1434h166l27 -1237h4l10 317l35 920h182l37 -920l8 -317h4l6 317l23 920h160z" />
    <glyph glyph-name="wgrave" unicode="&#x1e81;" horiz-adv-x="659" 
d="M276 1227l-61 246h137l27 -246h-103zM502 1167h151l-92 -1167h-190l-35 760l-4 217h-6l-4 -217l-33 -760h-191l-94 1167h152l30 -741l7 -252h4l10 252l43 741h160l41 -741l10 -252h4l6 252z" />
    <glyph glyph-name="Wacute" unicode="&#x1e82;" horiz-adv-x="661" 
d="M387 1493h-104l26 246h137zM662 1434l-87 -1434h-200l-35 981l-4 227h-4l-6 -227l-35 -981h-201l-90 1434h166l27 -1235h4l10 317l35 918h182l37 -918l8 -317h4l6 317l23 918h160z" />
    <glyph glyph-name="wacute" unicode="&#x1e83;" horiz-adv-x="659" 
d="M381 1227h-102l26 246h137zM502 1167h151l-92 -1167h-188l-37 760l-4 217h-6l-4 -217l-33 -760h-191l-94 1167h152l30 -741l7 -250h4l10 250l43 741h160l41 -741l10 -250h4l6 250z" />
    <glyph glyph-name="Wdieresis" unicode="&#x1e84;" horiz-adv-x="661" 
d="M213 1513v179h104v-179h-104zM348 1513v179h103v-179h-103zM662 1434l-87 -1434h-200l-35 981l-6 227h-4l-4 -227l-35 -981h-201l-90 1434h166l27 -1237h4l10 317l35 920h182l37 -920l8 -317h4l6 317l23 920h160z" />
    <glyph glyph-name="wdieresis" unicode="&#x1e85;" horiz-adv-x="659" 
d="M209 1247v178h102v-178h-102zM346 1247v178h103v-178h-103zM502 1167h151l-92 -1167h-188l-37 760l-4 217h-4l-6 -217l-33 -760h-191l-94 1167h152l30 -741l7 -252h4l10 252l43 741h160l43 -741l8 -252h4l6 252z" />
    <glyph glyph-name="Ygrave" unicode="&#x1ef2;" horiz-adv-x="403" 
d="M150 1493l-60 246h135l27 -246h-102zM403 1434l-127 -963v-471h-149v471l-127 963h154l39 -494l8 -205h4l8 205l37 494h153z" />
    <glyph glyph-name="ygrave" unicode="&#x1ef3;" horiz-adv-x="401" 
d="M147 1225l-59 245h137l27 -245h-105zM156 1165l43 -628l8 -258h4l8 258l43 628h135l-159 -1493h-138l37 328l-135 1165h154z" />
    <glyph glyph-name="endash" unicode="&#x2013;" horiz-adv-x="886" 
d="M854 762v-137h-819v137h819z" />
    <glyph glyph-name="emdash" unicode="&#x2014;" horiz-adv-x="1378" 
d="M1346 762v-137h-1311v137h1311z" />
    <glyph glyph-name="quoteleft" unicode="&#x2018;" horiz-adv-x="219" 
d="M182 1276v-205h-149v205l37 158h75l-34 -158h71z" />
    <glyph glyph-name="quoteright" unicode="&#x2019;" horiz-adv-x="219" 
d="M35 1229v205h149v-205l-37 -158h-75l34 158h-71z" />
    <glyph glyph-name="quotesinglbase" unicode="&#x201a;" horiz-adv-x="219" 
d="M35 0v205h149v-205l-37 -158h-75l34 158h-71z" />
    <glyph glyph-name="quotedblleft" unicode="&#x201c;" horiz-adv-x="411" 
d="M182 1276v-205h-149v205l37 158h75l-34 -158h71zM377 1276v-205h-150v205l37 158h76l-35 -158h72z" />
    <glyph glyph-name="quotedblright" unicode="&#x201d;" horiz-adv-x="411" 
d="M229 1229v205h150v-205l-37 -158h-76l35 158h-72zM35 1229v205h149v-205l-37 -158h-75l34 158h-71z" />
    <glyph glyph-name="quotedblbase" unicode="&#x201e;" horiz-adv-x="409" 
d="M35 0v205h149v-205l-37 -158h-75l34 158h-71zM227 0v205h150v-205l-37 -158h-76l35 158h-72z" />
    <glyph glyph-name="dagger" unicode="&#x2020;" horiz-adv-x="423" 
d="M137 1434h150v-267h102v-137h-102v-1030h-150v1030h-102v137h102v267z" />
    <glyph glyph-name="daggerdbl" unicode="&#x2021;" horiz-adv-x="423" 
d="M35 1030v137h102v267h150v-267h102v-137h-102v-627h102v-137h-102v-266h-150v266h-102v137h102v627h-102z" />
    <glyph glyph-name="bullet" unicode="&#x2022;" horiz-adv-x="274" 
d="M37 743q0 43 29.5 73t72.5 30t73 -30t30 -73t-30 -72.5t-73 -29.5t-72.5 29.5t-29.5 72.5z" />
    <glyph glyph-name="ellipsis" unicode="&#x2026;" horiz-adv-x="686" 
d="M35 0v205h149v-205h-149zM266 0v205h150v-205h-150zM502 0v205h149v-205h-149z" />
    <glyph glyph-name="perthousand" unicode="&#x2030;" horiz-adv-x="1423" 
d="M385 1262v-465q0 -85 -47.5 -135t-126.5 -50t-127.5 50t-48.5 135v465q0 85 48.5 134.5t127.5 49.5t126.5 -49.5t47.5 -134.5zM121 0l612 1434h150l-615 -1434h-147zM244 1260q0 53 -33 53q-35 0 -35 -53v-461q0 -54 35 -54q33 0 33 54v461zM969 637v-465
q0 -85 -47.5 -134.5t-126.5 -49.5q-81 0 -130 49.5t-49 134.5v465q0 85 49 134.5t130 49.5q79 0 126.5 -49.5t47.5 -134.5zM1389 637v-465q0 -85 -48 -134.5t-127 -49.5t-127.5 49.5t-48.5 134.5v465q0 85 48.5 134.5t127.5 49.5t127 -49.5t48 -134.5zM827 635
q0 28 -7.5 40.5t-26.5 12.5q-35 0 -35 -53v-461q0 -53 35 -53q19 0 26.5 12.5t7.5 40.5v461zM1247 635q0 53 -33 53q-19 0 -26.5 -12.5t-7.5 -40.5v-461q0 -28 7.5 -40.5t26.5 -12.5q33 0 33 53v461z" />
    <glyph glyph-name="guilsinglleft" unicode="&#x2039;" horiz-adv-x="251" 
d="M35 588l67 246h117l-69 -246l69 -246h-117z" />
    <glyph glyph-name="guilsinglright" unicode="&#x203a;" horiz-adv-x="251" 
d="M217 588l-67 -246h-117l69 246l-69 246h117z" />
    <glyph glyph-name="fraction" unicode="&#x2044;" horiz-adv-x="462" 
d="M145 0h-110l282 1434h111z" />
    <glyph glyph-name="uni2074" unicode="&#x2074;" horiz-adv-x="339" 
d="M35 725v80l90 629h151v-615h29v-94h-29v-104h-100v104h-141zM127 819h49l14 522h-2z" />
    <glyph glyph-name="Euro" unicode="&#x20ac;" horiz-adv-x="485" 
d="M307 1253q0 56 -35 56q-34 0 -34 -56v-358h178l-21 -115h-157v-65h157l-20 -115h-137v-420q0 -28 7.5 -40.5t26.5 -12.5q35 0 35 53v344h150v-352q0 -85 -50 -134.5t-133 -49.5q-85 0 -135.5 49.5t-50.5 134.5v428h-61v115h61v65h-61v115h61v367q0 85 51 134.5t135 49.5
t133.5 -49t49.5 -135v-289h-150v280z" />
    <glyph glyph-name="trademark" unicode="&#x2122;" horiz-adv-x="532" 
d="M182 1434v-68h-37v-362h-73v362h-37v68h147zM498 1434v-430h-72l2 276l2 86h-4l-4 -86l-21 -276h-104l-27 362h-4l2 -86l2 -276h-71v430h133l14 -250l2 -84h4l2 84l13 250h131z" />
    <glyph glyph-name="minus" unicode="&#x2212;" horiz-adv-x="546" 
d="M512 762v-137h-477v137h477z" />
    <glyph glyph-name="fi" unicode="&#xfb01;" horiz-adv-x="440" 
d="M43 0v1038h-33v129h33v131q0 49 1.5 78.5t8 53.5t15 35t27.5 19t40 9.5t58 1.5h40v-127q-33 0 -40 -9t-7 -44v-148h47v-129h-47v-1038h-143zM270 1208v199h142v-199h-142zM270 0v1167h142v-1167h-142z" />
    <glyph glyph-name="fl" unicode="&#xfb02;" horiz-adv-x="440" 
d="M43 0v1038h-33v129h33v131q0 49 1.5 78.5t8 53.5t15 35t27.5 19t40 9.5t58 1.5h40v-127q-32 0 -39.5 -9.5t-7.5 -45.5v-146h47v-129h-47v-1038h-143zM270 0v1495h142v-1495h-142z" />
    <glyph glyph-name="ethbar" horiz-adv-x="286" 
d="M254 762v-137h-219v137h219z" />
    <glyph glyph-name="crossbar" horiz-adv-x="399" 
d="M309 817l56 -131l-275 -113l-55 132z" />
    <glyph glyph-name="ethbar.case" horiz-adv-x="327" 
d="M295 764v-141h-260v141h260z" />
    <glyph glyph-name="crossbar.case" horiz-adv-x="397" 
d="M307 813l55 -131l-272 -115l-55 131z" />
    <glyph glyph-name="commaccent" horiz-adv-x="208" 
d="M37 -233l12 213h127l-43 -213h-96z" />
    <glyph glyph-name="commaccent2" horiz-adv-x="196" 
d="M37 0v174h127v-174l-25 -111h-55l22 111h-69z" />
    <glyph glyph-name="commaccent3" horiz-adv-x="196" 
d="M160 174v-174h-127v174l24 111h58l-25 -111h70z" />
    <glyph glyph-name="tbarnew" horiz-adv-x="301" 
d="M268 764v-141h-233v141h233z" />
    <glyph glyph-name="ogonek2" horiz-adv-x="247" 
d="M193 -10l2 -15q-22 -6 -36 -21t-14 -34q0 -18 15.5 -28.5t38.5 -10.5q16 0 22 2v-135q-18 -6 -49 -6q-57 0 -94 33.5t-37 81.5q0 52 40.5 89t111.5 44z" />
    <glyph glyph-name="custombarH" horiz-adv-x="505" 
d="M471 762v-137h-438v137h438z" />
    <glyph glyph-name="dotaccent2" horiz-adv-x="204" 
d="M35 1192v178h137v-178h-137z" />
    </font>
</defs>
</svg>
