<?xml version="1.0" standalone="no"?>
<!DOCTYPE svg PUBLIC "-//W3C//DTD SVG 1.1//EN" "http://www.w3.org/Graphics/SVG/1.1/DTD/svg11.dtd" >
<svg xmlns="http://www.w3.org/2000/svg" xmlns:xlink="http://www.w3.org/1999/xlink" version="1.1">
<metadata>
Created by FontForge 20201107 at Fri Oct 18 01:53:55 2024
 By 
(c)rajeshrajput
</metadata>
<defs>
<font id="Humane-Light" horiz-adv-x="352" >
  <font-face 
    font-family="Mango Grotesque Light"
    font-weight="300"
    font-stretch="normal"
    units-per-em="2048"
    panose-1="0 0 0 0 0 0 0 0 0 0"
    ascent="1638"
    descent="-410"
    x-height="1167"
    cap-height="1434"
    bbox="-59 -430 1305 1786"
    underline-thickness="102"
    underline-position="-255"
    unicode-range="U+000D-FB02"
  />
<missing-glyph horiz-adv-x="534" 
d="M27 0v1434h479v-1434h-479zM143 1354l123 -482l123 482h-246zM307 717l119 -459v928zM106 1180v-934l121 471zM268 561l-123 -481h248z" />
    <glyph glyph-name=".notdef" horiz-adv-x="534" 
d="M27 0v1434h479v-1434h-479zM143 1354l123 -482l123 482h-246zM307 717l119 -459v928zM106 1180v-934l121 471zM268 561l-123 -481h248z" />
    <glyph glyph-name="uni0000" horiz-adv-x="0" 
 />
    <glyph glyph-name="uni0000" horiz-adv-x="0" 
 />
    <glyph glyph-name="uni000D" unicode="&#xd;" horiz-adv-x="512" 
 />
    <glyph glyph-name="space" unicode=" " horiz-adv-x="163" 
 />
    <glyph glyph-name="exclam" unicode="!" horiz-adv-x="174" 
d="M35 1434h106v-205l-35 -993h-38l-33 993v205zM35 0v154h104v-154h-104z" />
    <glyph glyph-name="quotedbl" unicode="&#x22;" horiz-adv-x="284" 
d="M256 1434v-121l-8 -152h-78l-8 152v121h94zM121 1434v-121l-8 -152h-78l-8 152v121h94z" />
    <glyph glyph-name="numbersign" unicode="#" horiz-adv-x="479" 
d="M53 0l27 459h-53v88h59l18 340h-57v88h64l24 459h94l-24 -459h104l27 459h94l-27 -459h48v-88h-54l-18 -340h51v-88h-57l-25 -459h-94l25 459h-105l-27 -459h-94zM180 547h105l18 340h-104z" />
    <glyph glyph-name="dollar" unicode="$" horiz-adv-x="358" 
d="M328 444v-303q0 -61 -31.5 -100.5t-85.5 -48.5l14 -195h-94l12 195q-51 9 -80.5 48.5t-29.5 100.5v363h94v-350q0 -78 53 -78t53 78v286q0 58 -15.5 116t-32 92t-48.5 91q-34 62 -51.5 98t-35 102t-17.5 134v219q0 60 29.5 99.5t80.5 50.5l-12 194h94l-14 -192
q54 -9 85.5 -49t31.5 -103v-299h-95v289q0 76 -53 76t-53 -76v-205q0 -59 15.5 -117t32 -92.5t48.5 -91.5q34 -62 51.5 -98t35.5 -101.5t18 -132.5z" />
    <glyph glyph-name="percent" unicode="%" horiz-adv-x="839" 
d="M315 1292v-526q0 -71 -37.5 -112.5t-101.5 -41.5q-65 0 -103 42t-38 112v526q0 70 38 112t103 42q63 0 101 -41.5t38 -112.5zM68 0l614 1434h90l-614 -1434h-90zM227 1286q0 78 -51 78q-53 0 -53 -78v-514q0 -78 53 -78q51 0 51 78v514zM805 668v-527q0 -71 -37.5 -112
t-101.5 -41q-65 0 -103.5 41.5t-38.5 111.5v527q0 70 38.5 111.5t103.5 41.5q64 0 101.5 -41t37.5 -112zM717 662q0 77 -51 77q-54 0 -54 -77v-515q0 -77 54 -77q51 0 51 77v515z" />
    <glyph glyph-name="ampersand" unicode="&#x26;" horiz-adv-x="407" 
d="M236 979h94v-227h41v-88h-41v-668h-94v78h-5q-11 -40 -35 -63t-57 -23q-46 0 -75 42t-29 113v441q0 51 13.5 78.5t47.5 42.5v4q-34 17 -47.5 43t-13.5 77v463q0 70 40.5 112t106.5 42q68 0 108 -42t40 -112v-219h-94v207q0 78 -54 78q-53 0 -53 -78v-457q0 -71 53 -71h54
v227zM236 664h-54q-53 0 -53 -72v-438q0 -78 53 -78q54 0 54 82v506z" />
    <glyph glyph-name="quotesingle" unicode="'" horiz-adv-x="149" 
d="M121 1434v-121l-8 -152h-78l-8 152v121h94z" />
    <glyph glyph-name="parenleft" unicode="(" horiz-adv-x="260" 
d="M164 -399q-137 535 -137 991t137 985l67 -12q-110 -573 -110 -971q0 -209 26.5 -439t83.5 -542z" />
    <glyph glyph-name="parenright" unicode=")" horiz-adv-x="260" 
d="M96 1577q137 -535 137 -991t-137 -985l-69 12q112 567 112 971q0 207 -27 435.5t-85 545.5z" />
    <glyph glyph-name="asterisk" unicode="*" horiz-adv-x="307" 
d="M55 1255l74 86l-33 29l17 14l-15 31l52 21l24 -78h90l-4 -55l-59 8h2l-15 -27l-26 16l-51 -83zM158 1331h4h-4z" />
    <glyph glyph-name="plus" unicode="+" horiz-adv-x="448" 
d="M422 737v-88h-150v-149h-94v149h-149v88h149v150h94v-150h150z" />
    <glyph glyph-name="comma" unicode="," horiz-adv-x="159" 
d="M27 0v154h104v-154l-31 -145h-49l29 145h-53z" />
    <glyph glyph-name="hyphen" unicode="-" horiz-adv-x="239" 
d="M211 737v-88h-184v88h184z" />
    <glyph glyph-name="period" unicode="." horiz-adv-x="159" 
d="M27 0v154h104v-154h-104z" />
    <glyph glyph-name="slash" unicode="/" horiz-adv-x="329" 
d="M121 -164h-94l180 1659h94z" />
    <glyph glyph-name="zero" unicode="0" horiz-adv-x="366" 
d="M330 1292v-1151q0 -70 -40 -111.5t-108 -41.5q-66 0 -106.5 41.5t-40.5 111.5v1151q0 71 40 112.5t107 41.5q68 0 108 -42t40 -112zM236 1282q0 76 -54 76q-53 0 -53 -76v-1128q0 -78 53 -78q54 0 54 78v1128z" />
    <glyph glyph-name="one" unicode="1" horiz-adv-x="288" 
d="M190 1434v-1346h62v-88h-217v88h61v1157h-61v74q47 0 61.5 21.5t14.5 93.5h79z" />
    <glyph glyph-name="two" unicode="2" horiz-adv-x="368" 
d="M37 0v154q0 87 9.5 159.5t30.5 135t35.5 95t43.5 89.5q29 56 42 85.5t26.5 82.5t13.5 108v371q0 78 -52 78q-55 0 -55 -76v-391h-94v401q0 72 39.5 114t105.5 42q68 0 109 -46t41 -124v-375q0 -61 -14 -118.5t-28.5 -90t-43.5 -88.5q-36 -72 -55.5 -116.5t-39.5 -138.5
t-20 -201v-64h201v-86h-295z" />
    <glyph glyph-name="three" unicode="3" horiz-adv-x="366" 
d="M129 1280v-348h-94v360q0 71 40 112.5t107 41.5q66 0 107 -42t41 -112v-401q0 -50 -14.5 -77t-49.5 -42v-4q35 -17 49.5 -44.5t14.5 -78.5v-502q0 -71 -40.5 -113t-107.5 -42q-68 0 -107.5 41.5t-39.5 113.5v381h94v-370q0 -78 53 -78q54 0 54 78v499q0 72 -54 72h-32v88
h32q54 0 54 72v395q0 78 -54 78q-53 0 -53 -78z" />
    <glyph glyph-name="four" unicode="4" horiz-adv-x="399" 
d="M229 0v211h-192v88l141 1135h146v-1135h41v-88h-41v-211h-95zM129 299h100l11 1022h-4z" />
    <glyph glyph-name="five" unicode="5" horiz-adv-x="366" 
d="M129 795v-47h-94v686h282v-88h-188v-449h4q25 64 88 64q49 0 79 -42.5t30 -111.5v-666q0 -70 -41 -111.5t-109 -41.5q-66 0 -105.5 41.5t-39.5 111.5v445h94v-432q0 -78 53 -78q54 0 54 78v641q0 77 -54 77q-53 0 -53 -77z" />
    <glyph glyph-name="six" unicode="6" horiz-adv-x="366" 
d="M129 838h4q25 63 88 63q51 0 80 -41.5t29 -111.5v-607q0 -70 -41 -111.5t-109 -41.5q-66 0 -105.5 41.5t-39.5 111.5v1151q0 70 40.5 112t106.5 42q68 0 108 -42t40 -112v-299h-94v287q0 78 -54 78q-53 0 -53 -78v-442zM129 735v-581q0 -78 53 -78q54 0 54 78v581
q0 78 -54 78q-53 0 -53 -78z" />
    <glyph glyph-name="seven" unicode="7" horiz-adv-x="356" 
d="M322 1434v-88l-152 -1346h-94l149 1341l-4 5h-186v88h287z" />
    <glyph glyph-name="eight" unicode="8" horiz-adv-x="366" 
d="M180 1446q69 0 109.5 -41t40.5 -113v-401q0 -49 -14.5 -76.5t-49.5 -44.5v-4q36 -17 50 -43.5t14 -77.5v-504q0 -70 -40 -111.5t-106 -41.5q-69 0 -109 41t-40 112v504q0 51 14 77.5t49 43.5v4q-35 17 -49 44t-14 77v401q0 72 39.5 113t105.5 41zM129 1280v-395
q0 -39 13 -55.5t40 -16.5q54 0 54 72v395q0 78 -54 78q-53 0 -53 -78zM182 76q54 0 54 78v497q0 74 -54 74q-53 0 -53 -74v-497q0 -78 53 -78z" />
    <glyph glyph-name="nine" unicode="9" horiz-adv-x="366" 
d="M182 1446q68 0 108 -41t40 -113v-1151q0 -70 -40.5 -111.5t-107.5 -41.5q-68 0 -107.5 41.5t-39.5 111.5v361h94v-348q0 -78 53 -78q54 0 54 78v503h-5q-25 -63 -88 -63q-50 0 -79 42t-29 112v544q0 71 40 112.5t107 41.5zM236 758v522q0 78 -54 78q-53 0 -53 -78v-522
q0 -76 53 -76q54 0 54 76z" />
    <glyph glyph-name="colon" unicode=":" horiz-adv-x="184" 
d="M27 819v154h104v-154h-104zM27 0v154h104v-154h-104z" />
    <glyph glyph-name="semicolon" unicode=";" horiz-adv-x="186" 
d="M29 819v154h104v-154h-104zM29 0v154h104v-154l-31 -145h-49l27 145h-51z" />
    <glyph glyph-name="less" unicode="&#x3c;" horiz-adv-x="409" 
d="M381 762l-242 -66v-4l242 -65v-90l-354 114v86l354 115v-90z" />
    <glyph glyph-name="equal" unicode="=" horiz-adv-x="421" 
d="M395 829v-88h-368v88h368zM395 631v-88h-368v88h368z" />
    <glyph glyph-name="greater" unicode="&#x3e;" horiz-adv-x="409" 
d="M29 627l243 65v4l-243 68v88l354 -115v-86l-354 -112v88z" />
    <glyph glyph-name="question" unicode="?" horiz-adv-x="350" 
d="M115 442q0 97 18 184.5t39 144t39 138.5t18 168v203q0 78 -53 78t-53 -78v-389h-94v401q0 72 39.5 113t107.5 41t108 -42t40 -112v-219q0 -96 -18 -183.5t-39.5 -143.5t-39.5 -138t-18 -168v-204h-94v206zM109 0v154h104v-154h-104z" />
    <glyph glyph-name="at" unicode="@" horiz-adv-x="720" 
d="M475 -66l29 -81q-70 -31 -146 -31q-63 0 -121.5 21.5t-106 62t-75.5 105.5t-28 145v866q0 107 49 185t123 114.5t161 36.5q86 0 160 -36.5t123 -114.5t49 -185v-881q0 -72 -37 -112.5t-102 -40.5q-51 0 -86 27.5t-47 78.5h-2q-7 -51 -32.5 -78.5t-63.5 -27.5
q-46 0 -74.5 41.5t-28.5 111.5v871q0 70 28.5 111.5t74.5 41.5q64 0 86 -75h4v55h88v-993q0 -82 53 -82q51 0 51 77v875q0 119 -72 185.5t-172 66.5t-172.5 -68t-72.5 -190v-860q0 -118 71.5 -184t169.5 -66q67 0 119 28zM412 1006q0 77 -52 77q-53 0 -53 -77v-859
q0 -77 53 -77q52 0 52 77v859z" />
    <glyph glyph-name="A" unicode="A" horiz-adv-x="333" 
d="M225 1434l103 -1434h-99l-22 389h-90l-23 -389h-88l90 1434h129zM121 477h82l-25 443l-14 378h-4l-15 -378z" />
    <glyph glyph-name="B" unicode="B" horiz-adv-x="358" 
d="M330 1280v-389q0 -50 -14 -77t-48 -44v-4q34 -15 48 -43t14 -78v-491q0 -76 -37.5 -115t-108.5 -39h-149v1434h149q71 0 108.5 -39t37.5 -115zM236 1272q0 40 -13.5 57t-40.5 17h-53v-533h53q54 0 54 72v387zM236 651q0 72 -54 72h-53v-635h53q54 0 54 72v491z" />
    <glyph glyph-name="C" unicode="C" horiz-adv-x="366" 
d="M236 1280q0 78 -54 78q-53 0 -53 -78v-1126q0 -78 53 -78q54 0 54 78v452h94v-465q0 -70 -40 -111.5t-108 -41.5q-66 0 -106.5 41.5t-40.5 111.5v1151q0 71 40 112.5t107 41.5q68 0 108 -41t40 -113v-401h-94v389z" />
    <glyph glyph-name="D" unicode="D" horiz-adv-x="366" 
d="M330 1280v-1126q0 -154 -146 -154h-149v1434h149q146 0 146 -154zM236 1272q0 74 -54 74h-53v-1258h53q54 0 54 72v1112z" />
    <glyph glyph-name="E" unicode="E" horiz-adv-x="245" 
d="M221 1434v-88h-90v-566h80v-88h-80v-604h100v-88h-194v1434h184z" />
    <glyph glyph-name="F" unicode="F" horiz-adv-x="235" 
d="M217 1434v-88h-88v-584h78v-88h-78v-674h-94v1434h182z" />
    <glyph glyph-name="G" unicode="G" horiz-adv-x="366" 
d="M184 756h146v-756h-94v74h-5q-22 -86 -92 -86q-46 0 -75 41.5t-29 111.5v1151q0 70 40.5 112t106.5 42q68 0 108 -41t40 -113v-401h-94v389q0 78 -54 78q-53 0 -53 -78v-1126q0 -78 53 -78q54 0 54 82v510h-52v88z" />
    <glyph glyph-name="H" unicode="H" horiz-adv-x="364" 
d="M330 1434v-1434h-94v672h-107v-672h-94v1434h94v-674h107v674h94z" />
    <glyph glyph-name="I" unicode="I" horiz-adv-x="165" 
d="M129 1434v-1434h-94v1434h94z" />
    <glyph glyph-name="J" unicode="J" horiz-adv-x="366" 
d="M330 1434v-1293q0 -70 -40 -111.5t-108 -41.5q-66 0 -106.5 41.5t-40.5 111.5v465h94v-452q0 -78 53 -78q54 0 54 78v1280h94z" />
    <glyph glyph-name="K" unicode="K" horiz-adv-x="348" 
d="M340 1434l-125 -662v-4l125 -768h-92l-115 702h-4v-702h-94v1434h94v-623h4l113 623h94z" />
    <glyph glyph-name="L" unicode="L" horiz-adv-x="241" 
d="M35 1434h94v-1346h94v-88h-188v1434z" />
    <glyph glyph-name="M" unicode="M" horiz-adv-x="544" 
d="M508 1434v-1434h-88v1024l2 256h-4l-12 -256l-74 -1024h-117l-76 1024l-14 256h-4l2 -256v-1024h-88v1434h158l65 -879l12 -350h4l15 350l65 879h154z" />
    <glyph glyph-name="N" unicode="N" horiz-adv-x="432" 
d="M397 1434v-1434h-135l-149 1257h-4l12 -428l4 -829h-90v1434h135l149 -1260h5l-13 416l-4 844h90z" />
    <glyph glyph-name="O" unicode="O" horiz-adv-x="366" 
d="M330 1292v-1151q0 -70 -40 -111.5t-108 -41.5q-66 0 -106.5 41.5t-40.5 111.5v1151q0 71 40 112.5t107 41.5q68 0 108 -42t40 -112zM236 1282q0 76 -54 76q-53 0 -53 -76v-1128q0 -78 53 -78q54 0 54 78v1128z" />
    <glyph glyph-name="P" unicode="P" horiz-adv-x="366" 
d="M330 1280v-483q0 -154 -146 -154h-55v-643h-94v1434h149q146 0 146 -154zM236 1272q0 74 -54 74h-53v-615h53q54 0 54 72v469z" />
    <glyph glyph-name="Q" unicode="Q" horiz-adv-x="366" 
d="M330 1292v-1151q0 -61 -29 -100.5t-80 -50.5v-31q0 -19 5 -27t20 -8h51v-69h-74q-80 0 -80 94v43q-51 11 -79.5 50t-28.5 99v1151q0 70 40.5 112t108.5 42q66 0 106 -42t40 -112zM236 1280q0 78 -54 78q-53 0 -53 -78v-1128q0 -76 53 -76q54 0 54 76v1128z" />
    <glyph glyph-name="R" unicode="R" horiz-adv-x="366" 
d="M236 610q0 72 -54 72h-53v-682h-94v1434h147q148 0 148 -154v-430q0 -51 -14 -78.5t-48 -42.5v-4q34 -17 48 -44t14 -77v-434q0 -107 18 -166v-4h-94q-18 76 -18 172v438zM236 1272q0 74 -54 74h-53v-576h53q54 0 54 74v428z" />
    <glyph glyph-name="S" unicode="S" horiz-adv-x="358" 
d="M328 444v-303q0 -70 -41 -111.5t-109 -41.5q-66 0 -105.5 41.5t-39.5 111.5v363h94v-350q0 -78 53 -78t53 78v286q0 58 -15.5 116t-32 92t-48.5 91q-34 62 -51.5 98t-35 102t-17.5 134v219q0 70 40.5 112t106.5 42q68 0 108 -42t40 -112v-299h-95v289q0 76 -53 76
t-53 -76v-205q0 -59 15.5 -117t32 -92.5t48.5 -91.5q34 -62 51.5 -98t35.5 -101.5t18 -132.5z" />
    <glyph glyph-name="T" unicode="T" horiz-adv-x="321" 
d="M305 1434v-88h-96v-1346h-94v1346h-99v88h289z" />
    <glyph glyph-name="U" unicode="U" horiz-adv-x="366" 
d="M330 1434v-1293q0 -70 -40 -111.5t-106 -41.5q-68 0 -108.5 41.5t-40.5 111.5v1293h94v-1280q0 -78 53 -78q54 0 54 78v1280h94z" />
    <glyph glyph-name="V" unicode="V" horiz-adv-x="333" 
d="M328 1434l-92 -1434h-130l-100 1434h98l52 -920l14 -379h4l12 379l54 920h88z" />
    <glyph glyph-name="W" unicode="W" horiz-adv-x="559" 
d="M553 1434l-88 -1434h-131l-45 1022l-8 248h-5l-6 -248l-45 -1022h-131l-88 1434h98l39 -920l13 -379h6l12 379l41 920h129l41 -920l12 -379h4l15 379l39 920h98z" />
    <glyph glyph-name="X" unicode="X" horiz-adv-x="346" 
d="M330 1432l-88 -697v-4l98 -731h-98l-45 412l-21 225h-4l-20 -225l-50 -412h-96l96 731v4l-86 697h99l37 -367l18 -236h4l21 236l38 367h97z" />
    <glyph glyph-name="Y" unicode="Y" horiz-adv-x="329" 
d="M322 1434l-111 -912v-522h-94v522l-113 912h98l48 -498l12 -203h4l12 203l47 498h97z" />
    <glyph glyph-name="Z" unicode="Z" horiz-adv-x="309" 
d="M287 1434v-88l-174 -1258h178v-88h-275v88l174 1258h-159v88h256z" />
    <glyph glyph-name="bracketleft" unicode="[" horiz-adv-x="237" 
d="M205 -399h-170v1955h170v-88h-76v-1779h76v-88z" />
    <glyph glyph-name="backslash" unicode="\" horiz-adv-x="329" 
d="M121 1495l180 -1659h-94l-180 1659h94z" />
    <glyph glyph-name="bracketright" unicode="]" horiz-adv-x="237" 
d="M33 1556h170v-1955h-170v88h76v1779h-76v88z" />
    <glyph glyph-name="asciicircum" unicode="^" horiz-adv-x="354" 
d="M240 1092l-60 217h-4l-59 -217h-90l108 342h86l107 -342h-88z" />
    <glyph glyph-name="underscore" unicode="_" horiz-adv-x="444" 
d="M416 0v-88h-389v88h389z" />
    <glyph glyph-name="grave" unicode="`" horiz-adv-x="180" 
d="M80 1178l-53 231h96l31 -231h-74z" />
    <glyph glyph-name="a" unicode="a" 
d="M125 1020v-270h-90v276q0 70 38 112t101 42q65 0 103 -42t38 -112v-1026h-88v61h-4q-23 -73 -86 -73q-46 0 -74 41.5t-28 111.5v310q0 99 33.5 141t158.5 94v334q0 78 -51 78t-51 -78zM227 602q-71 -34 -86.5 -60t-15.5 -98v-297q0 -77 51 -77t51 77v455z" />
    <glyph glyph-name="b" unicode="b" 
d="M35 0v1495h88v-389h4q22 74 88 74q46 0 73 -41t27 -113v-885q0 -70 -27 -111.5t-73 -41.5q-66 0 -88 73h-4v-61h-88zM227 1020q0 78 -51 78q-53 0 -53 -78v-873q0 -77 53 -77q51 0 51 77v873z" />
    <glyph glyph-name="c" unicode="c" 
d="M227 1020q0 78 -53 78q-51 0 -51 -78v-873q0 -77 51 -77q53 0 53 77v351h88v-357q0 -70 -38 -111.5t-101 -41.5q-65 0 -103 41.5t-38 111.5v885q0 70 38 112t101 42q65 0 103 -42t38 -112v-303h-88v297z" />
    <glyph glyph-name="d" unicode="d" 
d="M315 0h-88v61h-4q-22 -73 -88 -73q-45 0 -72.5 41.5t-27.5 111.5v885q0 70 28 112t74 42q64 0 86 -74h4v389h88v-1495zM123 1020v-873q0 -77 53 -77q51 0 51 77v873q0 76 -51 76q-53 0 -53 -76z" />
    <glyph glyph-name="e" unicode="e" 
d="M227 463h88v-322q0 -70 -38 -111.5t-101 -41.5q-65 0 -103 41.5t-38 111.5v885q0 70 38 112t103 42q63 0 101 -42t38 -112v-442h-192v-437q0 -77 51 -77q53 0 53 77v316zM227 1020q0 76 -53 76q-51 0 -51 -76v-354h104v354z" />
    <glyph glyph-name="f" unicode="f" horiz-adv-x="194" 
d="M45 0v1085h-29v82h29v189q0 51 3 76.5t16 41t31 18.5t55 3h32v-80q-35 0 -42 -8t-7 -41v-199h49v-82h-49v-1085h-88z" />
    <glyph glyph-name="g" unicode="g" 
d="M315 1169v-1355q0 -70 -39 -112t-102 -42q-64 0 -101.5 41.5t-37.5 112.5v131h88v-125q0 -78 51 -78q53 0 53 78v241l-4 2q-22 -75 -88 -75q-46 0 -73 41.5t-27 113.5v883q0 72 27 113t73 41q31 0 54.5 -19.5t33.5 -54.5h4v63h88zM123 150q0 -78 51 -78q53 0 53 78v872
q0 76 -53 76q-51 0 -51 -76v-872z" />
    <glyph glyph-name="h" unicode="h" 
d="M227 1020q0 78 -51 78q-53 0 -53 -78v-1020h-88v1495h88v-389h4q10 35 33.5 54.5t54.5 19.5q46 0 73 -41t27 -113v-1026h-88v1020z" />
    <glyph glyph-name="i" unicode="i" horiz-adv-x="163" 
d="M37 1208v170h88v-170h-88zM37 0v1167h88v-1167h-88z" />
    <glyph glyph-name="j" unicode="j" horiz-adv-x="161" 
d="M125 1378v-170h-88v170h88zM125 1167v-1376q0 -81 -21.5 -103t-83.5 -22h-32v80q35 0 42 8t7 39v1374h88z" />
    <glyph glyph-name="k" unicode="k" horiz-adv-x="344" 
d="M332 1169l-127 -540v-4l131 -625h-88l-121 571h-4v-571h-88v1497h88v-835h4l115 507h90z" />
    <glyph glyph-name="l" unicode="l" horiz-adv-x="163" 
d="M37 0v1495h88v-1495h-88z" />
    <glyph glyph-name="m" unicode="m" horiz-adv-x="544" 
d="M227 1020q0 78 -51 78q-53 0 -53 -78v-1020h-88v1167h88v-61h4q22 74 88 74q37 0 62.5 -29t31.5 -80h4q4 51 29.5 80t65.5 29q46 0 73 -41t27 -113v-1026h-88v1020q0 78 -51 78q-54 0 -54 -78v-1020h-88v1020z" />
    <glyph glyph-name="n" unicode="n" 
d="M227 1020q0 78 -53 78q-51 0 -51 -78v-1020h-88v1167h88v-61h4q22 74 86 74q46 0 74 -42t28 -112v-1026h-88v1020z" />
    <glyph glyph-name="o" unicode="o" 
d="M315 1026v-885q0 -70 -38 -111.5t-101 -41.5q-65 0 -103 41.5t-38 111.5v885q0 70 38 112t103 42q63 0 101 -42t38 -112zM227 1020q0 78 -53 78q-51 0 -51 -78v-873q0 -77 51 -77q53 0 53 77v873z" />
    <glyph glyph-name="p" unicode="p" 
d="M35 1167h88v-61h4q22 74 88 74q46 0 73 -42t27 -112v-885q0 -70 -27 -111.5t-73 -41.5q-66 0 -88 73h-4v-389h-88v1495zM227 147v873q0 78 -51 78q-53 0 -53 -78v-873q0 -77 53 -77q51 0 51 77z" />
    <glyph glyph-name="q" unicode="q" 
d="M315 1167v-1495h-88v389h-4q-22 -73 -88 -73q-46 0 -73 41.5t-27 111.5v885q0 70 27 112t73 42q66 0 88 -74h4v61h88zM123 147q0 -77 53 -77q51 0 51 77v873q0 78 -51 78q-53 0 -53 -78v-873z" />
    <glyph glyph-name="r" unicode="r" horiz-adv-x="350" 
d="M227 1020q0 78 -53 78q-51 0 -51 -78v-1020h-88v1167h88v-61h4q22 74 86 74q46 0 74 -42t28 -112v-338h-88v332z" />
    <glyph glyph-name="s" unicode="s" horiz-adv-x="344" 
d="M311 385v-244q0 -70 -39 -111.5t-102 -41.5q-64 0 -101.5 41t-37.5 112v271h88v-265q0 -77 51 -77q53 0 53 77v238q0 38 -15 78t-29.5 63t-45.5 66q-33 46 -50.5 74t-34.5 76t-17 98v186q0 70 38 112t103 42q63 0 101 -42t38 -112v-215h-88v209q0 76 -53 76
q-51 0 -51 -76v-178q0 -55 23 -101t67 -106q33 -47 50 -75t34.5 -77.5t17.5 -97.5z" />
    <glyph glyph-name="t" unicode="t" horiz-adv-x="200" 
d="M45 1393h88v-226h57v-82h-57v-956q0 -31 9 -40t48 -9v-80h-40q-61 0 -83 21t-22 92v972h-29v82h29v226z" />
    <glyph glyph-name="u" unicode="u" 
d="M123 147q0 -77 53 -77q51 0 51 77v1020h88v-1167h-88v61h-4q-22 -73 -86 -73q-46 0 -74 41.5t-28 111.5v1026h88v-1020z" />
    <glyph glyph-name="v" unicode="v" horiz-adv-x="327" 
d="M109 0l-99 1167h94l50 -747l12 -309h4l14 309l49 747h84l-90 -1167h-118z" />
    <glyph glyph-name="w" unicode="w" horiz-adv-x="534" 
d="M430 1167h92l-86 -1167h-121l-36 782l-9 256h-4l-10 -256l-37 -782h-121l-88 1167h94l39 -747l13 -309h4l12 309l41 747h109l38 -747l13 -309h4l12 309z" />
    <glyph glyph-name="x" unicode="x" horiz-adv-x="331" 
d="M315 1167l-86 -569v-4l97 -594h-93l-43 334l-20 184h-4l-21 -184l-47 -334h-92l96 596v4l-84 567h93l34 -299l19 -192h4l18 192l37 299h92z" />
    <glyph glyph-name="y" unicode="y" horiz-adv-x="327" 
d="M104 1167l50 -647l12 -293h4l14 293l49 647h84l-137 -1495h-82l29 328l-117 1167h94z" />
    <glyph glyph-name="z" unicode="z" horiz-adv-x="301" 
d="M279 1167v-82l-173 -1003h177v-82h-267v82l172 1003h-161v82h252z" />
    <glyph glyph-name="braceleft" unicode="{" horiz-adv-x="407" 
d="M272 1352v-549q0 -118 -27 -169t-91 -52v-4q64 -1 91 -53.5t27 -170.5v-549q0 -67 15 -91.5t49 -24.5h39v-88h-49q-69 0 -108.5 45t-39.5 159v588q0 76 -28 109t-115 33v88q87 0 115 33t28 108v586q0 113 43 159.5t105 46.5h49v-88h-39q-25 0 -36.5 -6t-19.5 -31.5
t-8 -78.5z" />
    <glyph glyph-name="bar" unicode="|" horiz-adv-x="149" 
d="M121 -379h-94v1915h94v-1915z" />
    <glyph glyph-name="braceright" unicode="}" horiz-adv-x="407" 
d="M137 -195v547q0 119 27.5 170.5t91.5 52.5v5q-64 1 -91.5 52.5t-27.5 168.5v551q0 68 -14.5 92t-48.5 24h-39v88h51q68 0 106.5 -45t38.5 -159v-590q0 -75 28.5 -108t115.5 -33v-89q-87 0 -115.5 -33t-28.5 -108v-584q0 -113 -42.5 -159.5t-102.5 -46.5h-51v88h39
q25 0 36.5 6t19 31.5t7.5 78.5z" />
    <glyph glyph-name="asciitilde" unicode="~" horiz-adv-x="393" 
d="M365 823v-26q0 -166 -78 -166q-30 0 -61.5 22.5t-58.5 45t-46 22.5q-33 0 -33 -66v-22h-61v16q0 172 86 172q28 0 60 -21.5t59.5 -43t43.5 -21.5q29 0 29 62v26h60z" />
    <glyph glyph-name="exclamdown" unicode="&#xa1;" horiz-adv-x="174" 
d="M35 649h104v-31h-104v31zM33 489v23l35 96h38l35 -96v-23h-108z" />
    <glyph glyph-name="cent" unicode="&#xa2;" 
d="M227 1020q0 78 -53 78q-51 0 -51 -78v-873q0 -77 51 -77q53 0 53 77v351h88v-357q0 -61 -28.5 -100.5t-79.5 -50.5l14 -193h-94l12 195q-48 11 -76 50.5t-28 98.5v885q0 59 28 99t76 51l-12 194h94l-14 -194q51 -9 79.5 -48.5t28.5 -101.5v-303h-88v297z" />
    <glyph glyph-name="sterling" unicode="&#xa3;" horiz-adv-x="446" 
d="M297 1280q0 78 -53 78q-54 0 -54 -78v-668h181v-88h-181v-239q0 -83 -9 -125t-29 -72h260v-88h-377v86q37 37 49 78.5t12 128.5v231h-61v88h61v680q0 70 41 112t107 42q67 0 107 -41.5t40 -112.5v-401h-94v389z" />
    <glyph glyph-name="currency" unicode="&#xa4;" horiz-adv-x="534" 
d="M27 0v1434h479v-1434h-479zM143 1354l123 -482l123 482h-246zM307 717l119 -459v928zM106 1180v-934l121 471zM268 561l-123 -481h248z" />
    <glyph glyph-name="yen" unicode="&#xa5;" horiz-adv-x="329" 
d="M324 1434l-111 -889h94v-88h-96v-70h96v-88h-96v-299h-94v299h-94v88h94v70h-94v88h92l-111 889h98l48 -498l12 -203h4l12 203l47 498h99z" />
    <glyph glyph-name="brokenbar" unicode="&#xa6;" horiz-adv-x="149" 
d="M121 702h-94v834h94v-834zM121 -379h-94v836h94v-836z" />
    <glyph glyph-name="section" unicode="&#xa7;" horiz-adv-x="335" 
d="M307 651v-252q0 -50 -22 -92q22 -55 22 -117v-243q0 -70 -38 -112t-103 -42q-64 0 -101.5 41.5t-37.5 112.5v270h88v-264q0 -78 53 -78q51 0 51 78v237q0 38 -15 78t-29.5 63t-45.5 66q-27 38 -38 55.5t-30 52.5t-26.5 68.5t-7.5 71.5v195q0 70 39 112q-39 76 -39 154
v186q0 70 38 112t103 42q63 0 101 -42t38 -112v-215h-88v209q0 76 -51 76q-53 0 -53 -76v-178q0 -38 15 -78t29.5 -63t45.5 -66q32 -44 50.5 -74.5t35 -78.5t16.5 -97zM219 420v231q0 38 -15 78t-29.5 63t-45.5 66q-2 2 -10 14q-4 -20 -4 -38v-187q0 -38 15 -78t29.5 -63
t45.5 -66q2 -5 7.5 -12t6.5 -8z" />
    <glyph glyph-name="dieresis" unicode="&#xa8;" horiz-adv-x="233" 
d="M27 1192v147h75v-147h-75zM129 1192v147h74v-147h-74z" />
    <glyph glyph-name="copyright" unicode="&#xa9;" horiz-adv-x="743" 
d="M27 338v758q0 84 29.5 152t79 110t110.5 64t127 22t126.5 -22t109.5 -64t78.5 -110t29.5 -152v-758q0 -84 -29.5 -152.5t-78.5 -110.5t-109.5 -64.5t-126.5 -22.5t-127 22.5t-110.5 64.5t-79 110.5t-29.5 152.5zM121 1096v-758q0 -125 75 -194.5t177 -69.5t176 69.5
t74 194.5v758q0 124 -74 193t-176 69t-177 -69.5t-75 -192.5zM426 1083q0 78 -53 78q-54 0 -54 -78v-733q0 -78 54 -78q53 0 53 78v264h94v-276q0 -70 -39.5 -112t-105.5 -42q-68 0 -109 42t-41 112v758q0 70 40.5 111.5t107.5 41.5q68 0 107.5 -41.5t39.5 -111.5v-238h-94
v225z" />
    <glyph glyph-name="ordfeminine" unicode="&#xaa;" horiz-adv-x="260" 
d="M92 1331v-184h-65v190q0 50 28 79.5t74 29.5t74 -29.5t28 -79.5v-719h-65v41h-4q-15 -51 -62 -51q-34 0 -53.5 29t-19.5 80v235q0 70 24 99.5t115 64.5v215q0 53 -37 53t-37 -53zM166 1055q-51 -24 -62.5 -42t-11.5 -69v-223q0 -53 37 -53t37 53v334z" />
    <glyph glyph-name="guillemotleft" unicode="&#xab;" horiz-adv-x="346" 
d="M27 588l61 246h82l-61 -246l61 -246h-82zM176 588l62 246h81l-61 -246l61 -246h-81z" />
    <glyph glyph-name="logicalnot" unicode="&#xac;" horiz-adv-x="534" 
d="M27 0v1434h479v-1434h-479zM143 1354l123 -482l123 482h-246zM307 717l119 -459v928zM106 1180v-934l121 471zM268 561l-123 -481h248z" />
    <glyph glyph-name="registered" unicode="&#xae;" horiz-adv-x="743" 
d="M27 336v760q0 84 29.5 152t78.5 110t109.5 64t126.5 22q67 0 128 -22t110 -64t78.5 -110t29.5 -152v-760q0 -84 -29.5 -151.5t-78.5 -109.5t-110 -64.5t-128 -22.5q-66 0 -126.5 22.5t-109.5 64.5t-78.5 109.5t-29.5 151.5zM121 1096v-760q0 -123 74.5 -192.5
t175.5 -69.5q103 0 177.5 69.5t74.5 192.5v760q0 123 -74.5 192.5t-177.5 69.5q-101 0 -175.5 -69.5t-74.5 -192.5zM424 610q0 72 -53 72h-54v-485h-94v1038h150q145 0 145 -154v-233q0 -51 -13.5 -77.5t-47.5 -43.5v-4q34 -15 47.5 -42.5t13.5 -78.5v-235q0 -104 19 -166
v-4h-95q-18 76 -18 172v241zM424 1073q0 40 -12 57t-39 17h-56v-377h56q27 0 39 16.5t12 55.5v231z" />
    <glyph glyph-name="macron" unicode="&#xaf;" horiz-adv-x="260" 
d="M231 1294v-94h-204v94h204z" />
    <glyph glyph-name="degree" unicode="&#xb0;" horiz-adv-x="276" 
d="M27 1335q0 46 32.5 78.5t79.5 32.5q45 0 78 -33t33 -78q0 -44 -33.5 -77t-77.5 -33q-47 0 -79.5 32.5t-32.5 77.5zM76 1335q0 -25 18 -43t45 -18q25 0 43.5 18t18.5 43q0 26 -18.5 44t-43.5 18q-27 0 -45 -17.5t-18 -44.5z" />
    <glyph glyph-name="plusminus" unicode="&#xb1;" horiz-adv-x="448" 
d="M422 813v-88h-150v-150h-94v150h-149v88h149v150h94v-150h150zM422 500v-88h-393v88h393z" />
    <glyph glyph-name="twosuperior" unicode="&#xb2;" horiz-adv-x="256" 
d="M29 623v92q0 65 13 120t27.5 84.5t39.5 69.5q19 34 27 48.5t17 44t9 57.5v198q0 47 -35 47q-33 0 -33 -45v-206h-65v219q0 45 26 69.5t70 24.5q47 0 74.5 -26.5t27.5 -73.5v-201q0 -78 -53 -162q-26 -44 -39.5 -71.5t-27 -81t-13.5 -113.5v-33h133v-61h-198z" />
    <glyph glyph-name="threesuperior" unicode="&#xb3;" horiz-adv-x="256" 
d="M94 1346v-195h-67v188q0 49 27.5 78t72.5 29q46 0 73 -29t27 -78v-217q0 -28 -9.5 -43t-33.5 -24v-2q24 -9 33.5 -24.5t9.5 -43.5v-276q0 -49 -27 -78t-73 -29q-45 0 -72.5 29t-27.5 78v206h67v-213q0 -45 33 -45t33 45v281q0 24 -7 33.5t-26 9.5h-23v55h23q33 0 33 41
v224q0 45 -33 45t-33 -45z" />
    <glyph glyph-name="acute" unicode="&#xb4;" horiz-adv-x="180" 
d="M100 1178h-73l30 233h97z" />
    <glyph glyph-name="paragraph" unicode="&#xb6;" horiz-adv-x="468" 
d="M440 -123h-94v1557h94v-1557zM264 -123h-94v805q-76 0 -109.5 82.5t-33.5 282.5q0 144 17 231t47.5 121.5t78.5 34.5h94v-1557z" />
    <glyph glyph-name="periodcentered" unicode="&#xb7;" horiz-adv-x="159" 
d="M27 598v154h104v-154h-104z" />
    <glyph glyph-name="cedilla" unicode="&#xb8;" horiz-adv-x="286" 
d="M86 4h59l-10 -45q55 0 90 -28t35 -72q0 -51 -46 -84t-118 -33q-21 0 -67 8v78q24 -4 47 -4q90 0 90 45q0 41 -100 41z" />
    <glyph glyph-name="onesuperior" unicode="&#xb9;" horiz-adv-x="215" 
d="M141 1434v-754h45v-57h-159v57h47v639h-47v49q39 0 48 12.5t9 53.5h57z" />
    <glyph glyph-name="ordmasculine" unicode="&#xba;" horiz-adv-x="260" 
d="M231 1337v-632q0 -51 -27.5 -80t-74.5 -29q-46 0 -74 29.5t-28 79.5v632q0 51 28 80t76 29q46 0 73 -29t27 -80zM166 1329q0 55 -37 55t-37 -55v-616q0 -56 37 -56t37 56v616z" />
    <glyph glyph-name="guillemotright" unicode="&#xbb;" horiz-adv-x="346" 
d="M319 588l-61 -246h-82l62 246l-62 246h82zM170 588l-61 -246h-82l61 246l-61 246h82z" />
    <glyph glyph-name="onequarter" unicode="&#xbc;" horiz-adv-x="618" 
d="M141 1434v-754h45v-57h-159v57h47v639h-47v49q39 0 48 12.5t9 53.5h57zM203 0h-68l283 1434h67zM373 109v51l88 653h102v-643h27v-61h-27v-109h-63v109h-127zM436 170h64l6 580h-2z" />
    <glyph glyph-name="onehalf" unicode="&#xbd;" horiz-adv-x="649" 
d="M203 0h-68l283 1434h67zM141 1434v-754h45v-57h-159v57h47v637h-47v49q39 0 48 12.5t9 55.5h57zM420 -2v92q0 64 14 119.5t27.5 83.5t38.5 69q19 31 28 48t18 45t9 57v199q0 47 -35 47q-33 0 -33 -43v-209h-67v219q0 45 27 70.5t71 25.5q46 0 73 -26.5t27 -75.5v-201
q0 -74 -51 -162q-26 -41 -40 -70.5t-27 -81.5t-13 -112v-31h134v-63h-201z" />
    <glyph glyph-name="threequarters" unicode="&#xbe;" horiz-adv-x="612" 
d="M94 1346v-195h-67v188q0 49 27.5 78t72.5 29q46 0 73 -29t27 -78v-217q0 -28 -9.5 -43t-33.5 -24v-2q24 -9 33.5 -24.5t9.5 -43.5v-276q0 -49 -27 -78t-73 -29q-45 0 -72.5 29t-27.5 78v206h67v-213q0 -45 33 -45t33 45v281q0 24 -7 33.5t-26 9.5h-23v55h23q33 0 33 41
v224q0 45 -33 45t-33 -45zM225 0h-67l282 1434h68zM369 82v51l90 655h102v-643h25v-63h-25v-107h-67v107h-125zM432 145h62l8 580h-4z" />
    <glyph glyph-name="questiondown" unicode="&#xbf;" horiz-adv-x="350" 
d="M184 649v-31h-18v31h18zM186 600q0 -15 -7 -32.5t-7 -18.5h23v-39q0 -23 -23 -23q-10 0 -17.5 7t-7.5 16v27q0 18 8.5 35.5t8.5 27.5v8h22v-8zM172 547q-2 -4 -2 -10v-25q0 -2 2 -2v2v35z" />
    <glyph glyph-name="Agrave" unicode="&#xc0;" horiz-adv-x="333" 
d="M125 1493l-53 231h96l31 -231h-74zM225 1434l103 -1434h-99l-22 389h-90l-23 -389h-88l90 1434h129zM121 477h82l-25 443l-14 378h-4l-15 -378z" />
    <glyph glyph-name="Aacute" unicode="&#xc1;" horiz-adv-x="333" 
d="M199 1491h-74l31 233h96zM225 1434l103 -1434h-99l-22 389h-90l-23 -389h-88l90 1434h129zM121 477h82l-25 441l-14 378h-4l-15 -376z" />
    <glyph glyph-name="Acircumflex" unicode="&#xc2;" horiz-adv-x="333" 
d="M133 1491h-67l47 233h100l47 -233h-67l-29 151h-4zM225 1434l103 -1434h-99l-22 389h-90l-23 -389h-88l90 1434h129zM121 477h82l-25 441l-14 378h-4l-15 -376z" />
    <glyph glyph-name="Atilde" unicode="&#xc3;" horiz-adv-x="333" 
d="M289 1692v-27q0 -79 -16 -114t-50 -35q-24 0 -44.5 20t-37 39.5t-32.5 19.5q-23 0 -23 -59v-20h-47v22q0 83 14.5 118.5t46.5 35.5q24 0 46 -20.5t40 -41t33 -20.5q25 0 25 53v29h45zM227 1434l101 -1434h-99l-22 389h-90l-23 -389h-88l90 1434h131zM121 477h82l-25 441
l-14 378h-4l-15 -376z" />
    <glyph glyph-name="Adieresis" unicode="&#xc4;" horiz-adv-x="333" 
d="M74 1507v148h73v-148h-73zM178 1507v148h74v-148h-74zM227 1434l101 -1434h-99l-22 389h-90l-23 -389h-88l90 1434h131zM121 477h82l-25 443l-14 378h-4l-15 -378z" />
    <glyph glyph-name="Aring" unicode="&#xc5;" horiz-adv-x="333" 
d="M43 1610q0 116 119 116q57 0 88 -30t31 -88q0 -56 -30.5 -86.5t-88.5 -30.5t-88.5 31t-30.5 88zM109 1610q0 -54 53 -54t53 52q0 53 -53 53t-53 -51zM225 1434l103 -1434h-99l-22 389h-92l-21 -389h-88l90 1434h129zM121 477h80l-25 443l-12 378h-4l-15 -378z" />
    <glyph glyph-name="AE" unicode="&#xc6;" horiz-adv-x="440" 
d="M401 1434v-88h-77v-566h88v-88h-88v-604h98v-88h-193v389h-94l-41 -389h-88l156 1434h239zM145 477h84v821h-4l-32 -378z" />
    <glyph glyph-name="Ccedilla" unicode="&#xc7;" horiz-adv-x="366" 
d="M236 1282q0 76 -54 76q-53 0 -53 -76v-1128q0 -76 53 -76q54 0 54 76v454h96v-465q0 -64 -32.5 -104t-88.5 -49l-8 -31q57 0 93 -28t36 -72q0 -51 -47 -84t-119 -33q-22 0 -68 8v78q24 -4 47 -4q40 0 65.5 11.5t25.5 33.5q0 41 -101 41l19 82q-56 8 -87.5 48t-31.5 103
v1151q0 70 40.5 112t106.5 42q68 0 109 -42t41 -112v-401h-96v389z" />
    <glyph glyph-name="Egrave" unicode="&#xc8;" horiz-adv-x="245" 
d="M84 1493l-53 233h96l31 -233h-74zM221 1434v-88h-90v-566h80v-88h-80v-604h100v-88h-194v1434h184z" />
    <glyph glyph-name="Eacute" unicode="&#xc9;" horiz-adv-x="245" 
d="M162 1493h-74l31 231h96zM221 1434v-88h-90v-566h80v-88h-80v-604h100v-88h-194v1434h184z" />
    <glyph glyph-name="Ecircumflex" unicode="&#xca;" horiz-adv-x="245" 
d="M90 1493h-65l47 231h102l47 -231h-67l-29 149h-4zM221 1434v-88h-90v-566h80v-88h-80v-604h100v-88h-194v1434h184z" />
    <glyph glyph-name="Edieresis" unicode="&#xcb;" horiz-adv-x="245" 
d="M35 1507v148h74v-148h-74zM135 1507v148h76v-148h-76zM221 1434v-88h-90v-566h80v-88h-80v-604h100v-88h-194v1434h184z" />
    <glyph glyph-name="Igrave" unicode="&#xcc;" horiz-adv-x="165" 
d="M47 1493l-53 231h94l31 -231h-72zM129 1434v-1434h-94v1434h94z" />
    <glyph glyph-name="Iacute" unicode="&#xcd;" horiz-adv-x="165" 
d="M117 1491h-72l31 233h94zM129 1434v-1434h-94v1434h94z" />
    <glyph glyph-name="Icircumflex" unicode="&#xce;" horiz-adv-x="165" 
d="M51 1491h-67l47 233h100l47 -233h-65l-29 151h-4zM129 1434v-1434h-94v1434h94z" />
    <glyph glyph-name="Idieresis" unicode="&#xcf;" horiz-adv-x="165" 
d="M-6 1507v148h74v-148h-74zM96 1507v148h76v-148h-76zM129 1434v-1434h-94v1434h94z" />
    <glyph glyph-name="Eth" unicode="&#xd0;" horiz-adv-x="366" 
d="M330 1280v-1126q0 -154 -146 -154h-149v674h-41v88h41v672h149q146 0 146 -154zM236 1274q0 72 -54 72h-53v-584h41v-88h-41v-586h53q54 0 54 74v1112z" />
    <glyph glyph-name="Ntilde" unicode="&#xd1;" horiz-adv-x="432" 
d="M342 1692v-27q0 -79 -16 -114t-50 -35q-25 0 -45.5 20t-36.5 39.5t-32 19.5q-25 0 -25 -59v-20h-47v22q0 83 15 118.5t49 35.5q24 0 46 -20.5t39.5 -41t32.5 -20.5q25 0 25 53v29h45zM397 1434v-1434h-135l-149 1257h-4l10 -430l4 -827h-88v1434h135l149 -1260h5l-13 416
l-4 844h90z" />
    <glyph glyph-name="Ograve" unicode="&#xd2;" horiz-adv-x="366" 
d="M150 1493l-54 231h94l31 -231h-71zM330 1292v-1151q0 -70 -40 -111.5t-108 -41.5q-66 0 -106.5 41.5t-40.5 111.5v1151q0 71 40 112.5t107 41.5q68 0 108 -42t40 -112zM236 1282q0 76 -54 76q-53 0 -53 -76v-1128q0 -78 53 -78q54 0 54 78v1128z" />
    <glyph glyph-name="Oacute" unicode="&#xd3;" horiz-adv-x="366" 
d="M219 1491h-72l31 233h94zM330 1292v-1151q0 -71 -40 -112t-108 -41q-66 0 -106.5 41.5t-40.5 111.5v1151q0 71 40 112.5t107 41.5q68 0 108 -42t40 -112zM236 1280q0 78 -54 78q-53 0 -53 -78v-1128q0 -76 53 -76q54 0 54 76v1128z" />
    <glyph glyph-name="Ocircumflex" unicode="&#xd4;" horiz-adv-x="366" 
d="M152 1491h-68l47 233h100l48 -233h-66l-29 151h-4zM330 1292v-1151q0 -71 -40 -112t-108 -41q-66 0 -106.5 41.5t-40.5 111.5v1151q0 71 40 112.5t107 41.5q68 0 108 -42t40 -112zM236 1280q0 78 -54 78q-53 0 -53 -78v-1128q0 -76 53 -76q54 0 54 76v1128z" />
    <glyph glyph-name="Otilde" unicode="&#xd5;" horiz-adv-x="366" 
d="M309 1692v-27q0 -79 -15.5 -114t-49.5 -35q-25 0 -46 20t-37.5 39.5t-31.5 19.5q-25 0 -25 -59v-20h-47v22q0 83 15 118.5t49 35.5q24 0 45.5 -20.5t39.5 -41t34 -20.5q24 0 24 53v29h45zM330 1292v-1151q0 -71 -40 -112t-108 -41q-66 0 -106.5 41.5t-40.5 111.5v1151
q0 71 40 112.5t107 41.5q68 0 108 -42t40 -112zM236 1280q0 78 -54 78q-53 0 -53 -78v-1128q0 -76 53 -76q54 0 54 76v1128z" />
    <glyph glyph-name="Odieresis" unicode="&#xd6;" horiz-adv-x="366" 
d="M94 1507v148h74v-148h-74zM197 1507v148h73v-148h-73zM330 1292v-1149q0 -72 -40 -113.5t-108 -41.5q-67 0 -107 42t-40 113v1149q0 70 40.5 112t106.5 42q68 0 108 -41t40 -113zM236 1282q0 76 -54 76q-53 0 -53 -76v-1128q0 -78 53 -78q54 0 54 78v1128z" />
    <glyph glyph-name="multiply" unicode="&#xd7;" horiz-adv-x="454" 
d="M428 557l-63 -63l-138 137l-135 -135l-61 63l135 135l-137 137l61 62l137 -137l135 135l64 -62l-135 -135z" />
    <glyph glyph-name="Oslash" unicode="&#xd8;" horiz-adv-x="366" 
d="M330 1292v-1151q0 -70 -40 -111.5t-108 -41.5q-58 0 -96 30l-6 -30l-45 10l12 72q-12 30 -12 71v1151q0 71 40 112.5t107 41.5q58 0 97 -31l4 31l47 -10l-13 -76q13 -32 13 -68zM236 1282q0 76 -54 76q-53 0 -53 -76v-741l107 622v119zM236 883l-107 -617v-112
q0 -78 53 -78q54 0 54 78v729z" />
    <glyph glyph-name="Ugrave" unicode="&#xd9;" horiz-adv-x="366" 
d="M147 1493l-53 231h94l31 -231h-72zM330 1434v-1293q0 -70 -40 -111.5t-106 -41.5q-68 0 -108.5 41.5t-40.5 111.5v1293h94v-1280q0 -78 53 -78q54 0 54 78v1280h94z" />
    <glyph glyph-name="Uacute" unicode="&#xda;" horiz-adv-x="366" 
d="M217 1491h-72l31 233h94zM330 1434v-1293q0 -71 -39.5 -112t-106.5 -41q-68 0 -108.5 41.5t-40.5 111.5v1293h94v-1282q0 -76 53 -76q54 0 54 76v1282h94z" />
    <glyph glyph-name="Ucircumflex" unicode="&#xdb;" horiz-adv-x="366" 
d="M152 1491h-68l47 233h100l48 -233h-66l-29 151h-4zM330 1434v-1293q0 -71 -39.5 -112t-106.5 -41q-68 0 -108.5 41.5t-40.5 111.5v1293h94v-1282q0 -76 53 -76q54 0 54 76v1282h94z" />
    <glyph glyph-name="Udieresis" unicode="&#xdc;" horiz-adv-x="366" 
d="M94 1507v148h72v-148h-72zM197 1507v148h75v-148h-75zM330 1434v-1291q0 -72 -40 -113.5t-106 -41.5q-68 0 -108.5 41.5t-40.5 113.5v1291h94v-1280q0 -78 53 -78q56 0 56 78v1280h92z" />
    <glyph glyph-name="Yacute" unicode="&#xdd;" horiz-adv-x="329" 
d="M199 1493h-72l31 231h94zM322 1434l-111 -912v-522h-94v522l-113 912h98l48 -498l12 -203h4l12 203l47 498h97z" />
    <glyph glyph-name="Thorn" unicode="&#xde;" horiz-adv-x="366" 
d="M330 983v-483q0 -154 -146 -154h-55v-346h-94v1434h94v-297h55q146 0 146 -154zM236 975q0 74 -54 74h-53v-615h53q54 0 54 72v469z" />
    <glyph glyph-name="germandbls" unicode="&#xdf;" horiz-adv-x="358" 
d="M236 1284q0 40 -13.5 57t-40.5 17h-4q-49 0 -49 -74v-1284h-94v1292q0 75 37 114.5t108 39.5h4q71 0 108.5 -39t37.5 -115v-401q0 -51 -14 -78.5t-48 -42.5v-4q34 -15 48 -42.5t14 -78.5v-491q0 -76 -37.5 -115t-108.5 -39h-12v88h12q52 0 52 74v489q0 74 -54 74h-10v88
h10q27 -2 40.5 15.5t13.5 56.5v399z" />
    <glyph glyph-name="agrave" unicode="&#xe0;" 
d="M139 1227l-53 231h94l31 -231h-72zM125 1020v-270h-90v276q0 70 38 112t101 42q65 0 103 -42t38 -112v-1026h-88v61h-4q-23 -73 -86 -73q-46 0 -74 41.5t-28 111.5v310q0 99 33.5 141t158.5 94v334q0 78 -51 78t-51 -78zM227 602q-71 -34 -86.5 -60t-15.5 -98v-297
q0 -77 51 -77t51 77v455z" />
    <glyph glyph-name="aacute" unicode="&#xe1;" 
d="M209 1227h-72l31 231h94zM125 1020v-270h-90v276q0 70 38 112t101 42q65 0 103 -42t38 -112v-1026h-88v61h-4q-23 -73 -86 -73q-46 0 -74 41.5t-28 111.5v310q0 99 33.5 141t158.5 94v334q0 78 -51 78t-51 -78zM227 602q-71 -34 -86.5 -60t-15.5 -98v-297q0 -77 51 -77
t51 77v455z" />
    <glyph glyph-name="acircumflex" unicode="&#xe2;" 
d="M141 1227h-65l47 231h100l47 -231h-65l-31 149h-4zM125 1020v-270h-90v276q0 70 38 112t101 42q65 0 103 -42t38 -112v-1026h-88v61h-4q-23 -73 -86 -73q-46 0 -74 41.5t-28 111.5v310q0 99 33.5 141t158.5 94v334q0 78 -51 78t-51 -78zM227 602q-71 -34 -86.5 -60
t-15.5 -98v-297q0 -77 51 -77t51 77v455z" />
    <glyph glyph-name="atilde" unicode="&#xe3;" 
d="M299 1425v-24q0 -82 -14.5 -117t-48.5 -35q-25 0 -46 20t-38 40t-33 20q-23 0 -23 -59v-21h-45v25q0 82 14 117.5t48 35.5q24 0 45.5 -20.5t39 -40.5t33.5 -20q25 0 25 53v26h43zM125 1020v-270h-90v276q0 70 38 112t101 42q65 0 103 -42t38 -112v-1026h-88v61h-4
q-23 -73 -84 -73q-47 0 -75.5 41.5t-28.5 111.5v310q0 99 33.5 141t158.5 94v334q0 78 -51 78t-51 -78zM227 602q-70 -34 -86 -60.5t-16 -97.5v-297q0 -77 51 -77t51 77v455z" />
    <glyph glyph-name="adieresis" unicode="&#xe4;" 
d="M86 1241v148h72v-148h-72zM188 1241v148h76v-148h-76zM125 1020v-270h-88v276q0 71 37 112.5t100 41.5q65 0 103 -42t38 -112v-1026h-88v61h-4q-23 -73 -84 -73q-46 0 -74 41.5t-28 111.5v310q0 70 13 105.5t51.5 64.5t125.5 65v334q0 78 -51 78t-51 -78zM227 602
q-70 -34 -86 -60.5t-16 -97.5v-297q0 -77 51 -77t51 77v455z" />
    <glyph glyph-name="aring" unicode="&#xe5;" 
d="M55 1343q0 56 30.5 86.5t88.5 30.5q57 0 88 -31t31 -88q0 -56 -30.5 -86t-88.5 -30t-88.5 30.5t-30.5 87.5zM119 1341q0 -51 55 -51q53 0 53 51q0 54 -53 54q-55 0 -55 -54zM125 1020v-270h-90v276q0 70 38 112t101 42q65 0 103 -42t38 -112v-1026h-88v61h-4
q-23 -73 -84 -73q-47 0 -75.5 41.5t-28.5 111.5v310q0 99 33.5 141t158.5 94v334q0 78 -51 78t-51 -78zM227 602q-71 -34 -86.5 -60t-15.5 -98v-297q0 -77 51 -77t51 77v455z" />
    <glyph glyph-name="ae" unicode="&#xe6;" horiz-adv-x="544" 
d="M240 82h-4q-10 -44 -37 -69t-62 -25q-46 0 -74 41.5t-28 111.5v285q0 102 35 144t157 92v358q0 78 -51 78q-53 0 -53 -78v-270h-88v276q0 71 37 113.5t98 42.5q62 0 100 -54h4q33 54 101 54q60 0 96.5 -42t36.5 -114v-442h-193v-437q0 -77 54 -77q51 0 51 77v316h88v-322
q0 -70 -37 -111.5t-100 -41.5q-50 0 -84.5 25t-46.5 69zM420 1020q0 78 -51 78q-54 0 -54 -78v-352h105v352zM227 578q-71 -34 -87.5 -59.5t-16.5 -98.5v-273q0 -77 53 -77q51 0 51 77v431z" />
    <glyph glyph-name="ccedilla" unicode="&#xe7;" 
d="M227 1020q0 78 -53 78q-51 0 -51 -78v-873q0 -75 51 -75q53 0 53 75v351h88v-355q0 -60 -26 -99t-72 -50l-8 -35q56 0 91.5 -28t35.5 -72q0 -51 -46.5 -84t-119.5 -33q-18 0 -68 8v78q28 -4 50 -4q90 0 90 45q0 41 -101 41l17 78q-57 6 -90 47.5t-33 107.5v883
q0 70 38 112t103 42q63 0 101 -42t38 -112v-303h-88v297z" />
    <glyph glyph-name="egrave" unicode="&#xe8;" 
d="M141 1225l-53 233h94l31 -233h-72zM227 463h88v-322q0 -70 -38 -111.5t-101 -41.5q-65 0 -103 41.5t-38 111.5v885q0 70 38 112t103 42q63 0 101 -42t38 -112v-442h-192v-437q0 -77 51 -77q53 0 53 77v316zM227 1020q0 76 -53 76q-51 0 -51 -76v-354h104v354z" />
    <glyph glyph-name="eacute" unicode="&#xe9;" 
d="M211 1225h-72l31 233h94zM227 463h88v-322q0 -70 -38 -111.5t-101 -41.5q-65 0 -103 41.5t-38 111.5v885q0 70 38 112t103 42q63 0 101 -42t38 -112v-442h-192v-437q0 -77 51 -77q53 0 53 77v316zM227 1020q0 76 -53 76q-51 0 -51 -76v-354h104v354z" />
    <glyph glyph-name="ecircumflex" unicode="&#xea;" 
d="M143 1225h-65l47 233h100l47 -233h-65l-31 151h-4zM227 463h88v-322q0 -70 -38 -111.5t-101 -41.5q-65 0 -103 41.5t-38 111.5v885q0 70 38 112t103 42q63 0 101 -42t38 -112v-442h-192v-437q0 -77 51 -77q53 0 53 77v316zM227 1020q0 76 -53 76q-51 0 -51 -76v-354h104
v354z" />
    <glyph glyph-name="edieresis" unicode="&#xeb;" 
d="M86 1241v148h74v-148h-74zM190 1241v148h74v-148h-74zM227 463h88v-322q0 -71 -37.5 -112t-101.5 -41q-65 0 -103 41.5t-38 111.5v885q0 70 38 112t103 42t102 -41t37 -113v-442h-192v-437q0 -77 53 -77q51 0 51 77v316zM227 1020q0 78 -51 78q-53 0 -53 -78v-354h104
v354z" />
    <glyph glyph-name="igrave" unicode="&#xec;" horiz-adv-x="163" 
d="M47 1227l-53 231h94l31 -231h-72zM37 0v1167h88v-1167h-88z" />
    <glyph glyph-name="iacute" unicode="&#xed;" horiz-adv-x="163" 
d="M117 1225h-72l31 233h94zM37 0v1167h88v-1167h-88z" />
    <glyph glyph-name="icircumflex" unicode="&#xee;" horiz-adv-x="163" 
d="M47 1225h-65l47 233h100l47 -233h-67l-29 151h-4zM37 0v1167h88v-1167h-88z" />
    <glyph glyph-name="idieresis" unicode="&#xef;" horiz-adv-x="163" 
d="M-6 1241v148h72v-148h-72zM98 1241v148h74v-148h-74zM37 0v1167h88v-1167h-88z" />
    <glyph glyph-name="eth" unicode="&#xf0;" horiz-adv-x="360" 
d="M57 1497q96 -44 156 -117l63 41l29 -43l-63 -41q47 -77 63.5 -180t16.5 -254v-766q0 -69 -37.5 -109t-102.5 -40t-103 41.5t-38 111.5v885q0 70 28.5 112t75.5 42q58 0 82 -56l4 2q-14 104 -47 172l-53 -34l-31 41l60 38q-44 75 -123 121zM233 1020q0 78 -51 78
q-53 0 -53 -78v-873q0 -77 53 -77q51 0 51 77v873z" />
    <glyph glyph-name="ntilde" unicode="&#xf1;" 
d="M295 1425v-24q0 -82 -15.5 -117t-50.5 -35q-24 0 -44.5 20t-37 40t-32.5 20q-23 0 -23 -59v-21h-47v23q0 83 15 119t49 36q24 0 45.5 -20.5t38.5 -40.5t32 -20q27 0 27 53v26h43zM227 1020q0 76 -53 76q-51 0 -51 -76v-1020h-88v1167h88v-61h4q11 34 33.5 54t52.5 20
q46 0 74 -42t28 -112v-1026h-88v1020z" />
    <glyph glyph-name="ograve" unicode="&#xf2;" 
d="M143 1227l-53 231h94l31 -231h-72zM315 1026v-885q0 -70 -38 -111.5t-101 -41.5q-65 0 -103 41.5t-38 111.5v885q0 70 38 112t103 42q63 0 101 -42t38 -112zM227 1020q0 78 -53 78q-51 0 -51 -78v-873q0 -77 51 -77q53 0 53 77v873z" />
    <glyph glyph-name="oacute" unicode="&#xf3;" 
d="M213 1225h-72l31 233h94zM315 1026v-885q0 -71 -37.5 -112t-101.5 -41q-65 0 -103 41.5t-38 111.5v885q0 70 38 112t103 42q63 0 101 -42t38 -112zM227 1020q0 78 -53 78q-51 0 -51 -78v-875q0 -75 51 -75q53 0 53 75v875z" />
    <glyph glyph-name="ocircumflex" unicode="&#xf4;" 
d="M143 1225h-65l47 233h100l47 -233h-65l-31 151h-4zM315 1026v-885q0 -71 -37.5 -112t-101.5 -41q-65 0 -103 41.5t-38 111.5v885q0 70 38 112t103 42q63 0 101 -42t38 -112zM227 1020q0 78 -53 78q-51 0 -51 -78v-875q0 -75 51 -75q53 0 53 75v875z" />
    <glyph glyph-name="otilde" unicode="&#xf5;" 
d="M301 1425v-24q0 -82 -14.5 -117t-48.5 -35q-25 0 -46 20t-38 40t-33 20q-23 0 -23 -59v-21h-45v23q0 84 14 119.5t48 35.5q24 0 45.5 -20.5t39 -40.5t33.5 -20q25 0 25 53v26h43zM315 1026v-885q0 -72 -37 -112.5t-102 -40.5t-103 41.5t-38 111.5v885q0 70 38 112t103 42
q63 0 101 -42t38 -112zM227 1020q0 76 -53 76q-51 0 -51 -76v-875q0 -75 51 -75q53 0 53 75v875z" />
    <glyph glyph-name="odieresis" unicode="&#xf6;" 
d="M88 1241v148h74v-148h-74zM190 1241v148h74v-148h-74zM315 1026v-885q0 -71 -37.5 -112t-101.5 -41q-65 0 -103 41.5t-38 111.5v885q0 70 38 112t103 42t102 -41t37 -113zM227 1022q0 76 -51 76q-53 0 -53 -76v-875q0 -75 53 -75q51 0 51 75v875z" />
    <glyph glyph-name="divide" unicode="&#xf7;" horiz-adv-x="530" 
d="M217 807v137h94v-137h-94zM500 737v-88h-473v88h473zM217 442v138h94v-138h-94z" />
    <glyph glyph-name="oslash" unicode="&#xf8;" 
d="M315 1026v-885q0 -70 -38 -111.5t-101 -41.5q-51 0 -90 28l-6 -28l-45 10l14 68q-14 32 -14 75v885q0 70 38 112t103 42q51 0 88 -29l6 29l45 -11l-14 -71q14 -28 14 -72zM227 1020q0 78 -53 78q-51 0 -51 -78v-584l104 527v57zM123 199v-52q0 -77 51 -77q53 0 53 77v574
z" />
    <glyph glyph-name="ugrave" unicode="&#xf9;" 
d="M141 1227l-53 231h94l31 -231h-72zM123 147q0 -77 53 -77q51 0 51 77v1020h88v-1167h-88v61h-4q-22 -73 -86 -73q-46 0 -74 41.5t-28 111.5v1026h88v-1020z" />
    <glyph glyph-name="uacute" unicode="&#xfa;" 
d="M211 1225h-72l31 233h94zM123 147q0 -77 53 -77q51 0 51 77v1020h88v-1167h-88v61h-4q-22 -73 -86 -73q-46 0 -74 41t-28 112v1026h88v-1020z" />
    <glyph glyph-name="ucircumflex" unicode="&#xfb;" 
d="M141 1225h-65l47 233h100l47 -233h-65l-31 151h-4zM123 147q0 -77 53 -77q51 0 51 77v1020h88v-1167h-88v61h-4q-22 -73 -86 -73q-46 0 -74 41t-28 112v1026h88v-1020z" />
    <glyph glyph-name="udieresis" unicode="&#xfc;" 
d="M88 1241v148h72v-148h-72zM190 1241v148h76v-148h-76zM125 147q0 -40 13 -57.5t40 -17.5q49 0 49 75v1022h88v-1169h-88v61h-4q-23 -73 -86 -73q-46 0 -74 42t-28 113v1024h90v-1020z" />
    <glyph glyph-name="yacute" unicode="&#xfd;" horiz-adv-x="327" 
d="M201 1225h-74l31 233h96zM104 1167l50 -647l12 -293h4l14 293l49 647h84l-137 -1495h-82l29 328l-117 1167h94z" />
    <glyph glyph-name="thorn" unicode="&#xfe;" 
d="M35 1495h88v-389h4q22 74 88 74q46 0 73 -42t27 -112v-885q0 -70 -27 -111.5t-73 -41.5q-66 0 -88 73h-4v-389h-88v1823zM227 147v873q0 78 -51 78q-53 0 -53 -78v-873q0 -75 53 -75q51 0 51 75z" />
    <glyph glyph-name="ydieresis" unicode="&#xff;" horiz-adv-x="327" 
d="M76 1241v148h74v-148h-74zM180 1241v148h74v-148h-74zM104 1167l50 -647l14 -293h4l12 293l49 647h82l-135 -1495h-82l29 328l-115 1167h92z" />
    <glyph glyph-name="Amacron" unicode="&#x100;" horiz-adv-x="333" 
d="M262 1616v-94h-203v94h203zM227 1434l101 -1434h-99l-22 389h-90l-23 -389h-88l90 1434h131zM121 477h82l-25 443l-14 378h-4l-15 -378z" />
    <glyph glyph-name="amacron" unicode="&#x101;" 
d="M274 1350v-95h-204v95h204zM125 1020v-270h-90v276q0 70 38 112t101 42q65 0 103 -42t38 -112v-1026h-88v61h-4q-23 -73 -84 -73q-47 0 -75.5 41.5t-28.5 111.5v310q0 99 33.5 141t158.5 94v334q0 78 -51 78t-51 -78zM227 602q-70 -34 -86 -60.5t-16 -97.5v-297
q0 -77 51 -77t51 77v455z" />
    <glyph glyph-name="Abreve" unicode="&#x102;" horiz-adv-x="333" 
d="M25 1694h73q0 -99 64 -99q61 0 61 99h78q0 -181 -139 -181q-137 0 -137 181zM225 1434l103 -1434h-101l-20 389h-90l-23 -389h-88l90 1434h129zM121 477h80l-25 443l-12 378h-4l-15 -378z" />
    <glyph glyph-name="abreve" unicode="&#x103;" 
d="M33 1427h78q0 -98 63 -98q62 0 62 98h75q0 -180 -137 -180q-141 0 -141 180zM125 1020v-270h-90v276q0 70 38 112t101 42q65 0 103 -42t38 -112v-1026h-88v61h-4q-23 -73 -86 -73q-46 0 -74 41.5t-28 111.5v310q0 99 33.5 141t158.5 94v334q0 78 -51 78t-51 -78zM227 602
q-71 -34 -86.5 -60t-15.5 -98v-297q0 -77 51 -77t51 77v455z" />
    <glyph glyph-name="Aogonek" unicode="&#x104;" horiz-adv-x="333" 
d="M227 1434l99 -1422h2v-12q-30 -3 -50 -23t-20 -47q0 -23 14.5 -36t38.5 -13q11 0 17 2v-94q-8 -4 -37 -4q-47 0 -76 28.5t-29 71.5q0 38 23 69t61 46h-41l-22 389h-90l-23 -389h-88l90 1434h131zM121 477h82l-25 443l-14 378h-4l-15 -378z" />
    <glyph glyph-name="aogonek" unicode="&#x105;" 
d="M125 1020v-270h-88v276q0 71 37 112.5t100 41.5q65 0 103 -42t38 -112v-1026h-2q-30 -3 -48.5 -23t-18.5 -47q0 -23 14 -36t37 -13q12 0 16 2v-94q-8 -4 -34 -4q-47 0 -76 28.5t-29 71.5q0 38 22 69t60 46h-29v61h-4q-23 -73 -84 -73q-47 0 -74.5 41t-27.5 112v310
q0 70 13 105.5t51.5 64.5t125.5 65v334q0 78 -51 78t-51 -78zM227 602q-70 -34 -86 -60.5t-16 -97.5v-297q0 -75 51 -75t51 75v455z" />
    <glyph glyph-name="Cacute" unicode="&#x106;" horiz-adv-x="366" 
d="M219 1491h-72l31 233h94zM236 1280q0 78 -54 78q-53 0 -53 -78v-1128q0 -76 53 -76q54 0 54 76v454h94v-465q0 -71 -40 -112t-108 -41q-66 0 -106.5 41.5t-40.5 111.5v1151q0 71 40 112.5t107 41.5q68 0 108 -42t40 -112v-401h-94v389z" />
    <glyph glyph-name="cacute" unicode="&#x107;" 
d="M211 1227h-72l31 231h94zM227 1020q0 78 -53 78q-51 0 -51 -78v-873q0 -77 51 -77q53 0 53 77v351h88v-357q0 -70 -38 -111.5t-101 -41.5q-65 0 -103 41.5t-38 111.5v885q0 70 38 112t101 42q65 0 103 -42t38 -112v-303h-88v297z" />
    <glyph glyph-name="Ccircumflex" unicode="&#x108;" horiz-adv-x="366" 
d="M152 1491h-68l47 233h100l48 -233h-66l-29 151h-4zM236 1280q0 78 -54 78q-53 0 -53 -78v-1128q0 -76 53 -76q54 0 54 76v454h94v-465q0 -71 -40 -112t-108 -41q-66 0 -106.5 41.5t-40.5 111.5v1151q0 71 40 112.5t107 41.5q68 0 108 -42t40 -112v-401h-94v389z" />
    <glyph glyph-name="ccircumflex" unicode="&#x109;" 
d="M143 1227h-65l47 231h100l47 -231h-65l-31 149h-4zM227 1020q0 78 -53 78q-51 0 -51 -78v-873q0 -77 51 -77q53 0 53 77v351h88v-357q0 -70 -38 -111.5t-101 -41.5q-65 0 -103 41.5t-38 111.5v885q0 70 38 112t101 42q65 0 103 -42t38 -112v-303h-88v297z" />
    <glyph glyph-name="Cdotaccent" unicode="&#x10a;" horiz-adv-x="366" 
d="M131 1507v142h107v-142h-107zM236 1282q0 76 -54 76q-53 0 -53 -76v-1128q0 -78 53 -78q54 0 54 78v452h94v-463q0 -72 -40 -113.5t-108 -41.5q-67 0 -107 42t-40 113v1149q0 72 39.5 114t107.5 42q67 0 107.5 -42.5t40.5 -113.5v-401h-94v391z" />
    <glyph glyph-name="cdotaccent" unicode="&#x10b;" 
d="M123 1241v139h106v-139h-106zM227 1020q0 78 -53 78q-51 0 -51 -78v-873q0 -77 51 -77q53 0 53 77v351h88v-357q0 -71 -37.5 -112t-101.5 -41q-65 0 -103 41.5t-38 111.5v885q0 70 38 112t101 42q65 0 103 -42t38 -112v-303h-88v297z" />
    <glyph glyph-name="Ccaron" unicode="&#x10c;" horiz-adv-x="366" 
d="M231 1726h68l-47 -233h-100l-48 233h66l29 -151h4zM236 1280q0 78 -54 78q-53 0 -53 -78v-1128q0 -76 53 -76q54 0 54 76v454h94v-465q0 -71 -40 -112t-108 -41q-66 0 -106.5 41.5t-40.5 111.5v1151q0 71 40 112.5t107 41.5q68 0 108 -42t40 -112v-401h-94v389z" />
    <glyph glyph-name="ccaron" unicode="&#x10d;" 
d="M227 1458h66l-47 -231h-101l-47 231h68l29 -149h4zM227 1020q0 78 -53 78q-51 0 -51 -78v-873q0 -77 51 -77q53 0 53 77v351h88v-357q0 -70 -38 -111.5t-101 -41.5q-65 0 -103 41.5t-38 111.5v885q0 70 38 112t101 42q65 0 103 -42t38 -112v-303h-88v297z" />
    <glyph glyph-name="Dcaron" unicode="&#x10e;" horiz-adv-x="366" 
d="M211 1726h68l-48 -233h-100l-47 233h66l28 -151h4zM330 1280v-1126q0 -154 -146 -154h-149v1434h149q146 0 146 -154zM236 1272q0 74 -54 74h-53v-1258h53q54 0 54 72v1112z" />
    <glyph glyph-name="dcaron" unicode="&#x10f;" horiz-adv-x="432" 
d="M344 1303l12 192h88l-30 -192h-70zM315 0h-88v61h-4q-22 -73 -88 -73q-45 0 -72.5 41.5t-27.5 111.5v885q0 71 28 112.5t74 41.5q64 0 86 -74h4v389h88v-1495zM123 1020v-873q0 -77 53 -77q51 0 51 77v873q0 78 -51 78q-53 0 -53 -78z" />
    <glyph glyph-name="Dcroat" unicode="&#x110;" horiz-adv-x="366" 
d="M330 1280v-1126q0 -154 -146 -154h-149v674h-41v88h41v672h149q146 0 146 -154zM236 1274q0 72 -54 72h-53v-584h41v-88h-41v-586h53q54 0 54 74v1112z" />
    <glyph glyph-name="dcroat" unicode="&#x111;" 
d="M315 0h-88v61h-4q-22 -73 -88 -73q-45 0 -72.5 41t-27.5 112v885q0 70 28 112t74 42q64 0 86 -74h4v154h-65v88h65v147h88v-147h64v-88h-64v-1260zM123 1020v-873q0 -77 53 -77q51 0 51 77v873q0 76 -51 76q-53 0 -53 -76z" />
    <glyph glyph-name="Emacron" unicode="&#x112;" horiz-adv-x="245" 
d="M225 1616v-94h-205v94h205zM221 1434v-88h-90v-566h80v-88h-80v-604h100v-88h-194v1434h184z" />
    <glyph glyph-name="emacron" unicode="&#x113;" 
d="M276 1350v-95h-204v95h204zM227 463h88v-322q0 -71 -37.5 -112t-101.5 -41q-63 0 -102 41.5t-39 111.5v885q0 70 38 112t103 42q63 0 101 -42t38 -112v-442h-192v-437q0 -77 51 -77q53 0 53 77v316zM227 1020q0 78 -53 78q-51 0 -51 -78v-354h104v354z" />
    <glyph glyph-name="Ebreve" unicode="&#x114;" horiz-adv-x="245" 
d="M-16 1694h77q0 -97 64 -97q61 0 61 97h76q0 -181 -137 -181q-141 0 -141 181zM221 1434v-88h-90v-566h80v-88h-80v-604h100v-88h-194v1434h184z" />
    <glyph glyph-name="ebreve" unicode="&#x115;" 
d="M35 1427h78q0 -98 63 -98q62 0 62 98h75q0 -180 -137 -180q-141 0 -141 180zM227 463h88v-322q0 -70 -38 -111.5t-101 -41.5q-65 0 -103 41.5t-38 111.5v885q0 70 38 112t103 42q63 0 101 -41.5t38 -112.5v-442h-192v-437q0 -77 51 -77q53 0 53 77v316zM227 1020
q0 78 -53 78q-51 0 -51 -78v-354h104v354z" />
    <glyph glyph-name="Edotaccent" unicode="&#x116;" horiz-adv-x="245" 
d="M70 1507v142h104v-142h-104zM221 1434v-88h-90v-566h80v-88h-80v-604h100v-88h-194v1434h184z" />
    <glyph glyph-name="edotaccent" unicode="&#x117;" 
d="M123 1241v139h106v-139h-106zM227 463h88v-322q0 -71 -37.5 -112t-101.5 -41q-65 0 -103 41.5t-38 111.5v885q0 70 38 112t103 42q63 0 101 -41.5t38 -112.5v-442h-192v-437q0 -77 53 -77q51 0 51 77v316zM227 1020q0 78 -51 78q-53 0 -53 -78v-354h104v354z" />
    <glyph glyph-name="Eogonek" unicode="&#x118;" horiz-adv-x="245" 
d="M221 1434v-88h-90v-566h80v-88h-80v-604h100v-88h-2q-30 -3 -48.5 -23t-18.5 -47q0 -23 14 -36t37 -13q12 0 16 2v-94q-8 -4 -34 -4q-47 0 -77 28.5t-30 71.5q0 37 23 68.5t61 46.5h-135v1434h184z" />
    <glyph glyph-name="eogonek" unicode="&#x119;" 
d="M244 -117v-94q-10 -4 -35 -4q-47 0 -77 28.5t-30 71.5q0 66 60 103q-59 5 -93 46t-34 107v885q0 70 38 112t101 42q66 0 103.5 -41.5t37.5 -112.5v-442h-192v-437q0 -77 51 -77q53 0 53 77v316h88v-322q0 -60 -27 -99t-75 -50q-37 -23 -37 -62q0 -23 14 -36t37 -13
q13 0 17 2zM227 1020q0 76 -53 76q-51 0 -51 -76v-354h104v354z" />
    <glyph glyph-name="Ecaron" unicode="&#x11a;" horiz-adv-x="245" 
d="M170 1724h66l-48 -231h-102l-47 231h67l29 -149h6zM221 1434v-88h-90v-566h80v-88h-80v-604h100v-88h-194v1434h184z" />
    <glyph glyph-name="ecaron" unicode="&#x11b;" 
d="M227 1460h66l-47 -233h-101l-47 233h68l29 -151h4zM227 463h88v-322q0 -70 -38 -111.5t-101 -41.5q-65 0 -103 41.5t-38 111.5v885q0 70 38 112t103 42q63 0 101 -42t38 -112v-442h-192v-437q0 -77 51 -77q53 0 53 77v316zM227 1020q0 76 -53 76q-51 0 -51 -76v-354h104
v354z" />
    <glyph glyph-name="Gcircumflex" unicode="&#x11c;" horiz-adv-x="366" 
d="M154 1493h-68l47 231h103l47 -231h-68l-29 149h-4zM184 756h146v-756h-94v74h-5q-22 -86 -92 -86q-46 0 -75 41.5t-29 111.5v1151q0 70 40.5 112t106.5 42q68 0 108 -42t40 -112v-401h-94v389q0 78 -54 78q-53 0 -53 -78v-1126q0 -78 53 -78q54 0 54 82v510h-52v88z" />
    <glyph glyph-name="gcircumflex" unicode="&#x11d;" 
d="M154 1225h-66l47 233h101l47 -233h-66l-31 151h-4zM315 1167v-1353q0 -70 -39 -112t-102 -42q-64 0 -101.5 41.5t-37.5 112.5v131h88v-125q0 -78 51 -78q53 0 53 78v241h-4q-23 -73 -88 -73q-46 0 -73 41.5t-27 111.5v885q0 70 27 112t73 42q30 0 53.5 -20t34.5 -54h4v61
h88zM123 150q0 -78 51 -78q53 0 53 78v870q0 78 -53 78q-51 0 -51 -78v-870z" />
    <glyph glyph-name="Gbreve" unicode="&#x11e;" horiz-adv-x="366" 
d="M45 1694h78q0 -99 61 -99q62 0 62 99h78q0 -181 -140 -181q-139 0 -139 181zM184 756h146v-756h-94v74h-5q-22 -86 -92 -86q-47 0 -75.5 41.5t-28.5 111.5v1151q0 71 40 112.5t107 41.5q68 0 108 -41t40 -113v-401h-94v391q0 76 -54 76q-53 0 -53 -76v-1128q0 -78 53 -78
q54 0 54 82v510h-52v88z" />
    <glyph glyph-name="gbreve" unicode="&#x11f;" 
d="M49 1427h76q0 -98 63 -98q62 0 62 98h78q0 -180 -140 -180q-71 0 -105 44t-34 136zM315 1167v-1353q0 -70 -39 -112t-102 -42q-64 0 -101.5 41.5t-37.5 112.5v131h88v-125q0 -78 51 -78q53 0 53 78v241l-4 2q-22 -75 -88 -75q-46 0 -73 41.5t-27 113.5v883q0 72 27 113
t73 41q31 0 54.5 -19.5t33.5 -54.5h4v61h88zM123 150q0 -78 51 -78q53 0 53 78v872q0 76 -53 76q-51 0 -51 -76v-872z" />
    <glyph glyph-name="Gdotaccent" unicode="&#x120;" horiz-adv-x="366" 
d="M131 1507v142h107v-142h-107zM184 756h146v-756h-94v74h-5q-22 -86 -92 -86q-46 0 -75 41.5t-29 111.5v1151q0 72 40.5 114t106.5 42q68 0 108 -42t40 -114v-401h-94v391q0 76 -54 76q-53 0 -53 -76v-1128q0 -78 53 -78q54 0 54 82v510h-52v88z" />
    <glyph glyph-name="gdotaccent" unicode="&#x121;" 
d="M135 1241v139h107v-139h-107zM315 1167v-1353q0 -70 -39 -112t-102 -42q-64 0 -101.5 41.5t-37.5 112.5v131h88v-125q0 -78 51 -78q53 0 53 78v241l-4 2q-22 -75 -88 -75q-46 0 -73 41.5t-27 113.5v883q0 72 27 113t73 41q31 0 54.5 -19.5t33.5 -54.5h4v61h88zM123 150
q0 -78 51 -78q53 0 53 78v872q0 76 -53 76q-51 0 -51 -76v-872z" />
    <glyph glyph-name="uni0122" unicode="&#x122;" horiz-adv-x="366" 
d="M184 756h146v-756h-94v74h-5q-22 -86 -92 -86q-46 0 -75 41.5t-29 111.5v1151q0 70 40.5 112t106.5 42q68 0 108 -41t40 -113v-401h-94v389q0 78 -54 78q-53 0 -53 -78v-1126q0 -78 53 -78q54 0 54 82v510h-52v88zM133 -180v139h100v-139l-22 -107h-43l18 107h-53z" />
    <glyph glyph-name="uni0123" unicode="&#x123;" 
d="M238 1348v-140h-99v140l21 106h45l-21 -106h54zM315 1169v-1355q0 -70 -38 -112t-103 -42q-64 0 -101.5 41.5t-37.5 112.5v131h88v-125q0 -78 53 -78q51 0 51 78v241l-4 2q-22 -75 -88 -75q-46 0 -73 41.5t-27 113.5v883q0 72 27 113t73 41q66 0 88 -74h4v63h88zM123 150
q0 -78 53 -78q51 0 51 78v872q0 76 -51 76q-53 0 -53 -76v-872z" />
    <glyph glyph-name="Hcircumflex" unicode="&#x124;" horiz-adv-x="364" 
d="M150 1493h-68l47 231h102l48 -231h-68l-29 149h-4zM330 1434v-1434h-94v672h-107v-672h-94v1434h94v-674h107v674h94z" />
    <glyph glyph-name="hcircumflex" unicode="&#x125;" 
d="M45 1552h-65l47 234h100l47 -234h-65l-31 152h-4zM227 1020q0 76 -51 76q-53 0 -53 -76v-1020h-88v1495h88v-389h4q10 35 33.5 54.5t54.5 19.5q46 0 73 -42t27 -112v-1026h-88v1020z" />
    <glyph glyph-name="Hbar" unicode="&#x126;" horiz-adv-x="364" 
d="M330 1434v-289h41v-88h-41v-1057h-94v672h-107v-672h-94v1057h-41v88h41v289h94v-289h107v289h94zM129 760h107v297h-107v-297z" />
    <glyph glyph-name="hbar" unicode="&#x127;" 
d="M227 1020q0 76 -51 76q-53 0 -53 -76v-1020h-88v1260h-68v88h68v147h88v-147h61v-88h-61v-154h4q25 74 88 74q46 0 73 -42t27 -112v-1026h-88v1020z" />
    <glyph glyph-name="Itilde" unicode="&#x128;" horiz-adv-x="165" 
d="M209 1692v-27q0 -79 -16 -114t-50 -35q-24 0 -44.5 20t-37 39.5t-32.5 19.5q-25 0 -25 -59v-20h-47v22q0 83 14.5 118.5t48.5 35.5q24 0 46 -20.5t40 -41t33 -20.5q25 0 25 53v29h45zM129 1434v-1434h-94v1434h94z" />
    <glyph glyph-name="itilde" unicode="&#x129;" horiz-adv-x="163" 
d="M207 1425v-24q0 -81 -16 -116.5t-52 -35.5q-24 0 -44.5 20t-37 40t-32.5 20q-23 0 -23 -59v-21h-47v23q0 83 14.5 119t48.5 36q19 0 36.5 -12.5t29 -28t25.5 -28t26 -12.5q27 0 27 53v26h45zM37 0v1167h88v-1167h-88z" />
    <glyph glyph-name="Imacron" unicode="&#x12a;" horiz-adv-x="165" 
d="M184 1616v-94h-207v94h207zM129 1434v-1434h-94v1434h94z" />
    <glyph glyph-name="imacron" unicode="&#x12b;" horiz-adv-x="163" 
d="M182 1350v-95h-205v95h205zM37 0v1167h88v-1167h-88z" />
    <glyph glyph-name="Ibreve" unicode="&#x12c;" horiz-adv-x="165" 
d="M-57 1694h75q0 -97 62 -97q63 0 63 97h76q0 -181 -139 -181q-137 0 -137 181zM129 1434v-1434h-94v1434h94z" />
    <glyph glyph-name="ibreve" unicode="&#x12d;" horiz-adv-x="163" 
d="M-59 1427h77q0 -98 64 -98q61 0 61 98h78q0 -180 -139 -180q-141 0 -141 180zM37 0v1167h88v-1167h-88z" />
    <glyph glyph-name="Iogonek" unicode="&#x12e;" horiz-adv-x="165" 
d="M131 1434v-1434h-4q-30 -3 -49 -23t-19 -47q0 -23 14 -36t38 -13q12 0 16 2v-94q-8 -4 -35 -4q-47 0 -76.5 28.5t-29.5 71.5q0 38 23 69t63 46h-37v1434h96z" />
    <glyph glyph-name="iogonek" unicode="&#x12f;" horiz-adv-x="163" 
d="M37 1208v170h90v-170h-90zM37 0v1167h90v-1167h-2q-30 -3 -50 -23t-20 -47q0 -23 15 -36t39 -13q10 0 16 2v-94q-10 -4 -37 -4q-47 0 -75.5 28.5t-28.5 71.5q0 38 23 69t61 46h-31z" />
    <glyph glyph-name="Idotaccent" unicode="&#x130;" horiz-adv-x="165" 
d="M29 1507v142h106v-142h-106zM129 1434v-1434h-94v1434h94z" />
    <glyph glyph-name="dotlessi" unicode="&#x131;" horiz-adv-x="163" 
d="M37 0v1167h88v-1167h-88z" />
    <glyph glyph-name="IJ" unicode="&#x132;" horiz-adv-x="530" 
d="M129 1434v-1434h-94v1434h94zM496 1434v-1293q0 -70 -40 -111.5t-106 -41.5q-68 0 -108.5 41.5t-40.5 111.5v465h94v-452q0 -78 53 -78t53 78v1280h95z" />
    <glyph glyph-name="ij" unicode="&#x133;" horiz-adv-x="325" 
d="M37 1208v170h88v-170h-88zM289 1378v-170h-88v170h88zM37 0v1167h88v-1167h-88zM289 1167v-1376q0 -81 -21.5 -103t-83.5 -22h-32v80q34 0 41.5 8t7.5 39v1374h88z" />
    <glyph glyph-name="Jcircumflex" unicode="&#x134;" horiz-adv-x="366" 
d="M252 1491h-68l47 233h101l47 -233h-66l-28 151h-4zM330 1434v-1293q0 -71 -40 -112t-108 -41q-66 0 -106.5 41.5t-40.5 111.5v465h94v-454q0 -76 53 -76q54 0 54 76v1282h94z" />
    <glyph glyph-name="jcircumflex" unicode="&#x135;" horiz-adv-x="161" 
d="M49 1225h-65l45 233h102l47 -233h-67l-29 151h-4zM125 1167v-1378q0 -81 -21.5 -103t-83.5 -22h-32v80q34 0 41.5 8t7.5 39v1376h88z" />
    <glyph glyph-name="uni0136" unicode="&#x136;" horiz-adv-x="348" 
d="M342 1434l-125 -662v-4l125 -768h-94l-115 702h-4v-702h-94v1434h94v-623h4l113 623h96zM137 -180v139h101v-139l-23 -107h-43l18 107h-53z" />
    <glyph glyph-name="uni0137" unicode="&#x137;" horiz-adv-x="344" 
d="M332 1169l-125 -540v-4l129 -625h-88l-121 571h-4v-571h-88v1497h88v-835h4l117 507h88zM137 -180v139h99v-139l-21 -107h-43l18 107h-53z" />
    <glyph glyph-name="kgreenlandic" unicode="&#x138;" horiz-adv-x="344" 
d="M332 1169l-127 -540v-4l129 -625h-88l-119 571h-4v-571h-88v1169h88v-507h4l115 507h90z" />
    <glyph glyph-name="Lacute" unicode="&#x139;" horiz-adv-x="241" 
d="M117 1491h-72l31 233h94zM35 1434h94v-1346h94v-88h-188v1434z" />
    <glyph glyph-name="lacute" unicode="&#x13a;" horiz-adv-x="163" 
d="M115 1552h-72l31 234h94zM37 0v1495h88v-1495h-88z" />
    <glyph glyph-name="uni013B" unicode="&#x13b;" horiz-adv-x="241" 
d="M35 1434h94v-1346h94v-88h-188v1434zM82 -180v139h98v-139l-20 -107h-43l18 107h-53z" />
    <glyph glyph-name="uni013C" unicode="&#x13c;" horiz-adv-x="163" 
d="M37 0v1495h88v-1495h-88zM33 -180v139h100v-139l-22 -107h-43l18 107h-53z" />
    <glyph glyph-name="Lcaron" unicode="&#x13d;" horiz-adv-x="241" 
d="M156 1241l12 193h88l-31 -193h-69zM35 1434h94v-1346h94v-88h-188v1434z" />
    <glyph glyph-name="lcaron" unicode="&#x13e;" horiz-adv-x="241" 
d="M154 1303l12 192h88l-31 -192h-69zM37 0v1495h88v-1495h-88z" />
    <glyph glyph-name="Ldot" unicode="&#x13f;" horiz-adv-x="286" 
d="M35 1434h94v-1346h94v-88h-188v1434zM158 647v139h106v-139h-106z" />
    <glyph glyph-name="ldot" unicode="&#x140;" horiz-adv-x="301" 
d="M37 2v1493h88v-1493h-88zM160 674v141h104v-141h-104z" />
    <glyph glyph-name="Lslash" unicode="&#x141;" horiz-adv-x="241" 
d="M35 1432h94v-652l43 17l35 -80l-78 -33v-596h94v-88h-188v647l-43 -18l-35 80l78 32v691z" />
    <glyph glyph-name="lslash" unicode="&#x142;" horiz-adv-x="163" 
d="M37 0v676l-49 -21l-35 82l84 33v723h88v-686l43 18l35 -80l-78 -32v-713h-88z" />
    <glyph glyph-name="Nacute" unicode="&#x143;" horiz-adv-x="432" 
d="M254 1491h-74l31 233h96zM397 1434v-1434h-135l-149 1257h-4l12 -430l4 -827h-90v1434h135l149 -1260h5l-13 416l-4 844h90z" />
    <glyph glyph-name="nacute" unicode="&#x144;" 
d="M207 1225h-72l31 233h94zM227 1020q0 76 -53 76q-51 0 -51 -76v-1020h-88v1167h88v-61h4q22 74 86 74q46 0 74 -42t28 -112v-1026h-88v1020z" />
    <glyph glyph-name="uni0145" unicode="&#x145;" horiz-adv-x="432" 
d="M397 1434v-1434h-135l-149 1257h-4l12 -428l4 -829h-90v1434h135l149 -1260h5l-13 416l-4 844h90zM168 -180v139h98v-139l-20 -107h-43l18 107h-53z" />
    <glyph glyph-name="uni0146" unicode="&#x146;" 
d="M227 1020q0 78 -51 78q-53 0 -53 -78v-1020h-88v1167h88v-61h4q25 74 88 74q45 0 72.5 -42t27.5 -112v-1026h-88v1020zM127 -180v139h100v-139l-22 -107h-43l20 107h-55z" />
    <glyph glyph-name="Ncaron" unicode="&#x147;" horiz-adv-x="432" 
d="M266 1726h66l-47 -233h-101l-49 233h68l30 -151h5zM397 1434v-1434h-135l-149 1257h-4l12 -430l4 -827h-90v1434h135l149 -1260h5l-13 416l-4 844h90z" />
    <glyph glyph-name="ncaron" unicode="&#x148;" 
d="M221 1460h66l-47 -233h-101l-47 233h68l28 -151h5zM227 1020q0 76 -53 76q-51 0 -51 -76v-1020h-88v1167h88v-61h4q22 74 86 74q46 0 74 -42t28 -112v-1026h-88v1020z" />
    <glyph glyph-name="napostrophe" unicode="&#x149;" horiz-adv-x="534" 
d="M27 0v1434h479v-1434h-479zM143 1354l123 -482l123 482h-246zM307 717l119 -459v928zM106 1180v-934l121 471zM268 561l-123 -481h248z" />
    <glyph glyph-name="Eng" unicode="&#x14a;" horiz-adv-x="550" 
d="M35 0v1434h479v-1434h-479zM152 1354l122 -482l123 482h-245zM315 717l119 -459v928zM115 1180v-934l121 471zM276 561l-122 -481h247z" />
    <glyph glyph-name="eng" unicode="&#x14b;" horiz-adv-x="552" 
d="M35 0v1434h479v-1434h-479zM152 1354l122 -482l123 482h-245zM315 717l119 -459v928zM115 1180v-934l121 471zM276 561l-122 -481h247z" />
    <glyph glyph-name="Omacron" unicode="&#x14c;" horiz-adv-x="366" 
d="M285 1616v-94h-205v94h205zM330 1292v-1151q0 -70 -40 -111.5t-108 -41.5q-66 0 -106.5 41.5t-40.5 111.5v1151q0 71 40 112.5t107 41.5q68 0 108 -42t40 -112zM236 1282q0 76 -54 76q-53 0 -53 -76v-1128q0 -78 53 -78q54 0 54 78v1128z" />
    <glyph glyph-name="omacron" unicode="&#x14d;" 
d="M279 1350v-95h-205v95h205zM315 1026v-885q0 -71 -37.5 -112t-101.5 -41q-65 0 -103 41.5t-38 111.5v885q0 70 38 112t103 42q64 0 101.5 -41.5t37.5 -112.5zM227 1020q0 78 -53 78q-51 0 -51 -78v-873q0 -77 51 -77q53 0 53 77v873z" />
    <glyph glyph-name="Obreve" unicode="&#x14e;" horiz-adv-x="366" 
d="M45 1694h76q0 -97 63 -97q62 0 62 97h78q0 -181 -140 -181q-139 0 -139 181zM330 1292v-1151q0 -70 -40 -111.5t-108 -41.5q-66 0 -106.5 41.5t-40.5 111.5v1151q0 71 40 112.5t107 41.5q68 0 108 -41t40 -113zM236 1282q0 76 -54 76q-53 0 -53 -76v-1128q0 -78 53 -78
q54 0 54 78v1128z" />
    <glyph glyph-name="obreve" unicode="&#x14f;" 
d="M35 1427h78q0 -98 63 -98q62 0 62 98h75q0 -180 -137 -180q-141 0 -141 180zM313 1026v-885q0 -70 -37 -111.5t-100 -41.5q-65 0 -103 41.5t-38 111.5v885q0 70 38 112t103 42q63 0 100 -41t37 -113zM227 1022q0 76 -53 76q-51 0 -51 -76v-875q0 -75 51 -75q53 0 53 75
v875z" />
    <glyph glyph-name="Ohungarumlaut" unicode="&#x150;" horiz-adv-x="366" 
d="M154 1491h-72l31 233h94zM289 1491h-72l31 233h94zM330 1292v-1151q0 -71 -40 -112t-108 -41q-66 0 -106.5 41.5t-40.5 111.5v1151q0 71 40 112.5t107 41.5q68 0 108 -42t40 -112zM236 1280q0 78 -54 78q-53 0 -53 -78v-1128q0 -76 53 -76q54 0 54 76v1128z" />
    <glyph glyph-name="ohungarumlaut" unicode="&#x151;" 
d="M145 1225h-71l30 233h95zM281 1225h-72l31 233h94zM315 1026v-885q0 -71 -37.5 -112t-101.5 -41q-65 0 -103 41.5t-38 111.5v885q0 70 38 112t103 42q63 0 101 -42t38 -112zM227 1020q0 78 -53 78q-51 0 -51 -78v-875q0 -75 51 -75q53 0 53 75v875z" />
    <glyph glyph-name="OE" unicode="&#x152;" horiz-adv-x="446" 
d="M408 1434v-88h-78v-566h88v-88h-88v-604h98v-88h-244q-68 0 -108.5 42t-40.5 112v1126q0 70 40.5 112t106.5 42h226zM236 1346h-54q-53 0 -53 -78v-1102q0 -78 53 -78h54v1258z" />
    <glyph glyph-name="oe" unicode="&#x153;" horiz-adv-x="544" 
d="M420 463h88v-322q0 -71 -36 -112t-97 -41q-70 0 -101 51h-4q-31 -51 -98 -51q-62 0 -99.5 41.5t-37.5 111.5v885q0 70 37.5 113t97.5 43q65 0 100 -54h4q35 54 99 54q62 0 98.5 -42t36.5 -114v-442h-193v-437q0 -77 54 -77q51 0 51 77v316zM227 1020q0 78 -51 78
q-53 0 -53 -78v-873q0 -77 53 -77q51 0 51 77v873zM420 1020q0 78 -51 78q-54 0 -54 -78v-352h105v352z" />
    <glyph glyph-name="Racute" unicode="&#x154;" horiz-adv-x="366" 
d="M203 1491h-72l31 233h94zM236 610q0 72 -54 72h-53v-682h-94v1434h147q148 0 148 -154v-432q0 -50 -14 -77t-48 -44v-4q34 -15 48 -42.5t14 -78.5v-432q0 -107 18 -168v-2h-94q-18 76 -18 172v438zM236 1272q0 74 -54 74h-53v-576h53q54 0 54 72v430z" />
    <glyph glyph-name="racute" unicode="&#x155;" horiz-adv-x="350" 
d="M211 1227h-72l31 231h94zM227 1020q0 78 -53 78q-51 0 -51 -78v-1020h-88v1167h88v-61h4q22 74 86 74q46 0 74 -42t28 -112v-338h-88v332z" />
    <glyph glyph-name="uni0156" unicode="&#x156;" horiz-adv-x="366" 
d="M236 610q0 72 -54 72h-53v-682h-94v1434h147q148 0 148 -154v-430q0 -51 -14 -78.5t-48 -42.5v-4q34 -17 48 -44t14 -77v-434q0 -107 18 -166v-4h-94q-18 76 -18 172v438zM236 1272q0 74 -54 74h-53v-576h53q54 0 54 74v428zM145 -180v139h99v-139l-21 -107h-43l19 107
h-54z" />
    <glyph glyph-name="uni0157" unicode="&#x157;" horiz-adv-x="350" 
d="M227 1020q0 78 -51 78q-53 0 -53 -78v-1020h-88v1167h88v-61h4q10 35 33.5 54.5t54.5 19.5q45 0 72.5 -42t27.5 -112v-338h-88v332zM31 -180v139h98v-139l-20 -107h-43l20 107h-55z" />
    <glyph glyph-name="Rcaron" unicode="&#x158;" horiz-adv-x="366" 
d="M215 1726h68l-47 -233h-101l-47 233h66l28 -151h4zM236 610q0 72 -54 72h-53v-682h-94v1434h147q148 0 148 -154v-432q0 -50 -14 -77t-48 -44v-4q34 -15 48 -42.5t14 -78.5v-432q0 -107 18 -168v-2h-94q-18 76 -18 172v438zM236 1272q0 74 -54 74h-53v-576h53q54 0 54 72
v430z" />
    <glyph glyph-name="rcaron" unicode="&#x159;" horiz-adv-x="350" 
d="M225 1458h66l-47 -231h-101l-47 231h68l29 -149h4zM227 1020q0 78 -53 78q-51 0 -51 -78v-1020h-88v1167h88v-61h4q22 74 86 74q46 0 74 -42t28 -112v-338h-88v332z" />
    <glyph glyph-name="Sacute" unicode="&#x15a;" horiz-adv-x="358" 
d="M217 1493h-72l31 231h94zM328 444v-303q0 -70 -41 -111.5t-109 -41.5q-66 0 -105.5 41.5t-39.5 111.5v363h94v-350q0 -78 53 -78t53 78v286q0 58 -15.5 116t-32 92t-48.5 91q-34 62 -51.5 98t-35 102t-17.5 134v219q0 70 40.5 112t106.5 42q68 0 108 -42t40 -112v-299
h-95v289q0 76 -53 76t-53 -76v-205q0 -59 15.5 -117t32 -92.5t48.5 -91.5q34 -62 51.5 -98t35.5 -101.5t18 -132.5z" />
    <glyph glyph-name="sacute" unicode="&#x15b;" horiz-adv-x="344" 
d="M207 1227h-72l31 231h94zM311 385v-244q0 -70 -39 -111.5t-102 -41.5q-64 0 -101.5 41t-37.5 112v271h88v-265q0 -77 51 -77q53 0 53 77v238q0 38 -15 78t-29.5 63t-45.5 66q-33 46 -50.5 74t-34.5 76t-17 98v186q0 70 38 112t103 42q63 0 101 -42t38 -112v-215h-88v209
q0 76 -53 76q-51 0 -51 -76v-178q0 -55 23 -101t67 -106q33 -47 50 -75t34.5 -77.5t17.5 -97.5z" />
    <glyph glyph-name="Scircumflex" unicode="&#x15c;" horiz-adv-x="358" 
d="M150 1493h-66l47 231h100l48 -231h-68l-29 152h-4zM328 444v-303q0 -70 -41 -111.5t-109 -41.5q-66 0 -105.5 41.5t-39.5 111.5v363h94v-350q0 -78 53 -78t53 78v286q0 58 -15.5 116t-32 92t-48.5 91q-34 62 -51.5 98t-35 102t-17.5 134v219q0 70 40.5 112t106.5 42
q68 0 108 -42t40 -112v-299h-95v289q0 76 -53 76t-53 -76v-205q0 -59 15.5 -117t32 -92.5t48.5 -91.5q34 -62 51.5 -98t35.5 -101.5t18 -132.5z" />
    <glyph glyph-name="scircumflex" unicode="&#x15d;" horiz-adv-x="344" 
d="M139 1227h-65l47 231h100l47 -231h-65l-29 149h-6zM311 385v-244q0 -70 -39 -111.5t-102 -41.5q-64 0 -101.5 41t-37.5 112v271h88v-265q0 -77 51 -77q53 0 53 77v238q0 38 -15 78t-29.5 63t-45.5 66q-33 46 -50.5 74t-34.5 76t-17 98v186q0 70 38 112t103 42
q63 0 101 -42t38 -112v-215h-88v209q0 76 -53 76q-51 0 -51 -76v-178q0 -55 23 -101t67 -106q33 -47 50 -75t34.5 -77.5t17.5 -97.5z" />
    <glyph glyph-name="Scedilla" unicode="&#x15e;" horiz-adv-x="358" 
d="M328 444v-301q0 -64 -32.5 -104t-90.5 -49l-6 -31q54 0 89.5 -28t35.5 -72q0 -51 -46 -84t-118 -33q-22 0 -68 8v78q24 -4 47 -4q90 0 90 45q0 41 -100 41l18 82q-54 9 -84 48.5t-30 102.5v361h94v-350q0 -76 53 -76t53 76v286q0 59 -15.5 116t-32.5 93t-48 90
q-34 62 -51.5 98t-35 102t-17.5 134v219q0 70 40.5 112t106.5 42q68 0 108 -42t40 -112v-299h-95v289q0 76 -53 76t-53 -76v-205q0 -59 15.5 -117t32 -92.5t48.5 -91.5q33 -59 51.5 -97t36 -103t17.5 -132z" />
    <glyph glyph-name="scedilla" unicode="&#x15f;" horiz-adv-x="344" 
d="M311 385v-242q0 -62 -30.5 -103t-81.5 -50l-9 -31q56 0 91.5 -28t35.5 -72q0 -51 -46 -84t-119 -33q-18 0 -68 8v78q28 -4 47 -4q92 0 92 45q0 41 -102 41l18 80q-51 9 -79.5 49.5t-28.5 103.5v269h88v-265q0 -75 51 -75q53 0 53 75v238q0 38 -15 78t-29.5 63t-45.5 66
q-33 46 -50.5 74t-34.5 76t-17 98v186q0 70 38 112t103 42q63 0 101 -42t38 -112v-215h-88v209q0 76 -53 76q-51 0 -51 -76v-178q0 -55 23 -101t67 -106q33 -47 50 -75t34.5 -77.5t17.5 -97.5z" />
    <glyph glyph-name="Scaron" unicode="&#x160;" horiz-adv-x="358" 
d="M229 1724h68l-47 -231h-103l-47 231h68l29 -151h4zM328 444v-303q0 -70 -41 -111.5t-109 -41.5q-66 0 -105.5 41.5t-39.5 111.5v363h94v-350q0 -78 53 -78t53 78v286q0 58 -15.5 116t-32 92t-48.5 91q-34 62 -51.5 98t-35 102t-17.5 134v219q0 70 40.5 112t106.5 42
q68 0 108 -42t40 -112v-299h-95v289q0 76 -53 76t-53 -76v-205q0 -59 15.5 -117t32 -92.5t48.5 -91.5q34 -62 51.5 -98t35.5 -101.5t18 -132.5z" />
    <glyph glyph-name="scaron" unicode="&#x161;" horiz-adv-x="344" 
d="M223 1460h66l-47 -233h-101l-47 233h68l28 -151h5zM311 385v-244q0 -70 -39 -111.5t-102 -41.5q-64 0 -101.5 41t-37.5 112v271h88v-265q0 -77 51 -77q53 0 53 77v238q0 38 -15 78t-29.5 63t-45.5 66q-33 46 -50.5 74t-34.5 76t-17 98v186q0 70 38 112t103 42
q63 0 101 -42t38 -112v-215h-88v209q0 76 -53 76q-51 0 -51 -76v-178q0 -55 23 -101t67 -106q33 -47 50 -75t34.5 -77.5t17.5 -97.5z" />
    <glyph glyph-name="uni0162" unicode="&#x162;" horiz-adv-x="321" 
d="M305 1434v-88h-96v-1344l-21 -2l-8 -41q54 0 89.5 -28t35.5 -72q0 -51 -46 -84t-118 -33q-21 0 -67 8v78q24 -4 47 -4q92 0 92 45q0 41 -102 41l20 92h-16v1344h-99v88h289z" />
    <glyph glyph-name="uni0163" unicode="&#x163;" horiz-adv-x="200" 
d="M45 1393h88v-226h57v-82h-57v-956q0 -31 8.5 -39t48.5 -8v-80h-26l-8 -43q54 0 89.5 -28t35.5 -72q0 -51 -46.5 -84t-119.5 -33q-20 0 -66 8v78q24 -4 47 -4q90 0 90 45q0 41 -102 41l22 94q-34 5 -47.5 28t-13.5 81v972h-29v82h29v226z" />
    <glyph glyph-name="Tcaron" unicode="&#x164;" horiz-adv-x="321" 
d="M209 1724h65l-47 -231h-100l-47 231h67l29 -149h4zM305 1434v-88h-96v-1346h-94v1346h-99v88h289z" />
    <glyph glyph-name="tcaron" unicode="&#x165;" horiz-adv-x="237" 
d="M150 1303l12 192h90l-33 -192h-69zM45 1393h88v-226h57v-82h-57v-956q0 -31 9 -40t48 -9v-80h-40q-61 0 -83 21t-22 92v972h-29v82h29v226z" />
    <glyph glyph-name="Tbar" unicode="&#x166;" horiz-adv-x="321" 
d="M305 1434v-88h-96v-629h61v-88h-61v-629h-94v629h-62v88h62v629h-99v88h289z" />
    <glyph glyph-name="tbar" unicode="&#x167;" horiz-adv-x="200" 
d="M45 1393h88v-226h57v-82h-57v-43l12 2l45 -77l-57 -4v-834q0 -31 9 -40t48 -9v-80h-40q-61 0 -83 21t-22 92v872l-29 47l29 2v51h-29v82h29v226z" />
    <glyph glyph-name="Utilde" unicode="&#x168;" horiz-adv-x="366" 
d="M309 1692v-27q0 -79 -15.5 -114t-49.5 -35q-25 0 -46 20t-37.5 39.5t-31.5 19.5q-25 0 -25 -59v-20h-45v22q0 82 14.5 118t47.5 36q24 0 45.5 -20.5t39.5 -41t34 -20.5q24 0 24 53v29h45zM332 1434v-1293q0 -71 -40.5 -112t-107.5 -41t-108 41.5t-41 111.5v1293h94v-1282
q0 -76 53 -76q54 0 54 76v1282h96z" />
    <glyph glyph-name="utilde" unicode="&#x169;" 
d="M299 1425v-24q0 -82 -15.5 -117t-50.5 -35q-24 0 -44.5 20t-37 40t-32.5 20q-23 0 -23 -59v-21h-47v23q0 83 15 119t49 36q24 0 45.5 -20.5t38.5 -40.5t32 -20q27 0 27 53v26h43zM123 145q0 -75 53 -75q51 0 51 75v1022h88v-1167h-88v61h-4q-22 -73 -86 -73q-46 0 -74 41
t-28 112v1026h88v-1022z" />
    <glyph glyph-name="Umacron" unicode="&#x16a;" horiz-adv-x="366" 
d="M283 1616v-94h-205v94h205zM330 1434v-1293q0 -70 -40 -111.5t-106 -41.5q-68 0 -108.5 41.5t-40.5 111.5v1293h94v-1280q0 -78 53 -78q54 0 54 78v1280h94z" />
    <glyph glyph-name="umacron" unicode="&#x16b;" 
d="M276 1350v-95h-204v95h204zM123 147q0 -77 53 -77q51 0 51 77v1020h88v-1167h-88v61h-4q-22 -73 -86 -73q-46 0 -74 41.5t-28 111.5v1026h88v-1020z" />
    <glyph glyph-name="Ubreve" unicode="&#x16c;" horiz-adv-x="366" 
d="M43 1694h76q0 -97 63 -97q62 0 62 97h78q0 -181 -140 -181q-139 0 -139 181zM330 1434v-1293q0 -70 -40 -111.5t-106 -41.5q-68 0 -108.5 41.5t-40.5 111.5v1293h94v-1280q0 -78 53 -78q54 0 54 78v1280h94z" />
    <glyph glyph-name="ubreve" unicode="&#x16d;" 
d="M37 1427h76q0 -98 63 -98q62 0 62 98h75q0 -180 -137 -180q-139 0 -139 180zM123 147q0 -75 53 -75q51 0 51 75v1020h90v-1167h-90v61h-4q-22 -73 -86 -73q-46 0 -74 41.5t-28 111.5v1026h88v-1020z" />
    <glyph glyph-name="Uring" unicode="&#x16e;" horiz-adv-x="366" 
d="M63 1610q0 116 119 116q57 0 88 -30t31 -88q0 -56 -30.5 -86.5t-88.5 -30.5t-88.5 31t-30.5 88zM127 1610q0 -54 55 -54q54 0 54 52q0 53 -54 53q-55 0 -55 -51zM330 1434v-1293q0 -70 -40 -111.5t-106 -41.5q-67 0 -108 41.5t-41 111.5v1293h96v-1280q0 -78 51 -78
q54 0 54 78v1280h94z" />
    <glyph glyph-name="uring" unicode="&#x16f;" 
d="M55 1343q0 56 31 86.5t90 30.5q57 0 88 -31t31 -88q0 -56 -30.5 -86t-88.5 -30q-121 0 -121 118zM121 1341q0 -51 55 -51q53 0 53 51q0 54 -53 54q-55 0 -55 -54zM125 147q0 -77 51 -77t51 77v1020h90v-1167h-90v61h-4q-22 -73 -86 -73q-46 0 -74 41.5t-28 111.5v1026h90
v-1020z" />
    <glyph glyph-name="Uhungarumlaut" unicode="&#x170;" horiz-adv-x="366" 
d="M152 1491h-72l31 233h94zM287 1491h-72l31 233h94zM330 1434v-1293q0 -71 -39.5 -112t-106.5 -41q-68 0 -108.5 41.5t-40.5 111.5v1293h94v-1282q0 -76 53 -76q54 0 54 76v1282h94z" />
    <glyph glyph-name="uhungarumlaut" unicode="&#x171;" 
d="M145 1225h-71l30 233h95zM281 1225h-72l31 233h94zM123 147q0 -77 53 -77q51 0 51 77v1020h88v-1167h-88v61h-4q-22 -73 -86 -73q-46 0 -74 41t-28 112v1026h88v-1020z" />
    <glyph glyph-name="Uogonek" unicode="&#x172;" horiz-adv-x="366" 
d="M330 1434v-1293q0 -58 -27.5 -96.5t-75.5 -50.5q-39 -22 -39 -64q0 -23 15 -36t37 -13q12 0 16 2v-94q-8 -4 -35 -4q-47 0 -76.5 28.5t-29.5 71.5q0 66 59 103q-63 3 -101 44.5t-38 108.5v1293h94v-1280q0 -78 53 -78q54 0 54 78v1280h94z" />
    <glyph glyph-name="uogonek" unicode="&#x173;" 
d="M123 147q0 -75 53 -75q51 0 51 75v1022h90v-1169h-4q-30 -3 -48.5 -23t-18.5 -47q0 -23 14 -36t37 -13q12 0 16 2v-94q-8 -4 -34 -4q-47 0 -76 28.5t-29 71.5q0 39 22.5 69.5t61.5 45.5h-31v61h-4q-9 -34 -31.5 -53.5t-54.5 -19.5q-46 0 -74 42t-28 113v1024h88v-1020z
" />
    <glyph glyph-name="Wcircumflex" unicode="&#x174;" horiz-adv-x="559" 
d="M246 1491h-66l45 233h103l47 -233h-68l-28 151h-5zM553 1434l-88 -1434h-131l-45 1022l-8 248h-5l-6 -248l-45 -1022h-131l-88 1434h98l39 -920l13 -379h6l12 379l41 920h129l41 -920l12 -379h4l15 379l39 920h98z" />
    <glyph glyph-name="wcircumflex" unicode="&#x175;" horiz-adv-x="534" 
d="M236 1225h-68l47 233h102l48 -233h-68l-29 151h-4zM430 1167h92l-86 -1167h-121l-36 780l-9 256h-4l-10 -256l-37 -780h-121l-88 1167h94l39 -749l13 -307h4l12 307l41 749h109l38 -749l13 -307h4l12 307z" />
    <glyph glyph-name="Ycircumflex" unicode="&#x176;" horiz-adv-x="329" 
d="M133 1493h-67l47 231h100l47 -231h-65l-29 149h-4zM322 1434l-111 -912v-522h-94v522l-113 912h98l48 -498l12 -203h4l12 203l47 498h97z" />
    <glyph glyph-name="ycircumflex" unicode="&#x177;" horiz-adv-x="327" 
d="M131 1225h-68l48 233h102l47 -233h-67l-29 151h-4zM102 1167l52 -647l12 -293h4l12 293l51 647h84l-137 -1495h-84l31 328l-117 1167h92z" />
    <glyph glyph-name="Ydieresis" unicode="&#x178;" horiz-adv-x="329" 
d="M76 1507v148h74v-148h-74zM180 1507v148h74v-148h-74zM324 1434l-113 -912v-522h-94v522l-111 912h96l48 -498l12 -203h4l12 203l47 498h99z" />
    <glyph glyph-name="Zacute" unicode="&#x179;" horiz-adv-x="309" 
d="M195 1493h-74l31 231h96zM287 1434v-88l-174 -1258h178v-88h-275v88l174 1258h-159v88h256z" />
    <glyph glyph-name="zacute" unicode="&#x17a;" horiz-adv-x="301" 
d="M186 1227h-73l30 231h97zM279 1167v-82l-173 -1003h177v-82h-267v82l172 1003h-161v82h252z" />
    <glyph glyph-name="Zdotaccent" unicode="&#x17b;" horiz-adv-x="309" 
d="M106 1507v140h105v-140h-105zM287 1434v-88l-174 -1258h178v-88h-275v88l174 1258h-159v88h256z" />
    <glyph glyph-name="zdotaccent" unicode="&#x17c;" horiz-adv-x="301" 
d="M96 1241v139h107v-139h-107zM279 1167v-82l-170 -1003h174v-82h-267v82l172 1003h-161v82h252z" />
    <glyph glyph-name="Zcaron" unicode="&#x17d;" horiz-adv-x="309" 
d="M207 1724h67l-47 -231h-102l-47 231h67l29 -149h4zM287 1434v-88l-174 -1258h178v-88h-275v88l174 1258h-159v88h256z" />
    <glyph glyph-name="zcaron" unicode="&#x17e;" horiz-adv-x="301" 
d="M199 1458h67l-47 -231h-102l-47 231h67l29 -149h4zM279 1167v-82l-173 -1003h177v-82h-267v82l172 1003h-161v82h252z" />
    <glyph glyph-name="longs" unicode="&#x17f;" horiz-adv-x="534" 
d="M27 0v1434h479v-1434h-479zM143 1354l123 -482l123 482h-246zM307 717l119 -459v928zM106 1180v-934l121 471zM268 561l-123 -481h248z" />
    <glyph glyph-name="florin" unicode="&#x192;" horiz-adv-x="233" 
d="M37 -430v80q35 0 42 8.5t7 40.5v1427h-29v82h29v189q0 66 8.5 94t28 36.5t67.5 8.5h33v-80q-35 0 -42 -8t-7 -41v-199h49v-82h-49v-1417q0 -94 -17.5 -116.5t-86.5 -22.5h-33z" />
    <glyph glyph-name="AEacute" unicode="&#x1fc;" horiz-adv-x="440" 
d="M317 1491h-73l30 233h97zM401 1434v-88h-77v-566h88v-88h-88v-604h98v-88h-193v389h-94l-41 -389h-88l156 1434h239zM145 477h84v819h-4l-32 -376z" />
    <glyph glyph-name="aeacute" unicode="&#x1fd;" horiz-adv-x="544" 
d="M281 1178h-72l31 233h94zM240 82h-4q-10 -44 -37 -69t-62 -25q-46 0 -74 41.5t-28 111.5v285q0 102 35 144t157 92v358q0 78 -51 78q-53 0 -53 -78v-270h-88v276q0 71 37 112.5t98 41.5q66 0 100 -52h4q30 52 101 52q61 0 97 -41.5t36 -112.5v-442h-193v-437
q0 -77 54 -77q51 0 51 77v316h88v-322q0 -70 -37 -111.5t-100 -41.5q-50 0 -84.5 25t-46.5 69zM420 1020q0 78 -51 78q-54 0 -54 -78v-352h105v352zM227 578q-71 -34 -87.5 -59.5t-16.5 -98.5v-273q0 -77 53 -77q51 0 51 77v431z" />
    <glyph glyph-name="Oslashacute" unicode="&#x1fe;" horiz-adv-x="366" 
d="M219 1491h-72l31 233h94zM330 1292v-1151q0 -71 -40 -112t-108 -41q-58 0 -96 30l-6 -30l-45 10l12 72q-12 30 -12 71v1151q0 71 40 112.5t107 41.5q54 0 97 -31l4 31l47 -10l-13 -76q13 -32 13 -68zM236 1280q0 78 -54 78q-53 0 -53 -78v-739l107 622v117zM236 883
l-107 -619v-112q0 -76 53 -76q54 0 54 76v731z" />
    <glyph glyph-name="oslashacute" unicode="&#x1ff;" 
d="M213 1225h-72l31 233h94zM315 1026v-885q0 -71 -37.5 -112t-101.5 -41q-51 0 -90 28l-6 -28l-45 10l14 68q-14 28 -14 75v885q0 70 38 112t103 42q51 0 88 -29l6 27l45 -11l-14 -69q14 -28 14 -72zM227 1020q0 78 -53 78q-51 0 -51 -78v-584l104 527v57zM123 197v-52
q0 -75 51 -75q53 0 53 75v574z" />
    <glyph glyph-name="uni0218" unicode="&#x218;" horiz-adv-x="358" 
d="M328 444v-303q0 -70 -41 -111.5t-109 -41.5q-66 0 -105.5 41.5t-39.5 111.5v363h94v-350q0 -78 53 -78t53 78v286q0 58 -15.5 116t-32 92t-48.5 91q-34 62 -51.5 98t-35 102t-17.5 134v219q0 70 40.5 112t106.5 42q68 0 108 -42t40 -112v-299h-95v289q0 76 -53 76
t-53 -76v-205q0 -59 15.5 -117t32 -92.5t48.5 -91.5q34 -62 51.5 -98t35.5 -101.5t18 -132.5zM133 -180v139h96v-139l-20 -107h-43l18 107h-51z" />
    <glyph glyph-name="uni0219" unicode="&#x219;" horiz-adv-x="344" 
d="M311 385v-244q0 -70 -39 -111.5t-102 -41.5q-64 0 -101.5 41t-37.5 112v271h88v-265q0 -77 53 -77q51 0 51 77v238q0 38 -15 78t-29.5 63t-45.5 66q-33 46 -50.5 74t-34.5 76t-17 98v186q0 70 38 112t103 42q63 0 101 -42t38 -112v-215h-88v209q0 76 -51 76
q-53 0 -53 -76v-178q0 -38 15 -78t29.5 -63t45.5 -66q33 -47 50 -75t34.5 -77.5t17.5 -97.5zM123 -180v139h98v-139l-20 -107h-43l18 107h-53z" />
    <glyph glyph-name="uni021A" unicode="&#x21a;" horiz-adv-x="321" 
d="M305 1434v-88h-98v-1346h-92v1346h-99v88h289zM113 -180v139h98v-139l-21 -107h-43l21 107h-55z" />
    <glyph glyph-name="uni021B" unicode="&#x21b;" horiz-adv-x="200" 
d="M45 1393h88v-226h57v-82h-57v-956q0 -31 9 -40t48 -9v-80h-40q-61 0 -83 21t-22 92v972h-29v82h29v226zM88 -180v139h98v-139l-20 -107h-43l18 107h-53z" />
    <glyph glyph-name="uni0237" unicode="&#x237;" horiz-adv-x="161" 
d="M125 1167v-1378q0 -81 -21.5 -103t-83.5 -22h-32v80q34 0 41.5 8.5t7.5 40.5v1374h88z" />
    <glyph glyph-name="circumflex" unicode="&#x2c6;" horiz-adv-x="249" 
d="M94 1178h-67l47 233h102l47 -233h-67l-29 151h-4z" />
    <glyph glyph-name="caron" unicode="&#x2c7;" horiz-adv-x="311" 
d="M217 1409h68l-47 -233h-103l-47 233h68l28 -152h4z" />
    <glyph glyph-name="breve" unicode="&#x2d8;" horiz-adv-x="335" 
d="M29 1378h77q0 -98 62 -98q63 0 63 98h76q0 -180 -139 -180t-139 180z" />
    <glyph glyph-name="dotaccent" unicode="&#x2d9;" horiz-adv-x="159" 
d="M27 1192v139h104v-139h-104z" />
    <glyph glyph-name="ring" unicode="&#x2da;" horiz-adv-x="294" 
d="M29 1292q0 117 118 117q57 0 88 -30t31 -87q0 -116 -119 -116q-118 0 -118 116zM94 1292q0 -53 53 -53q54 0 54 53q0 54 -54 54q-53 0 -53 -54z" />
    <glyph glyph-name="ogonek" unicode="&#x2db;" horiz-adv-x="196" 
d="M170 -8v-12q-30 -3 -49 -23t-19 -47q0 -23 14 -36t38 -13q12 0 16 2v-94q-10 -5 -35 -5q-47 0 -76.5 29t-29.5 72q0 52 39.5 88t101.5 39z" />
    <glyph glyph-name="tilde" unicode="&#x2dc;" horiz-adv-x="305" 
d="M279 1378v-26q0 -150 -66 -150q-24 0 -44.5 20.5t-37.5 41t-33 20.5q-24 0 -24 -59v-23h-45v25q0 81 14.5 116t46.5 35q24 0 46 -20t40 -40t33 -20q24 0 24 52v28h46z" />
    <glyph glyph-name="hungarumlaut" unicode="&#x2dd;" horiz-adv-x="358" 
d="M100 1178h-73l30 233h97zM236 1178h-74l31 233h96z" />
    <glyph glyph-name="uni03BC" unicode="&#x3bc;" horiz-adv-x="534" 
d="M27 0v1434h479v-1434h-479zM143 1354l123 -482l123 482h-246zM307 717l119 -459v928zM106 1180v-934l121 471zM268 561l-123 -481h248z" />
    <glyph glyph-name="Wgrave" unicode="&#x1e80;" horiz-adv-x="559" 
d="M242 1493l-54 231h97l30 -231h-73zM553 1434l-88 -1434h-131l-45 1022l-8 248h-5l-6 -248l-45 -1022h-131l-88 1434h98l39 -920l13 -379h6l12 379l41 920h129l41 -920l12 -379h4l15 379l39 920h98z" />
    <glyph glyph-name="wgrave" unicode="&#x1e81;" horiz-adv-x="534" 
d="M231 1227l-53 231h94l31 -231h-72zM430 1167h92l-86 -1167h-121l-36 782l-9 256h-4l-10 -256l-37 -782h-121l-88 1167h94l39 -747l13 -309h4l12 309l41 747h109l38 -747l13 -309h4l12 309z" />
    <glyph glyph-name="Wacute" unicode="&#x1e82;" horiz-adv-x="559" 
d="M315 1491h-73l30 233h97zM553 1434l-88 -1434h-131l-45 1022l-8 248h-5l-6 -248l-45 -1022h-131l-88 1434h98l39 -920l13 -379h6l12 379l41 920h129l41 -920l12 -379h4l15 379l39 920h98z" />
    <glyph glyph-name="wacute" unicode="&#x1e83;" horiz-adv-x="534" 
d="M301 1225h-72l31 233h94zM430 1167h92l-86 -1167h-121l-36 780l-9 256h-4l-10 -256l-37 -780h-121l-88 1167h94l39 -749l13 -307h4l12 307l41 749h109l40 -749l13 -307h2l12 307z" />
    <glyph glyph-name="Wdieresis" unicode="&#x1e84;" horiz-adv-x="559" 
d="M190 1507v148h74v-148h-74zM295 1507v148h74v-148h-74zM553 1434l-88 -1434h-131l-45 1024l-8 248h-5l-8 -248l-43 -1024h-131l-88 1434h98l39 -918l15 -379h4l14 379l39 918h129l41 -918l12 -379h4l15 379l39 918h98z" />
    <glyph glyph-name="wdieresis" unicode="&#x1e85;" horiz-adv-x="534" 
d="M176 1241v148h74v-148h-74zM281 1241v148h73v-148h-73zM430 1167h92l-86 -1167h-119l-38 782l-9 256h-4l-10 -256l-37 -782h-121l-88 1167h94l39 -747l13 -309h4l12 309l41 747h109l38 -747l15 -309h2l12 309z" />
    <glyph glyph-name="Ygrave" unicode="&#x1ef2;" horiz-adv-x="329" 
d="M129 1493l-53 231h94l31 -231h-72zM322 1434l-111 -912v-522h-94v522l-113 912h98l48 -498l12 -203h4l12 203l47 498h97z" />
    <glyph glyph-name="ygrave" unicode="&#x1ef3;" horiz-adv-x="327" 
d="M127 1227l-53 231h96l31 -231h-74zM104 1167l50 -647l12 -293h4l14 293l49 647h84l-137 -1495h-82l29 328l-117 1167h94z" />
    <glyph glyph-name="endash" unicode="&#x2013;" horiz-adv-x="839" 
d="M813 739v-88h-786v88h786z" />
    <glyph glyph-name="emdash" unicode="&#x2014;" horiz-adv-x="1331" 
d="M1305 739v-88h-1278v88h1278z" />
    <glyph glyph-name="quoteleft" unicode="&#x2018;" horiz-adv-x="159" 
d="M131 1288v-153h-104v153l30 146h49l-28 -146h53z" />
    <glyph glyph-name="quoteright" unicode="&#x2019;" horiz-adv-x="159" 
d="M29 1280v154h104v-154l-31 -145h-49l29 145h-53z" />
    <glyph glyph-name="quotesinglbase" unicode="&#x201a;" horiz-adv-x="159" 
d="M27 0v154h104v-154l-31 -145h-49l29 145h-53z" />
    <glyph glyph-name="quotedblleft" unicode="&#x201c;" horiz-adv-x="309" 
d="M131 1288v-153h-104v153l30 146h49l-28 -146h53zM281 1288v-153h-105v153l31 146h49l-29 -146h54z" />
    <glyph glyph-name="quotedblright" unicode="&#x201d;" horiz-adv-x="309" 
d="M178 1280v154h105v-154l-31 -145h-49l28 145h-53zM29 1280v154h104v-154l-31 -145h-49l29 145h-53z" />
    <glyph glyph-name="quotedblbase" unicode="&#x201e;" horiz-adv-x="305" 
d="M27 0v154h104v-154l-31 -145h-49l29 145h-53zM172 0v154h104v-154l-30 -145h-49l28 145h-53z" />
    <glyph glyph-name="dagger" unicode="&#x2020;" horiz-adv-x="299" 
d="M102 1434h95v-267h75v-88h-75v-1079h-95v1079h-75v88h75v267z" />
    <glyph glyph-name="daggerdbl" unicode="&#x2021;" horiz-adv-x="299" 
d="M27 1079v88h75v267h95v-267h73v-88h-73v-725h73v-88h-73v-266h-95v266h-75v88h75v725h-75z" />
    <glyph glyph-name="bullet" unicode="&#x2022;" horiz-adv-x="210" 
d="M29 743q0 31 22 53.5t53 22.5q32 0 55 -22.5t23 -53.5q0 -32 -23 -54.5t-55 -22.5q-31 0 -53 22.5t-22 54.5z" />
    <glyph glyph-name="ellipsis" unicode="&#x2026;" horiz-adv-x="509" 
d="M27 0v154h104v-154h-104zM199 0v154h104v-154h-104zM375 0v154h104v-154h-104z" />
    <glyph glyph-name="perthousand" unicode="&#x2030;" horiz-adv-x="1196" 
d="M315 1292v-526q0 -71 -37.5 -112.5t-101.5 -41.5q-65 0 -103 42t-38 112v526q0 70 38 112t103 42q63 0 101 -41.5t38 -112.5zM68 0l614 1434h90l-614 -1434h-90zM227 1286q0 78 -51 78q-53 0 -53 -78v-514q0 -78 53 -78q51 0 51 78v514zM805 668v-527q0 -71 -37.5 -112
t-101.5 -41q-65 0 -103.5 41.5t-38.5 111.5v527q0 70 38.5 111.5t103.5 41.5q64 0 101.5 -41t37.5 -112zM1167 668v-527q0 -71 -37.5 -112t-101.5 -41q-65 0 -103 41.5t-38 111.5v527q0 70 38 111.5t103 41.5q64 0 101.5 -41t37.5 -112zM717 662q0 77 -51 77q-54 0 -54 -77
v-515q0 -77 54 -77q51 0 51 77v515zM1079 662q0 77 -51 77q-53 0 -53 -77v-515q0 -77 53 -77q51 0 51 77v515z" />
    <glyph glyph-name="guilsinglleft" unicode="&#x2039;" horiz-adv-x="196" 
d="M27 588l61 246h82l-61 -246l61 -246h-82z" />
    <glyph glyph-name="guilsinglright" unicode="&#x203a;" horiz-adv-x="196" 
d="M170 588l-61 -246h-82l61 246l-61 246h82z" />
    <glyph glyph-name="fraction" unicode="&#x2044;" horiz-adv-x="405" 
d="M94 0h-67l282 1434h68z" />
    <glyph glyph-name="uni2074" unicode="&#x2074;" horiz-adv-x="272" 
d="M29 727v51l90 656h100v-643h27v-64h-27v-106h-63v106h-127zM92 791h64l6 579h-2z" />
    <glyph glyph-name="Euro" unicode="&#x20ac;" horiz-adv-x="419" 
d="M291 1280q0 78 -53 78q-54 0 -54 -78v-403h166l-16 -80h-150v-92h146l-17 -80h-129v-473q0 -76 54 -76q53 0 53 76v372h94v-383q0 -71 -39 -112t-106 -41q-68 0 -109 41.5t-41 111.5v484h-55v80h55v92h-55v80h55v415q0 70 41 112t107 42q67 0 107 -41.5t40 -112.5v-319
h-94v307z" />
    <glyph glyph-name="trademark" unicode="&#x2122;" horiz-adv-x="434" 
d="M141 1434v-54h-28v-376h-56v376h-28v54h112zM406 1434v-430h-54v307l2 71h-2l-26 -378h-86l-29 378h-2l2 -71v-307h-53v430h100l21 -265l4 -100h4l2 100l18 265h99z" />
    <glyph glyph-name="minus" unicode="&#x2212;" horiz-adv-x="448" 
d="M422 737v-88h-395v88h395z" />
    <glyph glyph-name="fi" unicode="&#xfb01;" horiz-adv-x="358" 
d="M45 0v1085h-29v82h29v189q0 51 3 76.5t16 41t31 18.5t55 3h32v-80q-35 0 -42 -8.5t-7 -40.5v-199h49v-82h-49v-1085h-88zM231 1208v170h88v-170h-88zM231 0v1167h88v-1167h-88z" />
    <glyph glyph-name="fl" unicode="&#xfb02;" horiz-adv-x="358" 
d="M45 0v1085h-29v82h29v189q0 51 3 76.5t16 41t31 18.5t55 3h32v-80q-35 0 -42 -8t-7 -41v-199h49v-82h-49v-1085h-88zM231 0v1495h88v-1495h-88z" />
    <glyph glyph-name="ethbar" horiz-adv-x="231" 
d="M203 739v-88h-176v88h176z" />
    <glyph glyph-name="crossbar" horiz-adv-x="307" 
d="M242 760l37 -80l-216 -88l-36 80z" />
    <glyph glyph-name="ethbar.case" horiz-adv-x="272" 
d="M244 737v-88h-217v88h217z" />
    <glyph glyph-name="crossbar.case" horiz-adv-x="307" 
d="M244 774l35 -80l-216 -90l-34 80z" />
    <glyph glyph-name="commaccent" horiz-adv-x="155" 
d="M29 -213l12 193h88l-33 -193h-67z" />
    <glyph glyph-name="commaccent2" horiz-adv-x="155" 
d="M29 0v139h98v-139l-21 -106h-43l19 106h-53z" />
    <glyph glyph-name="commaccent3" horiz-adv-x="155" 
d="M127 139v-139h-98v139l20 107h43l-18 -107h53z" />
    <glyph glyph-name="tbarnew" horiz-adv-x="229" 
d="M156 737l43 -75l-129 -13l-45 76z" />
    <glyph glyph-name="ogonek2" horiz-adv-x="196" 
d="M162 -8l2 -15q-24 -6 -38.5 -25t-14.5 -42t14 -36t37 -13q12 0 16 2v-94q-10 -5 -35 -5q-47 0 -76.5 29t-29.5 72q0 46 35 83t90 44z" />
    <glyph glyph-name="custombarH" horiz-adv-x="430" 
d="M401 739v-88h-374v88h374z" />
    <glyph glyph-name="dotaccent2" horiz-adv-x="159" 
d="M27 1192v139h104v-139h-104z" />
    </font>
</defs>
</svg>
