<?xml version="1.0" standalone="no"?>
<!DOCTYPE svg PUBLIC "-//W3C//DTD SVG 1.1//EN" "http://www.w3.org/Graphics/SVG/1.1/DTD/svg11.dtd" >
<svg xmlns="http://www.w3.org/2000/svg" xmlns:xlink="http://www.w3.org/1999/xlink" version="1.1">
<metadata>
Created by FontForge 20201107 at Fri Oct 18 01:53:54 2024
 By 
(c)rajeshrajput
</metadata>
<defs>
<font id="Humane-SemiBold" horiz-adv-x="440" >
  <font-face 
    font-family="Mango Grotesque SemBd"
    font-weight="600"
    font-stretch="normal"
    units-per-em="2048"
    panose-1="0 0 0 0 0 0 0 0 0 0"
    ascent="1638"
    descent="-410"
    x-height="1167"
    cap-height="1434"
    bbox="-68 -430 1505 1802"
    underline-thickness="102"
    underline-position="-255"
    unicode-range="U+000D-FB02"
  />
<missing-glyph horiz-adv-x="684" 
d="M37 0v1434h610v-1434h-610zM197 1317l145 -443l143 443h-288zM395 719l135 -412v832zM154 1133v-838l137 424zM344 561l-145 -444h293z" />
    <glyph glyph-name=".notdef" horiz-adv-x="684" 
d="M37 0v1434h610v-1434h-610zM197 1317l145 -443l143 443h-288zM395 719l135 -412v832zM154 1133v-838l137 424zM344 561l-145 -444h293z" />
    <glyph glyph-name="uni0000" horiz-adv-x="0" 
 />
    <glyph glyph-name="uni0000" horiz-adv-x="0" 
 />
    <glyph glyph-name="uni000D" unicode="&#xd;" horiz-adv-x="512" 
 />
    <glyph glyph-name="space" unicode=" " horiz-adv-x="178" 
 />
    <glyph glyph-name="exclam" unicode="!" horiz-adv-x="286" 
d="M37 1434h211v-205l-58 -922h-94l-59 922v205zM55 0v225h178v-225h-178z" />
    <glyph glyph-name="quotedbl" unicode="&#x22;" horiz-adv-x="471" 
d="M432 1434v-142l-10 -207h-158l-10 207v142h178zM215 1434v-142l-10 -207h-158l-10 207v142h178z" />
    <glyph glyph-name="numbersign" unicode="#" horiz-adv-x="628" 
d="M72 0l26 442h-61v148h69l15 254h-64v147h72l25 443h178l-25 -443h53l27 443h176l-24 -443h51v-147h-60l-14 -254h53v-148h-61l-27 -442h-176l25 442h-56l-24 -442h-178zM283 590h55l14 254h-53z" />
    <glyph glyph-name="dollar" unicode="$" horiz-adv-x="448" 
d="M430 440v-247q0 -75 -36 -125.5t-99 -69.5l18 -201h-176l19 201q-63 19 -99.5 69.5t-36.5 125.5v311h179v-314q0 -40 26 -40q29 0 29 40v250q0 45 -17.5 96t-35.5 83t-54 92q-41 67 -62.5 107t-43 107.5t-21.5 131.5v184q0 74 36.5 125t99.5 70l-19 200h176l-18 -198
q63 -19 99 -70.5t36 -126.5v-248h-176v250q0 41 -29 41q-26 0 -26 -41v-186q0 -45 17 -95.5t35 -84t54 -91.5q31 -53 46 -80t37.5 -76t32 -95t9.5 -95z" />
    <glyph glyph-name="percent" unicode="%" horiz-adv-x="1093" 
d="M432 1241v-424q0 -95 -54 -150t-142 -55q-89 0 -144 55t-55 150v424q0 94 55.5 149.5t143.5 55.5q89 0 142.5 -54.5t53.5 -150.5zM152 0l616 1434h174l-612 -1434h-178zM262 1245q0 43 -26 43q-29 0 -29 -43v-432q0 -43 29 -43q26 0 26 43v432zM1057 616v-423
q0 -95 -54.5 -150t-142.5 -55t-142 55t-54 150v423q0 94 55 149.5t143 55.5t141.5 -55t53.5 -150zM887 621q0 43 -27 43q-26 0 -26 -43v-433q0 -43 26 -43q27 0 27 43v433z" />
    <glyph glyph-name="ampersand" unicode="&#x26;" horiz-adv-x="497" 
d="M256 999h178v-211h41v-161h-41v-625h-178v80l-4 2q-14 -46 -40.5 -71t-61.5 -25q-56 0 -90.5 55.5t-34.5 149.5v331q0 86 15 125.5t64 57.5v4q-50 18 -64.5 56t-14.5 124v350q0 94 57.5 149.5t148.5 55.5t147 -55t56 -150v-188h-178v190q0 41 -27 41q-26 0 -26 -41v-414
q0 -41 26 -41h27v211zM256 627h-27q-26 0 -26 -41v-393q0 -43 26 -43q27 0 27 45v432z" />
    <glyph glyph-name="quotesingle" unicode="'" horiz-adv-x="251" 
d="M215 1434v-142l-10 -207h-158l-10 207v142h178z" />
    <glyph glyph-name="parenleft" unicode="(" horiz-adv-x="311" 
d="M162 -399q-137 535 -137 991t137 985l127 -21q-86 -566 -86 -964q0 -378 86 -971z" />
    <glyph glyph-name="parenright" unicode=")" horiz-adv-x="311" 
d="M150 1577q137 -535 137 -991t-137 -985l-127 20q86 566 86 965q0 377 -86 970z" />
    <glyph glyph-name="asterisk" unicode="*" horiz-adv-x="395" 
d="M61 1221l60 61l-82 12l37 117l74 -37l-13 80h123l-14 -80l73 37l37 -117l-80 -12l60 -59l-100 -74l-37 76l-39 -76z" />
    <glyph glyph-name="plus" unicode="+" horiz-adv-x="579" 
d="M543 776v-162h-164v-163h-178v163h-164v162h164v164h178v-164h164z" />
    <glyph glyph-name="comma" unicode="," horiz-adv-x="251" 
d="M37 0v225h178v-225l-39 -166h-92l39 166h-86z" />
    <glyph glyph-name="hyphen" unicode="-" horiz-adv-x="333" 
d="M297 776v-162h-260v162h260z" />
    <glyph glyph-name="period" unicode="." horiz-adv-x="251" 
d="M37 0v225h178v-225h-178z" />
    <glyph glyph-name="slash" unicode="/" horiz-adv-x="432" 
d="M215 -164h-178l180 1659h178z" />
    <glyph glyph-name="zero" unicode="0" horiz-adv-x="456" 
d="M434 1241v-1048q0 -95 -56 -150t-147 -55q-92 0 -148 55t-56 150v1048q0 94 56.5 149.5t147.5 55.5q92 0 147.5 -54.5t55.5 -150.5zM258 1243q0 41 -29 41q-26 0 -26 -41v-1053q0 -40 26 -40q29 0 29 40v1053z" />
    <glyph glyph-name="one" unicode="1" horiz-adv-x="374" 
d="M276 1434v-1272h76v-162h-327v162h73v1018h-73v139q69 0 95.5 24.5t26.5 90.5h129z" />
    <glyph glyph-name="two" unicode="2" horiz-adv-x="458" 
d="M25 0v166q0 82 23 171.5t45 140.5t65 143q34 73 50 111.5t32 94.5t16 99v317q0 43 -27 43q-26 0 -26 -43v-352h-178v350q0 95 55.5 150t146.5 55q92 0 149.5 -57t57.5 -154v-311q0 -61 -20.5 -134.5t-40.5 -119.5t-60 -129q-36 -75 -55 -119.5t-37 -114.5t-18 -133v-14
h231v-160h-409z" />
    <glyph glyph-name="three" unicode="3" horiz-adv-x="456" 
d="M203 1243v-291h-178v289q0 95 55.5 150t146.5 55q92 0 149.5 -55.5t57.5 -149.5v-291q0 -84 -15 -122t-65 -56v-4q50 -19 65 -58t15 -124v-393q0 -94 -57.5 -149.5t-149.5 -55.5q-91 0 -146.5 55t-55.5 150v329h178v-329q0 -43 26 -43q27 0 27 43v428q0 42 -12 54.5
t-56 12.5h-26v162h26q43 0 55.5 13t12.5 55v325q0 41 -27 41q-26 0 -26 -41z" />
    <glyph glyph-name="four" unicode="4" horiz-adv-x="485" 
d="M25 209v162l131 1063h266v-1063h41v-162h-41v-209h-178v209h-219zM188 371h56l28 878h-4z" />
    <glyph glyph-name="five" unicode="5" horiz-adv-x="456" 
d="M203 825v-77h-178v686h399v-162h-221v-340h4q31 84 106 84q60 0 90.5 -53.5t30.5 -151.5v-618q0 -95 -56.5 -150t-148.5 -55t-148 55t-56 150v391h178v-394q0 -43 26 -43q27 0 27 43v635q0 43 -27 43q-26 0 -26 -43z" />
    <glyph glyph-name="six" unicode="6" horiz-adv-x="456" 
d="M203 817h4q31 84 106 84q59 0 90 -54t31 -151v-503q0 -95 -57 -150t-148 -55q-92 0 -148 55t-56 150v1062q0 87 58.5 139t147.5 52q91 0 147 -55t56 -150v-248h-178v250q0 41 -27 41q-26 0 -26 -41v-426zM203 711v-521q0 -40 26 -40q27 0 27 40v521q0 43 -27 43
q-26 0 -26 -43z" />
    <glyph glyph-name="seven" unicode="7" 
d="M416 1434v-162l-174 -1272h-176l172 1268l-5 4h-208v162h391z" />
    <glyph glyph-name="eight" unicode="8" horiz-adv-x="456" 
d="M227 1446q94 0 150.5 -55t56.5 -150v-307q0 -74 -16 -110t-64 -54v-4q50 -18 65 -56.5t15 -123.5v-393q0 -95 -56 -150t-147 -55q-93 0 -149.5 54.5t-56.5 150.5v393q0 86 14.5 124t64.5 56v4q-47 18 -63 54t-16 110v307q0 95 55.5 150t146.5 55zM203 1243v-328
q0 -40 6 -53.5t20 -13.5t20.5 14t6.5 53v328q0 41 -27 41q-26 0 -26 -41zM229 150q27 0 27 40v431q0 39 -6.5 53t-20.5 14t-20 -13.5t-6 -53.5v-431q0 -40 26 -40z" />
    <glyph glyph-name="nine" unicode="9" horiz-adv-x="456" 
d="M229 1446q92 0 148.5 -55t56.5 -150v-1063q0 -87 -59 -138.5t-148 -51.5q-91 0 -146.5 55t-55.5 150v309h178v-312q0 -40 26 -40q27 0 27 40v488h-4q-27 -84 -107 -84q-59 0 -89.5 54t-30.5 151v442q0 95 56 150t148 55zM256 784v459q0 41 -27 41q-26 0 -26 -41v-459
q0 -43 26 -43q27 0 27 43z" />
    <glyph glyph-name="colon" unicode=":" horiz-adv-x="272" 
d="M37 819v225h178v-225h-178zM37 0v225h178v-225h-178z" />
    <glyph glyph-name="semicolon" unicode=";" horiz-adv-x="274" 
d="M41 819v225h178v-225h-178zM39 0v225h178v-225l-41 -166h-90l39 166h-86z" />
    <glyph glyph-name="less" unicode="&#x3c;" horiz-adv-x="485" 
d="M446 764l-243 -68v-4l243 -67v-148l-409 137v160l409 137v-147z" />
    <glyph glyph-name="equal" unicode="=" horiz-adv-x="567" 
d="M528 887v-162h-491v162h491zM528 651v-162h-491v162h491z" />
    <glyph glyph-name="greater" unicode="&#x3e;" horiz-adv-x="485" 
d="M37 625l244 67v4l-244 68v147l409 -137v-160l-409 -137v148z" />
    <glyph glyph-name="question" unicode="?" horiz-adv-x="485" 
d="M162 440q0 87 17 168.5t37 133.5t37 123t17 139v239q0 41 -26 41q-27 0 -27 -41v-352h-178v350q0 96 55.5 150.5t147.5 54.5t149.5 -55.5t57.5 -149.5v-237q0 -87 -17 -168.5t-37.5 -134t-37.5 -123t-17 -138.5v-133h-178v133zM162 0v225h178v-225h-178z" />
    <glyph glyph-name="at" unicode="@" horiz-adv-x="915" 
d="M598 -57l57 -154q-90 -43 -196 -43q-81 0 -155.5 26t-134.5 75.5t-96 129.5t-36 179v815q0 99 36 179t96 129t134.5 75t155.5 26q80 0 154 -26.5t134 -75.5t96 -129t36 -178v-776q0 -94 -54 -150.5t-143 -56.5q-72 0 -121.5 38.5t-64.5 104.5h-4q-8 -66 -37.5 -104.5
t-73.5 -38.5q-54 0 -86.5 55.5t-32.5 149.5v714q0 92 32.5 148.5t86.5 56.5q38 0 63.5 -28t36.5 -78h4v86h170v-902q0 -45 27 -45t27 43v783q0 119 -73 185.5t-173 66.5q-103 0 -179.5 -68t-76.5 -190v-805q0 -120 76 -188t178 -68q78 0 137 39zM485 911q0 41 -26 41
q-27 0 -27 -41v-723q0 -43 27 -43q26 0 26 43v723z" />
    <glyph glyph-name="A" unicode="A" horiz-adv-x="462" 
d="M350 1434l113 -1434h-195l-14 354h-66l-12 -354h-176l106 1434h244zM195 514h53l-17 426l-8 283h-4l-6 -283z" />
    <glyph glyph-name="B" unicode="B" horiz-adv-x="452" 
d="M434 1241v-291q0 -85 -15 -123.5t-65 -56.5v-4q50 -18 65 -56.5t15 -123.5v-396q0 -97 -50.5 -143.5t-154.5 -46.5h-204v1434h206q103 0 153 -47t50 -146zM256 1231q0 41 -27 41h-26v-424h26q27 0 27 41v342zM256 647q0 41 -27 41h-26v-526h26q15 0 21 8.5t6 30.5v446z
" />
    <glyph glyph-name="C" unicode="C" horiz-adv-x="456" 
d="M256 1243q0 41 -27 41q-26 0 -26 -41v-1053q0 -40 26 -40q27 0 27 40v416h178v-413q0 -95 -56 -150t-147 -55q-92 0 -149 55t-57 150v1048q0 94 57.5 149.5t148.5 55.5q92 0 147.5 -54.5t55.5 -150.5v-350h-178v352z" />
    <glyph glyph-name="D" unicode="D" horiz-adv-x="456" 
d="M434 1243v-1053q0 -97 -49.5 -143.5t-153.5 -46.5h-206v1434h206q105 0 154 -47t49 -144zM258 1233q0 39 -27 39h-28v-1110h28q27 0 27 39v1032z" />
    <glyph glyph-name="E" unicode="E" horiz-adv-x="305" 
d="M285 1436v-162h-82v-457h71v-162h-71v-493h92v-162h-270v1436h260z" />
    <glyph glyph-name="F" unicode="F" horiz-adv-x="294" 
d="M285 1436v-162h-82v-477h71v-162h-71v-635h-178v1436h260z" />
    <glyph glyph-name="G" unicode="G" horiz-adv-x="456" 
d="M229 756h205v-756h-178v82h-4q-13 -45 -40.5 -69.5t-61.5 -24.5q-56 0 -90.5 55t-34.5 150v1048q0 94 57.5 149.5t148.5 55.5t147 -55t56 -150v-350h-178v352q0 41 -27 41q-28 0 -28 -41v-1059q0 -41 28 -41q27 0 27 45v406h-27v162z" />
    <glyph glyph-name="H" unicode="H" horiz-adv-x="456" 
d="M434 1436v-1436h-176v635h-55v-635h-176v1436h176v-639h55v639h176z" />
    <glyph glyph-name="I" unicode="I" horiz-adv-x="225" 
d="M203 1434v-1434h-178v1434h178z" />
    <glyph glyph-name="J" unicode="J" horiz-adv-x="456" 
d="M434 1434v-1241q0 -95 -56 -150t-147 -55q-92 0 -149 55t-57 150v413h178v-416q0 -40 26 -40q27 0 27 40v1244h178z" />
    <glyph glyph-name="K" unicode="K" horiz-adv-x="468" 
d="M471 1434l-113 -656v-4l113 -774h-182l-82 670h-4v-670h-178v1434h178v-590h4l82 590h182z" />
    <glyph glyph-name="L" unicode="L" horiz-adv-x="299" 
d="M25 1434h178v-1272h86v-162h-264v1434z" />
    <glyph glyph-name="M" unicode="M" horiz-adv-x="718" 
d="M694 1434v-1434h-168l9 922v266h-5l-16 -266l-70 -922h-168l-71 922l-17 266h-4v-266l9 -922h-168v1434h288l45 -1080h4l9 256l35 824h288z" />
    <glyph glyph-name="N" unicode="N" horiz-adv-x="550" 
d="M526 1434v-1434h-227l-139 1137h-4l26 -471l11 -666h-168v1434h225l141 -1135h4l-28 463l-9 672h168z" />
    <glyph glyph-name="O" unicode="O" horiz-adv-x="456" 
d="M434 1241v-1048q0 -95 -56 -150t-147 -55q-92 0 -148 55t-56 150v1048q0 94 56.5 149.5t147.5 55.5q92 0 147.5 -54.5t55.5 -150.5zM258 1243q0 41 -29 41q-26 0 -26 -41v-1053q0 -40 26 -40q29 0 29 40v1053z" />
    <glyph glyph-name="P" unicode="P" horiz-adv-x="456" 
d="M434 1243v-446q0 -97 -50 -144t-155 -47h-26v-606h-178v1434h206q104 0 153.5 -47t49.5 -144zM256 1233q0 39 -27 39h-26v-506h26q27 0 27 41v426z" />
    <glyph glyph-name="Q" unicode="Q" horiz-adv-x="456" 
d="M434 1241v-1048q0 -75 -36 -126t-99 -69v-29q0 -16 4.5 -21t20.5 -5h65v-142h-82q-79 0 -114 33.5t-35 114.5v49q-61 19 -97 70t-36 125v1048q0 94 57 149.5t149 55.5q91 0 147 -55t56 -150zM256 1243q0 41 -27 41q-26 0 -26 -41v-1053q0 -40 26 -40q27 0 27 40v1053z
" />
    <glyph glyph-name="R" unicode="R" horiz-adv-x="456" 
d="M256 606q0 41 -27 41h-26v-647h-178v1434h206q103 0 153 -46.5t50 -144.5v-334q0 -85 -15 -123.5t-65 -56.5v-4q50 -18 65 -56.5t15 -123.5v-359q0 -66 4.5 -102t20.5 -80v-4h-183q-20 81 -20 186v420zM256 1233q0 22 -6 30.5t-21 8.5h-26v-465h26q27 0 27 41v385z" />
    <glyph glyph-name="S" unicode="S" horiz-adv-x="448" 
d="M430 440v-247q0 -95 -56.5 -150t-148.5 -55t-148.5 55t-56.5 150v311h179v-314q0 -40 26 -40q29 0 29 40v250q0 45 -17.5 96t-35.5 83t-54 92q-41 67 -62.5 107t-43 107.5t-21.5 131.5v184q0 94 57.5 149.5t149.5 55.5t147.5 -54.5t55.5 -150.5v-248h-176v250
q0 41 -29 41q-26 0 -26 -41v-186q0 -45 17 -95.5t35 -84t54 -91.5q31 -53 46 -80t37.5 -76t32 -95t9.5 -95z" />
    <glyph glyph-name="T" unicode="T" horiz-adv-x="405" 
d="M395 1434v-162h-102v-1272h-178v1272h-103v162h383z" />
    <glyph glyph-name="U" unicode="U" horiz-adv-x="456" 
d="M434 1434v-1241q0 -95 -56 -150t-147 -55q-92 0 -149 55t-57 150v1241h178v-1244q0 -40 26 -40q27 0 27 40v1244h178z" />
    <glyph glyph-name="V" unicode="V" horiz-adv-x="454" 
d="M455 1434l-103 -1434h-246l-106 1434h195l32 -940l6 -283h5l8 283l33 940h176z" />
    <glyph glyph-name="W" unicode="W" horiz-adv-x="729" 
d="M729 1434l-80 -1434h-239l-35 981l-6 227h-4l-5 -227l-34 -981h-240l-86 1434h199l12 -940l2 -283h4l10 283l41 940h199l41 -940l10 -283h4l15 1223h192z" />
    <glyph glyph-name="X" unicode="X" horiz-adv-x="464" 
d="M459 1434l-88 -697v-4l94 -733h-182l-37 408l-10 204h-5l-8 -204l-41 -408h-182l92 733v4l-86 697h182l33 -371l8 -205h4l11 205l32 371h183z" />
    <glyph glyph-name="Y" unicode="Y" horiz-adv-x="452" 
d="M453 1434l-138 -963v-471h-178v471l-137 963h182l33 -494l8 -205h4l9 205l34 494h183z" />
    <glyph glyph-name="Z" unicode="Z" horiz-adv-x="374" 
d="M362 1434v-162l-169 -1110h167v-162h-348v162l170 1110h-159v162h339z" />
    <glyph glyph-name="bracketleft" unicode="[" horiz-adv-x="333" 
d="M311 -399h-286v1955h286v-161h-108v-1633h108v-161z" />
    <glyph glyph-name="backslash" unicode="\" horiz-adv-x="432" 
d="M215 1495l180 -1659h-178l-180 1659h178z" />
    <glyph glyph-name="bracketright" unicode="]" horiz-adv-x="333" 
d="M25 1556h286v-1955h-286v161h108v1633h-108v161z" />
    <glyph glyph-name="asciicircum" unicode="^" horiz-adv-x="481" 
d="M289 1071l-45 197h-4l-47 -197h-156l108 363h193l106 -363h-155z" />
    <glyph glyph-name="underscore" unicode="_" horiz-adv-x="526" 
d="M487 0v-162h-450v162h450z" />
    <glyph glyph-name="grave" unicode="`" horiz-adv-x="251" 
d="M98 1167l-59 252h149l27 -252h-117z" />
    <glyph glyph-name="a" unicode="a" 
d="M195 979v-229h-170v225q0 96 53.5 150.5t142.5 54.5q88 0 142.5 -55.5t54.5 -149.5v-975h-168v121h-4q-9 -64 -39.5 -98.5t-77.5 -34.5q-104 0 -104 178v289q0 106 49 156t176 96v272q0 43 -27 43q-28 0 -28 -43zM250 559q-35 -17 -45 -46.5t-10 -84.5v-242q0 -41 28 -41
q27 0 27 43v371z" />
    <glyph glyph-name="b" unicode="b" 
d="M25 0v1495h170v-405h4q28 90 106 90q113 0 113 -205v-782q0 -205 -113 -205q-78 0 -106 90h-4v-78h-170zM248 979q0 43 -27 43q-26 0 -26 -43v-791q0 -43 26 -43q27 0 27 43v791z" />
    <glyph glyph-name="c" unicode="c" 
d="M250 979q0 43 -27 43q-28 0 -28 -43v-791q0 -43 28 -43q27 0 27 43v310h168v-305q0 -95 -53.5 -150t-141.5 -55q-89 0 -143.5 55t-54.5 150v782q0 94 55.5 149.5t144.5 55.5q86 0 139.5 -55t53.5 -150v-252h-168v256z" />
    <glyph glyph-name="d" unicode="d" 
d="M418 0h-170v78h-4q-14 -43 -41.5 -66.5t-65.5 -23.5q-112 0 -112 205v782q0 205 112 205q38 0 65.5 -23.5t41.5 -66.5h4v405h170v-1495zM195 979v-791q0 -43 26 -43q27 0 27 43v791q0 43 -27 43q-26 0 -26 -43z" />
    <glyph glyph-name="e" unicode="e" 
d="M248 457h170v-264q0 -95 -53.5 -150t-141.5 -55q-89 0 -143.5 55t-54.5 150v782q0 94 55 149.5t143 55.5t141.5 -55t53.5 -150v-432h-223v-355q0 -43 26 -43q27 0 27 43v269zM248 979q0 43 -27 43q-26 0 -26 -43v-277h53v277z" />
    <glyph glyph-name="f" unicode="f" horiz-adv-x="280" 
d="M47 0v1014h-37v153h37v99q0 58 1.5 92t10 62.5t18.5 41t33.5 21.5t48.5 10.5t70 1.5h41v-152q-38 0 -46.5 -10.5t-8.5 -50.5v-115h55v-153h-55v-1014h-168z" />
    <glyph glyph-name="g" unicode="g" 
d="M418 1167v-1302q0 -95 -54.5 -150t-142.5 -55q-87 0 -141.5 53.5t-54.5 143.5v84h170v-80q0 -43 26 -43q27 0 27 43v217h-4q-14 -43 -41.5 -66.5t-65.5 -23.5q-112 0 -112 205v782q0 205 114 205q77 0 105 -90h4v77h170zM195 188q0 -43 26 -43q27 0 27 43v791
q0 41 -27 41q-26 0 -26 -41v-791z" />
    <glyph glyph-name="h" unicode="h" 
d="M248 979q0 43 -27 43q-26 0 -26 -43v-979h-170v1495h170v-405h4q28 90 106 90q113 0 113 -205v-975h-170v979z" />
    <glyph glyph-name="i" unicode="i" horiz-adv-x="217" 
d="M25 1208v211h170v-211h-170zM25 0v1167h170v-1167h-170z" />
    <glyph glyph-name="j" unicode="j" horiz-adv-x="219" 
d="M195 1419v-211h-170v211h170zM195 1167v-1294q0 -52 -2.5 -86t-12 -59t-20.5 -38t-35 -20.5t-48 -9.5t-67 -2h-39v152q38 0 46 8.5t8 38.5v1310h170z" />
    <glyph glyph-name="k" unicode="k" horiz-adv-x="454" 
d="M453 1165l-111 -530v-4l111 -631h-172l-82 557h-4v-557h-170v1493h170v-817h4l82 489h172z" />
    <glyph glyph-name="l" unicode="l" horiz-adv-x="217" 
d="M25 0v1495h170v-1495h-170z" />
    <glyph glyph-name="m" unicode="m" horiz-adv-x="665" 
d="M248 979q0 43 -27 43q-26 0 -26 -43v-979h-170v1167h170v-77h4q28 90 104 90q91 0 109 -129h4q8 62 36 95.5t74 33.5q115 0 115 -205v-975h-170v979q0 43 -27 43q-26 0 -26 -43v-979h-170v979z" />
    <glyph glyph-name="n" unicode="n" 
d="M248 979q0 43 -27 43q-26 0 -26 -43v-979h-170v1167h170v-77h4q28 90 106 90q113 0 113 -205v-975h-170v979z" />
    <glyph glyph-name="o" unicode="o" 
d="M418 975v-782q0 -95 -54.5 -150t-142.5 -55t-142 55t-54 150v782q0 94 55 149.5t143 55.5t141.5 -55t53.5 -150zM248 979q0 43 -27 43q-26 0 -26 -43v-791q0 -43 26 -43q27 0 27 43v791z" />
    <glyph glyph-name="p" unicode="p" 
d="M25 1167h170v-77h4q28 90 106 90q113 0 113 -205v-782q0 -205 -113 -205q-77 0 -106 92l-4 -2v-406h-170v1495zM248 188v791q0 43 -27 43q-26 0 -26 -43v-791q0 -43 26 -43q27 0 27 43z" />
    <glyph glyph-name="q" unicode="q" 
d="M418 1167v-1495h-170v406l-4 2q-14 -43 -41.5 -67.5t-65.5 -24.5q-112 0 -112 205v782q0 205 114 205q77 0 105 -90h4v77h170zM195 188q0 -43 26 -43q27 0 27 43v791q0 43 -27 43q-26 0 -26 -43v-791z" />
    <glyph glyph-name="r" unicode="r" 
d="M250 979q0 43 -27 43q-28 0 -28 -43v-979h-170v1167h170v-77h4q28 90 106 90q113 0 113 -205v-287h-168v291z" />
    <glyph glyph-name="s" unicode="s" horiz-adv-x="432" 
d="M414 385v-192q0 -95 -54.5 -150t-142.5 -55q-89 0 -144 55t-55 150v219h170v-224q0 -43 29 -43q27 0 27 43v197q0 41 -25 83t-72 99q-43 54 -63.5 82t-43 83t-22.5 108v135q0 94 56 149.5t145 55.5q88 0 141.5 -55t53.5 -150v-164h-170v168q0 43 -27 43q-29 0 -29 -43
v-139q0 -32 16 -67t33 -57.5t50 -62.5q40 -48 62 -79.5t43.5 -84t21.5 -104.5z" />
    <glyph glyph-name="t" unicode="t" horiz-adv-x="290" 
d="M47 1393h168v-226h66v-153h-66v-815q0 -30 10.5 -38.5t55.5 -8.5v-152h-52q-44 0 -67.5 1t-47.5 7.5t-34 17t-19.5 32t-11.5 50.5t-2 74v832h-37v153h37v226z" />
    <glyph glyph-name="u" unicode="u" 
d="M195 188q0 -43 26 -43q27 0 27 43v979h170v-1167h-170v78h-4q-12 -43 -39.5 -66.5t-65.5 -23.5q-114 0 -114 205v974h170v-979z" />
    <glyph glyph-name="v" unicode="v" horiz-adv-x="450" 
d="M113 0l-111 1167h184l37 -751l8 -215h5l8 215l37 751h165l-104 -1167h-229z" />
    <glyph glyph-name="w" unicode="w" horiz-adv-x="733" 
d="M547 1167h186l-96 -1167h-227l-35 760l-6 198h-4l-7 -198l-34 -760h-228l-94 1167h184l29 -966h4l8 215l47 751h187l45 -751l10 -215h2z" />
    <glyph glyph-name="x" unicode="x" 
d="M438 1169l-92 -567v-4l98 -598h-174l-37 340l-10 172h-4l-8 -172l-41 -340h-174l98 598v4l-92 567h174l33 -311l8 -172h4l10 172l33 311h174z" />
    <glyph glyph-name="y" unicode="y" horiz-adv-x="444" 
d="M184 1167l37 -628l8 -232h4l9 232l37 628h167l-178 -1495h-168l41 328l-141 1167h184z" />
    <glyph glyph-name="z" unicode="z" horiz-adv-x="366" 
d="M354 1167v-151l-168 -864h166v-152h-340v133l170 883h-159v151h331z" />
    <glyph glyph-name="braceleft" unicode="{" horiz-adv-x="481" 
d="M346 1257v-393q0 -147 -38 -213.5t-134 -66.5v-6q95 0 133.5 -67t38.5 -214v-397q0 -78 17.5 -108t56.5 -30h39v-161h-56q-118 0 -176.5 67.5t-58.5 237.5v452q0 76 -28 109t-115 33v162q87 0 115 33t28 108v448q0 168 60.5 236.5t174.5 68.5h56v-161h-39
q-39 0 -56.5 -28t-17.5 -110z" />
    <glyph glyph-name="bar" unicode="|" horiz-adv-x="251" 
d="M215 -379h-178v1915h178v-1915z" />
    <glyph glyph-name="braceright" unicode="}" horiz-adv-x="481" 
d="M135 -100v393q0 147 38 213.5t134 66.5v7q-96 0 -134 66.5t-38 213.5v397q0 78 -17.5 108t-56.5 30h-38v161h57q116 0 174.5 -67.5t58.5 -237.5v-452q0 -75 28.5 -108.5t115.5 -33.5v-161q-87 0 -115.5 -33.5t-28.5 -108.5v-448q0 -167 -60 -236t-173 -69h-57v161h38
q39 0 56.5 28t17.5 110z" />
    <glyph glyph-name="asciitilde" unicode="~" horiz-adv-x="481" 
d="M444 838v-9q0 -113 -24.5 -163t-79.5 -50q-37 0 -98 29t-84 29q-39 0 -39 -49v-7h-82v3q0 217 113 217q32 0 94.5 -28t85.5 -28q37 0 37 47v9h77z" />
    <glyph glyph-name="exclamdown" unicode="&#xa1;" horiz-adv-x="286" 
d="M53 649h178v-35h-178v35zM37 489v23l57 94h96l58 -94v-23h-211z" />
    <glyph glyph-name="cent" unicode="&#xa2;" 
d="M250 979q0 43 -27 43q-28 0 -28 -43v-791q0 -43 28 -43q27 0 27 43v310h168v-305q0 -75 -33.5 -125.5t-93.5 -69.5l18 -201h-176l19 201q-60 21 -93.5 71t-33.5 124v782q0 72 34.5 122.5t92.5 69.5l-19 203h176l-18 -201q60 -19 93.5 -69t33.5 -125v-252h-168v256z" />
    <glyph glyph-name="sterling" unicode="&#xa3;" horiz-adv-x="526" 
d="M317 1243q0 43 -26 43q-27 0 -27 -43v-592h197v-162h-197v-122q0 -136 -35 -205h273v-162h-477v160q37 43 49 85t12 117v127h-61v162h61v592q0 94 58 149.5t149 55.5t147 -55t56 -150v-350h-179v350z" />
    <glyph glyph-name="currency" unicode="&#xa4;" horiz-adv-x="684" 
d="M37 0v1434h610v-1434h-610zM197 1317l145 -443l143 443h-288zM395 719l135 -412v832zM154 1133v-838l137 424zM344 561l-145 -444h293z" />
    <glyph glyph-name="yen" unicode="&#xa5;" horiz-adv-x="452" 
d="M453 1434l-119 -828h100v-162h-119v-45h119v-161h-119v-238h-178v238h-119v161h119v45h-119v162h99l-117 828h182l33 -494l8 -205h4l9 205l34 494h183z" />
    <glyph glyph-name="brokenbar" unicode="&#xa6;" horiz-adv-x="251" 
d="M215 702h-178v834h178v-834zM215 -379h-178v836h178v-836z" />
    <glyph glyph-name="section" unicode="&#xa7;" horiz-adv-x="468" 
d="M432 651v-200q0 -73 -33 -127q33 -75 33 -134v-192q0 -95 -55 -150t-144 -55q-88 0 -142 55t-54 150v219h170v-223q0 -43 29 -43q26 0 26 43v196q0 29 -15.5 62.5t-32.5 57.5t-48 63q-33 42 -47.5 61t-38 57.5t-33.5 75.5t-10 78v143q0 92 53 148q-53 84 -53 170v135
q0 94 55.5 149.5t143.5 55.5q89 0 142.5 -54.5t53.5 -150.5v-164h-170v168q0 43 -26 43q-29 0 -29 -43v-139q0 -32 16 -67t32.5 -57t49.5 -62q31 -39 46.5 -60t38 -58.5t32.5 -74.5t10 -76zM262 512v139q0 53 -55 129v-135q0 -61 55 -133z" />
    <glyph glyph-name="dieresis" unicode="&#xa8;" horiz-adv-x="337" 
d="M37 1192v190h115v-190h-115zM188 1192v190h113v-190h-113z" />
    <glyph glyph-name="copyright" unicode="&#xa9;" horiz-adv-x="964" 
d="M37 434v565q0 107 38 194t101.5 140.5t142.5 82t164 28.5t163.5 -28.5t142 -82t101.5 -140.5t38 -194v-565q0 -108 -38 -195t-101.5 -140.5t-142 -82t-163.5 -28.5t-164 28.5t-142.5 82t-101.5 140.5t-38 195zM195 999v-567q0 -141 86 -220t202 -79t201.5 79t85.5 220
v567q0 142 -85 220.5t-202 78.5q-74 0 -138 -31.5t-107 -101.5t-43 -166zM510 1020q0 41 -27 41q-26 0 -26 -41v-606q0 -41 26 -41q27 0 27 41v227h178v-225q0 -95 -56.5 -150t-148.5 -55q-91 0 -147.5 55t-56.5 150v602q0 94 57.5 149.5t148.5 55.5t147 -55t56 -150v-187
h-178v189z" />
    <glyph glyph-name="ordfeminine" unicode="&#xaa;" horiz-adv-x="352" 
d="M158 1305v-158h-119v156q0 67 37 105t98 38q62 0 100.5 -38t38.5 -105v-685h-118v82h-5q-6 -44 -26.5 -68t-52.5 -24q-72 0 -72 125v213q0 72 35 107t121 67v185q0 30 -19 30q-18 0 -18 -30zM195 1018q-24 -11 -30.5 -31.5t-6.5 -58.5v-180q0 -29 18 -29q19 0 19 31v268z
" />
    <glyph glyph-name="guillemotleft" unicode="&#xab;" horiz-adv-x="456" 
d="M37 588l76 246h129l-74 -246l74 -246h-129zM215 588l76 246h129l-74 -246l74 -246h-129z" />
    <glyph glyph-name="logicalnot" unicode="&#xac;" horiz-adv-x="684" 
d="M37 0v1434h610v-1434h-610zM197 1317l145 -443l143 443h-288zM395 719l135 -412v832zM154 1133v-838l137 424zM344 561l-145 -444h293z" />
    <glyph glyph-name="registered" unicode="&#xae;" horiz-adv-x="964" 
d="M37 432v567q0 107 38 194t101.5 140.5t142.5 82t164 28.5t163 -28.5t142 -82t102 -140.5t38 -194v-567q0 -107 -38 -194t-102 -140t-142 -81.5t-163 -28.5t-164 28.5t-142.5 81.5t-101.5 140t-38 194zM195 999v-567q0 -141 85 -220t201 -79q118 0 203.5 79t85.5 220v567
q0 141 -85.5 220t-201.5 79q-117 0 -202.5 -79t-85.5 -220zM508 606q0 39 -27 39h-26v-399h-179v942h207q104 0 153.5 -47.5t49.5 -145.5v-100q0 -88 -15.5 -118t-64.5 -48v-4q47 -17 63.5 -54t16.5 -128v-111q0 -68 4.5 -103.5t20.5 -78.5v-4h-185q-18 73 -18 184v176z
M508 985q0 41 -27 41h-26v-219h26q27 0 27 41v137z" />
    <glyph glyph-name="macron" unicode="&#xaf;" horiz-adv-x="342" 
d="M303 1364v-164h-266v164h266z" />
    <glyph glyph-name="degree" unicode="&#xb0;" horiz-adv-x="362" 
d="M37 1303q0 60 41.5 101.5t101.5 41.5t102 -41.5t42 -101.5q0 -59 -42 -101.5t-102 -42.5t-101.5 42.5t-41.5 101.5zM117 1303q0 -26 18.5 -45t44.5 -19t45 19t19 45t-19 44.5t-45 18.5t-44.5 -18.5t-18.5 -44.5z" />
    <glyph glyph-name="plusminus" unicode="&#xb1;" horiz-adv-x="579" 
d="M543 870v-161h-164v-162h-178v162h-164v161h164v164h178v-164h164zM543 469v-162h-506v162h506z" />
    <glyph glyph-name="twosuperior" unicode="&#xb2;" horiz-adv-x="352" 
d="M39 623v114q0 46 16.5 97t31 79t44.5 80q23 40 34 61t21.5 51t10.5 54v166q0 25 -19 25q-18 0 -18 -23v-194h-121v182q0 64 37.5 97.5t99.5 33.5t100.5 -34t38.5 -97v-154q0 -73 -79 -207q-25 -46 -37.5 -71t-25.5 -65.5t-13 -74.5v-8h155v-112h-276z" />
    <glyph glyph-name="threesuperior" unicode="&#xb3;" horiz-adv-x="356" 
d="M158 1327v-164h-121v144q0 65 37.5 102t99.5 37t101.5 -37.5t39.5 -101.5v-154q0 -44 -10.5 -65t-44.5 -31v-2q34 -10 44.5 -31.5t10.5 -67.5v-215q0 -64 -39.5 -101.5t-101.5 -37.5t-99.5 37t-37.5 102v174h121v-196q0 -25 18 -25q19 0 19 25v252q0 24 -9 31.5t-39 7.5
h-18v92h18q30 0 39 7.5t9 31.5v186q0 25 -19 25q-18 0 -18 -25z" />
    <glyph glyph-name="acute" unicode="&#xb4;" horiz-adv-x="251" 
d="M154 1167h-117l26 252h150z" />
    <glyph glyph-name="paragraph" unicode="&#xb6;" horiz-adv-x="655" 
d="M618 -123h-178v1557h178v-1557zM385 -123h-176v805q-91 0 -131.5 84t-40.5 289q0 208 47 293.5t143 85.5h158v-1557z" />
    <glyph glyph-name="periodcentered" unicode="&#xb7;" horiz-adv-x="251" 
d="M37 563v225h178v-225h-178z" />
    <glyph glyph-name="cedilla" unicode="&#xb8;" horiz-adv-x="352" 
d="M102 6h88l-16 -49q61 0 100 -32.5t39 -82.5q0 -55 -52.5 -89t-137.5 -34q-37 0 -84 9v114q27 -8 61 -8q35 0 55.5 10t20.5 25q0 19 -26 30t-68 11z" />
    <glyph glyph-name="onesuperior" unicode="&#xb9;" horiz-adv-x="288" 
d="M205 1434v-703h47v-108h-215v108h47v539h-47v98q44 0 60 14t16 52h92z" />
    <glyph glyph-name="ordmasculine" unicode="&#xba;" horiz-adv-x="354" 
d="M315 1303v-560q0 -68 -38 -106.5t-101 -38.5t-101 38.5t-38 106.5v560q0 66 39 104.5t102 38.5q62 0 99.5 -38t37.5 -105zM197 1305q0 30 -21 30q-20 0 -20 -30v-566q0 -28 20 -28q21 0 21 28v566z" />
    <glyph glyph-name="guillemotright" unicode="&#xbb;" horiz-adv-x="456" 
d="M420 588l-76 -246h-129l74 246l-74 246h129zM244 588l-76 -246h-129l74 246l-74 246h129z" />
    <glyph glyph-name="onequarter" unicode="&#xbc;" horiz-adv-x="821" 
d="M205 1434v-703h47v-108h-215v108h47v539h-47v98q44 0 60 14t16 52h92zM328 0h-140l283 1434h139zM479 98v95l90 620h185v-602h28v-113h-28v-98h-119v98h-156zM588 211h47l16 498h-2z" />
    <glyph glyph-name="onehalf" unicode="&#xbd;" horiz-adv-x="856" 
d="M328 0h-140l283 1432h139zM205 1432v-701h47v-108h-215v108h47v537h-47v100q45 0 60.5 13t15.5 51h92zM543 0v115q0 46 15.5 95.5t30.5 79.5t44 79q24 42 34.5 61t21.5 50t11 55v165q0 27 -18 27t-18 -25v-194h-121v184q0 63 37 96t100 33q62 0 100.5 -33.5t38.5 -95.5
v-155q0 -68 -78 -207q-77 -128 -77 -211v-6h155v-113h-276z" />
    <glyph glyph-name="threequarters" unicode="&#xbe;" horiz-adv-x="862" 
d="M158 1327v-164h-121v144q0 65 37.5 102t99.5 37t101.5 -37.5t39.5 -101.5v-154q0 -44 -10.5 -65t-44.5 -31v-2q34 -10 44.5 -31.5t10.5 -67.5v-215q0 -64 -39.5 -101.5t-101.5 -37.5t-99.5 37t-37.5 102v174h121v-196q0 -25 18 -25q19 0 19 25v252q0 24 -9 31.5t-39 7.5
h-18v92h18q30 0 39 7.5t9 31.5v186q0 25 -19 25q-18 0 -18 -25zM373 0h-137l282 1434h137zM520 74v94l90 620h185v-602h28v-112h-28v-99h-121v99h-154zM627 186h47l18 498h-4z" />
    <glyph glyph-name="questiondown" unicode="&#xbf;" horiz-adv-x="485" 
d="M188 649v-35h-30v35h30zM188 600q0 -13 -4 -29t-4 -22h31v-29q0 -14 -9.5 -23.5t-21.5 -9.5q-14 0 -23.5 9t-9.5 24v29q0 13 5.5 29t5.5 22v6h30v-6z" />
    <glyph glyph-name="Agrave" unicode="&#xc0;" horiz-adv-x="462" 
d="M168 1489l-59 252h149l27 -252h-117zM350 1434l113 -1434h-195l-14 354h-66l-12 -354h-176l106 1434h244zM195 514h53l-17 426l-8 283h-4l-6 -283z" />
    <glyph glyph-name="Aacute" unicode="&#xc1;" horiz-adv-x="462" 
d="M289 1489h-117l27 252h149zM350 1434l113 -1434h-195l-14 354h-66l-12 -354h-176l106 1434h244zM195 514h53l-17 426l-8 283h-4l-6 -283z" />
    <glyph glyph-name="Acircumflex" unicode="&#xc2;" horiz-adv-x="462" 
d="M205 1489h-115l53 252h168l56 -252h-115l-23 137h-4zM350 1434l113 -1434h-195l-14 354h-66l-12 -354h-176l106 1434h244zM195 514h53l-17 426l-8 283h-4l-6 -283z" />
    <glyph glyph-name="Atilde" unicode="&#xc3;" horiz-adv-x="462" 
d="M381 1716v-2q0 -112 -17 -159.5t-57 -47.5q-29 0 -77 28t-64 28q-27 0 -27 -54v-2h-61v4q0 107 18 156t58 49q24 0 72 -25.5t67 -25.5q31 0 31 45v6h57zM350 1434l113 -1434h-195l-14 354h-66l-12 -354h-176l106 1434h244zM195 514h53l-17 424l-8 283h-4l-6 -281z" />
    <glyph glyph-name="Adieresis" unicode="&#xc4;" horiz-adv-x="462" 
d="M98 1513v191h113v-191h-113zM248 1513v191h114v-191h-114zM350 1434l113 -1434h-195l-14 354h-66l-12 -354h-176l106 1434h244zM195 514h53l-17 426l-8 283h-4l-6 -283z" />
    <glyph glyph-name="Aring" unicode="&#xc5;" horiz-adv-x="462" 
d="M92 1616q0 64 35.5 98.5t101.5 34.5q65 0 100.5 -34.5t35.5 -100.5q0 -65 -35 -99t-101 -34t-101.5 34.5t-35.5 100.5zM188 1614q0 -41 41 -41q43 0 43 41q0 43 -43 43q-41 0 -41 -43zM350 1434l113 -1434h-195l-14 354h-66l-14 -354h-174l106 1434h244zM195 514h53
l-19 426l-6 283h-4l-6 -283z" />
    <glyph glyph-name="AE" unicode="&#xc6;" horiz-adv-x="550" 
d="M518 1434v-160h-72v-457h82v-162h-82v-493h93v-162h-271v354h-65l-29 -354h-174l150 1434h368zM217 514h51v709h-4l-12 -283z" />
    <glyph glyph-name="Ccedilla" unicode="&#xc7;" horiz-adv-x="456" 
d="M256 1243q0 41 -27 41q-26 0 -26 -41v-1053q0 -40 26 -40q27 0 27 40v416h178v-413q0 -83 -43 -136t-115 -65l-10 -35q60 0 100 -33t40 -82q0 -55 -53.5 -89t-139.5 -34q-37 0 -84 9v114q31 -8 61 -8q36 0 56 10t20 25q0 19 -26 30t-68 11l16 80q-75 12 -119 65.5
t-44 137.5v1048q0 94 57 149.5t149 55.5q91 0 147 -55t56 -150v-350h-178v352z" />
    <glyph glyph-name="Egrave" unicode="&#xc8;" horiz-adv-x="305" 
d="M86 1491l-59 252h149l27 -252h-117zM285 1436v-162h-82v-457h71v-162h-71v-493h92v-162h-270v1436h260z" />
    <glyph glyph-name="Eacute" unicode="&#xc9;" horiz-adv-x="305" 
d="M211 1491h-117l27 250h149zM285 1434v-162h-82v-455h71v-162h-71v-493h92v-162h-270v1434h260z" />
    <glyph glyph-name="Ecircumflex" unicode="&#xca;" horiz-adv-x="305" 
d="M125 1491h-115l53 250h170l54 -250h-115l-20 135h-5zM285 1434v-162h-82v-455h71v-162h-71v-493h92v-162h-270v1434h260z" />
    <glyph glyph-name="Edieresis" unicode="&#xcb;" horiz-adv-x="305" 
d="M18 1513v191h113v-191h-113zM168 1513v191h113v-191h-113zM285 1434v-160h-82v-457h71v-162h-71v-493h92v-162h-270v1434h260z" />
    <glyph glyph-name="Igrave" unicode="&#xcc;" horiz-adv-x="225" 
d="M49 1489l-59 252h149l27 -252h-117zM203 1434v-1434h-178v1434h178z" />
    <glyph glyph-name="Iacute" unicode="&#xcd;" horiz-adv-x="225" 
d="M176 1489h-117l27 252h150zM203 1434v-1434h-178v1434h178z" />
    <glyph glyph-name="Icircumflex" unicode="&#xce;" horiz-adv-x="225" 
d="M90 1489h-115l54 252h170l53 -252h-115l-20 137h-4zM203 1434v-1434h-178v1434h178z" />
    <glyph glyph-name="Idieresis" unicode="&#xcf;" horiz-adv-x="225" 
d="M-18 1513v191h112v-191h-112zM131 1513v191h113v-191h-113zM203 1434v-1434h-178v1434h178z" />
    <glyph glyph-name="Eth" unicode="&#xd0;" horiz-adv-x="456" 
d="M434 1243v-1050q0 -97 -49.5 -145t-153.5 -48h-206v637h-27v162h27v637h206q105 0 154 -47.5t49 -145.5zM256 1233q0 41 -27 41h-26v-475h26v-162h-26v-475h26q27 0 27 41v1030z" />
    <glyph glyph-name="Ntilde" unicode="&#xd1;" horiz-adv-x="550" 
d="M428 1716v-2q0 -113 -17 -160t-57 -47q-28 0 -76.5 28t-64.5 28q-27 0 -27 -54v-2h-61v4q0 107 18 156t56 49q26 0 74.5 -25.5t66.5 -25.5q31 0 31 45v6h57zM526 1434v-1436h-227l-139 1139h-4l26 -471l11 -668h-168v1436h225l141 -1137h4l-28 465l-9 672h168z" />
    <glyph glyph-name="Ograve" unicode="&#xd2;" horiz-adv-x="456" 
d="M170 1489l-61 252h151l27 -252h-117zM434 1241v-1048q0 -95 -56 -150t-147 -55q-92 0 -148 55t-56 150v1048q0 94 56.5 149.5t147.5 55.5q92 0 147.5 -54.5t55.5 -150.5zM258 1243q0 41 -29 41q-26 0 -26 -41v-1053q0 -40 26 -40q29 0 29 40v1053z" />
    <glyph glyph-name="Oacute" unicode="&#xd3;" horiz-adv-x="456" 
d="M293 1489h-119l27 252h151zM434 1241v-1048q0 -95 -56 -150t-147 -55q-92 0 -148 55t-56 150v1048q0 94 56.5 149.5t147.5 55.5q92 0 147.5 -54.5t55.5 -150.5zM258 1241q0 43 -29 43q-26 0 -26 -43v-1051q0 -43 26 -43q29 0 29 43v1051z" />
    <glyph glyph-name="Ocircumflex" unicode="&#xd4;" horiz-adv-x="456" 
d="M207 1489h-115l53 252h168l56 -252h-115l-21 137h-4zM434 1241v-1048q0 -95 -56 -150t-147 -55q-92 0 -148 55t-56 150v1048q0 94 56.5 149.5t147.5 55.5q92 0 147.5 -54.5t55.5 -150.5zM258 1241q0 43 -29 43q-26 0 -26 -43v-1051q0 -43 26 -43q29 0 29 43v1051z" />
    <glyph glyph-name="Otilde" unicode="&#xd5;" horiz-adv-x="456" 
d="M383 1716v-2q0 -113 -17 -160t-57 -47q-29 0 -77 28t-64 28q-27 0 -27 -54v-2h-61v4q0 107 18 156t56 49q26 0 74.5 -25.5t66.5 -25.5q31 0 31 45v6h57zM434 1241v-1048q0 -95 -56.5 -150t-148.5 -55q-91 0 -147.5 55t-56.5 150v1048q0 94 57.5 149.5t148.5 55.5
q92 0 147.5 -54.5t55.5 -150.5zM256 1241q0 43 -27 43q-26 0 -26 -43v-1051q0 -43 26 -43q27 0 27 43v1051z" />
    <glyph glyph-name="Odieresis" unicode="&#xd6;" horiz-adv-x="456" 
d="M100 1513v191h113v-191h-113zM250 1513v191h115v-191h-115zM434 1241v-1048q0 -95 -56.5 -150t-148.5 -55q-91 0 -146.5 55t-55.5 150v1048q0 94 56.5 149.5t147.5 55.5q92 0 147.5 -54.5t55.5 -150.5zM258 1243q0 41 -29 41q-26 0 -26 -41v-1053q0 -40 26 -40
q29 0 29 40v1053z" />
    <glyph glyph-name="multiply" unicode="&#xd7;" horiz-adv-x="604" 
d="M567 543l-114 -113l-150 152l-145 -146l-115 113l145 145l-149 152l113 112l151 -151l143 145l115 -112l-145 -146z" />
    <glyph glyph-name="Oslash" unicode="&#xd8;" horiz-adv-x="456" 
d="M434 1241v-1048q0 -95 -56 -150t-147 -55q-80 0 -133 41l-8 -41l-65 18l20 88q-18 44 -18 99v1048q0 94 56.5 149.5t147.5 55.5q75 0 127 -37l9 37l67 -19l-20 -86q20 -41 20 -100zM258 1243q0 41 -29 41q-26 0 -26 -41v-489l55 231v258zM203 459v-269q0 -40 26 -40
q29 0 29 40v498z" />
    <glyph glyph-name="Ugrave" unicode="&#xd9;" horiz-adv-x="456" 
d="M168 1489l-62 252h152l27 -252h-117zM434 1434v-1241q0 -95 -56 -150t-147 -55q-92 0 -149 55t-57 150v1241h178v-1244q0 -40 26 -40q27 0 27 40v1244h178z" />
    <glyph glyph-name="Uacute" unicode="&#xda;" horiz-adv-x="456" 
d="M291 1489h-119l27 252h151zM434 1434v-1241q0 -95 -56 -150t-147 -55q-92 0 -149 55t-57 150v1241h178v-1244q0 -43 26 -43q27 0 27 43v1244h178z" />
    <glyph glyph-name="Ucircumflex" unicode="&#xdb;" horiz-adv-x="456" 
d="M205 1489h-115l53 252h168l56 -252h-115l-21 137h-4zM434 1434v-1241q0 -95 -56 -150t-147 -55q-92 0 -149 55t-57 150v1241h178v-1244q0 -43 26 -43q27 0 27 43v1244h178z" />
    <glyph glyph-name="Udieresis" unicode="&#xdc;" horiz-adv-x="456" 
d="M98 1513v191h113v-191h-113zM248 1513v191h114v-191h-114zM434 1434v-1241q0 -95 -56 -150t-147 -55q-92 0 -149 55t-57 150v1241h178v-1244q0 -40 26 -40q27 0 27 40v1244h178z" />
    <glyph glyph-name="Yacute" unicode="&#xdd;" horiz-adv-x="452" 
d="M289 1489h-119l27 252h151zM453 1434l-138 -963v-471h-178v471l-137 963h182l33 -494l8 -205h4l9 205l34 494h183z" />
    <glyph glyph-name="Thorn" unicode="&#xde;" horiz-adv-x="456" 
d="M434 946v-446q0 -97 -50 -144t-155 -47h-26v-309h-178v1434h178v-297h28q104 0 153.5 -47t49.5 -144zM256 936q0 39 -27 39h-26v-506h26q27 0 27 41v426z" />
    <glyph glyph-name="germandbls" unicode="&#xdf;" horiz-adv-x="452" 
d="M256 1245q0 39 -27 39h-4q-22 0 -22 -39v-1245h-178v1255q0 98 49.5 144.5t152.5 46.5h4q103 0 153 -46.5t50 -144.5v-305q0 -85 -15 -123.5t-65 -56.5v-4q50 -18 65 -56.5t15 -123.5v-396q0 -97 -50.5 -143.5t-154.5 -46.5h-6v162h6q27 0 27 39v446q0 41 -27 41h-6v160
h6q27 0 27 41v356z" />
    <glyph glyph-name="agrave" unicode="&#xe0;" 
d="M158 1223l-62 252h152l26 -252h-116zM195 979v-229h-170v225q0 96 53.5 150.5t142.5 54.5q88 0 142.5 -55.5t54.5 -149.5v-975h-168v121h-4q-9 -64 -39.5 -98.5t-77.5 -34.5q-104 0 -104 178v289q0 106 49 156t176 96v272q0 43 -27 43q-28 0 -28 -43zM250 559
q-35 -17 -45 -46.5t-10 -84.5v-242q0 -41 28 -41q27 0 27 43v371z" />
    <glyph glyph-name="aacute" unicode="&#xe1;" 
d="M281 1223h-119l26 252h152zM195 979v-229h-170v225q0 96 53.5 150.5t142.5 54.5q88 0 142.5 -55.5t54.5 -149.5v-975h-168v121h-4q-9 -64 -39.5 -98.5t-77.5 -34.5q-104 0 -104 178v289q0 106 49 156t176 96v272q0 43 -27 43q-28 0 -28 -43zM250 559q-35 -17 -45 -46.5
t-10 -84.5v-242q0 -41 28 -41q27 0 27 43v371z" />
    <glyph glyph-name="acircumflex" unicode="&#xe2;" 
d="M195 1223h-115l53 252h168l55 -252h-114l-21 137h-4zM195 979v-229h-170v225q0 96 53.5 150.5t142.5 54.5q88 0 142.5 -55.5t54.5 -149.5v-975h-168v121h-4q-9 -64 -39.5 -98.5t-77.5 -34.5q-104 0 -104 178v289q0 106 49 156t176 96v272q0 43 -27 43q-28 0 -28 -43z
M250 559q-35 -17 -45 -46.5t-10 -84.5v-242q0 -41 28 -41q27 0 27 43v371z" />
    <glyph glyph-name="atilde" unicode="&#xe3;" 
d="M371 1450v-2q0 -113 -17 -160t-57 -47q-29 0 -77 27.5t-64 27.5q-27 0 -27 -53v-2h-61v4q0 107 17.5 156t55.5 49q26 0 75 -25.5t67 -25.5q30 0 30 45v6h58zM195 979v-229h-170v225q0 96 53.5 150.5t142.5 54.5q86 0 141.5 -55.5t55.5 -149.5v-975h-168v121h-4
q-9 -64 -39.5 -98.5t-77.5 -34.5q-104 0 -104 178v289q0 106 49 156t176 96v272q0 43 -27 43q-28 0 -28 -43zM250 559q-35 -17 -45 -46.5t-10 -84.5v-242q0 -41 28 -41q27 0 27 43v371z" />
    <glyph glyph-name="adieresis" unicode="&#xe4;" 
d="M88 1247v191h113v-191h-113zM238 1247v191h114v-191h-114zM195 979v-229h-170v225q0 95 53 150t141 55t143.5 -55.5t55.5 -149.5v-975h-168v121h-4q-22 -133 -117 -133q-104 0 -104 178v289q0 106 49 156t176 96v272q0 43 -29 43q-26 0 -26 -43zM250 559
q-35 -17 -45 -46.5t-10 -84.5v-242q0 -41 26 -41q29 0 29 43v371z" />
    <glyph glyph-name="aring" unicode="&#xe5;" 
d="M82 1350q0 65 36 99t103 34q63 0 98 -34.5t35 -100.5q0 -65 -34.5 -99.5t-98.5 -34.5q-67 0 -103 35t-36 101zM176 1350q0 -43 45 -43q41 0 41 43t-41 43q-45 0 -45 -43zM195 979v-229h-170v225q0 96 53.5 150.5t142.5 54.5q86 0 141.5 -55.5t55.5 -149.5v-975h-168v121
h-4q-9 -64 -39.5 -98.5t-77.5 -34.5q-104 0 -104 178v289q0 106 49 156t176 96v272q0 43 -27 43q-28 0 -28 -43zM250 559q-35 -17 -45 -46.5t-10 -84.5v-242q0 -41 28 -41q27 0 27 43v371z" />
    <glyph glyph-name="ae" unicode="&#xe6;" horiz-adv-x="665" 
d="M256 127h-2q-9 -65 -42.5 -102t-82.5 -37q-104 0 -104 178v274q0 101 46 153t177 99v287q0 43 -27 43q-26 0 -26 -43v-229h-170v225q0 93 51 149t135 56q72 0 121 -52h4q46 52 119 52q84 0 135 -56t51 -149v-432h-223v-355q0 -41 26 -41q27 0 27 41v269h170v-264
q0 -94 -54 -149.5t-143 -55.5q-70 0 -120.5 37t-67.5 102zM471 979q0 43 -27 43q-26 0 -26 -43v-277h53v277zM248 545q-32 -15 -42.5 -42.5t-10.5 -88.5v-226q0 -41 26 -41q27 0 27 41v357z" />
    <glyph glyph-name="ccedilla" unicode="&#xe7;" 
d="M250 979q0 43 -27 43q-28 0 -28 -43v-791q0 -43 28 -43q27 0 27 43v310h168v-305q0 -80 -39 -132t-105 -67l-10 -37q59 0 99 -33t40 -82q0 -55 -53.5 -89t-138.5 -34q-37 0 -84 9v114q31 -8 61 -8q36 0 56 10t20 25q0 19 -26 30t-68 11l18 80q-75 11 -119 64.5t-44 138.5
v782q0 94 55.5 149.5t144.5 55.5q86 0 139.5 -55t53.5 -150v-252h-168v256z" />
    <glyph glyph-name="egrave" unicode="&#xe8;" 
d="M162 1223l-62 252h152l27 -252h-117zM248 457h170v-264q0 -95 -53.5 -150t-141.5 -55q-89 0 -143.5 55t-54.5 150v782q0 94 55 149.5t143 55.5t141.5 -55t53.5 -150v-432h-223v-355q0 -43 26 -43q27 0 27 43v269zM248 979q0 43 -27 43q-26 0 -26 -43v-277h53v277z" />
    <glyph glyph-name="eacute" unicode="&#xe9;" 
d="M285 1223h-119l27 252h151zM248 457h170v-264q0 -95 -53.5 -150t-141.5 -55q-89 0 -143.5 55t-54.5 150v782q0 94 55 149.5t143 55.5t141.5 -55t53.5 -150v-432h-223v-355q0 -43 26 -43q27 0 27 43v269zM248 979q0 41 -27 41q-26 0 -26 -41v-277h53v277z" />
    <glyph glyph-name="ecircumflex" unicode="&#xea;" 
d="M199 1223h-115l53 252h168l55 -252h-114l-21 137h-4zM248 457h170v-264q0 -95 -53.5 -150t-141.5 -55q-89 0 -143.5 55t-54.5 150v782q0 94 55 149.5t143 55.5t141.5 -55t53.5 -150v-432h-223v-355q0 -43 26 -43q27 0 27 43v269zM248 979q0 41 -27 41q-26 0 -26 -41v-277
h53v277z" />
    <glyph glyph-name="edieresis" unicode="&#xeb;" 
d="M92 1247v191h113v-191h-113zM242 1247v191h114v-191h-114zM248 457h170v-264q0 -95 -53.5 -150t-141.5 -55q-89 0 -143.5 55t-54.5 150v782q0 94 55 149.5t143 55.5t141.5 -55t53.5 -150v-432h-223v-355q0 -43 26 -43q27 0 27 43v269zM248 979q0 43 -27 43q-26 0 -26 -43
v-277h53v277z" />
    <glyph glyph-name="igrave" unicode="&#xec;" horiz-adv-x="217" 
d="M45 1223l-59 252h149l27 -252h-117zM25 0v1167h170v-1167h-170z" />
    <glyph glyph-name="iacute" unicode="&#xed;" horiz-adv-x="217" 
d="M172 1223h-117l27 252h149zM25 0v1167h170v-1167h-170z" />
    <glyph glyph-name="icircumflex" unicode="&#xee;" horiz-adv-x="217" 
d="M86 1223h-115l54 252h170l53 -252h-115l-20 137h-4zM25 0v1167h170v-1167h-170z" />
    <glyph glyph-name="idieresis" unicode="&#xef;" horiz-adv-x="217" 
d="M-23 1247v191h113v-191h-113zM127 1247v191h113v-191h-113zM25 0v1167h170v-1167h-170z" />
    <glyph glyph-name="eth" unicode="&#xf0;" horiz-adv-x="442" 
d="M49 1524q129 -30 205 -94l76 51l49 -74l-64 -43q62 -86 82.5 -207.5t20.5 -300.5v-666q0 -94 -54.5 -148t-142.5 -54t-142 55t-54 150v782q0 93 36 149t91 56q57 0 88 -64l4 2q-13 99 -45 170l-60 -41l-51 72l68 45q-51 64 -131 96zM248 979q0 43 -27 43q-26 0 -26 -43
v-791q0 -43 26 -43q27 0 27 43v791z" />
    <glyph glyph-name="ntilde" unicode="&#xf1;" 
d="M371 1450v-2q0 -113 -17 -160t-57 -47q-29 0 -77 27.5t-64 27.5q-27 0 -27 -53v-2h-61v4q0 107 17.5 156t55.5 49q26 0 75 -25.5t67 -25.5q30 0 30 45v6h58zM248 979q0 41 -27 41q-26 0 -26 -41v-981h-170v1169h170v-77h4q29 90 106 90q113 0 113 -205v-977h-170v981z
" />
    <glyph glyph-name="ograve" unicode="&#xf2;" 
d="M162 1223l-62 252h152l27 -252h-117zM418 975v-782q0 -95 -54.5 -150t-142.5 -55t-142 55t-54 150v782q0 94 55 149.5t143 55.5t141.5 -55t53.5 -150zM248 979q0 43 -27 43q-26 0 -26 -43v-791q0 -43 26 -43q27 0 27 43v791z" />
    <glyph glyph-name="oacute" unicode="&#xf3;" 
d="M285 1223h-119l27 252h151zM418 975v-782q0 -95 -54.5 -150t-142.5 -55t-142 55t-54 150v782q0 94 55 149.5t143 55.5t141.5 -55t53.5 -150zM248 979q0 41 -27 41q-26 0 -26 -41v-791q0 -43 26 -43q27 0 27 43v791z" />
    <glyph glyph-name="ocircumflex" unicode="&#xf4;" 
d="M199 1223h-115l53 252h168l55 -252h-114l-21 137h-4zM418 975v-782q0 -95 -54.5 -150t-142.5 -55t-142 55t-54 150v782q0 94 55 149.5t143 55.5t141.5 -55t53.5 -150zM248 979q0 41 -27 41q-26 0 -26 -41v-791q0 -43 26 -43q27 0 27 43v791z" />
    <glyph glyph-name="otilde" unicode="&#xf5;" 
d="M375 1450v-2q0 -113 -17 -160t-57 -47q-29 0 -77 27.5t-64 27.5q-27 0 -27 -53v-2h-61v4q0 107 17.5 156t55.5 49q26 0 75 -25.5t67 -25.5q30 0 30 45v6h58zM418 975v-782q0 -95 -54.5 -151t-142.5 -56t-142 56t-54 151v782q0 94 55 149.5t143 55.5t141.5 -55t53.5 -150z
M248 979q0 41 -27 41q-26 0 -26 -41v-791q0 -43 26 -43q27 0 27 43v791z" />
    <glyph glyph-name="odieresis" unicode="&#xf6;" 
d="M92 1247v191h113v-191h-113zM242 1247v191h114v-191h-114zM418 975v-782q0 -95 -54.5 -150t-142.5 -55t-142 55t-54 150v782q0 94 55 149.5t143 55.5t141.5 -55t53.5 -150zM248 979q0 43 -27 43q-26 0 -26 -43v-791q0 -43 26 -43q27 0 27 43v791z" />
    <glyph glyph-name="divide" unicode="&#xf7;" horiz-adv-x="684" 
d="M262 823v203h160v-203h-160zM643 776v-162h-606v162h606zM262 362v203h160v-203h-160z" />
    <glyph glyph-name="oslash" unicode="&#xf8;" 
d="M418 975v-782q0 -95 -54.5 -150t-142.5 -55q-72 0 -121 37l-10 -37l-65 18l22 82q-22 46 -22 105v782q0 94 55 149.5t143 55.5q70 0 117 -35l10 35l68 -19l-23 -80q23 -51 23 -106zM248 979q0 43 -27 43q-26 0 -26 -43v-363l53 193v170zM195 362v-174q0 -43 26 -43
q27 0 27 43v365z" />
    <glyph glyph-name="ugrave" unicode="&#xf9;" 
d="M160 1223l-62 252h152l26 -252h-116zM195 188q0 -43 26 -43q27 0 27 43v979h170v-1167h-170v78h-4q-12 -43 -39.5 -66.5t-65.5 -23.5q-114 0 -114 205v974h170v-979z" />
    <glyph glyph-name="uacute" unicode="&#xfa;" 
d="M283 1223h-119l26 252h152zM195 188q0 -43 26 -43q27 0 27 43v979h170v-1167h-170v76l-4 2q-12 -43 -39.5 -66.5t-65.5 -23.5q-114 0 -114 205v974h170v-979z" />
    <glyph glyph-name="ucircumflex" unicode="&#xfb;" 
d="M197 1223h-115l53 252h168l55 -252h-114l-21 137h-4zM195 188q0 -43 26 -43q27 0 27 43v979h170v-1167h-170v76l-4 2q-12 -43 -39.5 -66.5t-65.5 -23.5q-114 0 -114 205v974h170v-979z" />
    <glyph glyph-name="udieresis" unicode="&#xfc;" 
d="M90 1247v191h113v-191h-113zM240 1247v191h114v-191h-114zM195 188q0 -43 26 -43q27 0 27 43v979h170v-1167h-170v78h-4q-12 -43 -39.5 -66.5t-65.5 -23.5q-114 0 -114 205v974h170v-979z" />
    <glyph glyph-name="yacute" unicode="&#xfd;" horiz-adv-x="444" 
d="M283 1223h-117l27 252h149zM184 1167l37 -628l8 -232h4l9 232l37 628h167l-178 -1495h-168l41 328l-141 1167h184z" />
    <glyph glyph-name="thorn" unicode="&#xfe;" 
d="M25 1495h170v-405h4q28 90 106 90q113 0 113 -205v-782q0 -205 -113 -205q-77 0 -106 92l-4 -2v-406h-170v1823zM248 188v791q0 43 -27 43q-26 0 -26 -43v-791q0 -43 26 -43q27 0 27 43z" />
    <glyph glyph-name="ydieresis" unicode="&#xff;" horiz-adv-x="444" 
d="M92 1247v191h113v-191h-113zM244 1247v191h112v-191h-112zM186 1167l37 -628l6 -232h4l9 232l37 628h167l-178 -1495h-168l41 328l-139 1167h184z" />
    <glyph glyph-name="Amacron" unicode="&#x100;" horiz-adv-x="462" 
d="M360 1686v-164h-266v164h266zM350 1434l113 -1434h-195l-14 354h-66l-12 -354h-178l108 1434h244zM195 514h53l-17 426l-8 283h-4l-6 -283z" />
    <glyph glyph-name="amacron" unicode="&#x101;" 
d="M350 1419v-164h-266v164h266zM195 979v-229h-170v225q0 96 53.5 150.5t142.5 54.5q86 0 141.5 -55.5t55.5 -149.5v-975h-168v121h-4q-9 -64 -39.5 -98.5t-77.5 -34.5q-104 0 -104 178v289q0 74 25 120.5t69.5 73.5t130.5 58v272q0 43 -27 43q-28 0 -28 -43zM250 559
q-35 -17 -45 -46.5t-10 -84.5v-242q0 -41 28 -41q27 0 27 43v371z" />
    <glyph glyph-name="Abreve" unicode="&#x102;" horiz-adv-x="462" 
d="M59 1726h129q0 -75 41 -75t41 75h129q0 -118 -42 -170.5t-128 -52.5t-128 52.5t-42 170.5zM352 1434l111 -1434h-195l-14 354h-66l-12 -354h-176l106 1434h246zM195 514h53l-17 426l-8 283h-4l-6 -283z" />
    <glyph glyph-name="abreve" unicode="&#x103;" 
d="M49 1460h129q0 -76 41 -76t41 76h129q0 -118 -42 -170.5t-128 -52.5t-128 52.5t-42 170.5zM195 979v-229h-170v225q0 96 53.5 150.5t142.5 54.5q88 0 142.5 -55.5t54.5 -149.5v-975h-168v121h-4q-9 -64 -39.5 -98.5t-77.5 -34.5q-104 0 -104 178v289q0 106 49 156t176 96
v272q0 43 -27 43q-28 0 -28 -43zM250 559q-35 -17 -45 -46.5t-10 -84.5v-242q0 -41 28 -41q27 0 27 43v371z" />
    <glyph glyph-name="Aogonek" unicode="&#x104;" horiz-adv-x="462" 
d="M350 1434l113 -1434h-10q-32 -2 -57 -20t-25 -41q0 -37 59 -37q23 0 29 2v-150q-27 -6 -60 -6q-66 0 -104.5 33.5t-38.5 81.5q0 44 30.5 81.5t86.5 55.5h-105l-14 354h-66l-12 -354h-176l106 1434h244zM195 514h51l-17 426l-6 283h-4l-6 -283z" />
    <glyph glyph-name="aogonek" unicode="&#x105;" 
d="M195 979v-229h-170v225q0 95 53 150t141 55t142.5 -55.5t54.5 -149.5v-975h-8q-32 -2 -57 -20t-25 -41q0 -19 17 -28t42 -9q23 0 29 2v-150q-27 -6 -60 -6q-66 0 -104.5 33.5t-38.5 81.5q0 44 31 81.5t88 55.5h-82v121h-4q-19 -133 -115 -133q-104 0 -104 178v289
q0 56 12 94.5t42.5 67t68 48t100.5 42.5v272q0 43 -27 43q-26 0 -26 -43zM248 559q-34 -17 -43.5 -46.5t-9.5 -84.5v-242q0 -41 26 -41q27 0 27 43v371z" />
    <glyph glyph-name="Cacute" unicode="&#x106;" horiz-adv-x="456" 
d="M293 1489h-119l27 252h151zM256 1241q0 43 -27 43q-26 0 -26 -43v-1051q0 -43 26 -43q27 0 27 43v416h178v-413q0 -95 -56 -150t-147 -55q-92 0 -149 55t-57 150v1048q0 94 57.5 149.5t148.5 55.5q92 0 147.5 -54.5t55.5 -150.5v-350h-178v350z" />
    <glyph glyph-name="cacute" unicode="&#x107;" 
d="M285 1223h-119l27 252h151zM250 979q0 43 -27 43q-28 0 -28 -43v-791q0 -43 28 -43q27 0 27 43v310h168v-305q0 -95 -53.5 -150t-141.5 -55q-89 0 -143.5 55t-54.5 150v782q0 94 55.5 149.5t144.5 55.5q86 0 139.5 -55t53.5 -150v-252h-168v256z" />
    <glyph glyph-name="Ccircumflex" unicode="&#x108;" horiz-adv-x="456" 
d="M207 1489h-115l53 252h168l56 -252h-115l-21 137h-4zM256 1241q0 43 -27 43q-26 0 -26 -43v-1051q0 -43 26 -43q27 0 27 43v416h178v-413q0 -95 -56 -150t-147 -55q-92 0 -149 55t-57 150v1048q0 94 57.5 149.5t148.5 55.5q92 0 147.5 -54.5t55.5 -150.5v-350h-178v350z
" />
    <glyph glyph-name="ccircumflex" unicode="&#x109;" 
d="M199 1223h-115l53 252h168l55 -252h-114l-21 137h-4zM250 979q0 43 -27 43q-28 0 -28 -43v-791q0 -43 28 -43q27 0 27 43v310h168v-305q0 -95 -53.5 -150t-141.5 -55q-89 0 -143.5 55t-54.5 150v782q0 94 55.5 149.5t144.5 55.5q86 0 139.5 -55t53.5 -150v-252h-168v256z
" />
    <glyph glyph-name="Cdotaccent" unicode="&#x10a;" horiz-adv-x="456" 
d="M156 1513v191h149v-191h-149zM256 1243q0 41 -27 41q-26 0 -26 -41v-1053q0 -40 26 -40q27 0 27 40v416h178v-413q0 -95 -56 -150t-147 -55q-92 0 -149 55t-57 150v1048q0 94 57 149.5t149 55.5q91 0 147 -55t56 -150v-350h-178v352z" />
    <glyph glyph-name="cdotaccent" unicode="&#x10b;" 
d="M147 1247v191h152v-191h-152zM250 979q0 43 -27 43q-28 0 -28 -43v-791q0 -43 28 -43q27 0 27 43v310h168v-305q0 -95 -54 -150t-141 -55q-89 0 -143.5 55t-54.5 150v782q0 94 55.5 149.5t144.5 55.5q86 0 139.5 -55t53.5 -150v-252h-168v256z" />
    <glyph glyph-name="Ccaron" unicode="&#x10c;" horiz-adv-x="456" 
d="M266 1743h115l-53 -252h-168l-56 252h115l21 -137h4zM256 1241q0 43 -27 43q-26 0 -26 -43v-1051q0 -43 26 -43q27 0 27 43v416h178v-413q0 -95 -56 -150t-147 -55q-92 0 -149 55t-57 150v1048q0 94 57.5 149.5t148.5 55.5q92 0 147.5 -54.5t55.5 -150.5v-350h-178v350z
" />
    <glyph glyph-name="ccaron" unicode="&#x10d;" 
d="M258 1477h115l-54 -252h-167l-56 252h115l22 -138h5zM250 979q0 43 -27 43q-28 0 -28 -43v-791q0 -43 28 -43q27 0 27 43v310h168v-305q0 -95 -53.5 -150t-141.5 -55q-89 0 -143.5 55t-54.5 150v782q0 94 55.5 149.5t144.5 55.5q86 0 139.5 -55t53.5 -150v-252h-168v256z
" />
    <glyph glyph-name="Dcaron" unicode="&#x10e;" horiz-adv-x="456" 
d="M238 1743h114l-53 -252h-168l-55 252h114l21 -137h4zM434 1241v-1051q0 -97 -49.5 -143.5t-153.5 -46.5h-206v1434h206q105 0 154 -47.5t49 -145.5zM258 1231q0 41 -27 41h-28v-1112h28q27 0 27 41v1030z" />
    <glyph glyph-name="dcaron" unicode="&#x10f;" horiz-adv-x="591" 
d="M418 0h-170v76l-4 2q-14 -43 -41.5 -66.5t-65.5 -23.5q-112 0 -112 205v782q0 205 112 205q38 0 65.5 -24.5t41.5 -68.5l4 3v405h170v-1495zM446 1268l13 227h141l-47 -227h-107zM195 979v-791q0 -43 26 -43q27 0 27 43v791q0 41 -27 41q-26 0 -26 -41z" />
    <glyph glyph-name="Dcroat" unicode="&#x110;" horiz-adv-x="456" 
d="M434 1243v-1050q0 -97 -49.5 -145t-153.5 -48h-206v637h-27v162h27v637h206q105 0 154 -47.5t49 -145.5zM256 1233q0 41 -27 41h-26v-475h26v-162h-26v-475h26q27 0 27 41v1030z" />
    <glyph glyph-name="dcroat" unicode="&#x111;" 
d="M418 0h-170v78h-4q-13 -43 -41.5 -66.5t-65.5 -23.5q-112 0 -112 205v782q0 205 110 205q38 0 67 -23.5t42 -66.5h4v116h-55v168h55v121h170v-121h47v-168h-47v-1206zM193 979v-791q0 -43 28 -43q27 0 27 43v791q0 43 -27 43q-28 0 -28 -43z" />
    <glyph glyph-name="Emacron" unicode="&#x112;" horiz-adv-x="305" 
d="M283 1686v-164h-267v164h267zM285 1434v-160h-82v-457h71v-162h-71v-493h92v-162h-270v1434h260z" />
    <glyph glyph-name="emacron" unicode="&#x113;" 
d="M354 1419v-164h-266v164h266zM248 457h170v-264q0 -95 -54 -150t-141 -55q-89 0 -143.5 55t-54.5 150v782q0 94 55 149.5t143 55.5t141.5 -55t53.5 -150v-432h-223v-355q0 -43 26 -43q27 0 27 43v269zM248 979q0 43 -27 43q-26 0 -26 -43v-277h53v277z" />
    <glyph glyph-name="Ebreve" unicode="&#x114;" horiz-adv-x="305" 
d="M-20 1726h129q0 -75 41 -75q43 0 43 75h126q0 -119 -41.5 -171t-127.5 -52t-128 52.5t-42 170.5zM285 1434v-160h-82v-457h71v-162h-71v-493h92v-162h-270v1434h260z" />
    <glyph glyph-name="ebreve" unicode="&#x115;" 
d="M53 1460h129q0 -76 41 -76t41 76h129q0 -118 -42 -170.5t-128 -52.5t-128 52.5t-42 170.5zM248 457h170v-264q0 -95 -53.5 -150t-141.5 -55q-89 0 -143.5 55t-54.5 150v782q0 94 55 149.5t143 55.5t141.5 -55t53.5 -150v-432h-223v-355q0 -43 26 -43q27 0 27 43v269z
M248 979q0 43 -27 43q-26 0 -26 -43v-277h53v277z" />
    <glyph glyph-name="Edotaccent" unicode="&#x116;" horiz-adv-x="305" 
d="M74 1513v193h151v-193h-151zM285 1434v-160h-82v-457h71v-162h-71v-493h92v-162h-270v1434h260z" />
    <glyph glyph-name="edotaccent" unicode="&#x117;" 
d="M147 1247v191h152v-191h-152zM248 457h170v-264q0 -95 -54 -150t-141 -55q-89 0 -143.5 55t-54.5 150v782q0 94 55 149.5t143 55.5t141.5 -55t53.5 -150v-432h-223v-355q0 -43 26 -43q27 0 27 43v269zM248 979q0 43 -27 43q-26 0 -26 -43v-277h53v277z" />
    <glyph glyph-name="Eogonek" unicode="&#x118;" horiz-adv-x="305" 
d="M285 1436v-162h-82v-457h71v-162h-71v-493h92v-162h-8q-32 -2 -57 -20t-25 -41q0 -37 59 -37q23 0 29 2v-150q-27 -6 -60 -6q-68 0 -106.5 33.5t-38.5 81.5q0 44 31 81.5t88 55.5h-182v1436h260z" />
    <glyph glyph-name="eogonek" unicode="&#x119;" 
d="M319 -92v-150q-27 -6 -57 -6q-64 0 -105.5 37t-41.5 88q0 72 78 113q-76 9 -122 63t-46 140v782q0 94 55.5 149.5t144.5 55.5q86 0 139.5 -55t53.5 -150v-432h-223v-355q0 -43 28 -43q27 0 27 43v269h168v-264q0 -82 -40.5 -134.5t-109.5 -66.5q-39 -17 -39 -49
q0 -37 62 -37q5 0 14.5 1t13.5 1zM250 979q0 43 -27 43q-28 0 -28 -43v-277h55v277z" />
    <glyph glyph-name="Ecaron" unicode="&#x11a;" horiz-adv-x="305" 
d="M184 1743h115l-53 -252h-170l-53 252h114l21 -137h4zM285 1434v-162h-82v-455h71v-162h-71v-493h92v-162h-270v1434h260z" />
    <glyph glyph-name="ecaron" unicode="&#x11b;" 
d="M258 1477h115l-54 -252h-167l-56 252h115l22 -138h5zM248 457h170v-264q0 -95 -53.5 -150t-141.5 -55q-89 0 -143.5 55t-54.5 150v782q0 94 55 149.5t143 55.5t141.5 -55t53.5 -150v-432h-223v-355q0 -43 26 -43q27 0 27 43v269zM248 979q0 41 -27 41q-26 0 -26 -41v-277
h53v277z" />
    <glyph glyph-name="Gcircumflex" unicode="&#x11c;" horiz-adv-x="456" 
d="M209 1489h-115l53 252h168l56 -252h-115l-20 137h-5zM229 756h205v-756h-178v82h-4q-13 -45 -40.5 -69.5t-61.5 -24.5q-56 0 -90.5 55t-34.5 150v1048q0 94 57.5 149.5t148.5 55.5t147 -55t56 -150v-350h-178v350q0 43 -27 43q-28 0 -28 -43v-1057q0 -41 28 -41
q27 0 27 45v406h-27v162z" />
    <glyph glyph-name="gcircumflex" unicode="&#x11d;" 
d="M207 1223h-115l53 252h168l56 -252h-115l-21 137h-4zM418 1167v-1302q0 -95 -54.5 -150t-142.5 -55q-87 0 -141.5 53.5t-54.5 143.5v84h170v-80q0 -43 26 -43q27 0 27 43v217h-4q-14 -43 -41.5 -66.5t-65.5 -23.5q-112 0 -112 205v782q0 205 114 205q77 0 105 -90h4v77
h170zM195 188q0 -43 26 -43q27 0 27 43v791q0 41 -27 41q-26 0 -26 -41v-791z" />
    <glyph glyph-name="Gbreve" unicode="&#x11e;" horiz-adv-x="456" 
d="M61 1726h129q0 -75 41 -75t41 75h129q0 -118 -42 -170.5t-128 -52.5t-128 52.5t-42 170.5zM229 756h205v-756h-178v82h-4q-13 -45 -40.5 -69.5t-61.5 -24.5q-56 0 -90.5 55t-34.5 150v1048q0 94 57.5 149.5t148.5 55.5t147 -55t56 -150v-350h-178v352q0 41 -27 41
q-28 0 -28 -41v-1059q0 -41 28 -41q27 0 27 45v406h-27v162z" />
    <glyph glyph-name="gbreve" unicode="&#x11f;" 
d="M61 1460h129q0 -76 41 -76t41 76h129q0 -118 -42 -170.5t-128 -52.5t-128 52.5t-42 170.5zM418 1167v-1302q0 -95 -54.5 -150t-142.5 -55q-87 0 -141.5 53.5t-54.5 143.5v84h170v-80q0 -43 26 -43q27 0 27 43v217h-4q-14 -43 -41.5 -66.5t-65.5 -23.5q-112 0 -112 205
v782q0 205 114 205q77 0 105 -90h4v77h170zM195 188q0 -43 26 -43q27 0 27 43v791q0 43 -27 43q-26 0 -26 -43v-791z" />
    <glyph glyph-name="Gdotaccent" unicode="&#x120;" horiz-adv-x="456" 
d="M158 1513v191h149v-191h-149zM227 756h207v-756h-178v82h-4q-31 -94 -102 -94q-57 0 -91 54.5t-34 150.5v1048q0 94 56.5 149.5t147.5 55.5q92 0 148.5 -55t56.5 -150v-350h-178v352q0 41 -29 41q-26 0 -26 -41v-1059q0 -41 26 -41q29 0 29 45v406h-29v162z" />
    <glyph glyph-name="gdotaccent" unicode="&#x121;" 
d="M156 1247v191h151v-191h-151zM418 1167v-1302q0 -95 -54.5 -150t-142.5 -55t-142 53.5t-54 143.5v84h170v-80q0 -43 26 -43q27 0 27 43v217h-4q-14 -43 -41.5 -66.5t-65.5 -23.5q-112 0 -112 205v782q0 205 112 205q38 0 65.5 -23.5t41.5 -66.5h4v77h170zM195 188
q0 -43 26 -43q27 0 27 43v791q0 43 -27 43q-26 0 -26 -43v-791z" />
    <glyph glyph-name="uni0122" unicode="&#x122;" horiz-adv-x="456" 
d="M229 756h205v-756h-178v82h-4q-13 -45 -40.5 -69.5t-61.5 -24.5q-56 0 -90.5 55t-34.5 150v1048q0 94 57.5 149.5t148.5 55.5t147 -55t56 -150v-350h-178v352q0 41 -27 41q-28 0 -28 -41v-1059q0 -41 28 -41q27 0 27 45v406h-27v162zM166 -219v184h139v-184l-24 -111h-64
l25 111h-76z" />
    <glyph glyph-name="uni0123" unicode="&#x123;" 
d="M301 1386v-184h-139v184l24 111h64l-25 -111h76zM418 1167v-1302q0 -95 -54.5 -150t-142.5 -55q-87 0 -141.5 53.5t-54.5 143.5v84h170v-80q0 -43 26 -43q27 0 27 43v217h-4q-14 -43 -41.5 -66.5t-65.5 -23.5q-112 0 -112 205v782q0 205 112 205q79 0 107 -90h4v77h170z
M195 188q0 -43 26 -43q27 0 27 43v791q0 41 -27 41q-26 0 -26 -41v-791z" />
    <glyph glyph-name="Hcircumflex" unicode="&#x124;" horiz-adv-x="456" 
d="M205 1491h-115l53 250h168l56 -250h-115l-21 135h-4zM434 1434v-1434h-176v635h-55v-635h-176v1434h176v-637h55v637h176z" />
    <glyph glyph-name="hcircumflex" unicode="&#x125;" 
d="M86 1550h-115l54 252h168l55 -252h-115l-20 138h-4zM248 979q0 41 -27 41q-26 0 -26 -41v-979h-170v1495h170v-405h4q28 90 106 90q113 0 113 -205v-975h-170v979z" />
    <glyph glyph-name="Hbar" unicode="&#x126;" horiz-adv-x="456" 
d="M434 1436v-240h29v-162h-29v-1034h-176v635h-55v-635h-176v1034h-29v162h29v240h176v-240h55v240h176zM203 797h55v237h-55v-237z" />
    <glyph glyph-name="hbar" unicode="&#x127;" 
d="M248 979q0 43 -27 43q-26 0 -26 -43v-979h-170v1206h-52v168h52v121h170v-121h51v-168h-51v-116h4q28 90 106 90q113 0 113 -205v-975h-170v979z" />
    <glyph glyph-name="Itilde" unicode="&#x128;" horiz-adv-x="225" 
d="M262 1716v-2q0 -114 -16 -160.5t-56 -46.5q-28 0 -76 28t-65 28q-26 0 -26 -54v-2h-62v4q0 107 18 156t58 49q25 0 72.5 -25.5t64.5 -25.5q31 0 31 45v6h57zM203 1434v-1436h-178v1436h178z" />
    <glyph glyph-name="itilde" unicode="&#x129;" horiz-adv-x="217" 
d="M258 1450v-2q0 -114 -16 -160.5t-56 -46.5q-28 0 -76.5 27.5t-64.5 27.5q-27 0 -27 -53v-2h-61v4q0 107 18 156t58 49q25 0 72.5 -25.5t64.5 -25.5q31 0 31 45v6h57zM25 -2v1169h170v-1169h-170z" />
    <glyph glyph-name="Imacron" unicode="&#x12a;" horiz-adv-x="225" 
d="M246 1686v-164h-266v164h266zM203 1434v-1434h-178v1434h178z" />
    <glyph glyph-name="imacron" unicode="&#x12b;" horiz-adv-x="217" 
d="M242 1419v-164h-267v164h267zM25 0v1167h170v-1167h-170z" />
    <glyph glyph-name="Ibreve" unicode="&#x12c;" horiz-adv-x="225" 
d="M-57 1726h129q0 -75 41 -75t41 75h129q0 -118 -42 -170.5t-128 -52.5t-128 52.5t-42 170.5zM203 1434v-1434h-178v1434h178z" />
    <glyph glyph-name="ibreve" unicode="&#x12d;" horiz-adv-x="217" 
d="M-61 1460h129q0 -76 41 -76t41 76h129q0 -118 -42 -170.5t-128 -52.5t-128 52.5t-42 170.5zM25 0v1167h170v-1167h-170z" />
    <glyph glyph-name="Iogonek" unicode="&#x12e;" horiz-adv-x="225" 
d="M201 1434v-1434h-6q-32 -2 -57 -20t-25 -41q0 -37 59 -37q23 0 29 2v-150q-27 -6 -60 -6q-69 0 -108 33.5t-39 81.5q0 44 32 81.5t89 55.5h-90v1434h176z" />
    <glyph glyph-name="iogonek" unicode="&#x12f;" horiz-adv-x="217" 
d="M25 1208v211h168v-211h-168zM25 0v1167h168v-1167h-7q-32 -2 -57 -20t-25 -41q0 -37 60 -37q23 0 29 2v-150q-27 -6 -60 -6q-68 0 -107.5 33.5t-39.5 81.5q0 44 31.5 81.5t88.5 55.5h-81z" />
    <glyph glyph-name="Idotaccent" unicode="&#x130;" horiz-adv-x="225" 
d="M39 1513v191h151v-191h-151zM203 1434v-1434h-178v1434h178z" />
    <glyph glyph-name="dotlessi" unicode="&#x131;" horiz-adv-x="217" 
d="M25 0v1167h170v-1167h-170z" />
    <glyph glyph-name="IJ" unicode="&#x132;" horiz-adv-x="681" 
d="M203 1434v-1434h-178v1434h178zM662 1434v-1241q0 -95 -57 -150t-148 -55q-92 0 -149.5 55t-57.5 150v413h178v-416q0 -40 29 -40q26 0 26 40v1244h179z" />
    <glyph glyph-name="ij" unicode="&#x133;" horiz-adv-x="436" 
d="M25 1208v211h170v-211h-170zM412 1419v-211h-170v211h170zM25 0v1167h170v-1167h-170zM412 1167v-1294q0 -52 -2.5 -86t-11.5 -59t-20 -38t-34.5 -20.5t-47.5 -9.5t-67 -2h-41v152q38 0 46 8.5t8 38.5v1310h170z" />
    <glyph glyph-name="Jcircumflex" unicode="&#x134;" horiz-adv-x="456" 
d="M322 1489h-115l53 252h168l55 -252h-114l-21 137h-4zM434 1434v-1241q0 -95 -56 -150t-147 -55q-92 0 -149 55t-57 150v413h178v-416q0 -43 26 -43q27 0 27 43v1244h178z" />
    <glyph glyph-name="jcircumflex" unicode="&#x135;" horiz-adv-x="219" 
d="M84 1223h-115l56 252h168l55 -252h-115l-22 137h-5zM195 1167v-1296q0 -52 -2.5 -85.5t-11.5 -58.5t-20 -38t-34.5 -20.5t-47.5 -9t-67 -1.5h-41v152q39 0 47.5 8t8.5 39v1310h168z" />
    <glyph glyph-name="uni0136" unicode="&#x136;" horiz-adv-x="468" 
d="M467 1434l-111 -656v-4l111 -774h-180l-80 670h-4v-670h-178v1434h178v-590h4l80 590h180zM174 -219v184h139v-184l-24 -111h-64l25 111h-76z" />
    <glyph glyph-name="uni0137" unicode="&#x137;" horiz-adv-x="454" 
d="M451 1165l-111 -530v-4l111 -631h-172l-80 557h-4v-557h-170v1493h170v-817h4l80 489h172zM166 -219v184h139v-184l-24 -111h-64l25 111h-76z" />
    <glyph glyph-name="kgreenlandic" unicode="&#x138;" horiz-adv-x="454" 
d="M453 1165l-111 -530v-4l111 -631h-172l-82 557h-4v-557h-170v1165h170v-489h4l82 489h172z" />
    <glyph glyph-name="Lacute" unicode="&#x139;" horiz-adv-x="299" 
d="M174 1489h-117l27 252h149zM25 1434h178v-1274h86v-160h-264v1434z" />
    <glyph glyph-name="lacute" unicode="&#x13a;" horiz-adv-x="217" 
d="M170 1550h-117l27 252h149zM25 0v1495h170v-1495h-170z" />
    <glyph glyph-name="uni013B" unicode="&#x13b;" horiz-adv-x="299" 
d="M25 1434h178v-1272h86v-162h-264v1434zM86 -219v184h139v-184l-26 -111h-62l25 111h-76z" />
    <glyph glyph-name="uni013C" unicode="&#x13c;" horiz-adv-x="217" 
d="M25 0v1495h170v-1495h-170zM39 -219v184h141v-184l-26 -111h-64l25 111h-76z" />
    <glyph glyph-name="Lcaron" unicode="&#x13d;" horiz-adv-x="299" 
d="M25 1434h178v-1274h86v-160h-264v1434zM229 1206l13 228h143l-49 -228h-107z" />
    <glyph glyph-name="lcaron" unicode="&#x13e;" horiz-adv-x="370" 
d="M25 0v1495h170v-1495h-170zM223 1268l13 227h143l-49 -227h-107z" />
    <glyph glyph-name="Ldot" unicode="&#x13f;" horiz-adv-x="389" 
d="M25 1434h178v-1272h86v-162h-264v1434zM227 623v190h152v-190h-152z" />
    <glyph glyph-name="ldot" unicode="&#x140;" horiz-adv-x="409" 
d="M25 0v1495h170v-1495h-170zM236 649v191h151v-191h-151z" />
    <glyph glyph-name="Lslash" unicode="&#x141;" horiz-adv-x="307" 
d="M25 1434h178v-592l26 10l64 -156l-90 -37v-497h86v-162h-264v588l-29 -13l-64 156l93 39v664z" />
    <glyph glyph-name="lslash" unicode="&#x142;" horiz-adv-x="217" 
d="M25 0v608l-29 -12l-64 156l93 39v704h170v-633l30 15l64 -156l-94 -41v-680h-170z" />
    <glyph glyph-name="Nacute" unicode="&#x143;" horiz-adv-x="550" 
d="M336 1489h-117l27 252h149zM526 1434v-1434h-227l-139 1137h-4l26 -471l11 -666h-168v1434h225l141 -1137h4l-28 465l-9 672h168z" />
    <glyph glyph-name="nacute" unicode="&#x144;" 
d="M281 1223h-119l26 252h152zM248 979q0 41 -27 41q-26 0 -26 -41v-979h-170v1167h170v-77h4q28 90 106 90q113 0 113 -205v-975h-170v979z" />
    <glyph glyph-name="uni0145" unicode="&#x145;" horiz-adv-x="550" 
d="M526 1434v-1434h-227l-139 1137h-4l26 -471l11 -666h-168v1434h225l141 -1135h4l-28 463l-9 672h168zM207 -219v184h141v-184l-26 -111h-64l25 111h-76z" />
    <glyph glyph-name="uni0146" unicode="&#x146;" 
d="M248 979q0 43 -27 43q-26 0 -26 -43v-979h-170v1167h170v-77h4q28 90 104 90q115 0 115 -205v-975h-170v979zM152 -219v184h139v-184l-25 -111h-63l24 111h-75z" />
    <glyph glyph-name="Ncaron" unicode="&#x147;" horiz-adv-x="550" 
d="M311 1743h115l-53 -252h-168l-55 252h114l23 -137h4zM526 1434v-1434h-227l-139 1137h-4l26 -471l11 -666h-168v1434h225l141 -1137h4l-28 465l-9 672h168z" />
    <glyph glyph-name="ncaron" unicode="&#x148;" 
d="M254 1477h115l-54 -252h-168l-55 252h115l22 -138h4zM248 979q0 41 -27 41q-26 0 -26 -41v-979h-170v1167h170v-77h4q28 90 106 90q113 0 113 -205v-975h-170v979z" />
    <glyph glyph-name="napostrophe" unicode="&#x149;" horiz-adv-x="684" 
d="M37 0v1434h610v-1434h-610zM197 1317l145 -443l143 443h-288zM395 719l135 -412v832zM154 1133v-838l137 424zM344 561l-145 -444h293z" />
    <glyph glyph-name="Eng" unicode="&#x14a;" horiz-adv-x="657" 
d="M25 0v1434h608v-1434h-608zM182 1317l146 -440l143 440h-289zM381 719l135 -410v828zM141 1133v-836l138 422zM330 561l-144 -444h291z" />
    <glyph glyph-name="eng" unicode="&#x14b;" horiz-adv-x="657" 
d="M25 0v1434h608v-1434h-608zM182 1317l146 -440l143 440h-289zM381 719l135 -410v828zM141 1133v-836l138 422zM330 561l-144 -444h291z" />
    <glyph glyph-name="Omacron" unicode="&#x14c;" horiz-adv-x="456" 
d="M362 1686v-164h-266v164h266zM434 1241v-1048q0 -95 -56.5 -150t-148.5 -55q-91 0 -147.5 55t-56.5 150v1048q0 94 57.5 149.5t148.5 55.5q92 0 147.5 -54.5t55.5 -150.5zM256 1243q0 41 -27 41q-26 0 -26 -41v-1053q0 -40 26 -40q27 0 27 40v1053z" />
    <glyph glyph-name="omacron" unicode="&#x14d;" 
d="M354 1419v-164h-266v164h266zM418 975v-782q0 -95 -54.5 -150t-142.5 -55t-142 55t-54 150v782q0 94 54.5 149.5t143.5 55.5q88 0 141.5 -55t53.5 -150zM248 979q0 43 -27 43q-26 0 -26 -43v-791q0 -43 26 -43q27 0 27 43v791z" />
    <glyph glyph-name="Obreve" unicode="&#x14e;" horiz-adv-x="456" 
d="M61 1726h129q0 -75 41 -75t41 75h129q0 -118 -42 -170.5t-128 -52.5t-128 52.5t-42 170.5zM434 1241v-1048q0 -95 -56 -150t-147 -55q-92 0 -148 55t-56 150v1048q0 94 56.5 149.5t147.5 55.5q92 0 147.5 -54.5t55.5 -150.5zM258 1243q0 41 -29 41q-26 0 -26 -41v-1053
q0 -40 26 -40q29 0 29 40v1053z" />
    <glyph glyph-name="obreve" unicode="&#x14f;" 
d="M53 1460h129q0 -76 41 -76t41 76h129q0 -118 -42 -170.5t-128 -52.5t-128 52.5t-42 170.5zM418 975v-782q0 -95 -54 -150t-143 -55q-88 0 -142 55t-54 150v782q0 94 55 149.5t143 55.5t141.5 -55t53.5 -150zM248 979q0 43 -27 43q-26 0 -26 -43v-791q0 -43 26 -43
q27 0 27 43v791z" />
    <glyph glyph-name="Ohungarumlaut" unicode="&#x150;" horiz-adv-x="456" 
d="M203 1489h-119l27 252h151zM383 1489h-119l27 252h151zM434 1241v-1048q0 -95 -56 -150t-147 -55q-92 0 -148 55t-56 150v1048q0 94 56.5 149.5t147.5 55.5q92 0 147.5 -54.5t55.5 -150.5zM258 1241q0 43 -29 43q-26 0 -26 -43v-1051q0 -43 26 -43q29 0 29 43v1051z" />
    <glyph glyph-name="ohungarumlaut" unicode="&#x151;" 
d="M195 1223h-119l26 252h152zM375 1223h-119l27 252h151zM418 975v-782q0 -95 -54.5 -150t-142.5 -55t-142 55t-54 150v782q0 94 55 149.5t143 55.5t141.5 -55t53.5 -150zM248 979q0 41 -27 41q-26 0 -26 -41v-791q0 -43 26 -43q27 0 27 43v791z" />
    <glyph glyph-name="OE" unicode="&#x152;" horiz-adv-x="536" 
d="M506 1434v-162h-72v-457h82v-160h-82v-493h92v-162h-297q-91 0 -147.5 55t-56.5 150v1024q0 94 57.5 149.5t148.5 55.5h275zM256 1272h-27q-26 0 -26 -43v-1024q0 -43 26 -43h27v1110z" />
    <glyph glyph-name="oe" unicode="&#x153;" horiz-adv-x="665" 
d="M471 457h170v-264q0 -93 -51.5 -149t-134.5 -56q-74 0 -119 51h-4q-45 -51 -119 -51q-84 0 -136 56t-52 149v782q0 91 52.5 148t137.5 57q74 0 117 -52h4q46 52 119 52q85 0 135.5 -56t50.5 -149v-432h-223v-355q0 -43 26 -43q27 0 27 43v269zM248 979q0 43 -27 43
q-26 0 -26 -43v-791q0 -43 26 -43q27 0 27 43v791zM471 979q0 43 -27 43q-26 0 -26 -43v-277h53v277z" />
    <glyph glyph-name="Racute" unicode="&#x154;" horiz-adv-x="456" 
d="M258 1489h-119l27 252h151zM256 606q0 22 -6 30.5t-21 8.5h-26v-645h-178v1434h206q103 0 153 -47t50 -146v-332q0 -85 -15 -123.5t-65 -56.5v-4q50 -18 65 -56.5t15 -125.5v-357q0 -67 4.5 -102t20.5 -80v-4h-183q-20 81 -20 184v422zM256 1231q0 41 -27 41h-26v-465h26
q27 0 27 41v383z" />
    <glyph glyph-name="racute" unicode="&#x155;" 
d="M283 1223h-119l26 252h152zM250 979q0 43 -27 43q-28 0 -28 -43v-979h-170v1167h170v-77h4q28 90 106 90q113 0 113 -205v-287h-168v291z" />
    <glyph glyph-name="uni0156" unicode="&#x156;" horiz-adv-x="456" 
d="M256 606q0 41 -27 41h-26v-647h-178v1434h206q103 0 153 -46.5t50 -144.5v-334q0 -85 -15 -123.5t-65 -56.5v-4q50 -18 65 -56.5t15 -123.5v-359q0 -66 4.5 -102t20.5 -80v-4h-183q-20 81 -20 186v420zM256 1233q0 22 -6 30.5t-21 8.5h-26v-465h26q27 0 27 41v385z
M172 -219v184h139v-184l-24 -111h-64l25 111h-76z" />
    <glyph glyph-name="uni0157" unicode="&#x157;" 
d="M250 979q0 43 -27 43q-30 0 -30 -43v-979h-168v1167h168v-77h4q32 90 108 90q113 0 113 -205v-287h-168v291zM39 -219v184h141v-184l-26 -111h-64l25 111h-76z" />
    <glyph glyph-name="Rcaron" unicode="&#x158;" horiz-adv-x="456" 
d="M231 1743h115l-53 -252h-168l-55 252h114l21 -137h4zM256 606q0 22 -6 30.5t-21 8.5h-26v-645h-178v1434h206q103 0 153 -47t50 -146v-332q0 -85 -15 -123.5t-65 -56.5v-4q50 -18 65 -56.5t15 -125.5v-357q0 -67 4.5 -102t20.5 -80v-4h-183q-20 81 -20 184v422zM256 1231
q0 41 -27 41h-26v-465h26q27 0 27 41v383z" />
    <glyph glyph-name="rcaron" unicode="&#x159;" 
d="M256 1477h115l-54 -252h-167l-56 252h115l22 -138h5zM250 979q0 43 -27 43q-28 0 -28 -43v-979h-170v1167h170v-77h4q28 90 106 90q113 0 113 -205v-287h-168v291z" />
    <glyph glyph-name="Sacute" unicode="&#x15a;" horiz-adv-x="448" 
d="M289 1489h-119l27 252h151zM430 440v-247q0 -95 -56.5 -150t-148.5 -55t-148.5 55t-56.5 150v311h179v-314q0 -40 26 -40q29 0 29 40v250q0 45 -17.5 96t-35.5 83t-54 92q-41 67 -62.5 107t-43 107.5t-21.5 131.5v184q0 94 57.5 149.5t149.5 55.5t147.5 -54.5
t55.5 -150.5v-248h-176v250q0 41 -29 41q-26 0 -26 -41v-186q0 -45 17 -95.5t35 -84t54 -91.5q31 -53 46 -80t37.5 -76t32 -95t9.5 -95z" />
    <glyph glyph-name="sacute" unicode="&#x15b;" horiz-adv-x="432" 
d="M281 1223h-119l26 252h152zM414 385v-192q0 -95 -54.5 -150t-142.5 -55q-89 0 -144 55t-55 150v219h170v-224q0 -43 29 -43q27 0 27 43v197q0 41 -25 83t-72 99q-43 54 -63.5 82t-43 83t-22.5 108v135q0 94 56 149.5t145 55.5q88 0 141.5 -55t53.5 -150v-164h-170v168
q0 43 -27 43q-29 0 -29 -43v-139q0 -32 16 -67t33 -57.5t50 -62.5q40 -48 62 -79.5t43.5 -84t21.5 -104.5z" />
    <glyph glyph-name="Scircumflex" unicode="&#x15c;" horiz-adv-x="448" 
d="M203 1489h-115l53 252h170l54 -252h-115l-21 137h-4zM430 440v-247q0 -95 -56.5 -150t-148.5 -55t-148.5 55t-56.5 150v311h179v-314q0 -40 26 -40q29 0 29 40v250q0 45 -17.5 96t-35.5 83t-54 92q-41 67 -62.5 107t-43 107.5t-21.5 131.5v184q0 94 57.5 149.5
t149.5 55.5t147.5 -54.5t55.5 -150.5v-248h-176v250q0 41 -29 41q-26 0 -26 -41v-186q0 -45 17 -95.5t35 -84t54 -91.5q31 -53 46 -80t37.5 -76t32 -95t9.5 -95z" />
    <glyph glyph-name="scircumflex" unicode="&#x15d;" horiz-adv-x="432" 
d="M193 1223h-115l55 252h170l53 -252h-114l-23 137h-4zM414 385v-192q0 -95 -54.5 -150t-142.5 -55q-89 0 -144 55t-55 150v219h170v-224q0 -43 29 -43q27 0 27 43v197q0 41 -25 83t-72 99q-43 54 -63.5 82t-43 83t-22.5 108v135q0 94 56 149.5t145 55.5q88 0 141.5 -55
t53.5 -150v-164h-170v168q0 43 -27 43q-29 0 -29 -43v-139q0 -32 16 -67t33 -57.5t50 -62.5q40 -48 62 -79.5t43.5 -84t21.5 -104.5z" />
    <glyph glyph-name="Scedilla" unicode="&#x15e;" horiz-adv-x="448" 
d="M430 440v-247q0 -83 -43.5 -136t-116.5 -65l-10 -35q60 0 99.5 -32.5t39.5 -82.5q0 -55 -53 -89t-137 -34q-39 0 -86 9v114q31 -8 63 -8q34 0 54 10t20 25q0 19 -25.5 30t-68.5 11l18 80q-75 12 -119.5 65t-44.5 138v311h177v-314q0 -40 28 -40q29 0 29 40v250
q0 45 -19 98t-33.5 79t-54.5 94q-41 67 -62.5 107t-43 107.5t-21.5 131.5v184q0 94 57.5 149.5t149.5 55.5t147.5 -54.5t55.5 -150.5v-248h-176v250q0 41 -29 41q-28 0 -28 -41v-186q0 -45 18 -96.5t35.5 -82.5t54.5 -92q31 -53 46 -80t37.5 -76t32 -95t9.5 -95z" />
    <glyph glyph-name="scedilla" unicode="&#x15f;" horiz-adv-x="432" 
d="M414 385v-192q0 -81 -41.5 -134t-110.5 -67l-10 -35q60 0 99.5 -32.5t39.5 -82.5q0 -55 -53.5 -89t-138.5 -34q-41 0 -84 9v114q27 -8 61 -8q35 0 55.5 10t20.5 25q0 19 -26.5 30t-69.5 11l18 82q-71 12 -113.5 65t-42.5 136v219h170v-224q0 -43 29 -43q27 0 27 43v197
q0 41 -25 83t-72 99q-43 54 -63.5 82t-43 83t-22.5 108v135q0 94 56 149.5t145 55.5q88 0 141.5 -55t53.5 -150v-164h-170v168q0 43 -27 43q-29 0 -29 -43v-139q0 -32 16 -67t33 -57.5t50 -62.5q31 -39 46 -59.5t38 -58t33 -74.5t10 -76z" />
    <glyph glyph-name="Scaron" unicode="&#x160;" horiz-adv-x="448" 
d="M262 1743h115l-53 -252h-168l-56 252h115l21 -137h4zM430 440v-247q0 -95 -56.5 -150t-148.5 -55t-148.5 55t-56.5 150v311h179v-314q0 -40 26 -40q29 0 29 40v250q0 45 -17.5 96t-35.5 83t-54 92q-41 67 -62.5 107t-43 107.5t-21.5 131.5v184q0 94 57.5 149.5
t149.5 55.5t147.5 -54.5t55.5 -150.5v-248h-176v250q0 41 -29 41q-26 0 -26 -41v-186q0 -45 17 -95.5t35 -84t54 -91.5q31 -53 46 -80t37.5 -76t32 -95t9.5 -95z" />
    <glyph glyph-name="scaron" unicode="&#x161;" horiz-adv-x="432" 
d="M256 1477h115l-54 -252h-172l-53 252h115l22 -138h4zM414 385v-192q0 -95 -54.5 -150t-142.5 -55q-89 0 -144 55t-55 150v219h170v-224q0 -43 29 -43q27 0 27 43v197q0 41 -25 83t-72 99q-43 54 -63.5 82t-43 83t-22.5 108v135q0 94 56 149.5t145 55.5q88 0 141.5 -55
t53.5 -150v-164h-170v168q0 43 -27 43q-29 0 -29 -43v-139q0 -32 16 -67t33 -57.5t50 -62.5q40 -48 62 -79.5t43.5 -84t21.5 -104.5z" />
    <glyph glyph-name="uni0162" unicode="&#x162;" horiz-adv-x="405" 
d="M395 1434v-162h-102v-1272h-41l-12 -43q60 0 99.5 -32.5t39.5 -82.5q0 -55 -53.5 -89t-139.5 -34q-40 0 -84 9v114q27 -8 64 -8q33 0 53.5 10t20.5 25q0 19 -26.5 30t-68.5 11l19 90h-49v1272h-103v162h383z" />
    <glyph glyph-name="uni0163" unicode="&#x163;" horiz-adv-x="290" 
d="M47 1393h168v-226h66v-153h-66v-815q0 -30 10.5 -38.5t55.5 -8.5v-152h-52l-12 -43q59 0 99 -33t40 -82q0 -55 -53.5 -89t-138.5 -34q-40 0 -84 9v114q27 -8 61 -8q35 0 55.5 10t20.5 25q0 19 -26 30t-68 11l20 92q-59 7 -77.5 43t-18.5 137v832h-37v153h37v226z" />
    <glyph glyph-name="Tcaron" unicode="&#x164;" horiz-adv-x="405" 
d="M240 1743h114l-53 -252h-170l-53 252h115l22 -137h4zM395 1434v-162h-102v-1272h-178v1272h-103v162h383z" />
    <glyph glyph-name="tcaron" unicode="&#x165;" horiz-adv-x="380" 
d="M233 1268l13 227h141l-47 -227h-107zM47 1393h168v-226h66v-153h-66v-815q0 -30 10.5 -38.5t55.5 -8.5v-152h-52q-44 0 -67.5 1t-47.5 7.5t-34 17t-19.5 32t-11.5 50.5t-2 74v832h-37v153h37v226z" />
    <glyph glyph-name="Tbar" unicode="&#x166;" horiz-adv-x="405" 
d="M395 1434v-162h-102v-549h47v-170h-47v-553h-178v553h-47v170h47v549h-101v162h381z" />
    <glyph glyph-name="tbar" unicode="&#x167;" horiz-adv-x="290" 
d="M47 1393h168v-226h66v-153h-66v-47h66v-170h-66v-596q0 -31 10.5 -40t55.5 -9v-152h-52q-44 0 -67.5 1.5t-47.5 8t-34.5 17t-19 32t-11 50t-2.5 73.5v615h-37v170h37v47h-37v153h37v226z" />
    <glyph glyph-name="Utilde" unicode="&#x168;" horiz-adv-x="456" 
d="M381 1716v-2q0 -113 -17 -160t-57 -47q-29 0 -77 28t-64 28q-27 0 -27 -54v-2h-61v4q0 107 18 156t56 49q26 0 74.5 -25.5t66.5 -25.5q31 0 31 45v6h57zM434 1434v-1241q0 -95 -56 -150t-147 -55q-92 0 -149 55t-57 150v1241h178v-1244q0 -43 26 -43q27 0 27 43v1244h178
z" />
    <glyph glyph-name="utilde" unicode="&#x169;" 
d="M373 1450v-2q0 -113 -17 -160t-57 -47q-29 0 -77 27.5t-64 27.5q-27 0 -27 -53v-2h-61v4q0 107 17.5 156t55.5 49q26 0 75 -25.5t67 -25.5q30 0 30 45v6h58zM195 188q0 -43 26 -43q27 0 27 43v979h170v-1169h-170v78l-4 2q-12 -43 -39.5 -67.5t-65.5 -24.5
q-114 0 -114 207v974h170v-979z" />
    <glyph glyph-name="Umacron" unicode="&#x16a;" horiz-adv-x="456" 
d="M360 1686v-164h-266v164h266zM434 1434v-1241q0 -95 -56 -150t-147 -55q-93 0 -149.5 54.5t-56.5 150.5v1241h178v-1244q0 -40 26 -40q27 0 27 40v1244h178z" />
    <glyph glyph-name="umacron" unicode="&#x16b;" 
d="M352 1419v-164h-266v164h266zM195 188q0 -43 26 -43q27 0 27 43v979h170v-1167h-170v78h-4q-12 -43 -39.5 -66.5t-65.5 -23.5q-114 0 -114 205v974h170v-979z" />
    <glyph glyph-name="Ubreve" unicode="&#x16c;" horiz-adv-x="456" 
d="M59 1726h129q0 -75 41 -75t41 75h129q0 -118 -42 -170.5t-128 -52.5t-128 52.5t-42 170.5zM434 1434v-1241q0 -95 -56 -150t-147 -55q-92 0 -149 55t-57 150v1241h178v-1244q0 -40 26 -40q27 0 27 40v1244h178z" />
    <glyph glyph-name="ubreve" unicode="&#x16d;" 
d="M51 1460h129q0 -76 41 -76t41 76h129q0 -118 -42 -170.5t-128 -52.5t-128 52.5t-42 170.5zM195 188q0 -43 26 -43q27 0 27 43v979h170v-1167h-170v78h-4q-12 -43 -39.5 -66.5t-65.5 -23.5q-114 0 -114 205v974h170v-979z" />
    <glyph glyph-name="Uring" unicode="&#x16e;" horiz-adv-x="456" 
d="M92 1616q0 64 35.5 98.5t101.5 34.5q65 0 100.5 -34.5t35.5 -100.5q0 -65 -35 -99t-101 -34t-101.5 34.5t-35.5 100.5zM186 1614q0 -41 43 -41t43 41q0 43 -43 43t-43 -43zM434 1434v-1241q0 -95 -56.5 -150t-146.5 -55q-92 0 -149 55t-57 150v1241h178v-1244
q0 -40 26 -40q27 0 27 40v1244h178z" />
    <glyph glyph-name="uring" unicode="&#x16f;" 
d="M84 1350q0 65 36 99t103 34q63 0 98 -34.5t35 -100.5q0 -65 -34.5 -99.5t-98.5 -34.5q-67 0 -103 35t-36 101zM178 1350q0 -43 45 -43q41 0 41 43t-41 43q-45 0 -45 -43zM195 188q0 -43 26 -43q27 0 27 43v979h170v-1167h-170v78h-4q-12 -43 -39.5 -66.5t-65.5 -23.5
q-114 0 -114 205v974h170v-979z" />
    <glyph glyph-name="Uhungarumlaut" unicode="&#x170;" horiz-adv-x="456" 
d="M201 1489h-119l27 252h151zM381 1489h-119l27 252h151zM434 1434v-1241q0 -95 -56 -150t-147 -55q-92 0 -149 55t-57 150v1241h178v-1244q0 -43 26 -43q27 0 27 43v1244h178z" />
    <glyph glyph-name="uhungarumlaut" unicode="&#x171;" 
d="M193 1223h-119l26 252h152zM373 1223h-119l27 252h151zM195 188q0 -43 26 -43q27 0 27 43v979h170v-1167h-170v76l-4 2q-12 -43 -39.5 -66.5t-65.5 -23.5q-114 0 -114 205v974h170v-979z" />
    <glyph glyph-name="Uogonek" unicode="&#x172;" horiz-adv-x="456" 
d="M434 1434v-1241q0 -83 -43.5 -136t-116.5 -65q-21 -8 -34 -22t-13 -31q0 -37 62 -37q20 0 28 2v-150q-27 -6 -57 -6q-64 0 -105.5 37t-41.5 88q0 36 22 67.5t64 49.5q-79 11 -126.5 64t-47.5 139v1241h178v-1241q0 -43 28 -43q25 0 25 43v1241h178z" />
    <glyph glyph-name="uogonek" unicode="&#x173;" 
d="M195 188q0 -43 26 -43q27 0 27 43v979h168v-1167h-8q-32 -2 -57 -20t-25 -41q0 -19 17 -28t42 -9q23 0 29 2v-150q-27 -6 -60 -6q-66 0 -104.5 33.5t-38.5 81.5q0 44 30.5 81.5t86.5 55.5h-80v78h-4q-28 -90 -105 -90q-114 0 -114 205v974h170v-979z" />
    <glyph glyph-name="Wcircumflex" unicode="&#x174;" horiz-adv-x="729" 
d="M344 1489h-115l54 252h170l53 -252h-113l-22 137h-4zM729 1434l-80 -1434h-239l-35 981l-6 225h-4l-5 -225l-34 -981h-240l-86 1434h199l12 -940l2 -283h4l10 283l41 940h199l41 -940l10 -283h4l15 1223h192z" />
    <glyph glyph-name="wcircumflex" unicode="&#x175;" horiz-adv-x="733" 
d="M340 1223h-115l54 252h170l55 -252h-117l-20 137h-5zM547 1167h186l-96 -1167h-227l-35 758l-6 200h-4l-7 -200l-34 -758h-228l-94 1167h184l29 -968h4l8 217l47 751h187l45 -751l10 -217h2z" />
    <glyph glyph-name="Ycircumflex" unicode="&#x176;" horiz-adv-x="452" 
d="M201 1489h-115l55 252h170l54 -252h-115l-23 137h-4zM453 1434l-138 -963v-471h-178v471l-137 963h182l33 -494l8 -205h4l9 205l34 494h183z" />
    <glyph glyph-name="ycircumflex" unicode="&#x177;" horiz-adv-x="444" 
d="M197 1223h-115l55 252h168l55 -252h-114l-23 137h-4zM184 1167l37 -628l8 -232h4l9 232l37 628h167l-178 -1495h-168l41 328l-141 1167h184z" />
    <glyph glyph-name="Ydieresis" unicode="&#x178;" horiz-adv-x="452" 
d="M94 1513v191h113v-191h-113zM246 1513v191h112v-191h-112zM453 1434l-138 -963v-471h-178v471l-139 963h184l33 -494l8 -205h4l9 205l34 494h183z" />
    <glyph glyph-name="Zacute" unicode="&#x179;" horiz-adv-x="374" 
d="M254 1489h-117l27 252h149zM362 1434v-162l-169 -1110h167v-162h-348v162l170 1110h-159v162h339z" />
    <glyph glyph-name="zacute" unicode="&#x17a;" horiz-adv-x="366" 
d="M244 1223h-117l27 252h149zM354 1167v-151l-168 -864h166v-152h-340v133l170 883h-159v151h331z" />
    <glyph glyph-name="Zdotaccent" unicode="&#x17b;" horiz-adv-x="374" 
d="M119 1513v191h149v-191h-149zM362 1434v-162l-169 -1110h167v-162h-348v162l170 1110h-159v162h339z" />
    <glyph glyph-name="zdotaccent" unicode="&#x17c;" horiz-adv-x="366" 
d="M109 1247v191h149v-191h-149zM354 1167v-151l-168 -864h166v-152h-340v133l170 883h-159v151h331z" />
    <glyph glyph-name="Zcaron" unicode="&#x17d;" horiz-adv-x="374" 
d="M231 1743h113l-53 -252h-168l-55 252h114l23 -137h4zM362 1434v-162l-169 -1110h167v-162h-348v162l170 1110h-159v162h339z" />
    <glyph glyph-name="zcaron" unicode="&#x17e;" horiz-adv-x="366" 
d="M221 1477h113l-53 -252h-168l-56 252h115l23 -138h4zM354 1167v-151l-168 -864h166v-152h-340v133l170 883h-159v151h331z" />
    <glyph glyph-name="longs" unicode="&#x17f;" horiz-adv-x="684" 
d="M37 0v1434h610v-1434h-610zM197 1317l145 -443l143 443h-288zM395 719l135 -412v832zM154 1133v-838l137 424zM344 561l-145 -444h293z" />
    <glyph glyph-name="florin" unicode="&#x192;" horiz-adv-x="313" 
d="M25 -430v151q37 0 45 11t8 51v1245h-37v154h37v98q0 58 1.5 92t10 62.5t18.5 41t34 21.5t49 10.5t71 1.5h39v-151q-37 0 -45 -11t-8 -51v-114h53v-154h-53v-1229q0 -57 -2 -91.5t-10 -63t-18.5 -41t-34.5 -21.5t-49 -10.5t-71 -1.5h-38z" />
    <glyph glyph-name="AEacute" unicode="&#x1fc;" horiz-adv-x="550" 
d="M393 1489h-117l27 252h150zM518 1434v-162h-72v-457h82v-160h-82v-493h93v-162h-271v354h-65l-29 -354h-174l150 1434h368zM217 514h51v709h-4l-12 -283z" />
    <glyph glyph-name="aeacute" unicode="&#x1fd;" horiz-adv-x="665" 
d="M362 1167h-86q30 -12 56 -41h4q45 54 119 54q84 0 135 -56t51 -149v-432h-223v-355q0 -41 26 -41q27 0 27 41v269h170v-264q0 -94 -54 -149.5t-143 -55.5q-70 0 -120.5 37t-67.5 102h-2q-9 -65 -42.5 -102t-82.5 -37q-104 0 -104 178v274q0 101 46 153t177 99v287
q0 43 -27 43q-26 0 -26 -43v-229h-170v225q0 93 51 149t135 56q11 0 35 -4l24 243h152zM471 979q0 43 -27 43q-26 0 -26 -43v-277h53v277zM248 545q-32 -15 -42.5 -42.5t-10.5 -88.5v-226q0 -41 26 -41q27 0 27 41v357z" />
    <glyph glyph-name="Oslashacute" unicode="&#x1fe;" horiz-adv-x="456" 
d="M293 1489h-119l27 252h151zM434 1241v-1048q0 -95 -56 -150t-147 -55q-78 0 -133 39l-8 -39l-65 16l20 90q-18 44 -18 99v1048q0 94 56.5 149.5t147.5 55.5q71 0 127 -37l9 37l67 -19l-20 -86q20 -41 20 -100zM258 1241q0 43 -29 43q-26 0 -26 -43v-489l55 231v258z
M203 459v-269q0 -43 26 -43q29 0 29 43v498z" />
    <glyph glyph-name="oslashacute" unicode="&#x1ff;" 
d="M285 1223h-119l27 252h151zM418 975v-782q0 -95 -54.5 -150t-142.5 -55q-72 0 -121 37l-10 -37l-65 16l22 82q-22 49 -22 107v782q0 94 55 149.5t143 55.5q70 0 117 -35l10 35l68 -19l-23 -82q23 -48 23 -104zM248 979q0 41 -27 41q-26 0 -26 -41v-363l53 193v170z
M195 362v-174q0 -43 26 -43q27 0 27 43v365z" />
    <glyph glyph-name="uni0218" unicode="&#x218;" horiz-adv-x="448" 
d="M430 440v-247q0 -95 -56.5 -150t-148.5 -55t-148.5 55t-56.5 150v311h179v-314q0 -40 26 -40q29 0 29 40v250q0 45 -17.5 96t-35.5 83t-54 92q-41 67 -62.5 107t-43 107.5t-21.5 131.5v184q0 94 57.5 149.5t149.5 55.5t147.5 -54.5t55.5 -150.5v-248h-176v250
q0 41 -29 41q-26 0 -26 -41v-186q0 -45 17 -95.5t35 -84t54 -91.5q31 -53 46 -80t37.5 -76t32 -95t9.5 -95zM156 -219v184h139v-184l-25 -111h-63l24 111h-75z" />
    <glyph glyph-name="uni0219" unicode="&#x219;" horiz-adv-x="432" 
d="M414 385v-192q0 -95 -54.5 -150t-142.5 -55q-89 0 -144 55t-55 150v219h170v-224q0 -43 29 -43q27 0 27 43v197q0 41 -25 83t-72 99q-43 54 -63.5 82t-43 83t-22.5 108v135q0 94 56 149.5t145 55.5q88 0 141.5 -55t53.5 -150v-164h-170v168q0 43 -27 43q-29 0 -29 -43
v-139q0 -32 16.5 -67.5t31.5 -56.5t49 -63q41 -50 63 -80t44 -83t22 -105zM145 -219v184h140v-184l-25 -111h-63l24 111h-76z" />
    <glyph glyph-name="uni021A" unicode="&#x21a;" horiz-adv-x="405" 
d="M395 1434v-162h-102v-1272h-178v1272h-103v162h383zM133 -219v184h139v-184l-26 -111h-62l25 111h-76z" />
    <glyph glyph-name="uni021B" unicode="&#x21b;" horiz-adv-x="290" 
d="M47 1393h168v-226h66v-153h-66v-815q0 -30 10.5 -38.5t55.5 -8.5v-152h-52q-44 0 -67.5 1t-47.5 7.5t-34 17t-19.5 32t-11.5 50.5t-2 74v832h-37v153h37v226zM111 -219v184h139v-184l-25 -111h-63l24 111h-75z" />
    <glyph glyph-name="uni0237" unicode="&#x237;" horiz-adv-x="219" 
d="M195 1167v-1294q0 -52 -2.5 -86t-11.5 -59t-20 -38t-34.5 -20.5t-47.5 -9.5t-67 -2h-41v152q39 0 47.5 8.5t8.5 38.5v1310h168z" />
    <glyph glyph-name="circumflex" unicode="&#x2c6;" horiz-adv-x="352" 
d="M152 1167h-115l55 252h168l55 -252h-114l-23 138h-4z" />
    <glyph glyph-name="caron" unicode="&#x2c7;" horiz-adv-x="419" 
d="M268 1421h115l-55 -252h-168l-56 252h115l23 -137h4z" />
    <glyph glyph-name="breve" unicode="&#x2d8;" horiz-adv-x="415" 
d="M37 1405h129q0 -76 41 -76q43 0 43 76h127q0 -118 -42 -170.5t-128 -52.5t-128 52.5t-42 170.5z" />
    <glyph glyph-name="dotaccent" unicode="&#x2d9;" horiz-adv-x="225" 
d="M37 1192v190h149v-190h-149z" />
    <glyph glyph-name="ring" unicode="&#x2da;" horiz-adv-x="350" 
d="M37 1294q0 65 35 99t102 34q66 0 101.5 -34.5t35.5 -100.5q0 -65 -35 -99t-102 -34q-137 0 -137 135zM131 1292q0 -41 43 -41t43 41q0 43 -43 43t-43 -43z" />
    <glyph glyph-name="ogonek" unicode="&#x2db;" horiz-adv-x="280" 
d="M244 -8v-12q-35 0 -62.5 -19.5t-27.5 -42.5q0 -37 61 -37q5 0 15 1t14 1v-149q-27 -6 -62 -6q-66 0 -104.5 33t-38.5 81q0 61 55.5 105.5t149.5 44.5z" />
    <glyph glyph-name="tilde" unicode="&#x2dc;" horiz-adv-x="380" 
d="M342 1397v-4q0 -112 -17 -159.5t-57 -47.5q-28 0 -76 27.5t-65 27.5q-27 0 -27 -53v-2h-61v4q0 107 18 157t56 50q26 0 74.5 -27t66.5 -27q31 0 31 48v6h57z" />
    <glyph glyph-name="hungarumlaut" unicode="&#x2dd;" horiz-adv-x="503" 
d="M154 1167h-117l26 252h150zM334 1167h-117l27 252h149z" />
    <glyph glyph-name="uni03BC" unicode="&#x3bc;" horiz-adv-x="684" 
d="M37 0v1434h610v-1434h-610zM197 1317l145 -443l143 443h-288zM395 719l135 -412v832zM154 1133v-838l137 424zM344 561l-145 -444h293z" />
    <glyph glyph-name="Wgrave" unicode="&#x1e80;" horiz-adv-x="729" 
d="M309 1489l-59 252h149l27 -252h-117zM729 1434l-80 -1434h-239l-35 981l-6 227h-4l-5 -227l-34 -981h-240l-86 1434h199l12 -940l2 -283h4l10 283l41 940h199l41 -940l10 -283h4l15 1223h192z" />
    <glyph glyph-name="wgrave" unicode="&#x1e81;" horiz-adv-x="733" 
d="M305 1223l-61 252h151l27 -252h-117zM547 1167h186l-96 -1167h-227l-35 760l-6 198h-4l-7 -198l-34 -760h-228l-94 1167h184l29 -966h4l8 215l47 751h187l45 -751l10 -215h2z" />
    <glyph glyph-name="Wacute" unicode="&#x1e82;" horiz-adv-x="729" 
d="M430 1489h-117l27 252h149zM729 1434l-80 -1434h-239l-35 981l-6 225h-4l-5 -225l-34 -981h-240l-86 1434h199l12 -940l2 -283h4l10 283l41 940h199l41 -940l10 -283h4l15 1223h192z" />
    <glyph glyph-name="wacute" unicode="&#x1e83;" horiz-adv-x="733" 
d="M426 1223h-117l27 252h149zM547 1167h186l-96 -1167h-227l-35 758l-6 200h-4l-7 -200l-34 -758h-228l-94 1167h184l29 -968h4l8 217l47 751h185l47 -751l10 -217h2z" />
    <glyph glyph-name="Wdieresis" unicode="&#x1e84;" horiz-adv-x="729" 
d="M240 1513v191h110v-191h-110zM387 1513v191h113v-191h-113zM729 1434l-80 -1434h-241l-35 981l-4 227h-4l-5 -227l-34 -981h-240l-86 1434h199l12 -940l2 -283h4l10 283l41 940h199l41 -940l10 -283h4l15 1223h192z" />
    <glyph glyph-name="wdieresis" unicode="&#x1e85;" horiz-adv-x="733" 
d="M236 1247v191h110v-191h-110zM385 1247v191h113v-191h-113zM547 1167h186l-96 -1167h-227l-35 760l-6 198h-4l-7 -198l-34 -760h-228l-94 1167h184l29 -966h4l8 215l47 751h187l45 -751l10 -215h2z" />
    <glyph glyph-name="Ygrave" unicode="&#x1ef2;" horiz-adv-x="452" 
d="M164 1489l-60 252h152l27 -252h-119zM453 1434l-138 -963v-471h-178v471l-137 963h182l33 -494l8 -205h4l9 205l34 494h183z" />
    <glyph glyph-name="ygrave" unicode="&#x1ef3;" horiz-adv-x="444" 
d="M162 1225l-60 252h150l27 -252h-117zM184 1167l37 -628l8 -232h4l9 232l37 628h167l-178 -1495h-168l41 328l-141 1167h184z" />
    <glyph glyph-name="endash" unicode="&#x2013;" horiz-adv-x="915" 
d="M877 776v-162h-840v162h840z" />
    <glyph glyph-name="emdash" unicode="&#x2014;" horiz-adv-x="1406" 
d="M1368 776v-162h-1331v162h1331z" />
    <glyph glyph-name="quoteleft" unicode="&#x2018;" horiz-adv-x="251" 
d="M217 1268v-226h-178v226l41 166h90l-39 -166h86z" />
    <glyph glyph-name="quoteright" unicode="&#x2019;" horiz-adv-x="251" 
d="M37 1208v226h178v-226l-39 -166h-92l39 166h-86z" />
    <glyph glyph-name="quotesinglbase" unicode="&#x201a;" horiz-adv-x="251" 
d="M37 0v225h178v-225l-39 -166h-92l39 166h-86z" />
    <glyph glyph-name="quotedblleft" unicode="&#x201c;" horiz-adv-x="473" 
d="M217 1268v-226h-178v226l41 166h90l-39 -166h86zM436 1268v-226h-178v226l41 166h90l-39 -166h86z" />
    <glyph glyph-name="quotedblright" unicode="&#x201d;" horiz-adv-x="473" 
d="M256 1208v226h178v-226l-39 -166h-92l39 166h-86zM37 1208v226h178v-226l-39 -166h-92l39 166h-86z" />
    <glyph glyph-name="quotedblbase" unicode="&#x201e;" horiz-adv-x="471" 
d="M37 0v225h178v-225l-39 -166h-92l39 166h-86zM254 0v225h178v-225l-39 -166h-92l39 166h-86z" />
    <glyph glyph-name="dagger" unicode="&#x2020;" horiz-adv-x="497" 
d="M160 1434h178v-267h123v-161h-123v-1006h-178v1006h-123v161h123v267z" />
    <glyph glyph-name="daggerdbl" unicode="&#x2021;" horiz-adv-x="497" 
d="M37 1006v161h123v267h178v-267h123v-161h-123v-578h123v-162h-123v-266h-178v266h-123v162h123v578h-123z" />
    <glyph glyph-name="bullet" unicode="&#x2022;" horiz-adv-x="303" 
d="M39 743q0 46 33.5 79.5t79.5 33.5t79 -33.5t33 -79.5t-33 -79t-79 -33t-79.5 33t-33.5 79z" />
    <glyph glyph-name="ellipsis" unicode="&#x2026;" horiz-adv-x="774" 
d="M37 0v225h178v-225h-178zM297 0v225h178v-225h-178zM559 0v225h178v-225h-178z" />
    <glyph glyph-name="perthousand" unicode="&#x2030;" horiz-adv-x="1542" 
d="M432 1241v-424q0 -95 -54 -150t-142 -55q-89 0 -144 55t-55 150v424q0 94 55.5 149.5t143.5 55.5q89 0 142.5 -54.5t53.5 -150.5zM152 0l616 1434h174l-612 -1434h-178zM262 1245q0 43 -26 43q-29 0 -29 -43v-432q0 -43 29 -43q26 0 26 43v432zM1057 616v-423
q0 -95 -54.5 -150t-142.5 -55t-142 55t-54 150v423q0 94 55 149.5t143 55.5t141.5 -55t53.5 -150zM1505 616v-423q0 -95 -54 -150t-142 -55q-89 0 -144 55t-55 150v423q0 94 55.5 149.5t143.5 55.5q89 0 142.5 -54.5t53.5 -150.5zM887 621q0 43 -27 43q-26 0 -26 -43v-433
q0 -43 26 -43q27 0 27 43v433zM1335 621q0 43 -26 43q-29 0 -29 -43v-433q0 -43 29 -43q26 0 26 43v433z" />
    <glyph glyph-name="guilsinglleft" unicode="&#x2039;" horiz-adv-x="280" 
d="M37 588l76 246h129l-74 -246l74 -246h-129z" />
    <glyph glyph-name="guilsinglright" unicode="&#x203a;" horiz-adv-x="280" 
d="M244 588l-76 -246h-129l74 246l-74 246h129z" />
    <glyph glyph-name="fraction" unicode="&#x2044;" horiz-adv-x="495" 
d="M176 0h-139l282 1434h140z" />
    <glyph glyph-name="uni2074" unicode="&#x2074;" horiz-adv-x="378" 
d="M37 719v94l90 621h186v-603h25v-112h-25v-98h-120v98h-156zM145 831h48l16 498h-2z" />
    <glyph glyph-name="Euro" unicode="&#x20ac;" horiz-adv-x="518" 
d="M317 1243q0 41 -26 41q-27 0 -27 -41v-340h191l-21 -129h-170v-53h170l-20 -129h-150v-402q0 -43 27 -43q26 0 26 43v334h179v-331q0 -95 -56.5 -150t-148.5 -55q-91 0 -148 55t-57 150v399h-61v129h61v53h-61v129h61v338q0 94 58 149.5t149 55.5t147 -55t56 -150v-268
h-179v270z" />
    <glyph glyph-name="trademark" unicode="&#x2122;" horiz-adv-x="583" 
d="M207 1434v-72h-43v-358h-82v358h-45v72h170zM545 1434l2 -430h-80l2 276l2 80h-2l-27 -356h-110l-27 356h-2v-80l2 -276h-80v430h146l12 -324h4l14 324h144z" />
    <glyph glyph-name="minus" unicode="&#x2212;" horiz-adv-x="579" 
d="M543 776v-162h-506v162h506z" />
    <glyph glyph-name="fi" unicode="&#xfb01;" horiz-adv-x="497" 
d="M47 0v1014h-37v153h37v99q0 58 1.5 92t10 62.5t18.5 41t33.5 21.5t48.5 10.5t70 1.5h41v-152q-38 0 -46.5 -10.5t-8.5 -50.5v-115h55v-153h-55v-1014h-168zM305 1208v211h170v-211h-170zM305 0v1167h170v-1167h-170z" />
    <glyph glyph-name="fl" unicode="&#xfb02;" horiz-adv-x="497" 
d="M47 0v1014h-37v153h37v99q0 58 1.5 92t10 62.5t18.5 41t33.5 21.5t48.5 10.5t70 1.5h41v-152q-38 0 -46.5 -10.5t-8.5 -50.5v-115h55v-153h-55v-1014h-168zM305 0v1495h170v-1495h-170z" />
    <glyph glyph-name="ethbar" horiz-adv-x="309" 
d="M270 776v-162h-233v162h233z" />
    <glyph glyph-name="crossbar" horiz-adv-x="438" 
d="M334 836l65 -156l-297 -119l-65 156z" />
    <glyph glyph-name="ethbar.case" horiz-adv-x="348" 
d="M309 780v-170h-272v170h272z" />
    <glyph glyph-name="crossbar.case" horiz-adv-x="434" 
d="M330 827l65 -155l-293 -125l-65 155z" />
    <glyph glyph-name="commaccent" horiz-adv-x="231" 
d="M39 -248l12 228h142l-50 -228h-104z" />
    <glyph glyph-name="commaccent2" horiz-adv-x="217" 
d="M39 0v184h139v-184l-26 -111h-62l25 111h-76z" />
    <glyph glyph-name="commaccent3" horiz-adv-x="217" 
d="M178 184v-184h-139v184l27 111h61l-25 -111h76z" />
    <glyph glyph-name="tbarnew" horiz-adv-x="346" 
d="M307 780v-170h-270v170h270z" />
    <glyph glyph-name="ogonek2" horiz-adv-x="278" 
d="M205 -10l4 -17q-51 -16 -51 -55q0 -37 59 -37q5 0 15 1t14 1v-149q-27 -6 -58 -6q-64 0 -105.5 37t-41.5 88q0 52 42 90t122 47z" />
    <glyph glyph-name="custombarH" horiz-adv-x="538" 
d="M502 776v-162h-463v162h463z" />
    <glyph glyph-name="dotaccent2" horiz-adv-x="225" 
d="M37 1192v190h149v-190h-149z" />
    </font>
</defs>
</svg>
